<svg width="146" height="156" viewBox="0 0 146 156" fill="none" xmlns="http://www.w3.org/2000/svg">
<path d="M24.8794 46.5721V65.8072" stroke="white" stroke-width="2" stroke-linecap="round" stroke-linejoin="round"/>
<path d="M47.6636 65.8312V46.5721H89.9263" stroke="white" stroke-width="2" stroke-linecap="round" stroke-linejoin="round"/>
<path d="M24.8794 1H2.09702V23.7824H24.8794V1Z" fill="white" stroke="white" stroke-width="2" stroke-linecap="round" stroke-linejoin="round"/>
<path d="M24.8794 23.7879H2.09698V46.5703H24.8794V23.7879Z" fill="#232323" stroke="white" stroke-width="2" stroke-linecap="round" stroke-linejoin="round"/>
<path d="M47.6617 1H24.8794V23.7824H47.6617V1Z" fill="#232323" stroke="white" stroke-width="2" stroke-linecap="round" stroke-linejoin="round"/>
<path d="M47.6617 23.7879H24.8794V46.5703H47.6617V23.7879Z" fill="white" stroke="white" stroke-width="2" stroke-linecap="round" stroke-linejoin="round"/>
<path d="M47.6636 23.7879H72.0278" stroke="white" stroke-width="2" stroke-linecap="round" stroke-linejoin="round"/>
<path d="M144.8 131.42H122.017V154.203H144.8V131.42Z" fill="white" stroke="white" stroke-width="2" stroke-linecap="round" stroke-linejoin="round"/>
<path d="M122.019 131.42H99.2369V154.203H122.019V131.42Z" fill="#232323" stroke="white" stroke-width="2" stroke-linecap="round" stroke-linejoin="round"/>
<path d="M99.235 131.413H87.0907" stroke="white" stroke-width="2" stroke-linecap="round" stroke-linejoin="round"/>
<path d="M2.09698 46.5721V65.8939" stroke="white" stroke-width="2" stroke-linecap="round" stroke-linejoin="round"/>
<path d="M52.2632 109.425C51.7367 109.486 51.3491 109.947 51.3795 110.476C51.41 111.005 51.8479 111.419 52.3779 111.419C55.1306 111.419 57.7706 112.512 59.7171 114.459C61.6636 116.405 62.7571 119.045 62.7571 121.798V128.118C62.7571 130.871 61.6636 133.511 59.7171 135.457C57.7706 137.404 55.1306 138.497 52.3779 138.497H44.7911C44.2389 138.497 43.7911 138.945 43.7911 139.497V146.084H38.2044V139.551C38.2044 138.998 37.7567 138.551 37.2044 138.551H34.2545C33.7022 138.551 33.2545 138.998 33.2545 139.551V146.084H27.2474V139.656C27.2474 139.111 26.8107 138.666 26.2656 138.656L17.133 138.49V128.698H26.2474C26.7997 128.698 27.2474 128.25 27.2474 127.698V94.4027C27.2474 93.8504 26.7997 93.4027 26.2474 93.4027H17.5533V84.7114C17.7196 84.694 17.9149 84.6773 18.1376 84.6618C19.0192 84.6004 20.2096 84.5641 21.4174 84.5435C22.6212 84.523 23.8266 84.5184 24.7322 84.5189C25.1847 84.5191 25.5616 84.5206 25.8253 84.5221C25.9571 84.5228 26.0606 84.5236 26.131 84.5241L26.2111 84.5247L26.2315 84.5249L26.2365 84.525L26.2377 84.525L26.238 84.525L26.2474 83.525L26.2381 84.525C26.5049 84.5275 26.7616 84.4232 26.9512 84.2354C27.1408 84.0476 27.2474 83.7918 27.2474 83.525V76.4368H32.4119V83.3406C32.4119 83.8929 32.8597 84.3406 33.4119 84.3406H37.2081C37.7604 84.3406 38.2081 83.8929 38.2081 83.3406V76.4368H42.956V83.4457C42.956 83.998 43.4037 84.4457 43.956 84.4457H50.9618C50.9618 84.4457 50.9619 84.4457 50.9619 84.4457C52.4557 84.446 53.9347 84.7404 55.3146 85.3122C56.6946 85.8841 57.9484 86.7221 59.0045 87.7785C60.0606 88.8349 60.8983 90.089 61.4697 91.4691C62.0411 92.8493 62.3351 94.3284 62.3349 95.8222V95.8224V98.1301C62.3334 100.92 61.3065 103.613 59.4495 105.695C57.5925 107.778 55.035 109.105 52.2632 109.425ZM33.0443 105.574C33.0443 106.126 33.492 106.574 34.0443 106.574H46.8548C48.6386 106.584 50.3536 105.886 51.6229 104.632C52.893 103.378 53.6128 101.671 53.624 99.8856C53.6352 98.1007 52.9369 96.3844 51.6827 95.1143C50.4292 93.845 48.7231 93.1254 46.9393 93.1133C44.2113 93.0801 40.9856 93.0497 38.44 93.0529C37.1683 93.0545 36.0579 93.0645 35.262 93.0872C34.867 93.0985 34.5333 93.1133 34.2914 93.1334C34.1761 93.143 34.0503 93.1562 33.9403 93.1773C33.8936 93.1863 33.794 93.2067 33.686 93.2511C33.6363 93.2715 33.5217 93.3218 33.4033 93.4221C33.2893 93.5187 33.0443 93.7751 33.0443 94.1944V105.574ZM48.543 129.752C48.5633 129.752 48.5834 129.752 48.6033 129.751C49.4627 129.747 50.3136 129.578 51.11 129.254C51.9286 128.921 52.6737 128.43 53.3025 127.809C53.9314 127.188 54.4318 126.449 54.7751 125.635C55.1185 124.82 55.298 123.946 55.3036 123.063C55.3091 122.179 55.1406 121.303 54.8075 120.484C54.4744 119.665 53.9833 118.92 53.3622 118.291C52.7412 117.662 52.0024 117.162 51.188 116.819C50.3746 116.476 49.5017 116.296 48.619 116.29C45.8928 116.257 42.2481 116.227 39.2827 116.23C37.8007 116.232 36.4818 116.242 35.5304 116.265C35.0571 116.276 34.6617 116.291 34.379 116.31C34.2423 116.319 34.1064 116.331 33.9938 116.349C33.9452 116.356 33.8532 116.372 33.7552 116.404C33.7128 116.418 33.6036 116.456 33.4857 116.537C33.4033 116.594 33.0443 116.858 33.0443 117.371V128.752C33.0443 129.305 33.492 129.752 34.0443 129.752H48.543Z" fill="url(#paint0_linear_31_110)" stroke="white" stroke-width="2" stroke-linejoin="round"/>
<path d="M52.6802 110.483H48.071" stroke="white" stroke-width="2" stroke-linecap="round" stroke-linejoin="round"/>
<path d="M44.133 83.6301H25.8916" stroke="white" stroke-width="2" stroke-linecap="round" stroke-linejoin="round"/>
<path d="M44.9755 139.313H25.5155" stroke="white" stroke-width="2" stroke-linecap="round" stroke-linejoin="round"/>
<path d="M24.5494 147.141H37.2892V141.994H24.5494H21.3561H4.90863V147.141H21.3561H24.5494Z" fill="#232323" stroke="white" stroke-width="2" stroke-linecap="round" stroke-linejoin="round"/>
<path d="M25.5505 147.158H1.00003V147.772C0.997194 148.405 1.22423 149.017 1.63895 149.495C2.05367 149.973 2.62787 150.285 3.25485 150.371C3.76684 150.436 4.26079 150.602 4.70767 150.86C5.64196 151.418 6.32435 152.316 6.61219 153.365H36.1738C36.4616 152.316 37.144 151.418 38.0783 150.86C38.5247 150.6 39.0187 150.432 39.5311 150.366C40.1581 150.279 40.7323 149.968 41.147 149.49C41.5617 149.012 41.7888 148.399 41.7859 147.766V147.152L25.5505 147.158Z" fill="#232323" stroke="white" stroke-width="2" stroke-linecap="round" stroke-linejoin="round"/>
<path d="M21.393 104.303C27.37 104.303 32.2154 99.458 32.2154 93.4809C32.2154 87.5039 27.37 82.6585 21.393 82.6585C15.4159 82.6585 10.5706 87.5039 10.5706 93.4809C10.5706 99.458 15.4159 104.303 21.393 104.303Z" fill="#232323" stroke="white" stroke-width="2" stroke-linecap="round" stroke-linejoin="round"/>
<path d="M25.3514 103.71H17.4346V105.813H25.3514V103.71Z" fill="#232323" stroke="white" stroke-width="2" stroke-linecap="round" stroke-linejoin="round"/>
<path d="M29.2434 125.526C27.2915 121.066 26.8884 116.08 28.0985 111.365L28.4174 110.115C28.4174 109.879 24.2691 110.26 22.4955 110.435C20.06 110.251 14.3686 109.882 14.3686 110.115L14.6875 111.357C15.8975 116.073 15.4945 121.058 13.5426 125.519L11.863 129.353H30.9248L29.2434 125.526Z" fill="#232323" stroke="white" stroke-width="2" stroke-linecap="round" stroke-linejoin="round"/>
<path d="M29.3134 107.415C28.4023 106.916 27.5313 106.347 26.7083 105.714H16.0795C14.5818 106.865 12.9304 107.801 11.1734 108.494C10.7278 108.672 10.3459 108.979 10.077 109.377C9.80812 109.774 9.6647 110.243 9.66532 110.723H33.1206C33.1214 110.243 32.9782 109.775 32.7097 109.377C32.4412 108.98 32.0596 108.672 31.6143 108.494C30.8249 108.184 30.0563 107.824 29.3134 107.415V107.415Z" fill="#232323" stroke="white" stroke-width="2" stroke-linecap="round" stroke-linejoin="round"/>
<path d="M37.798 137.853C36.6809 137.484 35.6634 136.863 34.8242 136.039C32.0992 133.362 32.4698 129.833 32.5196 129.425H10.2756C10.3254 129.833 10.6959 133.362 7.97097 136.039C7.13224 136.864 6.11462 137.485 4.99711 137.853C3.97514 138.181 3.08281 138.823 2.44722 139.688C1.81163 140.553 1.46519 141.597 1.45724 142.67V143.854H41.3379V142.668C41.3293 141.595 40.9826 140.553 40.3471 139.688C39.7115 138.823 38.8196 138.181 37.798 137.853V137.853Z" fill="#232323" stroke="white" stroke-width="2" stroke-linecap="round" stroke-linejoin="round"/>
<path d="M114.628 74.9998H83.4402V80.7687H114.628V74.9998Z" fill="#232323" stroke="white" stroke-width="2" stroke-linecap="round" stroke-linejoin="round"/>
<path d="M108.127 94.6074H107.203H104.7H104.324H76.0783V100.714H104.329H104.7H107.207H108.127H121.8V94.6074H108.127Z" fill="#232323" stroke="white" stroke-width="2" stroke-linecap="round" stroke-linejoin="round"/>
<path d="M122.346 89.6221C121.147 89.2261 120.055 88.56 119.154 87.6751C116.23 84.8008 116.628 81.0139 116.682 80.577H81.8362C81.8896 81.0139 82.2879 84.8008 79.3638 87.6751C78.4631 88.56 77.3713 89.2261 76.1724 89.6221C75.0769 89.9742 74.1203 90.6624 73.4382 91.5891C72.7561 92.5158 72.3832 93.6338 72.3726 94.7844V96.0565H126.153V94.7844C126.142 93.6328 125.768 92.514 125.084 91.5871C124.401 90.6603 123.442 89.9727 122.346 89.6221V89.6221Z" fill="#232323" stroke="white" stroke-width="2" stroke-linecap="round" stroke-linejoin="round"/>
<path d="M109.202 100.242H71.884V100.896C71.8807 101.576 72.1241 102.233 72.569 102.746C73.0139 103.26 73.63 103.594 74.3029 103.688C74.853 103.76 75.3836 103.94 75.8645 104.217C76.8673 104.816 77.5993 105.78 77.9073 106.907H120.603C120.911 105.779 121.643 104.814 122.646 104.215C123.126 103.938 123.656 103.758 124.206 103.686C124.878 103.592 125.494 103.258 125.939 102.745C126.383 102.232 126.627 101.575 126.625 100.896V100.238L109.202 100.242Z" fill="#232323" stroke="white" stroke-width="2" stroke-linecap="round" stroke-linejoin="round"/>
<path d="M83.1175 30.3385C82.8152 30.9303 80.7207 34.8942 77.9552 34.8555C74.6366 34.8094 72.2103 29.0553 72.3615 24.8535C72.3835 23.3424 72.7909 21.8619 73.5451 20.5522C74.6937 18.6256 76.3549 17.6964 77.6307 17.0031C85.2396 12.8733 89.0431 10.8084 92.6881 10.0138C95.1272 9.48223 97.6129 9.19383 100.109 9.15275L100.985 1.62131C100.994 1.54648 101.024 1.47581 101.072 1.41768C101.12 1.35954 101.184 1.31638 101.256 1.2933C101.327 1.27022 101.404 1.26818 101.477 1.28743C101.55 1.30668 101.616 1.34641 101.667 1.40192L105.708 5.82675C107.397 5.77329 114.799 5.72904 121.086 11.3117C128.874 18.2255 128.472 28.0191 128.4 29.271C128.481 37.0679 126.188 41.3914 124.097 43.8969C121.789 46.6624 119.857 47.0404 117.644 50.5637C114.665 55.3259 114.713 60.2006 114.74 61.2109C114.949 68.9341 119.947 73.8991 121.084 74.9758H76.5577C75.1897 72.6952 73.346 68.77 74.1923 64.4374C74.5223 62.7467 75.3409 60.5915 83.3332 52.8222C89.4856 46.8431 91.5727 45.6318 95.7007 40.9931C97.7413 38.7053 99.6448 36.2987 101.401 33.7862C100.529 34.3042 96.2593 36.7195 90.861 35.3994C87.7876 34.6232 85.062 32.8418 83.1175 30.3385V30.3385Z" fill="#232323" stroke="white" stroke-width="2" stroke-linecap="round" stroke-linejoin="round"/>
<path d="M75.8995 34.166C75.8995 34.166 78.9121 32.5657 81.1706 28.7068Z" fill="#232323"/>
<path d="M75.8995 34.166C75.8995 34.166 78.9121 32.5657 81.1706 28.7068" stroke="white" stroke-width="2" stroke-linecap="round" stroke-linejoin="round"/>
<path d="M92.1866 17.1267C92.8108 17.1267 93.3167 16.6207 93.3167 15.9965C93.3167 15.3723 92.8108 14.8663 92.1866 14.8663C91.5624 14.8663 91.0564 15.3723 91.0564 15.9965C91.0564 16.6207 91.5624 17.1267 92.1866 17.1267Z" fill="#232323" stroke="white" stroke-width="2" stroke-linecap="round" stroke-linejoin="round"/>
<path d="M94.3474 15.9928C94.0544 15.6533 93.7241 15.3478 93.3629 15.0821C92.4355 14.4149 91.3434 14.0139 90.2047 13.9224C90.2047 13.9224 92.0483 12.1985 94.552 13.2033" stroke="white" stroke-width="2" stroke-linecap="round" stroke-linejoin="round"/>
<path d="M100.848 3.09808L104.049 7.24084" stroke="white" stroke-width="2" stroke-linecap="round" stroke-linejoin="round"/>
<path d="M105.703 5.8194L108.16 9.8755C115.548 12.3092 121.014 18.9888 122.172 27.0107C123.697 37.5731 116.955 44.9497 116.293 45.6503C113.332 49.0026 111.354 53.1076 110.577 57.5125" stroke="white" stroke-width="2" stroke-linecap="round" stroke-linejoin="round"/>
<path d="M74.2992 26.4465C74.1572 26.0261 75.4404 23.6385 75.9105 22.5452C75.9437 22.4678 75.9613 22.3845 75.9624 22.3002C75.9634 22.2159 75.9478 22.1323 75.9164 22.0541C75.8851 21.9758 75.8386 21.9045 75.7797 21.8442C75.7208 21.7839 75.6506 21.7358 75.5731 21.7027L75.5418 21.6898C75.3829 21.629 75.2063 21.6338 75.0509 21.7029C74.8954 21.772 74.7736 21.8998 74.7122 22.0585C74.6857 22.1312 74.672 22.2079 74.6716 22.2853L74.2992 26.4465Z" fill="#232323" stroke="white" stroke-width="2" stroke-linecap="round" stroke-linejoin="round"/>
<path d="M101.401 33.7862C101.401 33.7862 106.683 30.5947 108.192 25.5117Z" fill="#232323"/>
<path d="M101.401 33.7862C101.401 33.7862 106.683 30.5947 108.192 25.5117" stroke="white" stroke-width="2" stroke-linecap="round" stroke-linejoin="round"/>
<path d="M102.036 53.8425C99.379 57.3138 99.467 61.1158 99.5218 62.111L99.5233 62.1385V62.166V64.4194C100.614 69.8189 102.831 72.481 104.416 73.8765C106.641 75.832 109.82 77.2202 114.206 78.4166C118.587 79.6118 124.05 80.5859 130.782 81.7841C130.782 81.7843 130.783 81.7844 130.784 81.7846L130.825 81.7917C131.878 81.9747 134.847 82.4905 136.468 84.9315C137.688 86.7691 137.606 88.8798 137.462 90.0431C137.428 93.786 134.427 96.8371 130.697 96.8371H99.0992V106.178H108.273H109.273V107.178V113.584H115.328V107.255V106.255H116.328H119.294H120.294V107.255V113.58H125.923V107.192V106.24L126.875 106.194L134.506 105.825L134.53 105.824H134.554C140.307 105.824 145 101.077 145 95.1881V88.7279C145 83.7783 141.686 79.6296 137.221 78.4382L117.027 73.62L117.026 73.6198C116.041 73.3839 115.038 73.2139 113.997 73.04L113.99 73.0388L113.99 73.0388C112.398 72.7613 110.956 71.9285 109.92 70.6884C108.885 69.449 108.323 67.8831 108.333 66.2685C108.335 62.5305 111.295 59.4585 115.012 59.4127L102.036 53.8425ZM102.036 53.8425C103.569 51.8533 105.678 50.3875 108.075 49.6444H108.273H109.273V48.6444V42.3176H114.48V48.6481V49.6481H115.48H117.34H117.375L117.41 49.6456L118.057 49.6002H119.294H120.294V48.6002V42.3176M102.036 53.8425L120.294 42.3176M120.294 42.3176H125.079V48.5965H125.874L125.962 49.6168L136.171 49.6408L136.178 49.6407C137.043 49.6361 139.382 49.6288 141.5 49.6803C142.563 49.7061 143.551 49.7463 144.266 49.807C144.379 49.8166 144.483 49.8265 144.576 49.8365V59.3571C133.154 59.3355 118.298 59.3714 115.012 59.4127L120.294 42.3176Z" fill="url(#paint1_linear_31_110)" stroke="white" stroke-width="2"/>
<path d="M126.265 48.7772H108.085" stroke="white" stroke-width="2" stroke-linecap="round" stroke-linejoin="round"/>
<path d="M127.207 106.951H107.897" stroke="white" stroke-width="2" stroke-linecap="round" stroke-linejoin="round"/>
<path d="M120.041 10.4415L119.101 11.5716" stroke="white" stroke-width="2" stroke-linecap="round" stroke-linejoin="round"/>
<path d="M124.74 18.8321L126.121 18.2053" stroke="white" stroke-width="2" stroke-linecap="round" stroke-linejoin="round"/>
<path d="M126.695 28.9576L128.452 28.8949" stroke="white" stroke-width="2" stroke-linecap="round" stroke-linejoin="round"/>
<defs>
<linearGradient id="paint0_linear_31_110" x1="16.134" y1="111.255" x2="63.5471" y2="111.169" gradientUnits="userSpaceOnUse">
<stop stop-color="#FEC45D"/>
<stop offset="1" stop-color="#F8B8F0"/>
</linearGradient>
<linearGradient id="paint1_linear_31_110" x1="98.1003" y1="77.9455" x2="145.789" y2="77.8603" gradientUnits="userSpaceOnUse">
<stop stop-color="#FEC45D"/>
<stop offset="1" stop-color="#F8B8F0"/>
</linearGradient>
</defs>
</svg>
