<svg width="158" height="199" viewBox="0 0 158 199" fill="none" xmlns="http://www.w3.org/2000/svg">
<path d="M115.064 166.366V166.366C115.064 166.372 115.064 166.415 115.005 166.507C114.94 166.608 114.815 166.749 114.592 166.92C114.141 167.267 113.414 167.645 112.38 168.029C110.325 168.794 107.294 169.502 103.478 170.102C95.8638 171.301 85.3083 172.047 73.6242 172.047C61.9401 172.047 51.3845 171.301 43.77 170.102C39.9549 169.502 36.9234 168.794 34.868 168.029C33.8347 167.645 33.107 167.267 32.656 166.92C32.4334 166.749 32.3085 166.608 32.2435 166.507C32.184 166.415 32.1841 166.372 32.1841 166.366L32.1841 166.366L32.1841 166.366C32.1841 166.36 32.184 166.318 32.2435 166.225C32.3085 166.125 32.4334 165.984 32.656 165.812C33.107 165.466 33.8347 165.088 34.868 164.703C36.9234 163.938 39.9549 163.231 43.77 162.63C51.3845 161.432 61.9401 160.686 73.6242 160.686C85.3083 160.686 95.8638 161.432 103.478 162.63C107.294 163.231 110.325 163.938 112.38 164.703C113.414 165.088 114.141 165.466 114.592 165.812C114.815 165.984 114.94 166.125 115.005 166.225C115.065 166.319 115.064 166.361 115.064 166.366Z" fill="url(#paint0_linear_58_49)" stroke="white" stroke-width="2"/>
<path d="M102.139 194.172C102.141 194.147 102.141 194.123 102.139 194.098C102.139 193.932 102.02 193.769 101.796 193.61L100.219 190.956C98.7068 188.414 97.7352 185.482 97.386 182.406C97.0367 179.33 97.3201 176.2 98.2123 173.28L98.4495 171.852C90.1883 172.288 81.4379 173.123 72.2427 172.942C63.8333 172.768 55.8093 172.523 48.2022 171.852C49.0767 173.232 49.8591 174.69 50.5427 176.213C51.6787 178.724 52.7442 181.677 52.4589 183.438C52.0067 186.247 49.214 191.403 48.0948 193.385C47.6092 193.616 47.3535 193.856 47.3535 194.102C47.3535 195.805 59.6193 197.187 74.7481 197.187C89.6157 197.187 101.717 195.853 102.132 194.19H102.143L102.139 194.172Z" fill="#232323" stroke="white" stroke-width="2" stroke-linecap="round" stroke-linejoin="round"/>
<path d="M73.6241 170.123C86.8081 170.123 97.4959 168.441 97.4959 166.366C97.4959 164.291 86.8081 162.609 73.6241 162.609C60.44 162.609 49.7522 164.291 49.7522 166.366C49.7522 168.441 60.44 170.123 73.6241 170.123Z" fill="#232323" stroke="white" stroke-width="2" stroke-linecap="round" stroke-linejoin="round"/>
<path d="M51.2437 177.833C60.0897 179.193 69.0085 179.789 77.9286 179.614C84.319 179.489 90.6994 178.97 97.0435 178.057" stroke="white" stroke-width="2" stroke-linecap="round" stroke-linejoin="round"/>
<path d="M52.5696 184.96C67.45 188.301 82.7329 188.301 97.6133 184.96" stroke="white" stroke-width="2" stroke-linecap="round" stroke-linejoin="round"/>
<path d="M52.3801 182.505C52.3801 182.505 58.8142 184.064 63.736 184.509L52.3801 182.505Z" fill="url(#paint1_linear_58_49)"/>
<path d="M52.3801 182.505C52.3801 182.505 58.8142 184.064 63.736 184.509" stroke="white" stroke-width="2" stroke-linecap="round" stroke-linejoin="round"/>
<path d="M75.4991 159.307C74.878 157.976 74.0516 156.793 73.0622 155.818C71.3574 154.03 69.3245 150.47 67.8735 142.697C68.6293 139.896 68.8761 136.939 68.5981 134.019C68.4347 132.39 68.0921 130.793 67.5788 129.268L67.4917 129.292C62.859 130.52 59.679 136.01 60.4814 141.415C60.768 143.36 61.0559 145.304 61.345 147.247C62.8274 149.356 64.3149 151.464 65.8073 153.57L70.7625 161.007L70.9645 161.526C71.9646 164.064 73.5809 166.197 75.6097 167.657C77.6384 169.116 79.9889 169.836 82.3649 169.726L83.2581 169.692L82.2314 168.963C80.3783 167.655 78.5419 166.339 76.7221 165.015C76.7077 163.024 76.2883 161.067 75.4991 159.307Z" fill="#232323" stroke="white" stroke-width="2" stroke-miterlimit="10"/>
<path d="M116.806 54.8681C114.595 49.7879 109.566 46.6242 105.174 48.1091C104.133 46.3081 103.084 45.2746 102.233 44.6423C97.8838 41.435 91.7704 43.8051 87.0561 50.6143L87.9289 48.652C86.2796 47.5618 83.8761 46.343 81.354 46.6657C77.153 47.2042 76.2876 51.5496 71.2453 55.0578C67.6002 57.6153 66.2159 56.6146 63.4177 58.2258C60.2674 60.0399 56.6872 64.3875 54.9675 75.6489C52.7179 78.4467 51.0253 81.7981 50.0122 85.4605C48.9004 89.5813 49.1135 93.12 49.5341 100.202C50.1494 110.515 50.5589 117.4 54.8618 122.125C56.7687 124.218 59.1388 125.256 63.8791 127.332C67.5747 128.95 71.3917 130.153 75.2795 130.927C80.5406 130.456 85.6706 128.766 90.3746 125.954C95.0786 123.142 99.2636 119.264 102.689 114.542C103.61 112.702 104.016 110.569 103.85 108.443C103.683 106.317 102.953 104.307 101.762 102.696C100.576 101.116 99.0142 99.9888 97.2789 99.4604C95.5437 98.932 93.7137 99.0262 92.0243 99.7308C90.0359 98.4226 87.2062 97.0773 83.802 97.1144C79.6417 97.1471 76.547 99.2206 71.1063 102.969C68.3504 104.866 65.7057 106.978 63.1898 109.292L68.4396 115.687L77.1289 109.228C78.5779 109.499 80.0447 109.616 81.5115 109.577C85.1603 109.483 87.5786 108.448 87.8696 109.176C88.1197 109.797 86.3686 110.574 85.5384 112.896C84.6674 115.338 85.707 116.982 85.4031 118.639C85.0325 120.651 82.6438 122.888 74.2547 124.225L65.1744 121.212C63.0299 120.154 61.1451 118.48 59.6929 116.343C58.3904 114.416 57.4841 112.161 57.0448 109.754C55.8831 101.121 56.6423 92.2822 59.2482 84.0978L62.089 70.7672L65.4246 67.2023L77.014 58.59C77.1493 58.627 82.4196 61.117 86.1554 60.3996C87.7769 60.0879 90.0266 58.9977 92.1521 55.1668L100.649 57.8029L107.355 55.6094L111.211 63.5241C109.208 63.1033 107.437 64.0648 106.634 66.0336C105.75 68.214 106.423 70.68 106.558 71.1509C105.695 69.725 104.427 67.6624 102.841 65.192C101.11 62.495 100.76 62.0545 100.191 61.6294C97.8987 59.9112 94.3592 60.162 91.8649 62.0654C88.4589 64.6818 87.3767 70.0913 88.457 74.09C90.4954 81.5904 99.5757 82.0853 100.293 82.1115C104.913 82.2859 108.261 79.7502 110.353 78.1367C112.446 76.5233 115.518 74.2666 116.341 69.9975C116.553 68.8576 116.633 67.6894 116.58 66.5242C118.374 63.2602 118.487 58.7142 116.806 54.8681Z" fill="#232323" stroke="white" stroke-width="2" stroke-miterlimit="10"/>
<path d="M13.6454 76.0262L19.7144 38.9189C19.7144 38.9189 8.62716 42.0608 7.11316 51.9007" fill="#232323"/>
<path d="M13.6454 76.0262L19.7144 38.9189C19.7144 38.9189 8.62716 42.0608 7.11316 51.9007" stroke="white" stroke-width="2" stroke-linecap="round" stroke-linejoin="round"/>
<path d="M37.0765 124.181L43.5457 86.0251C37.6046 82.3185 32.7569 79.4274 29.5454 77.548C18.6621 71.1748 14.8298 69.4306 11.4831 64.2239C8.6367 59.7935 7.57116 55.0839 7.11529 51.8919L1 87.9002C1.03394 91.7958 1.7797 95.6373 3.18668 99.1639C6.09422 106.322 11.0476 109.83 17.7652 114.45C23.8373 118.617 30.3235 121.885 37.0765 124.181Z" fill="#232323" stroke="white" stroke-width="2" stroke-linecap="round" stroke-linejoin="round"/>
<path d="M31.1339 118.083C32.7551 118.083 34.0693 116.536 34.0693 114.629C34.0693 112.722 32.7551 111.175 31.1339 111.175C29.5128 111.175 28.1986 112.722 28.1986 114.629C28.1986 116.536 29.5128 118.083 31.1339 118.083Z" fill="#232323" stroke="white" stroke-width="2" stroke-miterlimit="10"/>
<path d="M36.1845 92.0213C37.8056 92.0213 39.1198 90.475 39.1198 88.5676C39.1198 86.6602 37.8056 85.114 36.1845 85.114C34.5633 85.114 33.2491 86.6602 33.2491 88.5676C33.2491 90.475 34.5633 92.0213 36.1845 92.0213Z" fill="#232323" stroke="white" stroke-width="2" stroke-miterlimit="10"/>
<path d="M5.93331 59.2005C6.94697 62.1876 8.16632 66.7074 11.0312 69.6879C20.0726 79.0874 27.196 83.4306 31.1913 84.608C31.0053 86.6158 31.3051 88.6446 32.0562 90.4607C32.8073 92.2768 33.9792 93.8063 35.4368 94.8731L33.0185 109.133C32.7442 108.976 30.5131 107.748 28.1411 109.1C27.4606 109.501 26.8552 110.058 26.3606 110.739C25.866 111.42 25.4923 112.21 25.2613 113.064C19.3729 111.5 13.9845 107.997 9.72664 102.962C4.16729 96.3579 2.03621 89.0646 1.34314 85.7985" stroke="white" stroke-width="2" stroke-miterlimit="10"/>
<path d="M15.7786 42.6277L12.0112 64.8302" stroke="white" stroke-width="2" stroke-miterlimit="10"/>
<path d="M31.932 31.4535L57.9572 27.555C58.3056 26.3384 58.8393 24.6007 59.5917 22.5621C61.2595 18.0597 62.8513 13.7251 65.9794 9.97494C67.4192 8.25029 70.0395 5.61426 74.2795 3.76969L105.944 1.00938C106.917 0.967949 112.787 0.841488 117.187 6.2422C119.313 8.88814 120.674 12.2562 121.078 15.8662L93.6186 19.8017C92.9409 21.9536 92.1633 24.0601 91.2892 26.1117C88.9302 31.641 86.9789 36.2175 83.0521 39.3769C81.5696 40.5651 78.7251 42.4293 74.2665 42.8763L45.4246 46.6701C44.4721 46.7115 40.0709 46.7857 36.3035 42.861C32.0599 38.4393 31.9413 32.4085 31.932 31.4535Z" fill="#232323" stroke="white" stroke-width="2" stroke-linecap="round" stroke-linejoin="round"/>
<path d="M93.6188 19.8018C94.1543 18.5176 94.9493 16.649 95.95 14.4164C99.0595 7.49378 100.12 6.10926 100.614 5.50313C101.665 4.21454 103.463 2.40922 106.37 1.04651" fill="#232323"/>
<path d="M93.6188 19.8018C94.1543 18.5176 94.9493 16.649 95.95 14.4164C99.0595 7.49378 100.12 6.10926 100.614 5.50313C101.665 4.21454 103.463 2.40922 106.37 1.04651" stroke="white" stroke-width="2" stroke-miterlimit="10"/>
<path d="M57.9613 27.5551L61.6675 27.119C61.6415 30.6975 62.611 34.1878 64.4281 37.0575C66.2451 39.9273 68.8101 42.019 71.7318 43.0137" stroke="white" stroke-width="2" stroke-miterlimit="10"/>
<path d="M96.4894 13.7752L110.221 12.0309C109.998 11.6079 109.855 11.1329 109.802 10.6387C109.75 10.1445 109.789 9.64282 109.917 9.16813C110.384 7.53724 111.741 7.0641 111.855 7.02704C109.764 4.72973 107.193 3.1238 104.404 2.37201" fill="#232323"/>
<path d="M96.4894 13.7752L110.221 12.0309C109.998 11.6079 109.855 11.1329 109.802 10.6387C109.75 10.1445 109.789 9.64282 109.917 9.16813C110.384 7.53724 111.741 7.0641 111.855 7.02704C109.764 4.72973 107.193 3.1238 104.404 2.37201" stroke="white" stroke-width="2" stroke-miterlimit="10"/>
<path d="M64.6323 43.949L58.8728 37.964C57.9353 37.9873 57.0048 37.7685 56.1469 37.323C54.987 36.7069 54.0068 35.703 53.3283 34.4362L42.33 36.1173C42.4464 36.8963 42.3683 37.6984 42.1052 38.4263C41.8421 39.1542 41.4052 39.7767 40.8475 40.2185L47.6059 45.8874" stroke="white" stroke-width="2" stroke-miterlimit="10"/>
<path d="M77.8266 3.80908C75.3111 5.5449 73.0845 7.80409 71.2555 10.4766C69.445 13.1497 68.7723 15.1992 65.9574 22.2068C64.3878 26.1183 63.0739 29.2711 62.2252 31.2901" stroke="white" stroke-width="2" stroke-miterlimit="10"/>
<path d="M98.7311 1.99713C96.6581 3.38675 94.8538 5.2691 93.4331 7.5243C91.6189 10.4481 90.5348 12.9752 89.9826 15.2405C89.5452 17.0284 86.9286 27.747 82.0809 34.8854C80.5687 37.1137 78.0689 40.1182 73.9642 42.8044" stroke="white" stroke-width="2" stroke-miterlimit="10"/>
<path d="M38.9669 38.8035C40.0763 38.8035 40.9757 37.7453 40.9757 36.44C40.9757 35.1346 40.0763 34.0765 38.9669 34.0765C37.8575 34.0765 36.9581 35.1346 36.9581 36.44C36.9581 37.7453 37.8575 38.8035 38.9669 38.8035Z" fill="#232323" stroke="white" stroke-width="2" stroke-miterlimit="10"/>
<path d="M57.4797 36.477C58.5891 36.477 59.4885 35.4188 59.4885 34.1135C59.4885 32.8082 58.5891 31.75 57.4797 31.75C56.3703 31.75 55.4709 32.8082 55.4709 34.1135C55.4709 35.4188 56.3703 36.477 57.4797 36.477Z" fill="#232323" stroke="white" stroke-width="2" stroke-miterlimit="10"/>
<path d="M113.008 12.816C114.118 12.816 115.017 11.7579 115.017 10.4525C115.017 9.14722 114.118 8.08905 113.008 8.08905C111.899 8.08905 110.999 9.14722 110.999 10.4525C110.999 11.7579 111.899 12.816 113.008 12.816Z" fill="#232323" stroke="white" stroke-width="2" stroke-miterlimit="10"/>
<path d="M82.2825 144.696C85.4811 143.391 88.301 141.05 90.4172 137.941C92.5333 134.832 93.8594 131.082 94.2425 127.125C94.7415 123.322 94.7609 119.454 94.2999 115.645C93.668 110.565 92.5209 108.746 92.5691 103.562C92.6099 98.9524 93.555 96.1485 93.7774 95.5053C94.6407 93.0399 95.9299 90.8125 97.5633 88.9642L64.9039 96.687C62.2966 99.214 61.1384 101.887 60.6029 103.461C59.3909 107.037 59.6003 110.273 59.819 113.657C60.0655 117.459 60.6232 118.37 61.0346 122.284C61.3709 125.49 61.4026 128.731 61.1291 131.945L59.7838 137.614" fill="#232323"/>
<path d="M82.2825 144.696C85.4811 143.391 88.301 141.05 90.4172 137.941C92.5333 134.832 93.8594 131.082 94.2425 127.125C94.7415 123.322 94.7609 119.454 94.2999 115.645C93.668 110.565 92.5209 108.746 92.5691 103.562C92.6099 98.9524 93.555 96.1485 93.7774 95.5053C94.6407 93.0399 95.9299 90.8125 97.5633 88.9642L64.9039 96.687C62.2966 99.214 61.1384 101.887 60.6029 103.461C59.3909 107.037 59.6003 110.273 59.819 113.657C60.0655 117.459 60.6232 118.37 61.0346 122.284C61.3709 125.49 61.4026 128.731 61.1291 131.945L59.7838 137.614" stroke="white" stroke-width="2" stroke-linecap="round" stroke-linejoin="round"/>
<path d="M40.9237 142.4L73.8258 134.185C74.4381 136.593 75.5223 138.799 76.9913 140.625C78.4602 142.451 80.2729 143.845 82.2834 144.696L49.5926 152.591C47.8528 152.185 46.2214 151.293 44.8356 149.99C41.9392 147.245 41.1368 143.578 40.9237 142.4Z" fill="#232323" stroke="white" stroke-width="2" stroke-linecap="round" stroke-linejoin="round"/>
<path d="M80.1615 145.126C78.6789 144.702 77.2915 143.906 76.0938 142.794C74.8962 141.682 73.9165 140.279 73.2216 138.68L44.4408 145.821C45.1059 147.36 46.0467 148.711 47.1984 149.782C48.3501 150.852 49.6853 151.615 51.112 152.02" stroke="white" stroke-width="2" stroke-miterlimit="10"/>
<path d="M64.7483 136.614C66.2308 131.503 66.4272 126.802 66.2475 124.063C65.8416 117.897 63.7754 114.165 64.3943 107.131C64.5443 105.44 64.8279 103.769 65.2412 102.14C66.3598 101.901 67.442 101.468 68.4527 100.856C70.1388 99.8197 71.5836 98.3136 72.6611 96.4691L85.1734 93.2902C85.113 93.7747 85.1385 94.2687 85.2482 94.7411C85.3579 95.2135 85.5495 95.6541 85.8108 96.0352C86.8115 97.4306 88.3403 97.2257 88.4478 97.2104C88.1534 99.5709 88.0122 101.954 88.0253 104.34C88.0642 111.332 89.4096 113.186 89.7895 119.027C90.0026 122.339 90.4492 129.209 87.2804 135.676C85.2845 139.749 82.3714 142.435 80.5535 143.811" stroke="white" stroke-width="2" stroke-miterlimit="10"/>
<path d="M70.5718 97.6465C70.5885 97.1537 70.0752 96.6915 69.662 96.5062C68.715 96.0701 67.7088 96.831 66.9953 97.363C66.4394 97.7751 65.0014 98.983 65.2089 99.5434C65.4406 100.163 67.5735 99.5695 68.7539 99.0768C69.5285 98.7497 70.5459 98.3246 70.5718 97.6465Z" fill="#232323" stroke="white" stroke-width="2" stroke-miterlimit="10"/>
<path d="M92.7476 92.287C92.7643 91.7942 92.251 91.3342 91.8377 91.1466C90.8908 90.7215 89.8846 91.4737 89.1711 92.0035C88.6152 92.4156 87.1771 93.6235 87.3847 94.1839C87.6163 94.8031 89.7511 94.2122 90.9297 93.7195C91.7043 93.3902 92.7235 92.9651 92.7476 92.287Z" fill="#232323" stroke="white" stroke-width="2" stroke-miterlimit="10"/>
<path d="M52.6596 151.773C51.0159 151.472 49.5908 150.65 49.563 149.988C49.5389 149.453 50.1949 149.009 50.3802 148.882C51.5625 148.082 52.9894 148.614 53.9864 148.989C54.913 149.334 55.7784 150.079 56.5622 150.733" stroke="white" stroke-width="2" stroke-miterlimit="10"/>
<path d="M73.9513 146.665C72.3076 146.364 71.2513 145.542 71.2235 144.879C71.1995 144.345 71.8555 143.9 72.0408 143.774C73.2249 142.974 74.65 143.508 75.6469 143.881C76.5735 144.227 77.437 144.96 78.2228 145.625" stroke="white" stroke-width="2" stroke-miterlimit="10"/>
<path d="M103.442 51.1179L131.609 37.1005C130.308 42.6665 130.36 48.5502 131.759 54.0831C134.098 63.2231 139.391 68.2815 141.242 69.8971C143.897 71.7744 152.033 78.0734 155.476 90.3662C156.769 95.0303 157.247 99.9543 156.88 104.841L128.783 118.706C129.803 114.365 129.982 109.81 129.31 105.376C127.436 93.2878 119.673 86.6247 117.77 85.081C112.855 81.6449 108.889 76.6119 106.347 70.5868C103.805 64.5618 102.796 57.8013 103.442 51.1179Z" fill="#232323" stroke="white" stroke-width="2" stroke-linecap="round" stroke-linejoin="round"/>
<path d="M112.004 52.5394L121.69 48.5189C121.976 49.5152 122.501 50.3928 123.202 51.0459C124.685 52.4086 126.384 52.1731 126.723 52.1186C128.563 59.76 132.505 66.4678 137.931 71.1922C140.87 73.4292 145.684 77.8052 149.216 85.2249C150.594 88.1219 151.653 91.2138 152.367 94.4259C151.16 95.2779 150.157 96.4764 149.451 97.9091C148.745 99.3419 148.36 100.962 148.332 102.617L138.301 107.449C138.153 106.247 137.641 105.147 136.86 104.353C135.377 102.879 133.589 103.228 133.339 103.28C130.836 94.9259 126.047 87.785 119.724 82.977C113.85 77.4702 109.576 69.9515 107.493 61.4614C109.884 59.2456 111.494 56.0678 112.013 52.5394H112.004Z" stroke="white" stroke-width="2" stroke-linecap="round" stroke-linejoin="round"/>
<path d="M109.745 56.5929C109.189 57.9011 107.84 59.0239 107.078 58.5726C106.316 58.1213 106.285 56.1175 106.893 54.7919C107.449 53.5469 108.77 52.4458 109.524 52.8928C110.278 53.3398 110.302 55.2956 109.745 56.5929Z" fill="#232323" stroke="white" stroke-width="2" stroke-miterlimit="10"/>
<path d="M127.323 47.8933C126.767 49.2015 125.416 50.3266 124.657 49.8731C123.897 49.4196 123.864 47.418 124.471 46.0924C125.027 44.8474 126.347 43.7463 127.103 44.1933C127.859 44.6403 127.881 46.596 127.323 47.8933Z" fill="#232323" stroke="white" stroke-width="2" stroke-miterlimit="10"/>
<path d="M136.034 109.464C135.478 110.772 134.129 111.897 133.367 111.444C132.606 110.99 132.574 108.989 133.182 107.663C133.738 106.418 135.059 105.317 135.813 105.764C136.568 106.211 136.592 108.173 136.034 109.464Z" fill="#232323" stroke="white" stroke-width="2" stroke-miterlimit="10"/>
<path d="M153.541 100.934C152.985 102.243 151.636 103.366 150.874 102.914C150.112 102.463 150.081 100.459 150.679 99.1335C151.235 97.8885 152.557 96.7853 153.311 97.2344C154.065 97.6836 154.099 99.6372 153.541 100.934Z" fill="#232323" stroke="white" stroke-width="2" stroke-miterlimit="10"/>
<defs>
<linearGradient id="paint0_linear_58_49" x1="31.1859" y1="166.365" x2="115.665" y2="164.899" gradientUnits="userSpaceOnUse">
<stop stop-color="#FEC45D"/>
<stop offset="1" stop-color="#F8B8F0"/>
</linearGradient>
<linearGradient id="paint1_linear_58_49" x1="52.3801" y1="183.506" x2="63.736" y2="183.506" gradientUnits="userSpaceOnUse">
<stop stop-color="white"/>
<stop offset="1"/>
</linearGradient>
</defs>
</svg>
