<svg width="159" height="175" viewBox="0 0 159 175" fill="none" xmlns="http://www.w3.org/2000/svg">
<path d="M86.3382 56.5799L82.6579 76.063L50.5709 97.2169L3.72974 88.3676C2.85704 88.2019 2.08562 87.697 1.58462 86.9635C1.08363 86.2299 0.893931 85.3277 1.05713 84.4545L9.07888 41.9979C9.24405 41.125 9.74888 40.3532 10.4825 39.8521C11.2162 39.3511 12.1187 39.1616 12.9919 39.3253L83.6577 52.6786C84.5297 52.8421 85.3013 53.3444 85.8037 54.0756C86.3061 54.8068 86.4983 55.7073 86.3382 56.5799Z" fill="url(#paint0_linear_0_484)"/>
<path d="M12.954 56.2461L11.0897 66.1124C11.0402 66.3747 11.2126 66.6275 11.4749 66.677L25.0112 69.2347C25.2735 69.2843 25.5263 69.1119 25.5758 68.8496L27.4401 58.9833C27.4896 58.721 27.3172 58.4683 27.0549 58.4187L13.5186 55.861C13.2563 55.8114 13.0035 55.9839 12.954 56.2461Z" stroke="#232323" stroke-width="2" stroke-linecap="round" stroke-linejoin="round"/>
<path d="M58.954 64.8604L57.0897 74.7267C57.0402 74.989 57.2126 75.2417 57.4749 75.2913L75.6464 78.7248C75.9086 78.7744 76.1614 78.602 76.211 78.3397L78.0752 68.4734C78.1248 68.2111 77.9524 67.9584 77.6901 67.9088L59.5186 64.4753C59.2563 64.4257 59.0035 64.5981 58.954 64.8604Z" stroke="#232323" stroke-width="2" stroke-linecap="round" stroke-linejoin="round"/>
<path d="M13 57.9359L27.2924 60.6378" stroke="#232323" stroke-width="2" stroke-linecap="round" stroke-linejoin="round"/>
<path d="M12 64.1215L26.2924 66.8234" stroke="#232323" stroke-width="2" stroke-linecap="round" stroke-linejoin="round"/>
<path d="M16.9722 56.6214L15 67.0517" stroke="#232323" stroke-width="2" stroke-linecap="round" stroke-linejoin="round"/>
<path d="M23.9722 58.0492L22 68.4794" stroke="#232323" stroke-width="2" stroke-linecap="round" stroke-linejoin="round"/>
<path d="M58.7868 91.9885C58.4541 91.5044 58.22 90.9596 58.0978 90.385C57.9756 89.8105 57.9678 89.2175 58.0749 88.6399C58.1819 88.0624 58.4016 87.5115 58.7215 87.0189C59.0414 86.5262 59.4551 86.1014 59.9392 85.7687C60.4233 85.436 60.9681 85.2018 61.5427 85.0797C62.1172 84.9575 62.7102 84.9497 63.2878 85.0567C64.4542 85.2728 65.487 85.9435 66.159 86.9211" stroke="#232323" stroke-width="2" stroke-linecap="round" stroke-linejoin="round"/>
<path d="M12.3436 70.6251L12.0578 72.1381C12.0259 72.3069 12.1369 72.4696 12.3057 72.5015L12.8536 72.605C13.0224 72.6369 13.1851 72.5259 13.217 72.3571L13.5029 70.8441C13.5348 70.6753 13.4238 70.5126 13.255 70.4807L12.7071 70.3771C12.5383 70.3452 12.3755 70.4562 12.3436 70.6251Z" stroke="#232323" stroke-width="2" stroke-linecap="round" stroke-linejoin="round"/>
<path d="M15.3436 71.2081L15.0578 72.7211C15.0259 72.8899 15.1369 73.0526 15.3057 73.0845L15.8536 73.1881C16.0224 73.22 16.1851 73.109 16.217 72.9401L16.5029 71.4271C16.5348 71.2583 16.4238 71.0956 16.255 71.0637L15.7071 70.9602C15.5383 70.9283 15.3755 71.0392 15.3436 71.2081Z" stroke="#232323" stroke-width="2" stroke-linecap="round" stroke-linejoin="round"/>
<path d="M18.3436 71.796L18.0578 73.309C18.0259 73.4778 18.1369 73.6405 18.3057 73.6724L18.8536 73.7759C19.0224 73.8078 19.1851 73.6968 19.217 73.528L19.5029 72.015C19.5348 71.8462 19.4238 71.6835 19.255 71.6516L18.7071 71.548C18.5383 71.5161 18.3755 71.6271 18.3436 71.796Z" stroke="#232323" stroke-width="2" stroke-linecap="round" stroke-linejoin="round"/>
<path d="M21.3436 72.377L21.0578 73.89C21.0259 74.0589 21.1369 74.2216 21.3057 74.2535L21.8536 74.357C22.0224 74.3889 22.1851 74.2779 22.217 74.1091L22.5029 72.5961C22.5348 72.4272 22.4238 72.2645 22.255 72.2326L21.7071 72.1291C21.5383 72.0972 21.3755 72.2082 21.3436 72.377Z" stroke="#232323" stroke-width="2" stroke-linecap="round" stroke-linejoin="round"/>
<path d="M27.3436 73.4659L27.0578 74.9789C27.0259 75.1477 27.1369 75.3104 27.3057 75.3423L27.8536 75.4459C28.0224 75.4778 28.1851 75.3668 28.217 75.1979L28.5029 73.6849C28.5348 73.5161 28.4238 73.3534 28.255 73.3215L27.7071 73.218C27.5383 73.1861 27.3755 73.2971 27.3436 73.4659Z" stroke="#232323" stroke-width="2" stroke-linecap="round" stroke-linejoin="round"/>
<path d="M30.3436 74.0557L30.0578 75.5687C30.0259 75.7376 30.1369 75.9003 30.3057 75.9322L30.8536 76.0357C31.0224 76.0676 31.1851 75.9566 31.217 75.7878L31.5029 74.2748C31.5348 74.106 31.4238 73.9432 31.255 73.9113L30.7071 73.8078C30.5383 73.7759 30.3755 73.8869 30.3436 74.0557Z" stroke="#232323" stroke-width="2" stroke-linecap="round" stroke-linejoin="round"/>
<path d="M33.3436 74.6417L33.0578 76.1547C33.0259 76.3235 33.1369 76.4862 33.3057 76.5181L33.8536 76.6216C34.0224 76.6535 34.1851 76.5425 34.217 76.3737L34.5029 74.8607C34.5348 74.6919 34.4238 74.5292 34.255 74.4973L33.7071 74.3937C33.5383 74.3618 33.3755 74.4728 33.3436 74.6417Z" stroke="#232323" stroke-width="2" stroke-linecap="round" stroke-linejoin="round"/>
<path d="M36.3436 75.2227L36.0578 76.7357C36.0259 76.9046 36.1369 77.0673 36.3057 77.0992L36.8536 77.2027C37.0224 77.2346 37.1851 77.1236 37.217 76.9548L37.5029 75.4418C37.5348 75.273 37.4238 75.1102 37.255 75.0783L36.7071 74.9748C36.5383 74.9429 36.3755 75.0539 36.3436 75.2227Z" stroke="#232323" stroke-width="2" stroke-linecap="round" stroke-linejoin="round"/>
<path d="M41.3436 76.255L41.0578 77.768C41.0259 77.9368 41.1369 78.0995 41.3057 78.1314L41.8536 78.2349C42.0224 78.2668 42.1851 78.1558 42.217 77.987L42.5029 76.474C42.5348 76.3052 42.4238 76.1425 42.255 76.1106L41.7071 76.007C41.5383 75.9751 41.3755 76.0861 41.3436 76.255Z" stroke="#232323" stroke-width="2" stroke-linecap="round" stroke-linejoin="round"/>
<path d="M44.3436 76.8272L44.0578 78.3402C44.0259 78.5091 44.1369 78.6718 44.3057 78.7037L44.8536 78.8072C45.0224 78.8391 45.1851 78.7281 45.217 78.5593L45.5029 77.0463C45.5348 76.8774 45.4238 76.7147 45.255 76.6828L44.7071 76.5793C44.5383 76.5474 44.3755 76.6584 44.3436 76.8272Z" stroke="#232323" stroke-width="2" stroke-linecap="round" stroke-linejoin="round"/>
<path d="M47.3515 77.4929L47.0592 79.0007C47.0265 79.1693 47.1367 79.3326 47.3054 79.3653L47.8509 79.471C48.0196 79.5037 48.1828 79.3935 48.2155 79.2248L48.5078 77.717C48.5405 77.5483 48.4302 77.3851 48.2616 77.3524L47.7161 77.2467C47.5474 77.214 47.3842 77.3242 47.3515 77.4929Z" stroke="#232323" stroke-width="2" stroke-linecap="round" stroke-linejoin="round"/>
<path d="M51.3436 77.9952L51.0578 79.5082C51.0259 79.677 51.1369 79.8397 51.3057 79.8716L51.8536 79.9752C52.0224 80.0071 52.1851 79.8961 52.217 79.7273L52.5029 78.2142C52.5348 78.0454 52.4238 77.8827 52.255 77.8508L51.7071 77.7473C51.5383 77.7154 51.3755 77.8264 51.3436 77.9952Z" stroke="#232323" stroke-width="2" stroke-linecap="round" stroke-linejoin="round"/>
<path d="M57.3436 79.1271L57.0578 80.6401C57.0259 80.8089 57.1369 80.9716 57.3057 81.0035L57.8536 81.107C58.0224 81.1389 58.1851 81.0279 58.217 80.8591L58.5029 79.3461C58.5348 79.1773 58.4238 79.0146 58.255 78.9827L57.7071 78.8791C57.5383 78.8472 57.3755 78.9582 57.3436 79.1271Z" stroke="#232323" stroke-width="2" stroke-linecap="round" stroke-linejoin="round"/>
<path d="M60.3436 79.7091L60.0578 81.2221C60.0259 81.3909 60.1369 81.5536 60.3057 81.5855L60.8536 81.6891C61.0224 81.721 61.1851 81.61 61.217 81.4411L61.5029 79.9281C61.5348 79.7593 61.4238 79.5966 61.255 79.5647L60.7071 79.4612C60.5383 79.4293 60.3755 79.5403 60.3436 79.7091Z" stroke="#232323" stroke-width="2" stroke-linecap="round" stroke-linejoin="round"/>
<path d="M63.3436 80.296L63.0578 81.809C63.0259 81.9778 63.1369 82.1405 63.3057 82.1724L63.8536 82.276C64.0224 82.3079 64.1851 82.1969 64.217 82.0281L64.5029 80.515C64.5348 80.3462 64.4238 80.1835 64.255 80.1516L63.7071 80.0481C63.5383 80.0162 63.3755 80.1272 63.3436 80.296Z" stroke="#232323" stroke-width="2" stroke-linecap="round" stroke-linejoin="round"/>
<path d="M66.3436 80.879L66.0578 82.392C66.0259 82.5608 66.1369 82.7236 66.3057 82.7555L66.8536 82.859C67.0224 82.8909 67.1851 82.7799 67.217 82.6111L67.5029 81.098C67.5348 80.9292 67.4238 80.7665 67.255 80.7346L66.7071 80.6311C66.5383 80.5992 66.3755 80.7102 66.3436 80.879Z" stroke="#232323" stroke-width="2" stroke-linecap="round" stroke-linejoin="round"/>
<path d="M36.2935 81.9692L36 83.5148" stroke="#232323" stroke-width="2" stroke-linecap="round" stroke-linejoin="round"/>
<path d="M39.2915 82.4077L39 83.9533" stroke="#232323" stroke-width="2" stroke-linecap="round" stroke-linejoin="round"/>
<path d="M42.2915 83.1391L42 84.6848" stroke="#232323" stroke-width="2" stroke-linecap="round" stroke-linejoin="round"/>
<path d="M45.2915 83.5756L45 85.1213" stroke="#232323" stroke-width="2" stroke-linecap="round" stroke-linejoin="round"/>
<path d="M61.291 171.463L157.515 120.818L157.055 86.9701L142.092 92.2644L67.3816 144.764C65.3664 146.179 63.7305 148.069 62.6181 150.266C61.5058 152.463 60.9512 154.9 61.0034 157.362L61.291 171.463Z" stroke="white" stroke-width="2" stroke-linecap="round" stroke-linejoin="round"/>
<path d="M125.746 85.1267L82.951 75.931L7.69327 126.03C5.63447 127.401 3.94621 129.259 2.77852 131.439C1.61083 133.62 0.999892 136.055 1 138.528V149.367L61.7736 171.476V164.096" stroke="white" stroke-width="2" stroke-miterlimit="10"/>
<path d="M83 75.9252L98.6542 73.6243L157.587 86.9757" stroke="white" stroke-width="2" stroke-linecap="round" stroke-linejoin="round"/>
<path d="M157.766 113.219L61.5427 164.093L1 144.066" stroke="white" stroke-width="2" stroke-linecap="round" stroke-linejoin="round"/>
<path d="M98.2557 76.6295C95.6457 69.8658 89.1344 50.2927 96.1584 27.4757C99.1911 17.7125 104.237 8.6934 110.969 1C114.641 1.21934 118.273 1.87617 121.789 2.95652C126.255 4.34557 130.514 6.32901 134.451 8.85349C136.584 8.53773 138.742 8.42765 140.896 8.52479C144.93 8.72228 148.9 9.60832 152.635 11.1446C147.918 14.9578 138.441 23.725 133.323 38.2581C125.191 61.3451 134.215 81.4679 136.291 85.8193L98.2557 76.6295Z" fill="#232323" stroke="white" stroke-width="2" stroke-linecap="round" stroke-linejoin="round"/>
<path d="M68 91.1161L85.0374 79.0228L118.185 86.2815L100.228 99.173L68 91.1161Z" fill="white" stroke="white" stroke-width="2" stroke-linecap="round" stroke-linejoin="round"/>
<path d="M126.243 85.1371L100 103.323V106.774L127.624 88.1286L126.243 85.1371Z" stroke="white" stroke-width="2" stroke-linecap="round" stroke-linejoin="round"/>
<path d="M99.0559 106.775L59.2309 96.1863L59 92.0424L99.0559 103.324" stroke="white" stroke-width="2" stroke-linecap="round" stroke-linejoin="round"/>
<path d="M21 122.201L57.7181 134.977L87.7586 113.913L51.3868 102.288L21 122.201Z" stroke="white" stroke-width="2" stroke-linecap="round" stroke-linejoin="round"/>
<path d="M31 115.639L67.4853 127.955" stroke="white" stroke-width="2" stroke-linecap="round" stroke-linejoin="round"/>
<path d="M43 108.328L78.9003 120.448" stroke="white" stroke-width="2" stroke-linecap="round" stroke-linejoin="round"/>
<path d="M29 124.731L59.2714 104.818" stroke="white" stroke-width="2" stroke-linecap="round" stroke-linejoin="round"/>
<path d="M39 128.182L69.2733 107.809" stroke="white" stroke-width="2" stroke-linecap="round" stroke-linejoin="round"/>
<path d="M48 131.293L77.9348 110.806" stroke="white" stroke-width="2" stroke-linecap="round" stroke-linejoin="round"/>
<path d="M118 13.4434L130.839 16.7617H136.536" stroke="white" stroke-width="2" stroke-linecap="round" stroke-linejoin="round"/>
<path d="M107 19.3438L115.114 20.8973" stroke="white" stroke-width="2" stroke-linecap="round" stroke-linejoin="round"/>
<path d="M126 23.0303L129.972 23.719" stroke="white" stroke-width="2" stroke-linecap="round" stroke-linejoin="round"/>
<path d="M121 29.0802L127.562 30.4615" stroke="white" stroke-width="2" stroke-linecap="round" stroke-linejoin="round"/>
<path d="M122 36.4952L126.316 37.3581" stroke="white" stroke-width="2" stroke-linecap="round" stroke-linejoin="round"/>
<path d="M118 43.9142L124.388 45.2955" stroke="white" stroke-width="2" stroke-linecap="round" stroke-linejoin="round"/>
<path d="M113 50.8244L123.878 53.2407" stroke="white" stroke-width="2" stroke-linecap="round" stroke-linejoin="round"/>
<path d="M104 26.2521L114.358 27.8055" stroke="white" stroke-width="2" stroke-linecap="round" stroke-linejoin="round"/>
<path d="M102 32.8146L110.286 34.3681" stroke="white" stroke-width="2" stroke-linecap="round" stroke-linejoin="round"/>
<path d="M101 40.5812L106.525 41.6162" stroke="white" stroke-width="2" stroke-linecap="round" stroke-linejoin="round"/>
<path d="M134.922 9.1846L134 11.0316" stroke="white" stroke-width="2" stroke-linecap="round" stroke-linejoin="round"/>
<path d="M87 56.5829C87 56.5829 94.0435 42.4646 98.2324 33.4725C102.421 24.4803 93.437 22.9777 90.4396 26.2783C87.4422 29.579 93.437 45.1607 93.437 45.1607C94.9257 52.0378 98.121 58.4297 102.729 63.7477C106.028 67.5243 109.986 70.6711 114.409 73.0353" stroke="white" stroke-width="2" stroke-linecap="round" stroke-linejoin="round"/>
<path d="M109 64.343L113.5 68.2385" stroke="white" stroke-width="2" stroke-linecap="round" stroke-linejoin="round"/>
<path d="M42 108.606L77.0629 121.586L79.6612 119.788L43.89 107.204L42 108.606Z" fill="white"/>
<path d="M31 116.23L66.6283 129.247L69.2266 127.453C57.3035 123.256 44.815 119.026 32.8939 114.831L31 116.23Z" fill="white"/>
<path d="M85.5385 173.726C99.643 173.726 111.077 162.292 111.077 148.188C111.077 134.083 99.643 122.649 85.5385 122.649C71.434 122.649 60 134.083 60 148.188C60 162.292 71.434 173.726 85.5385 173.726Z" fill="#232323" stroke="white" stroke-width="2" stroke-linecap="round" stroke-linejoin="round"/>
<path d="M85.0852 170.274C97.2826 170.274 107.17 160.386 107.17 148.189C107.17 135.991 97.2826 126.103 85.0852 126.103C72.8879 126.103 63 135.991 63 148.189C63 160.386 72.8879 170.274 85.0852 170.274Z" fill="#232323" stroke="white" stroke-width="2" stroke-linecap="round" stroke-linejoin="round"/>
<path d="M78.1389 138.802V142.582H81.3574V153.638H78V157.976H81.3593V160.075H84.0202V157.7H84.9985V160.079H87.5185V157.561H90.0385C90.5349 157.561 91.0264 157.464 91.485 157.274C91.9437 157.084 92.3604 156.805 92.7114 156.454C93.0624 156.103 93.3408 155.686 93.5308 155.228C93.7207 154.769 93.8185 154.278 93.8185 153.781V151.682C93.8185 151.186 93.7207 150.694 93.5308 150.235C93.3408 149.777 93.0624 149.36 92.7114 149.009C92.3604 148.658 91.9437 148.38 91.485 148.19C91.0264 148 90.5349 147.902 90.0385 147.902C91.0405 147.787 91.9652 147.307 92.6362 146.554C93.3073 145.801 93.678 144.827 93.6776 143.819V143.054C93.6776 141.964 93.2448 140.919 92.4742 140.148C91.7037 139.378 90.6586 138.945 89.5689 138.945H87.2407V136.284H84.9965V138.663H83.7385V136.284H81.3574V138.663C81.3574 138.663 78.1389 138.634 78.1389 138.802Z" fill="#232323" stroke="white" stroke-width="2" stroke-miterlimit="10"/>
<path d="M84 142.527V146.305H88.2554C88.76 146.305 89.2439 146.104 89.6009 145.748C89.9578 145.391 90.1586 144.908 90.1591 144.403C90.1597 143.902 89.9625 143.421 89.6105 143.065C89.2584 142.708 88.7799 142.505 88.2789 142.499C86.4652 142.472 84 142.454 84 142.527Z" fill="#232323" stroke="white" stroke-width="2" stroke-linecap="round" stroke-linejoin="round"/>
<path d="M84 150.216V153.994H88.813C89.3179 153.994 89.8021 153.794 90.1592 153.437C90.5162 153.08 90.7167 152.595 90.7167 152.091C90.7173 151.59 90.5201 151.109 90.1679 150.753C89.8158 150.397 89.3373 150.194 88.8365 150.189C87.0267 150.165 84 150.154 84 150.216Z" fill="#232323" stroke="white" stroke-width="2" stroke-linecap="round" stroke-linejoin="round"/>
<defs>
<linearGradient id="paint0_linear_0_484" x1="1.00187" y1="68.2383" x2="86.0156" y2="67.8961" gradientUnits="userSpaceOnUse">
<stop stop-color="#FEC45D"/>
<stop offset="1" stop-color="#F8B8F0"/>
</linearGradient>
</defs>
</svg>
