<svg width="115" height="127" viewBox="0 0 115 127" fill="none" xmlns="http://www.w3.org/2000/svg">
<path d="M62.5132 41.063L59.8605 55.1067L36.7316 70.3549L2.96765 63.9761C2.33858 63.8567 1.78253 63.4927 1.42141 62.964C1.06028 62.4353 0.923544 61.7849 1.04118 61.1555L6.8234 30.552C6.94246 29.9228 7.30635 29.3665 7.83518 29.0053C8.36401 28.6441 9.01456 28.5076 9.644 28.6256L60.5811 38.2509C61.2097 38.3687 61.7659 38.7308 62.128 39.2579C62.4901 39.7849 62.6287 40.434 62.5132 41.063Z" fill="url(#paint0_linear_58_5054)"/>
<path d="M9.61525 40.8222L8.27146 47.934C8.23574 48.1231 8.36003 48.3053 8.54907 48.341L18.3063 50.1847C18.4954 50.2204 18.6776 50.0961 18.7133 49.9071L20.0571 42.7953C20.0928 42.6062 19.9685 42.424 19.7795 42.3883L10.0222 40.5446C9.83317 40.5089 9.65097 40.6332 9.61525 40.8222Z" stroke="#232323" stroke-width="2" stroke-linecap="round" stroke-linejoin="round"/>
<path d="M42.7739 47.0317L41.4302 54.1435C41.3944 54.3326 41.5187 54.5148 41.7078 54.5505L54.8061 57.0254C54.9952 57.0612 55.1774 56.9369 55.2131 56.7478L56.5569 49.636C56.5926 49.447 56.4683 49.2648 56.2793 49.2291L43.1809 46.7541C42.9919 46.7184 42.8097 46.8427 42.7739 47.0317Z" stroke="#232323" stroke-width="2" stroke-linecap="round" stroke-linejoin="round"/>
<path d="M9.65112 42.0404L19.9533 43.988" stroke="#232323" stroke-width="2" stroke-linecap="round" stroke-linejoin="round"/>
<path d="M8.92773 46.4991L19.23 48.4467" stroke="#232323" stroke-width="2" stroke-linecap="round" stroke-linejoin="round"/>
<path d="M12.5136 41.0928L11.092 48.6111" stroke="#232323" stroke-width="2" stroke-linecap="round" stroke-linejoin="round"/>
<path d="M17.5595 42.1222L16.1379 49.6405" stroke="#232323" stroke-width="2" stroke-linecap="round" stroke-linejoin="round"/>
<path d="M42.6528 66.586C42.413 66.2371 42.2442 65.8443 42.1562 65.4302C42.0681 65.016 42.0625 64.5886 42.1396 64.1723C42.2168 63.756 42.3752 63.3589 42.6057 63.0038C42.8363 62.6487 43.1346 62.3425 43.4835 62.1027C43.8324 61.8628 44.2252 61.6941 44.6393 61.606C45.0535 61.518 45.4809 61.5123 45.8972 61.5895C46.738 61.7453 47.4825 62.2287 47.9669 62.9333" stroke="#232323" stroke-width="2" stroke-linecap="round" stroke-linejoin="round"/>
<path d="M9.17544 51.1872L8.96937 52.2778C8.94637 52.3995 9.02638 52.5168 9.14807 52.5398L9.54302 52.6144C9.66471 52.6374 9.782 52.5574 9.80499 52.4357L10.0111 51.3451C10.0341 51.2234 9.95405 51.1061 9.83236 51.0831L9.43741 51.0085C9.31572 50.9855 9.19843 51.0655 9.17544 51.1872Z" stroke="#232323" stroke-width="2" stroke-linecap="round" stroke-linejoin="round"/>
<path d="M11.3397 51.6071L11.1337 52.6977C11.1107 52.8194 11.1907 52.9367 11.3124 52.9597L11.7073 53.0343C11.829 53.0573 11.9463 52.9773 11.9693 52.8556L12.1754 51.765C12.1984 51.6433 12.1184 51.526 11.9967 51.503L11.6017 51.4284C11.48 51.4054 11.3627 51.4854 11.3397 51.6071Z" stroke="#232323" stroke-width="2" stroke-linecap="round" stroke-linejoin="round"/>
<path d="M13.5011 52.0309L13.2951 53.1215C13.2721 53.2431 13.3521 53.3604 13.4738 53.3834L13.8687 53.4581C13.9904 53.481 14.1077 53.401 14.1307 53.2794L14.3367 52.1887C14.3597 52.0671 14.2797 51.9498 14.158 51.9268L13.7631 51.8521C13.6414 51.8292 13.5241 51.9092 13.5011 52.0309Z" stroke="#232323" stroke-width="2" stroke-linecap="round" stroke-linejoin="round"/>
<path d="M15.6654 52.4499L15.4594 53.5405C15.4364 53.6622 15.5164 53.7795 15.6381 53.8025L16.033 53.8771C16.1547 53.9001 16.272 53.8201 16.295 53.6984L16.5011 52.6078C16.524 52.4861 16.444 52.3688 16.3223 52.3458L15.9274 52.2712C15.8057 52.2482 15.6884 52.3282 15.6654 52.4499Z" stroke="#232323" stroke-width="2" stroke-linecap="round" stroke-linejoin="round"/>
<path d="M19.9877 53.2345L19.7816 54.3251C19.7586 54.4468 19.8386 54.5641 19.9603 54.5871L20.3553 54.6617C20.477 54.6847 20.5943 54.6047 20.6172 54.483L20.8233 53.3924C20.8463 53.2707 20.7663 53.1534 20.6446 53.1304L20.2497 53.0558C20.128 53.0328 20.0107 53.1128 19.9877 53.2345Z" stroke="#232323" stroke-width="2" stroke-linecap="round" stroke-linejoin="round"/>
<path d="M22.1525 53.66L21.9464 54.7506C21.9234 54.8723 22.0034 54.9896 22.1251 55.0126L22.5201 55.0872C22.6418 55.1102 22.759 55.0302 22.782 54.9085L22.9881 53.8179C23.0111 53.6962 22.9311 53.5789 22.8094 53.556L22.4145 53.4813C22.2928 53.4583 22.1755 53.5383 22.1525 53.66Z" stroke="#232323" stroke-width="2" stroke-linecap="round" stroke-linejoin="round"/>
<path d="M24.3136 54.0822L24.1076 55.1728C24.0846 55.2945 24.1646 55.4118 24.2863 55.4348L24.6812 55.5094C24.8029 55.5324 24.9202 55.4524 24.9432 55.3307L25.1492 54.2401C25.1722 54.1184 25.0922 54.0011 24.9705 53.9781L24.5756 53.9035C24.4539 53.8805 24.3366 53.9605 24.3136 54.0822Z" stroke="#232323" stroke-width="2" stroke-linecap="round" stroke-linejoin="round"/>
<path d="M26.4745 54.5009L26.2684 55.5915C26.2454 55.7131 26.3255 55.8304 26.4471 55.8534L26.8421 55.9281C26.9638 55.9511 27.0811 55.871 27.1041 55.7494L27.3101 54.6587C27.3331 54.5371 27.2531 54.4198 27.1314 54.3968L26.7365 54.3221C26.6148 54.2992 26.4975 54.3792 26.4745 54.5009Z" stroke="#232323" stroke-width="2" stroke-linecap="round" stroke-linejoin="round"/>
<path d="M30.08 55.245L29.8739 56.3356C29.8509 56.4573 29.9309 56.5745 30.0526 56.5975L30.4476 56.6722C30.5692 56.6952 30.6865 56.6152 30.7095 56.4935L30.9156 55.4029C30.9386 55.2812 30.8586 55.1639 30.7369 55.1409L30.342 55.0663C30.2203 55.0433 30.103 55.1233 30.08 55.245Z" stroke="#232323" stroke-width="2" stroke-linecap="round" stroke-linejoin="round"/>
<path d="M32.245 55.6576L32.0389 56.7482C32.016 56.8699 32.096 56.9872 32.2177 57.0102L32.6126 57.0848C32.7343 57.1078 32.8516 57.0278 32.8746 56.9061L33.0806 55.8155C33.1036 55.6938 33.0236 55.5765 32.9019 55.5535L32.507 55.4789C32.3853 55.4559 32.268 55.5359 32.245 55.6576Z" stroke="#232323" stroke-width="2" stroke-linecap="round" stroke-linejoin="round"/>
<path d="M34.4113 56.1375L34.2006 57.2243C34.1771 57.3459 34.2565 57.4636 34.3781 57.4871L34.7713 57.5633C34.8929 57.5869 35.0106 57.5075 35.0341 57.3859L35.2448 56.299C35.2684 56.1774 35.1889 56.0598 35.0673 56.0362L34.6741 55.96C34.5525 55.9364 34.4349 56.0159 34.4113 56.1375Z" stroke="#232323" stroke-width="2" stroke-linecap="round" stroke-linejoin="round"/>
<path d="M37.2875 56.4995L37.0814 57.5901C37.0584 57.7118 37.1384 57.8291 37.2601 57.8521L37.6551 57.9267C37.7768 57.9497 37.8941 57.8697 37.9171 57.748L38.1231 56.6574C38.1461 56.5357 38.0661 56.4185 37.9444 56.3955L37.5495 56.3208C37.4278 56.2978 37.3105 56.3779 37.2875 56.4995Z" stroke="#232323" stroke-width="2" stroke-linecap="round" stroke-linejoin="round"/>
<path d="M41.6132 57.3155L41.4071 58.4061C41.3841 58.5278 41.4641 58.6451 41.5858 58.6681L41.9808 58.7427C42.1024 58.7657 42.2197 58.6857 42.2427 58.564L42.4488 57.4734C42.4718 57.3517 42.3918 57.2344 42.2701 57.2114L41.8752 57.1368C41.7535 57.1138 41.6362 57.1938 41.6132 57.3155Z" stroke="#232323" stroke-width="2" stroke-linecap="round" stroke-linejoin="round"/>
<path d="M43.7772 57.7348L43.5712 58.8254C43.5482 58.9471 43.6282 59.0644 43.7499 59.0873L44.1448 59.162C44.2665 59.185 44.3838 59.105 44.4068 58.9833L44.6129 57.8927C44.6359 57.771 44.5559 57.6537 44.4342 57.6307L44.0392 57.5561C43.9175 57.5331 43.8002 57.6131 43.7772 57.7348Z" stroke="#232323" stroke-width="2" stroke-linecap="round" stroke-linejoin="round"/>
<path d="M45.9384 58.158L45.7323 59.2486C45.7093 59.3703 45.7893 59.4875 45.911 59.5105L46.306 59.5852C46.4276 59.6082 46.5449 59.5281 46.5679 59.4065L46.774 58.3158C46.797 58.1942 46.717 58.0769 46.5953 58.0539L46.2004 57.9793C46.0787 57.9563 45.9614 58.0363 45.9384 58.158Z" stroke="#232323" stroke-width="2" stroke-linecap="round" stroke-linejoin="round"/>
<path d="M48.0998 58.5783L47.8937 59.6689C47.8707 59.7906 47.9507 59.9079 48.0724 59.9309L48.4673 60.0055C48.589 60.0285 48.7063 59.9485 48.7293 59.8268L48.9354 58.7362C48.9584 58.6145 48.8784 58.4972 48.7567 58.4742L48.3617 58.3996C48.24 58.3766 48.1227 58.4566 48.0998 58.5783Z" stroke="#232323" stroke-width="2" stroke-linecap="round" stroke-linejoin="round"/>
<path d="M26.4384 59.3637L26.2268 60.4779" stroke="#232323" stroke-width="2" stroke-linecap="round" stroke-linejoin="round"/>
<path d="M28.6015 59.68L28.3914 60.7941" stroke="#232323" stroke-width="2" stroke-linecap="round" stroke-linejoin="round"/>
<path d="M30.7621 60.2073L30.552 61.3214" stroke="#232323" stroke-width="2" stroke-linecap="round" stroke-linejoin="round"/>
<path d="M32.9274 60.5219L32.7173 61.636" stroke="#232323" stroke-width="2" stroke-linecap="round" stroke-linejoin="round"/>
<path d="M44.4597 123.872L113.82 87.3669L113.488 62.9688L102.702 66.7851L48.85 104.628C47.3974 105.648 46.2182 107.01 45.4164 108.593C44.6146 110.177 44.2148 111.934 44.2524 113.708L44.4597 123.872Z" stroke="white" stroke-width="2" stroke-linecap="round" stroke-linejoin="round"/>
<path d="M90.9192 61.6398L60.0717 55.0114L5.82463 91.1235C4.34061 92.1116 3.12368 93.451 2.28199 95.0227C1.4403 96.5944 0.999922 98.3496 1 100.132V107.946L44.8067 123.882V118.562" stroke="white" stroke-width="2" stroke-miterlimit="10"/>
<path d="M60.1047 55.0073L71.3885 53.3488L113.868 62.9726" stroke="white" stroke-width="2" stroke-linecap="round" stroke-linejoin="round"/>
<path d="M114 81.8893L44.6402 118.56L1 104.124" stroke="white" stroke-width="2" stroke-linecap="round" stroke-linejoin="round"/>
<path d="M71.1043 55.515C69.223 50.6396 64.5295 36.531 69.5925 20.0841C71.7786 13.0467 75.4154 6.54553 80.2685 1C82.915 1.15811 85.5331 1.63156 88.0674 2.4103C91.2867 3.41155 94.3567 4.84124 97.1948 6.66093C98.7322 6.43332 100.288 6.35398 101.84 6.424C104.748 6.56635 107.61 7.20503 110.302 8.31239C106.902 11.0611 100.07 17.3806 96.3811 27.8563C90.5199 44.4978 97.0242 59.0027 98.5205 62.1392L71.1043 55.515Z" fill="#232323" stroke="white" stroke-width="2" stroke-linecap="round" stroke-linejoin="round"/>
<path d="M49.2961 65.9574L61.577 57.2404L85.4703 62.4726L72.5266 71.765L49.2961 65.9574Z" fill="white" stroke="white" stroke-width="2" stroke-linecap="round" stroke-linejoin="round"/>
<path d="M91.2784 61.6476L72.3621 74.7563V77.2441L92.274 63.804L91.2784 61.6476Z" stroke="white" stroke-width="2" stroke-linecap="round" stroke-linejoin="round"/>
<path d="M71.6789 77.2445L42.9723 69.6119L42.8059 66.6249L71.6789 74.7567" stroke="white" stroke-width="2" stroke-linecap="round" stroke-linejoin="round"/>
<path d="M15.4177 88.3641L41.8848 97.5734L63.5385 82.3901L37.321 74.0101L15.4177 88.3641Z" stroke="white" stroke-width="2" stroke-linecap="round" stroke-linejoin="round"/>
<path d="M22.625 83.6338L48.9242 92.5116" stroke="white" stroke-width="2" stroke-linecap="round" stroke-linejoin="round"/>
<path d="M31.2732 78.3636L57.1507 87.1004" stroke="white" stroke-width="2" stroke-linecap="round" stroke-linejoin="round"/>
<path d="M21.1841 90.1876L43.0042 75.8336" stroke="white" stroke-width="2" stroke-linecap="round" stroke-linejoin="round"/>
<path d="M28.3914 92.6754L50.2129 77.99" stroke="white" stroke-width="2" stroke-linecap="round" stroke-linejoin="round"/>
<path d="M34.8787 94.9174L56.4562 80.1501" stroke="white" stroke-width="2" stroke-linecap="round" stroke-linejoin="round"/>
<path d="M85.3354 9.96942L94.5898 12.3613H98.6966" stroke="white" stroke-width="2" stroke-linecap="round" stroke-linejoin="round"/>
<path d="M77.4082 14.2224L83.2567 15.3422" stroke="white" stroke-width="2" stroke-linecap="round" stroke-linejoin="round"/>
<path d="M91.1023 16.8799L93.9652 17.3763" stroke="white" stroke-width="2" stroke-linecap="round" stroke-linejoin="round"/>
<path d="M87.4968 21.2405L92.227 22.2361" stroke="white" stroke-width="2" stroke-linecap="round" stroke-linejoin="round"/>
<path d="M88.2166 26.5854L91.3277 27.2074" stroke="white" stroke-width="2" stroke-linecap="round" stroke-linejoin="round"/>
<path d="M85.3354 31.9333L89.9401 32.929" stroke="white" stroke-width="2" stroke-linecap="round" stroke-linejoin="round"/>
<path d="M81.7305 36.9141L89.5717 38.6558" stroke="white" stroke-width="2" stroke-linecap="round" stroke-linejoin="round"/>
<path d="M75.2437 19.202L82.7098 20.3218" stroke="white" stroke-width="2" stroke-linecap="round" stroke-linejoin="round"/>
<path d="M73.8025 23.9325L79.7751 25.0523" stroke="white" stroke-width="2" stroke-linecap="round" stroke-linejoin="round"/>
<path d="M73.0823 29.5307L77.065 30.2767" stroke="white" stroke-width="2" stroke-linecap="round" stroke-linejoin="round"/>
<path d="M97.5331 6.89969L96.8689 8.23101" stroke="white" stroke-width="2" stroke-linecap="round" stroke-linejoin="round"/>
<path d="M62.9905 41.065C62.9905 41.065 68.0676 30.8883 71.087 24.4066C74.1064 17.9249 67.6304 16.8418 65.4698 19.2209C63.3092 21.6001 67.6304 32.8317 67.6304 32.8317C68.7035 37.7888 71.0067 42.3962 74.3279 46.2296C76.7065 48.9518 79.5592 51.22 82.7473 52.9242" stroke="white" stroke-width="2" stroke-linecap="round" stroke-linejoin="round"/>
<path d="M78.8486 46.6586L82.0923 49.4665" stroke="white" stroke-width="2" stroke-linecap="round" stroke-linejoin="round"/>
<path d="M30.552 78.5645L55.826 87.9204L57.6988 86.6244L31.9144 77.5533L30.552 78.5645Z" fill="white"/>
<path d="M22.625 84.0602L48.3065 93.4429L50.1794 92.1497C41.5851 89.1246 32.5831 86.0756 23.9902 83.0519L22.625 84.0602Z" fill="white"/>
<path d="M61.9396 125.504C72.1064 125.504 80.3482 117.263 80.3482 107.096C80.3482 96.9291 72.1064 88.6873 61.9396 88.6873C51.7728 88.6873 43.531 96.9291 43.531 107.096C43.531 117.263 51.7728 125.504 61.9396 125.504Z" fill="#232323" stroke="white" stroke-width="2" stroke-linecap="round" stroke-linejoin="round"/>
<path d="M61.6116 123.016C70.4036 123.016 77.531 115.888 77.531 107.096C77.531 98.3043 70.4036 91.177 61.6116 91.177C52.8195 91.177 45.6921 98.3043 45.6921 107.096C45.6921 115.888 52.8195 123.016 61.6116 123.016Z" fill="#232323" stroke="white" stroke-width="2" stroke-linecap="round" stroke-linejoin="round"/>
<path d="M56.6048 100.33V103.055H58.9247V111.025H56.5046V114.151H58.9261V115.665H60.8441V113.953H61.5493V115.667H63.3657V113.852H65.1822C65.54 113.852 65.8943 113.782 66.2249 113.645C66.5555 113.508 66.8558 113.307 67.1088 113.054C67.3619 112.801 67.5626 112.501 67.6995 112.17C67.8364 111.84 67.9069 111.486 67.9069 111.128V109.614C67.9069 109.257 67.8364 108.902 67.6995 108.572C67.5626 108.241 67.3619 107.941 67.1088 107.688C66.8558 107.435 66.5555 107.234 66.2249 107.097C65.8943 106.96 65.54 106.89 65.1822 106.89C65.9045 106.807 66.571 106.461 67.0547 105.918C67.5384 105.375 67.8056 104.674 67.8053 103.946V103.395C67.8053 102.61 67.4933 101.856 66.9379 101.301C66.3825 100.745 65.6292 100.433 64.8437 100.433H63.1655V98.5154H61.5479V100.23H60.641V98.5154H58.9247V100.23C58.9247 100.23 56.6048 100.209 56.6048 100.33Z" fill="#232323" stroke="white" stroke-width="2" stroke-miterlimit="10"/>
<path d="M60.8303 103.015V105.738H63.8977C64.2614 105.738 64.6102 105.594 64.8675 105.337C65.1248 105.08 65.2696 104.731 65.2699 104.368C65.2703 104.006 65.1282 103.66 64.8744 103.403C64.6207 103.146 64.2758 102.999 63.9146 102.995C62.6073 102.976 60.8303 102.963 60.8303 103.015Z" fill="#232323" stroke="white" stroke-width="2" stroke-linecap="round" stroke-linejoin="round"/>
<path d="M60.8303 108.558V111.281H64.2997C64.6636 111.281 65.0126 111.136 65.27 110.879C65.5273 110.622 65.6719 110.273 65.6719 109.909C65.6723 109.548 65.5301 109.201 65.2763 108.944C65.0225 108.688 64.6776 108.542 64.3166 108.538C63.012 108.521 60.8303 108.513 60.8303 108.558Z" fill="#232323" stroke="white" stroke-width="2" stroke-linecap="round" stroke-linejoin="round"/>
<defs>
<linearGradient id="paint0_linear_58_5054" x1="1.00135" y1="49.4666" x2="62.2807" y2="49.2199" gradientUnits="userSpaceOnUse">
<stop stop-color="#FEC45D"/>
<stop offset="1" stop-color="#F8B8F0"/>
</linearGradient>
</defs>
</svg>
