<svg width="117" height="124" viewBox="0 0 117 124" fill="none" xmlns="http://www.w3.org/2000/svg">
<path d="M100.043 31.1053H14.7257C13.0173 31.1053 11.6323 32.4903 11.6323 34.1988V119.172C11.6323 120.88 13.0173 122.265 14.7257 122.265H100.043C101.752 122.265 103.137 120.88 103.137 119.172V34.1988C103.137 32.4903 101.752 31.1053 100.043 31.1053Z" stroke="#232323" stroke-width="2" stroke-miterlimit="10"/>
<path d="M12.2808 41.6176H103.441" stroke="#232323" stroke-width="2" stroke-miterlimit="10"/>
<path d="M84.2054 38.4823C85.3947 38.4823 86.3588 37.5182 86.3588 36.3289C86.3588 35.1396 85.3947 34.1755 84.2054 34.1755C83.0161 34.1755 82.052 35.1396 82.052 36.3289C82.052 37.5182 83.0161 38.4823 84.2054 38.4823Z" fill="#E9E9E9" stroke="#232323" stroke-width="2" stroke-linecap="round" stroke-linejoin="round"/>
<path d="M90.0233 38.4825C91.2126 38.4825 92.1767 37.5183 92.1767 36.3291C92.1767 35.1398 91.2126 34.1757 90.0233 34.1757C88.834 34.1757 87.8699 35.1398 87.8699 36.3291C87.8699 37.5183 88.834 38.4825 90.0233 38.4825Z" fill="#E9E9E9" stroke="#232323" stroke-width="2" stroke-linecap="round" stroke-linejoin="round"/>
<path d="M96.483 38.4822C97.6723 38.4822 98.6364 37.518 98.6364 36.3288C98.6364 35.1395 97.6723 34.1754 96.483 34.1754C95.2937 34.1754 94.3296 35.1395 94.3296 36.3288C94.3296 37.518 95.2937 38.4822 96.483 38.4822Z" fill="#E9E9E9" stroke="#232323" stroke-width="2" stroke-linecap="round" stroke-linejoin="round"/>
<path d="M16.1499 66.4324H17.8737" stroke="#232323" stroke-width="2" stroke-miterlimit="10"/>
<path d="M16.1499 73.6707H17.8737" stroke="#232323" stroke-width="2" stroke-miterlimit="10"/>
<path d="M16.1499 80.9065H17.8737" stroke="#232323" stroke-width="2" stroke-miterlimit="10"/>
<path d="M16.1499 88.1469H17.8737" stroke="#232323" stroke-width="2" stroke-miterlimit="10"/>
<path d="M16.1499 95.383H17.8737" stroke="#232323" stroke-width="2" stroke-miterlimit="10"/>
<path d="M16.1499 102.619H17.8737" stroke="#232323" stroke-width="2" stroke-miterlimit="10"/>
<path d="M16.1499 109.86H17.8737" stroke="#232323" stroke-width="2" stroke-miterlimit="10"/>
<path d="M41.6064 15.597H1.1297C0.505783 15.597 0 16.1028 0 16.7267V55.308C0 55.9319 0.505783 56.4377 1.1297 56.4377H41.6064C42.2303 56.4377 42.7361 55.9319 42.7361 55.308V16.7267C42.7361 16.1028 42.2303 15.597 41.6064 15.597Z" fill="url(#paint0_linear_58_5004)"/>
<path d="M16.316 20.5923H12.9199V36.2337H16.316V20.5923Z" fill="#232323" stroke="#232323" stroke-width="2" stroke-miterlimit="10"/>
<path d="M9.85554 25.431H6.45947V28.6611H9.85554V25.431Z" fill="#232323" stroke="#232323" stroke-width="2" stroke-miterlimit="10"/>
<path d="M23.4232 22.9418H20.0271V30.1566H23.4232V22.9418Z" fill="#232323" stroke="#232323" stroke-width="2" stroke-miterlimit="10"/>
<path d="M29.8831 28.7469H26.4871V41.3731H29.8831V28.7469Z" fill="#232323" stroke="#232323" stroke-width="2" stroke-miterlimit="10"/>
<path d="M36.9906 23.3572H33.5945V28.6612H36.9906V23.3572Z" fill="#232323" stroke="#232323" stroke-width="2" stroke-miterlimit="10"/>
<path d="M9.85554 25.431H6.45947V51.2788H9.85554V25.431Z" stroke="#232323" stroke-width="2" stroke-miterlimit="10"/>
<path d="M16.316 20.5923H12.9199V51.2783H16.316V20.5923Z" stroke="#232323" stroke-width="2" stroke-miterlimit="10"/>
<path d="M23.4232 22.9418H20.0271V51.2778H23.4232V22.9418Z" stroke="#232323" stroke-width="2" stroke-miterlimit="10"/>
<path d="M29.8831 28.7469H26.4871V51.2768H29.8831V28.7469Z" stroke="#232323" stroke-width="2" stroke-miterlimit="10"/>
<path d="M36.9906 23.3572H33.5945V51.2776H36.9906V23.3572Z" stroke="#232323" stroke-width="2" stroke-miterlimit="10"/>
<path d="M65.9014 115.186V116.91" stroke="#232323" stroke-width="2" stroke-miterlimit="10"/>
<path d="M58.7954 115.186V116.91" stroke="#232323" stroke-width="2" stroke-miterlimit="10"/>
<path d="M51.04 115.186V116.909" stroke="#232323" stroke-width="2" stroke-miterlimit="10"/>
<path d="M43.9324 115.186V116.909" stroke="#232323" stroke-width="2" stroke-miterlimit="10"/>
<path d="M36.824 115.186V116.909" stroke="#232323" stroke-width="2" stroke-miterlimit="10"/>
<path d="M29.7173 115.186V116.909" stroke="#232323" stroke-width="2" stroke-miterlimit="10"/>
<path d="M22.6167 115.185V116.909" stroke="#232323" stroke-width="2" stroke-miterlimit="10"/>
<path d="M27.3947 109.546C27.2491 109.546 27.1056 109.512 26.9762 109.445C26.8469 109.378 26.7357 109.281 26.6519 109.161C26.5681 109.042 26.5143 108.905 26.495 108.761C26.4758 108.616 26.4916 108.469 26.5412 108.332L36.569 80.4387C36.7934 79.797 37.2131 79.2416 37.7691 78.8504C38.3251 78.4592 38.9896 78.2519 39.6694 78.2574H39.721C40.41 78.2618 41.0799 78.4847 41.6343 78.8939C42.1886 79.3032 42.5989 79.8777 42.806 80.5349L47.3444 94.5013L49.29 90.3689C50.0134 88.8322 51.3175 87.6458 52.9155 87.0704C54.5135 86.495 56.2745 86.5778 57.8115 87.3005C58.1403 87.4565 58.4556 87.6394 58.7543 87.8473L58.7752 87.8626L64.1755 91.8612L73.6915 85.6409C73.7459 85.6004 73.8002 85.56 73.856 85.5223C74.7314 84.9024 75.7723 84.5589 76.8447 84.536C77.9171 84.5132 78.9717 84.812 79.8727 85.394C80.8081 85.9671 81.5504 86.8071 82.0041 87.8059C82.4577 88.8047 82.6019 89.9164 82.418 90.9979L81.471 96.8444L93.9591 83.3759C94.1226 83.1994 94.3495 83.0952 94.5899 83.086C94.8302 83.0769 95.0644 83.1636 95.2408 83.3271C95.4173 83.4906 95.5215 83.7174 95.5307 83.9578C95.5398 84.1982 95.4531 84.4323 95.2896 84.6088L80.7612 100.282C80.6285 100.425 80.4537 100.52 80.2625 100.556C80.0713 100.591 79.8738 100.564 79.6991 100.479C79.5243 100.394 79.3816 100.255 79.2918 100.082C79.2021 99.9096 79.17 99.7129 79.2005 99.5208L80.6287 90.7134C80.7515 89.984 80.6537 89.2346 80.3478 88.5612C80.042 87.8878 79.5419 87.3211 78.9118 86.9337C78.3105 86.5458 77.6072 86.3463 76.8918 86.3607C76.1764 86.3751 75.4816 86.6028 74.8965 87.0146C74.8518 87.0453 74.8072 87.0788 74.757 87.1123L74.7068 87.1471L64.6371 93.7301C64.482 93.8315 64.2995 93.883 64.1142 93.8775C63.9289 93.872 63.7497 93.8098 63.6009 93.6994L57.7125 89.3256C57.1641 88.9448 56.5394 88.6881 55.8817 88.5733C55.2241 88.4586 54.5493 88.4885 53.9044 88.6611C53.2595 88.8337 52.6599 89.1447 52.1474 89.5726C51.635 90.0005 51.222 90.535 50.9371 91.1387L48.018 97.3423C47.9408 97.507 47.8157 97.6447 47.6592 97.7375C47.5026 97.8302 47.3218 97.8736 47.1402 97.8622C46.9586 97.8508 46.7847 97.785 46.641 97.6733C46.4973 97.5617 46.3906 97.4094 46.3346 97.2363L41.0836 81.0956C40.9875 80.8015 40.802 80.5448 40.553 80.3612C40.304 80.1777 40.0039 80.0765 39.6946 80.0717C39.3853 80.067 39.0822 80.1589 38.8276 80.3347C38.5731 80.5105 38.3798 80.7614 38.2747 81.0523L28.2469 108.946C28.1839 109.122 28.0683 109.274 27.9157 109.381C27.7632 109.488 27.5812 109.546 27.3947 109.546Z" fill="#232323" stroke="#232323" stroke-width="2" stroke-linecap="round" stroke-linejoin="round"/>
<path d="M38.3771 107.551C38.2912 107.551 38.2057 107.538 38.1232 107.514C37.894 107.447 37.7006 107.293 37.5849 107.084C37.4692 106.875 37.4406 106.629 37.5054 106.399L50.1078 63.1048C50.2582 62.5915 50.5785 62.1444 51.0161 61.8369C51.4538 61.5294 51.9829 61.3795 52.5168 61.4119C53.0507 61.4443 53.5578 61.6571 53.955 62.0153C54.3522 62.3735 54.6161 62.856 54.7033 63.3837L60.1552 96.2091L85.0922 64.2247C85.1636 64.1255 85.2542 64.0417 85.3587 63.9784C85.4632 63.9151 85.5794 63.8735 85.7004 63.8562C85.8213 63.8388 85.9445 63.8461 86.0626 63.8775C86.1807 63.9089 86.2912 63.9638 86.3876 64.0389C86.4839 64.114 86.5641 64.2078 86.6234 64.3147C86.6826 64.4216 86.7197 64.5393 86.7323 64.6608C86.745 64.7823 86.733 64.9052 86.6971 65.022C86.6611 65.1387 86.602 65.2471 86.5232 65.3404L60.3141 98.9525C60.2054 99.092 60.0581 99.1967 59.8906 99.2536C59.723 99.3105 59.5425 99.3171 59.3712 99.2726C59.2 99.2281 59.0455 99.1345 58.9268 99.0033C58.8081 98.872 58.7304 98.7089 58.7033 98.5341L52.9125 63.6668C52.8929 63.5439 52.832 63.4314 52.7398 63.3479C52.6476 63.2643 52.5297 63.2147 52.4055 63.2072C52.2813 63.1998 52.1583 63.2349 52.0567 63.3067C51.9552 63.3786 51.8812 63.483 51.847 63.6027L39.2473 106.898C39.1924 107.086 39.0779 107.252 38.921 107.369C38.7641 107.487 38.5732 107.551 38.3771 107.551Z" fill="#232323" stroke="#232323" stroke-width="2" stroke-linecap="round" stroke-linejoin="round"/>
<path d="M87.6287 63.3439C87.6287 63.8931 87.1835 64.3383 86.6343 64.3383C86.0851 64.3383 85.6399 63.8931 85.6399 63.3439C85.6399 62.7947 86.0851 62.3495 86.6343 62.3495C87.1835 62.3495 87.6287 62.7947 87.6287 63.3439Z" fill="#232323" stroke="#232323" stroke-width="2"/>
<path d="M85.5552 60.9546C85.9513 58.803 86.3469 56.652 86.7421 54.5013C87.4106 56.5339 88.0791 58.5655 88.7476 60.5961L93.7002 61.8765L88.9443 63.9685C88.4794 66.0271 88.0196 68.0847 87.5649 70.1414L85.1131 64.2363L81.4102 62.5111L85.5552 60.9546Z" fill="#232323" stroke="#232323" stroke-width="2" stroke-linecap="round" stroke-linejoin="round"/>
<path d="M78.4213 6.2811H56.1913C56.0249 6.2811 55.8652 6.21498 55.7475 6.09728C55.6298 5.97958 55.5637 5.81994 55.5637 5.65349C55.5637 5.48704 55.6298 5.3274 55.7475 5.2097C55.8652 5.092 56.0249 5.02588 56.1913 5.02588H78.4213C78.5878 5.02588 78.7474 5.092 78.8651 5.2097C78.9828 5.3274 79.0489 5.48704 79.0489 5.65349C79.0489 5.81994 78.9828 5.97958 78.8651 6.09728C78.7474 6.21498 78.5878 6.2811 78.4213 6.2811Z" stroke="#232323" stroke-width="2" stroke-linecap="round" stroke-linejoin="round"/>
<path d="M89.8372 17.4817H78.808C78.6416 17.4817 78.4819 17.4156 78.3642 17.2979C78.2465 17.1802 78.1804 17.0206 78.1804 16.8541C78.1804 16.6877 78.2465 16.528 78.3642 16.4103C78.4819 16.2926 78.6416 16.2265 78.808 16.2265H89.8372C90.0037 16.2265 90.1633 16.2926 90.281 16.4103C90.3987 16.528 90.4649 16.6877 90.4649 16.8541C90.4649 17.0206 90.3987 17.1802 90.281 17.2979C90.1633 17.4156 90.0037 17.4817 89.8372 17.4817V17.4817Z" stroke="#232323" stroke-width="2" stroke-linecap="round" stroke-linejoin="round"/>
<path d="M89.6262 12.1397H56.1913C56.0249 12.1397 55.8652 12.0736 55.7475 11.9559C55.6298 11.8382 55.5637 11.6785 55.5637 11.5121C55.5637 11.3456 55.6298 11.186 55.7475 11.0683C55.8652 10.9506 56.0249 10.8845 56.1913 10.8845H89.6262C89.7927 10.8845 89.9523 10.9506 90.07 11.0683C90.1877 11.186 90.2538 11.3456 90.2538 11.5121C90.2538 11.6785 90.1877 11.8382 90.07 11.9559C89.9523 12.0736 89.7927 12.1397 89.6262 12.1397Z" stroke="#232323" stroke-width="2" stroke-linecap="round" stroke-linejoin="round"/>
<path d="M84.879 6.2811H80.7424C80.5759 6.2811 80.4163 6.21498 80.2986 6.09728C80.1809 5.97958 80.1147 5.81994 80.1147 5.65349C80.1147 5.48704 80.1809 5.3274 80.2986 5.2097C80.4163 5.092 80.5759 5.02588 80.7424 5.02588H84.879C85.0455 5.02588 85.2051 5.092 85.3228 5.2097C85.4405 5.3274 85.5066 5.48704 85.5066 5.65349C85.5066 5.81994 85.4405 5.97958 85.3228 6.09728C85.2051 6.21498 85.0455 6.2811 84.879 6.2811V6.2811Z" stroke="#232323" stroke-width="2" stroke-linecap="round" stroke-linejoin="round"/>
<path d="M105.488 23.5293C111.294 23.5293 116 18.823 116 13.0175C116 7.21202 111.294 2.50574 105.488 2.50574C99.6828 2.50574 94.9766 7.21202 94.9766 13.0175C94.9766 18.823 99.6828 23.5293 105.488 23.5293Z" stroke="#232323" stroke-width="2" stroke-linecap="round" stroke-linejoin="round"/>
<path d="M104.197 22.0236C110.002 22.0236 114.708 17.3173 114.708 11.5118C114.708 5.70629 110.002 1 104.197 1C98.3911 1 93.6848 5.70629 93.6848 11.5118C93.6848 17.3173 98.3911 22.0236 104.197 22.0236Z" fill="#232323" stroke="#232323" stroke-width="2" stroke-linecap="round" stroke-linejoin="round"/>
<path d="M102.764 16.0148C102.696 16.0149 102.628 16.0016 102.565 15.9755C102.502 15.9494 102.444 15.9111 102.396 15.8628L98.3596 11.8266C98.3112 11.7781 98.2727 11.7206 98.2465 11.6573C98.2203 11.594 98.2068 11.5262 98.2068 11.4577C98.2068 11.3892 98.2203 11.3213 98.2465 11.258C98.2727 11.1947 98.3112 11.1372 98.3596 11.0888V11.0888L102.608 6.84057C102.707 6.74818 102.838 6.69789 102.974 6.70028C103.109 6.70267 103.238 6.75756 103.334 6.85338C103.43 6.94921 103.485 7.07848 103.487 7.21398C103.49 7.34947 103.439 7.48061 103.347 7.57975L99.467 11.457L103.138 15.1236C103.211 15.1966 103.261 15.2897 103.281 15.391C103.302 15.4924 103.291 15.5975 103.252 15.693C103.212 15.7885 103.145 15.8701 103.059 15.9274C102.973 15.9847 102.872 16.0151 102.768 16.0148H102.764Z" stroke="#232323" stroke-width="2" stroke-linecap="round" stroke-linejoin="round"/>
<path d="M106.063 16.0144C105.959 16.0147 105.858 15.9843 105.772 15.927C105.686 15.8697 105.619 15.7881 105.579 15.6926C105.54 15.5971 105.529 15.492 105.55 15.3906C105.57 15.2892 105.62 15.1962 105.693 15.1232L109.36 11.4566L105.481 7.57792C105.38 7.48341 105.32 7.35244 105.315 7.21382C105.31 7.07519 105.36 6.94027 105.455 6.83874C105.549 6.7372 105.68 6.67736 105.819 6.67239C105.957 6.66742 106.092 6.71773 106.194 6.81224C106.204 6.8206 106.212 6.83037 106.22 6.83874L110.469 11.087C110.566 11.185 110.622 11.318 110.622 11.4566C110.622 11.5952 110.566 11.7281 110.469 11.8262L106.432 15.8624C106.334 15.96 106.201 16.0147 106.063 16.0144V16.0144Z" stroke="#232323" stroke-width="2" stroke-linecap="round" stroke-linejoin="round"/>
<defs>
<linearGradient id="paint0_linear_58_5004" x1="0.000936268" y1="36.0145" x2="42.5474" y2="35.8928" gradientUnits="userSpaceOnUse">
<stop stop-color="#FEC45D"/>
<stop offset="1" stop-color="#F8B8F0"/>
</linearGradient>
</defs>
</svg>
