<svg width="191" height="206" viewBox="0 0 191 206" fill="none" xmlns="http://www.w3.org/2000/svg">
<path d="M103.683 57.2062L10.6916 80.8403C8.65277 81.3585 7.42006 83.4313 7.93823 85.4701L22.2612 141.826C22.7794 143.865 24.8522 145.097 26.891 144.579L119.883 120.945C121.921 120.427 123.154 118.354 122.636 116.315L108.313 59.9596C107.795 57.9208 105.722 56.6881 103.683 57.2062Z" fill="#232323" stroke="white" stroke-width="2" stroke-linecap="round" stroke-linejoin="round"/>
<path d="M39.2877 95.5307L21.532 100.043C21.2382 100.118 21.0605 100.417 21.1352 100.711L24.4365 113.7C24.5112 113.994 24.8099 114.171 25.1037 114.097L42.8595 109.584C43.1533 109.509 43.3309 109.211 43.2562 108.917L39.9549 95.9275C39.8802 95.6337 39.5815 95.456 39.2877 95.5307Z" fill="#232323" stroke="white" stroke-width="2" stroke-linecap="round" stroke-linejoin="round"/>
<path d="M104.312 78.95L80.532 84.9937C80.2382 85.0684 80.0605 85.3671 80.1352 85.6609L83.4365 98.6503C83.5112 98.9441 83.8099 99.1218 84.1037 99.0471L107.884 93.0034C108.177 92.9287 108.355 92.63 108.28 92.3362L104.979 79.3467C104.904 79.0529 104.606 78.8753 104.312 78.95Z" fill="#232323" stroke="#232323" stroke-width="2" stroke-linecap="round" stroke-linejoin="round"/>
<path d="M22 102.871L40.5691 98.1487" stroke="white" stroke-width="2" stroke-linecap="round" stroke-linejoin="round"/>
<path d="M24 110.9L42.5691 106.18" stroke="white" stroke-width="2" stroke-linecap="round" stroke-linejoin="round"/>
<path d="M25 99.2778L28.4467 112.827" stroke="white" stroke-width="2" stroke-linecap="round" stroke-linejoin="round"/>
<path d="M35 96.7886L38.4467 110.34" stroke="white" stroke-width="2" stroke-linecap="round" stroke-linejoin="round"/>
<path d="M97.8912 118.958C101.145 118.958 103.782 116.321 103.782 113.067C103.782 109.814 101.145 107.176 97.8912 107.176C94.6376 107.176 92 109.814 92 113.067C92 116.321 94.6376 118.958 97.8912 118.958Z" fill="#232323" stroke="#232323" stroke-width="2" stroke-linecap="round" stroke-linejoin="round"/>
<path d="M106.891 116.831C110.145 116.831 112.782 114.194 112.782 110.94C112.782 107.687 110.145 105.049 106.891 105.049C103.638 105.049 101 107.687 101 110.94C101 114.194 103.638 116.831 106.891 116.831Z" fill="#232323" stroke="#232323" stroke-width="2" stroke-linecap="round" stroke-linejoin="round"/>
<path d="M28.163 118.009L27.3425 118.218C27.1533 118.266 27.039 118.458 27.087 118.647L27.6147 120.723C27.6628 120.912 27.8551 121.027 28.0442 120.979L28.8648 120.77C29.0539 120.722 29.1683 120.53 29.1202 120.341L28.5925 118.264C28.5445 118.075 28.3522 117.961 28.163 118.009Z" fill="#232323" stroke="white" stroke-width="2" stroke-linecap="round" stroke-linejoin="round"/>
<path d="M32.163 116.987L31.3424 117.196C31.1533 117.244 31.039 117.436 31.087 117.625L31.6147 119.702C31.6628 119.891 31.8551 120.005 32.0442 119.957L32.8648 119.748C33.0539 119.7 33.1683 119.508 33.1202 119.319L32.5925 117.243C32.5445 117.054 32.3522 116.939 32.163 116.987Z" fill="#232323" stroke="white" stroke-width="2" stroke-linecap="round" stroke-linejoin="round"/>
<path d="M36.163 115.966L35.3425 116.175C35.1533 116.223 35.039 116.415 35.087 116.604L35.6147 118.681C35.6628 118.87 35.8551 118.984 36.0442 118.936L36.8648 118.728C37.0539 118.679 37.1683 118.487 37.1202 118.298L36.5925 116.222C36.5445 116.033 36.3522 115.918 36.163 115.966Z" fill="#232323" stroke="white" stroke-width="2" stroke-linecap="round" stroke-linejoin="round"/>
<path d="M40.163 114.947L39.3425 115.156C39.1533 115.204 39.039 115.396 39.087 115.585L39.6147 117.661C39.6628 117.851 39.8551 117.965 40.0442 117.917L40.8648 117.708C41.0539 117.66 41.1683 117.468 41.1202 117.279L40.5925 115.203C40.5445 115.013 40.3522 114.899 40.163 114.947Z" fill="#232323" stroke="white" stroke-width="2" stroke-linecap="round" stroke-linejoin="round"/>
<path d="M48.163 113.03L47.3424 113.239C47.1533 113.287 47.039 113.479 47.087 113.668L47.6147 115.744C47.6628 115.934 47.8551 116.048 48.0442 116L48.8648 115.791C49.0539 115.743 49.1683 115.551 49.1202 115.362L48.5925 113.286C48.5445 113.096 48.3522 112.982 48.163 113.03Z" fill="#232323" stroke="white" stroke-width="2" stroke-linecap="round" stroke-linejoin="round"/>
<path d="M52.163 112.012L51.3424 112.22C51.1533 112.269 51.039 112.461 51.087 112.65L51.6147 114.726C51.6628 114.915 51.8551 115.03 52.0442 114.982L52.8648 114.773C53.0539 114.725 53.1683 114.533 53.1202 114.344L52.5925 112.267C52.5445 112.078 52.3522 111.964 52.163 112.012Z" fill="#232323" stroke="white" stroke-width="2" stroke-linecap="round" stroke-linejoin="round"/>
<path d="M56.163 110.992L55.3424 111.2C55.1533 111.249 55.039 111.441 55.087 111.63L55.6147 113.706C55.6628 113.895 55.8551 114.01 56.0442 113.962L56.8648 113.753C57.0539 113.705 57.1683 113.513 57.1202 113.324L56.5925 111.247C56.5445 111.058 56.3522 110.944 56.163 110.992Z" fill="#232323" stroke="white" stroke-width="2" stroke-linecap="round" stroke-linejoin="round"/>
<path d="M60.163 109.971L59.3424 110.179C59.1533 110.227 59.039 110.419 59.087 110.609L59.6147 112.685C59.6628 112.874 59.8551 112.988 60.0442 112.94L60.8648 112.732C61.0539 112.684 61.1683 112.491 61.1202 112.302L60.5925 110.226C60.5445 110.037 60.3522 109.922 60.163 109.971Z" fill="#232323" stroke="white" stroke-width="2" stroke-linecap="round" stroke-linejoin="round"/>
<path d="M67.163 108.189L66.3424 108.398C66.1533 108.446 66.039 108.638 66.087 108.827L66.6147 110.903C66.6628 111.092 66.8551 111.207 67.0442 111.159L67.8648 110.95C68.0539 110.902 68.1683 110.71 68.1202 110.521L67.5925 108.444C67.5445 108.255 67.3522 108.141 67.163 108.189Z" fill="#232323" stroke="white" stroke-width="2" stroke-linecap="round" stroke-linejoin="round"/>
<path d="M71.163 107.165L70.3424 107.374C70.1533 107.422 70.039 107.614 70.087 107.804L70.6147 109.88C70.6628 110.069 70.8551 110.183 71.0442 110.135L71.8648 109.927C72.0539 109.879 72.1683 109.686 72.1202 109.497L71.5925 107.421C71.5445 107.232 71.3522 107.117 71.163 107.165Z" fill="#232323" stroke="white" stroke-width="2" stroke-linecap="round" stroke-linejoin="round"/>
<path d="M75.163 106.146L74.3424 106.355C74.1533 106.403 74.039 106.595 74.087 106.784L74.6147 108.86C74.6628 109.05 74.8551 109.164 75.0442 109.116L75.8648 108.907C76.0539 108.859 76.1683 108.667 76.1202 108.478L75.5925 106.402C75.5445 106.212 75.3522 106.098 75.163 106.146Z" fill="#232323" stroke="white" stroke-width="2" stroke-linecap="round" stroke-linejoin="round"/>
<path d="M79.163 105.124L78.3424 105.332C78.1533 105.38 78.039 105.573 78.087 105.762L78.6147 107.838C78.6628 108.027 78.8551 108.141 79.0442 108.093L79.8648 107.885C80.0539 107.837 80.1683 107.645 80.1202 107.455L79.5925 105.379C79.5445 105.19 79.3522 105.076 79.163 105.124Z" fill="#232323" stroke="white" stroke-width="2" stroke-linecap="round" stroke-linejoin="round"/>
<path d="M87.163 103.148L86.3425 103.357C86.1533 103.405 86.039 103.597 86.087 103.786L86.6147 105.863C86.6628 106.052 86.8551 106.166 87.0442 106.118L87.8648 105.91C88.0539 105.861 88.1683 105.669 88.1202 105.48L87.5925 103.404C87.5445 103.215 87.3522 103.1 87.163 103.148Z" fill="#232323" stroke="white" stroke-width="2" stroke-linecap="round" stroke-linejoin="round"/>
<path d="M91.163 102.129L90.3425 102.338C90.1533 102.386 90.039 102.578 90.087 102.767L90.6147 104.844C90.6628 105.033 90.8551 105.147 91.0442 105.099L91.8648 104.891C92.0539 104.843 92.1683 104.65 92.1202 104.461L91.5925 102.385C91.5445 102.196 91.3522 102.081 91.163 102.129Z" fill="#232323" stroke="#232323" stroke-width="2" stroke-linecap="round" stroke-linejoin="round"/>
<path d="M95.163 101.109L94.3425 101.317C94.1533 101.365 94.039 101.558 94.087 101.747L94.6147 103.823C94.6628 104.012 94.8551 104.127 95.0442 104.079L95.8648 103.87C96.0539 103.822 96.1683 103.63 96.1202 103.44L95.5925 101.364C95.5445 101.175 95.3522 101.061 95.163 101.109Z" fill="#232323" stroke="#232323" stroke-width="2" stroke-linecap="round" stroke-linejoin="round"/>
<path d="M99.163 100.086L98.3425 100.294C98.1533 100.342 98.039 100.535 98.087 100.724L98.6147 102.8C98.6628 102.989 98.8551 103.104 99.0442 103.055L99.8648 102.847C100.054 102.799 100.168 102.607 100.12 102.417L99.5925 100.341C99.5445 100.152 99.3522 100.038 99.163 100.086Z" fill="#232323" stroke="#232323" stroke-width="2" stroke-linecap="round" stroke-linejoin="round"/>
<path d="M63 118.531L63.5111 120.538" stroke="white" stroke-width="2" stroke-linecap="round" stroke-linejoin="round"/>
<path d="M66 117.765L66.5111 119.774" stroke="white" stroke-width="2" stroke-linecap="round" stroke-linejoin="round"/>
<path d="M71 116.489L71.5111 118.496" stroke="white" stroke-width="2" stroke-linecap="round" stroke-linejoin="round"/>
<path d="M74 115.724L74.5111 117.731" stroke="white" stroke-width="2" stroke-linecap="round" stroke-linejoin="round"/>
<path d="M125.683 57.2082L32.6916 80.8423C30.6528 81.3605 29.4201 83.4333 29.9382 85.4721L44.2612 141.828C44.7794 143.867 46.8522 145.099 48.891 144.581L141.883 120.947C143.921 120.429 145.154 118.356 144.636 116.317L130.313 59.9615C129.795 57.9227 127.722 56.69 125.683 57.2082Z" fill="#232323" stroke="white" stroke-width="2" stroke-linecap="round" stroke-linejoin="round"/>
<path d="M61.2877 95.5327L43.532 100.045C43.2382 100.12 43.0605 100.419 43.1352 100.713L46.4365 113.702C46.5112 113.996 46.8099 114.173 47.1037 114.099L64.8594 109.586C65.1532 109.511 65.3309 109.213 65.2562 108.919L61.9549 95.9294C61.8802 95.6356 61.5815 95.458 61.2877 95.5327Z" fill="#232323" stroke="white" stroke-width="2" stroke-linecap="round" stroke-linejoin="round"/>
<path d="M126.312 78.9527L102.532 84.9964C102.238 85.0711 102.061 85.3698 102.135 85.6636L105.437 98.653C105.511 98.9468 105.81 99.1245 106.104 99.0498L129.884 93.0061C130.177 92.9314 130.355 92.6327 130.28 92.3389L126.979 79.3494C126.904 79.0556 126.606 78.878 126.312 78.9527Z" fill="#232323" stroke="#232323" stroke-width="2" stroke-linecap="round" stroke-linejoin="round"/>
<path d="M44 102.871L62.5691 98.1487" stroke="white" stroke-width="2" stroke-linecap="round" stroke-linejoin="round"/>
<path d="M46 110.9L64.5691 106.18" stroke="white" stroke-width="2" stroke-linecap="round" stroke-linejoin="round"/>
<path d="M48 99.2778L51.4467 112.827" stroke="white" stroke-width="2" stroke-linecap="round" stroke-linejoin="round"/>
<path d="M57 96.7886L60.4467 110.34" stroke="white" stroke-width="2" stroke-linecap="round" stroke-linejoin="round"/>
<path d="M120.891 118.958C124.145 118.958 126.782 116.321 126.782 113.067C126.782 109.814 124.145 107.176 120.891 107.176C117.638 107.176 115 109.814 115 113.067C115 116.321 117.638 118.958 120.891 118.958Z" fill="#232323" stroke="#232323" stroke-width="2" stroke-linecap="round" stroke-linejoin="round"/>
<path d="M128.891 116.831C132.145 116.831 134.782 114.194 134.782 110.94C134.782 107.687 132.145 105.049 128.891 105.049C125.638 105.049 123 107.687 123 110.94C123 114.194 125.638 116.831 128.891 116.831Z" fill="#232323" stroke="#232323" stroke-width="2" stroke-linecap="round" stroke-linejoin="round"/>
<path d="M50.163 118.01L49.3424 118.219C49.1533 118.267 49.039 118.459 49.087 118.648L49.6147 120.725C49.6628 120.914 49.8551 121.028 50.0442 120.98L50.8648 120.772C51.0539 120.724 51.1683 120.531 51.1202 120.342L50.5925 118.266C50.5445 118.077 50.3522 117.962 50.163 118.01Z" fill="#232323" stroke="white" stroke-width="2" stroke-linecap="round" stroke-linejoin="round"/>
<path d="M55.163 116.989L54.3424 117.198C54.1533 117.246 54.039 117.438 54.087 117.627L54.6147 119.703C54.6628 119.892 54.8551 120.007 55.0442 119.959L55.8648 119.75C56.0539 119.702 56.1683 119.51 56.1202 119.321L55.5925 117.244C55.5445 117.055 55.3522 116.941 55.163 116.989Z" fill="#232323" stroke="white" stroke-width="2" stroke-linecap="round" stroke-linejoin="round"/>
<path d="M59.163 115.968L58.3425 116.176C58.1533 116.224 58.039 116.417 58.087 116.606L58.6147 118.682C58.6628 118.871 58.8551 118.985 59.0442 118.937L59.8648 118.729C60.0539 118.681 60.1683 118.488 60.1202 118.299L59.5925 116.223C59.5445 116.034 59.3522 115.92 59.163 115.968Z" fill="#232323" stroke="white" stroke-width="2" stroke-linecap="round" stroke-linejoin="round"/>
<path d="M63.163 114.949L62.3425 115.157C62.1533 115.205 62.039 115.398 62.087 115.587L62.6147 117.663C62.6628 117.852 62.8551 117.966 63.0442 117.918L63.8648 117.71C64.0539 117.662 64.1683 117.469 64.1202 117.28L63.5925 115.204C63.5445 115.015 63.3522 114.901 63.163 114.949Z" fill="#232323" stroke="white" stroke-width="2" stroke-linecap="round" stroke-linejoin="round"/>
<path d="M70.163 113.033L69.3425 113.242C69.1533 113.29 69.039 113.482 69.087 113.671L69.6147 115.747C69.6628 115.936 69.8551 116.051 70.0442 116.003L70.8648 115.794C71.0539 115.746 71.1683 115.554 71.1202 115.365L70.5925 113.288C70.5445 113.099 70.3522 112.985 70.163 113.033Z" fill="#232323" stroke="white" stroke-width="2" stroke-linecap="round" stroke-linejoin="round"/>
<path d="M74.163 112.014L73.3424 112.222C73.1533 112.27 73.039 112.463 73.087 112.652L73.6147 114.728C73.6628 114.917 73.8551 115.031 74.0442 114.983L74.8648 114.775C75.0539 114.727 75.1683 114.534 75.1202 114.345L74.5925 112.269C74.5445 112.08 74.3522 111.966 74.163 112.014Z" fill="#232323" stroke="white" stroke-width="2" stroke-linecap="round" stroke-linejoin="round"/>
<path d="M78.163 110.996L77.3424 111.204C77.1533 111.252 77.039 111.444 77.087 111.634L77.6147 113.71C77.6628 113.899 77.8551 114.013 78.0442 113.965L78.8648 113.757C79.0539 113.709 79.1683 113.516 79.1202 113.327L78.5925 111.251C78.5445 111.062 78.3522 110.947 78.163 110.996Z" fill="#232323" stroke="white" stroke-width="2" stroke-linecap="round" stroke-linejoin="round"/>
<path d="M82.163 109.973L81.3424 110.181C81.1533 110.229 81.039 110.422 81.087 110.611L81.6147 112.687C81.6628 112.876 81.8551 112.99 82.0442 112.942L82.8648 112.734C83.0539 112.686 83.1683 112.493 83.1202 112.304L82.5925 110.228C82.5445 110.039 82.3522 109.925 82.163 109.973Z" fill="#232323" stroke="white" stroke-width="2" stroke-linecap="round" stroke-linejoin="round"/>
<path d="M89.163 108.191L88.3424 108.4C88.1533 108.448 88.039 108.64 88.087 108.829L88.6147 110.905C88.6628 111.094 88.8551 111.209 89.0442 111.161L89.8648 110.952C90.0539 110.904 90.1683 110.712 90.1202 110.523L89.5925 108.446C89.5445 108.257 89.3522 108.143 89.163 108.191Z" fill="#232323" stroke="#232323" stroke-width="2" stroke-linecap="round" stroke-linejoin="round"/>
<path d="M93.163 107.167L92.3425 107.375C92.1533 107.424 92.039 107.616 92.087 107.805L92.6147 109.881C92.6628 110.07 92.8551 110.185 93.0442 110.137L93.8648 109.928C94.0539 109.88 94.1683 109.688 94.1202 109.499L93.5925 107.422C93.5445 107.233 93.3522 107.119 93.163 107.167Z" fill="#232323" stroke="#232323" stroke-width="2" stroke-linecap="round" stroke-linejoin="round"/>
<path d="M97.163 106.15L96.3425 106.358C96.1533 106.406 96.039 106.599 96.087 106.788L96.6147 108.864C96.6628 109.053 96.8551 109.168 97.0442 109.12L97.8648 108.911C98.0539 108.863 98.1683 108.671 98.1202 108.482L97.5925 106.405C97.5445 106.216 97.3522 106.102 97.163 106.15Z" fill="#232323" stroke="#232323" stroke-width="2" stroke-linecap="round" stroke-linejoin="round"/>
<path d="M101.163 105.125L100.342 105.334C100.153 105.382 100.039 105.574 100.087 105.763L100.615 107.839C100.663 108.028 100.855 108.143 101.044 108.095L101.865 107.886C102.054 107.838 102.168 107.646 102.12 107.457L101.593 105.38C101.544 105.191 101.352 105.077 101.163 105.125Z" fill="#232323" stroke="#232323" stroke-width="2" stroke-linecap="round" stroke-linejoin="round"/>
<path d="M109.163 103.151L108.342 103.359C108.153 103.407 108.039 103.599 108.087 103.789L108.615 105.865C108.663 106.054 108.855 106.168 109.044 106.12L109.865 105.912C110.054 105.864 110.168 105.671 110.12 105.482L109.593 103.406C109.544 103.217 109.352 103.103 109.163 103.151Z" fill="#232323" stroke="#232323" stroke-width="2" stroke-linecap="round" stroke-linejoin="round"/>
<path d="M113.163 102.128L112.342 102.337C112.153 102.385 112.039 102.577 112.087 102.766L112.615 104.843C112.663 105.032 112.855 105.146 113.044 105.098L113.865 104.89C114.054 104.841 114.168 104.649 114.12 104.46L113.593 102.384C113.544 102.195 113.352 102.08 113.163 102.128Z" fill="#232323" stroke="#232323" stroke-width="2" stroke-linecap="round" stroke-linejoin="round"/>
<path d="M117.163 101.108L116.342 101.317C116.153 101.365 116.039 101.557 116.087 101.746L116.615 103.823C116.663 104.012 116.855 104.126 117.044 104.078L117.865 103.869C118.054 103.821 118.168 103.629 118.12 103.44L117.593 101.364C117.544 101.175 117.352 101.06 117.163 101.108Z" fill="#232323" stroke="#232323" stroke-width="2" stroke-linecap="round" stroke-linejoin="round"/>
<path d="M121.163 100.089L120.342 100.297C120.153 100.346 120.039 100.538 120.087 100.727L120.615 102.803C120.663 102.992 120.855 103.107 121.044 103.059L121.865 102.85C122.054 102.802 122.168 102.61 122.12 102.421L121.593 100.344C121.544 100.155 121.352 100.041 121.163 100.089Z" fill="#232323" stroke="#232323" stroke-width="2" stroke-linecap="round" stroke-linejoin="round"/>
<path d="M85 118.531L85.5111 120.538" stroke="white" stroke-width="2" stroke-linecap="round" stroke-linejoin="round"/>
<path d="M88 117.765L88.5111 119.774" stroke="white" stroke-width="2" stroke-linecap="round" stroke-linejoin="round"/>
<path d="M93 116.489L93.5111 118.496" stroke="#232323" stroke-width="2" stroke-linecap="round" stroke-linejoin="round"/>
<path d="M96 115.724L96.5111 117.731" stroke="#232323" stroke-width="2" stroke-linecap="round" stroke-linejoin="round"/>
<path d="M147.683 57.2117L54.6916 80.8458C52.6528 81.364 51.4201 83.4368 51.9382 85.4756L66.2612 141.831C66.7794 143.87 68.8522 145.103 70.891 144.585L163.883 120.951C165.921 120.432 167.154 118.36 166.636 116.321L152.313 59.9651C151.795 57.9263 149.722 56.6935 147.683 57.2117Z" fill="#232323" stroke="white" stroke-width="2" stroke-linecap="round" stroke-linejoin="round"/>
<path d="M83.2877 95.5369L65.532 100.05C65.2382 100.124 65.0605 100.423 65.1352 100.717L68.4365 113.706C68.5112 114 68.8099 114.178 69.1037 114.103L86.8594 109.59C87.1532 109.516 87.3309 109.217 87.2562 108.923L83.9549 95.9337C83.8802 95.6399 83.5815 95.4623 83.2877 95.5369Z" fill="#232323" stroke="white" stroke-width="2" stroke-linecap="round" stroke-linejoin="round"/>
<path d="M148.312 78.9548L124.532 84.9986C124.238 85.0733 124.061 85.372 124.135 85.6658L127.437 98.6552C127.511 98.949 127.81 99.1267 128.104 99.052L151.884 93.0082C152.177 92.9336 152.355 92.6349 152.28 92.3411L148.979 79.3516C148.904 79.0578 148.606 78.8802 148.312 78.9548Z" fill="#232323" stroke="#232323" stroke-width="2" stroke-linecap="round" stroke-linejoin="round"/>
<path d="M66 102.871L84.5691 98.1487" stroke="white" stroke-width="2" stroke-linecap="round" stroke-linejoin="round"/>
<path d="M68 110.9L86.5691 106.18" stroke="white" stroke-width="2" stroke-linecap="round" stroke-linejoin="round"/>
<path d="M70 99.2778L73.4467 112.827" stroke="white" stroke-width="2" stroke-linecap="round" stroke-linejoin="round"/>
<path d="M80 96.7886L83.4467 110.34" stroke="white" stroke-width="2" stroke-linecap="round" stroke-linejoin="round"/>
<path d="M142.891 118.958C146.145 118.958 148.782 116.321 148.782 113.067C148.782 109.814 146.145 107.176 142.891 107.176C139.638 107.176 137 109.814 137 113.067C137 116.321 139.638 118.958 142.891 118.958Z" fill="#232323" stroke="#232323" stroke-width="2" stroke-linecap="round" stroke-linejoin="round"/>
<path d="M150.891 116.831C154.145 116.831 156.782 114.194 156.782 110.94C156.782 107.687 154.145 105.049 150.891 105.049C147.638 105.049 145 107.687 145 110.94C145 114.194 147.638 116.831 150.891 116.831Z" fill="#232323" stroke="#232323" stroke-width="2" stroke-linecap="round" stroke-linejoin="round"/>
<path d="M73.163 118.014L72.3424 118.223C72.1533 118.271 72.039 118.463 72.087 118.652L72.6147 120.728C72.6628 120.918 72.8551 121.032 73.0442 120.984L73.8648 120.775C74.0539 120.727 74.1683 120.535 74.1202 120.346L73.5925 118.27C73.5445 118.08 73.3522 117.966 73.163 118.014Z" fill="#232323" stroke="white" stroke-width="2" stroke-linecap="round" stroke-linejoin="round"/>
<path d="M77.163 116.992L76.3424 117.2C76.1533 117.248 76.039 117.441 76.087 117.63L76.6147 119.706C76.6628 119.895 76.8551 120.01 77.0442 119.961L77.8648 119.753C78.0539 119.705 78.1683 119.513 78.1202 119.323L77.5925 117.247C77.5445 117.058 77.3522 116.944 77.163 116.992Z" fill="#232323" stroke="white" stroke-width="2" stroke-linecap="round" stroke-linejoin="round"/>
<path d="M81.163 115.972L80.3425 116.181C80.1533 116.229 80.039 116.421 80.087 116.61L80.6147 118.687C80.6628 118.876 80.8551 118.99 81.0442 118.942L81.8648 118.733C82.0539 118.685 82.1683 118.493 82.1202 118.304L81.5925 116.228C81.5445 116.039 81.3522 115.924 81.163 115.972Z" fill="#232323" stroke="white" stroke-width="2" stroke-linecap="round" stroke-linejoin="round"/>
<path d="M85.163 114.951L84.3425 115.159C84.1533 115.207 84.039 115.399 84.087 115.589L84.6147 117.665C84.6628 117.854 84.8551 117.968 85.0442 117.92L85.8648 117.712C86.0539 117.664 86.1683 117.471 86.1202 117.282L85.5925 115.206C85.5445 115.017 85.3522 114.902 85.163 114.951Z" fill="#232323" stroke="white" stroke-width="2" stroke-linecap="round" stroke-linejoin="round"/>
<path d="M92.163 113.035L91.3425 113.244C91.1533 113.292 91.039 113.484 91.087 113.673L91.6147 115.749C91.6628 115.938 91.8551 116.053 92.0442 116.005L92.8648 115.796C93.0539 115.748 93.1683 115.556 93.1202 115.367L92.5925 113.29C92.5445 113.101 92.3522 112.987 92.163 113.035Z" fill="#232323" stroke="#232323" stroke-width="2" stroke-linecap="round" stroke-linejoin="round"/>
<path d="M96.163 112.015L95.3424 112.224C95.1533 112.272 95.039 112.464 95.087 112.653L95.6147 114.729C95.6628 114.918 95.8551 115.033 96.0442 114.985L96.8648 114.776C97.0539 114.728 97.1683 114.536 97.1202 114.347L96.5925 112.27C96.5445 112.081 96.3522 111.967 96.163 112.015Z" fill="#232323" stroke="#232323" stroke-width="2" stroke-linecap="round" stroke-linejoin="round"/>
<path d="M100.163 110.995L99.3425 111.204C99.1533 111.252 99.039 111.444 99.087 111.633L99.6147 113.709C99.6628 113.898 99.8551 114.013 100.044 113.965L100.865 113.756C101.054 113.708 101.168 113.516 101.12 113.327L100.593 111.25C100.544 111.061 100.352 110.947 100.163 110.995Z" fill="#232323" stroke="#232323" stroke-width="2" stroke-linecap="round" stroke-linejoin="round"/>
<path d="M104.163 109.973L103.342 110.182C103.153 110.23 103.039 110.422 103.087 110.611L103.615 112.687C103.663 112.876 103.855 112.991 104.044 112.943L104.865 112.734C105.054 112.686 105.168 112.494 105.12 112.305L104.593 110.229C104.544 110.039 104.352 109.925 104.163 109.973Z" fill="#232323" stroke="#232323" stroke-width="2" stroke-linecap="round" stroke-linejoin="round"/>
<path d="M111.163 108.191L110.342 108.4C110.153 108.448 110.039 108.64 110.087 108.829L110.615 110.905C110.663 111.094 110.855 111.209 111.044 111.161L111.865 110.952C112.054 110.904 112.168 110.712 112.12 110.523L111.593 108.446C111.544 108.257 111.352 108.143 111.163 108.191Z" fill="#232323" stroke="#232323" stroke-width="2" stroke-linecap="round" stroke-linejoin="round"/>
<path d="M115.163 107.172L114.342 107.38C114.153 107.428 114.039 107.621 114.087 107.81L114.615 109.886C114.663 110.075 114.855 110.19 115.044 110.142L115.865 109.933C116.054 109.885 116.168 109.693 116.12 109.503L115.593 107.427C115.544 107.238 115.352 107.124 115.163 107.172Z" fill="#232323" stroke="#232323" stroke-width="2" stroke-linecap="round" stroke-linejoin="round"/>
<path d="M119.163 106.151L118.342 106.36C118.153 106.408 118.039 106.6 118.087 106.789L118.615 108.865C118.663 109.055 118.855 109.169 119.044 109.121L119.865 108.912C120.054 108.864 120.168 108.672 120.12 108.483L119.593 106.407C119.544 106.217 119.352 106.103 119.163 106.151Z" fill="#232323" stroke="#232323" stroke-width="2" stroke-linecap="round" stroke-linejoin="round"/>
<path d="M123.163 105.129L122.342 105.338C122.153 105.386 122.039 105.578 122.087 105.767L122.615 107.843C122.663 108.033 122.855 108.147 123.044 108.099L123.865 107.89C124.054 107.842 124.168 107.65 124.12 107.461L123.593 105.385C123.544 105.195 123.352 105.081 123.163 105.129Z" fill="#232323" stroke="#232323" stroke-width="2" stroke-linecap="round" stroke-linejoin="round"/>
<path d="M131.163 103.152L130.342 103.361C130.153 103.409 130.039 103.601 130.087 103.79L130.615 105.866C130.663 106.055 130.855 106.17 131.044 106.122L131.865 105.913C132.054 105.865 132.168 105.673 132.12 105.484L131.593 103.407C131.544 103.218 131.352 103.104 131.163 103.152Z" fill="#232323" stroke="#232323" stroke-width="2" stroke-linecap="round" stroke-linejoin="round"/>
<path d="M135.163 102.13L134.342 102.339C134.153 102.387 134.039 102.579 134.087 102.768L134.615 104.844C134.663 105.033 134.855 105.148 135.044 105.1L135.865 104.891C136.054 104.843 136.168 104.651 136.12 104.462L135.593 102.385C135.544 102.196 135.352 102.082 135.163 102.13Z" fill="#232323" stroke="#232323" stroke-width="2" stroke-linecap="round" stroke-linejoin="round"/>
<path d="M139.163 101.109L138.342 101.318C138.153 101.366 138.039 101.558 138.087 101.747L138.615 103.824C138.663 104.013 138.855 104.127 139.044 104.079L139.865 103.87C140.054 103.822 140.168 103.63 140.12 103.441L139.593 101.365C139.544 101.176 139.352 101.061 139.163 101.109Z" fill="#232323" stroke="#232323" stroke-width="2" stroke-linecap="round" stroke-linejoin="round"/>
<path d="M143.163 100.089L142.342 100.297C142.153 100.345 142.039 100.538 142.087 100.727L142.615 102.803C142.663 102.992 142.855 103.106 143.044 103.058L143.865 102.85C144.054 102.802 144.168 102.609 144.12 102.42L143.593 100.344C143.544 100.155 143.352 100.041 143.163 100.089Z" fill="#232323" stroke="#232323" stroke-width="2" stroke-linecap="round" stroke-linejoin="round"/>
<path d="M108 118.531L108.511 120.538" stroke="#232323" stroke-width="2" stroke-linecap="round" stroke-linejoin="round"/>
<path d="M111 117.765L111.511 119.774" stroke="#232323" stroke-width="2" stroke-linecap="round" stroke-linejoin="round"/>
<path d="M116 116.489L116.511 118.496" stroke="#232323" stroke-width="2" stroke-linecap="round" stroke-linejoin="round"/>
<path d="M119 115.724L119.511 117.731" stroke="#232323" stroke-width="2" stroke-linecap="round" stroke-linejoin="round"/>
<path d="M170.683 57.2137L77.6916 80.8478C75.6528 81.366 74.4201 83.4388 74.9382 85.4776L89.2612 141.833C89.7794 143.872 91.8522 145.105 93.891 144.587L186.883 120.953C188.921 120.434 190.154 118.362 189.636 116.323L175.313 59.967C174.795 57.9282 172.722 56.6955 170.683 57.2137Z" fill="url(#paint0_linear_58_4808)"/>
<path d="M105.288 95.5351L87.532 100.048C87.2382 100.122 87.0605 100.421 87.1352 100.715L90.4365 113.704C90.5112 113.998 90.8099 114.176 91.1037 114.101L108.859 109.588C109.153 109.514 109.331 109.215 109.256 108.921L105.955 95.9319C105.88 95.6381 105.582 95.4604 105.288 95.5351Z" stroke="#232323" stroke-width="2" stroke-linecap="round" stroke-linejoin="round"/>
<path d="M171.312 78.9566L147.532 85.0003C147.238 85.075 147.061 85.3737 147.135 85.6675L150.437 98.6569C150.511 98.9507 150.81 99.1284 151.104 99.0537L174.884 93.01C175.177 92.9353 175.355 92.6366 175.28 92.3428L171.979 79.3533C171.904 79.0595 171.606 78.8819 171.312 78.9566Z" stroke="#232323" stroke-width="2" stroke-linecap="round" stroke-linejoin="round"/>
<path d="M88 102.871L106.569 98.1487" stroke="#232323" stroke-width="2" stroke-linecap="round" stroke-linejoin="round"/>
<path d="M90 110.9L108.569 106.18" stroke="#232323" stroke-width="2" stroke-linecap="round" stroke-linejoin="round"/>
<path d="M92 99.2778L95.4467 112.827" stroke="#232323" stroke-width="2" stroke-linecap="round" stroke-linejoin="round"/>
<path d="M102 96.7886L105.447 110.34" stroke="#232323" stroke-width="2" stroke-linecap="round" stroke-linejoin="round"/>
<path d="M164.891 118.958C168.145 118.958 170.782 116.321 170.782 113.067C170.782 109.814 168.145 107.176 164.891 107.176C161.638 107.176 159 109.814 159 113.067C159 116.321 161.638 118.958 164.891 118.958Z" stroke="#232323" stroke-width="2" stroke-linecap="round" stroke-linejoin="round"/>
<path d="M172.891 116.831C176.145 116.831 178.782 114.194 178.782 110.94C178.782 107.687 176.145 105.049 172.891 105.049C169.638 105.049 167 107.687 167 110.94C167 114.194 169.638 116.831 172.891 116.831Z" stroke="#232323" stroke-width="2" stroke-linecap="round" stroke-linejoin="round"/>
<path d="M95.163 118.013L94.3424 118.222C94.1533 118.27 94.039 118.462 94.087 118.652L94.6147 120.728C94.6628 120.917 94.8551 121.031 95.0442 120.983L95.8648 120.775C96.0539 120.727 96.1683 120.534 96.1202 120.345L95.5925 118.269C95.5445 118.08 95.3522 117.965 95.163 118.013Z" stroke="#232323" stroke-width="2" stroke-linecap="round" stroke-linejoin="round"/>
<path d="M99.163 116.992L98.3424 117.2C98.1533 117.248 98.039 117.44 98.087 117.63L98.6147 119.706C98.6628 119.895 98.8551 120.009 99.0442 119.961L99.8648 119.753C100.054 119.705 100.168 119.512 100.12 119.323L99.5925 117.247C99.5445 117.058 99.3522 116.943 99.163 116.992Z" stroke="#232323" stroke-width="2" stroke-linecap="round" stroke-linejoin="round"/>
<path d="M103.163 115.974L102.342 116.183C102.153 116.231 102.039 116.423 102.087 116.612L102.615 118.688C102.663 118.878 102.855 118.992 103.044 118.944L103.865 118.735C104.054 118.687 104.168 118.495 104.12 118.306L103.593 116.23C103.544 116.04 103.352 115.926 103.163 115.974Z" stroke="#232323" stroke-width="2" stroke-linecap="round" stroke-linejoin="round"/>
<path d="M107.163 114.955L106.342 115.163C106.153 115.211 106.039 115.403 106.087 115.593L106.615 117.669C106.663 117.858 106.855 117.972 107.044 117.924L107.865 117.716C108.054 117.668 108.168 117.475 108.12 117.286L107.593 115.21C107.544 115.021 107.352 114.906 107.163 114.955Z" stroke="#232323" stroke-width="2" stroke-linecap="round" stroke-linejoin="round"/>
<path d="M115.163 113.036L114.342 113.245C114.153 113.293 114.039 113.485 114.087 113.674L114.615 115.751C114.663 115.94 114.855 116.054 115.044 116.006L115.865 115.797C116.054 115.749 116.168 115.557 116.12 115.368L115.593 113.292C115.544 113.103 115.352 112.988 115.163 113.036Z" stroke="#232323" stroke-width="2" stroke-linecap="round" stroke-linejoin="round"/>
<path d="M119.163 112.017L118.342 112.225C118.153 112.273 118.039 112.466 118.087 112.655L118.615 114.731C118.663 114.92 118.855 115.035 119.044 114.986L119.865 114.778C120.054 114.73 120.168 114.538 120.12 114.348L119.593 112.272C119.544 112.083 119.352 111.969 119.163 112.017Z" stroke="#232323" stroke-width="2" stroke-linecap="round" stroke-linejoin="round"/>
<path d="M123.163 110.997L122.342 111.206C122.153 111.254 122.039 111.446 122.087 111.635L122.615 113.711C122.663 113.9 122.855 114.015 123.044 113.967L123.865 113.758C124.054 113.71 124.168 113.518 124.12 113.329L123.593 111.252C123.544 111.063 123.352 110.949 123.163 110.997Z" stroke="#232323" stroke-width="2" stroke-linecap="round" stroke-linejoin="round"/>
<path d="M127.163 109.976L126.342 110.184C126.153 110.232 126.039 110.425 126.087 110.614L126.615 112.69C126.663 112.879 126.855 112.993 127.044 112.945L127.865 112.737C128.054 112.689 128.168 112.496 128.12 112.307L127.593 110.231C127.544 110.042 127.352 109.928 127.163 109.976Z" stroke="#232323" stroke-width="2" stroke-linecap="round" stroke-linejoin="round"/>
<path d="M134.163 108.192L133.342 108.4C133.153 108.448 133.039 108.641 133.087 108.83L133.615 110.906C133.663 111.095 133.855 111.209 134.044 111.161L134.865 110.953C135.054 110.905 135.168 110.713 135.12 110.523L134.593 108.447C134.544 108.258 134.352 108.144 134.163 108.192Z" stroke="#232323" stroke-width="2" stroke-linecap="round" stroke-linejoin="round"/>
<path d="M138.163 107.171L137.342 107.379C137.153 107.427 137.039 107.619 137.087 107.809L137.615 109.885C137.663 110.074 137.855 110.188 138.044 110.14L138.865 109.932C139.054 109.884 139.168 109.691 139.12 109.502L138.593 107.426C138.544 107.237 138.352 107.123 138.163 107.171Z" stroke="#232323" stroke-width="2" stroke-linecap="round" stroke-linejoin="round"/>
<path d="M142.163 106.151L141.342 106.359C141.153 106.407 141.039 106.599 141.087 106.789L141.615 108.865C141.663 109.054 141.855 109.168 142.044 109.12L142.865 108.912C143.054 108.864 143.168 108.671 143.12 108.482L142.593 106.406C142.544 106.217 142.352 106.103 142.163 106.151Z" stroke="#232323" stroke-width="2" stroke-linecap="round" stroke-linejoin="round"/>
<path d="M146.163 105.129L145.342 105.337C145.153 105.385 145.039 105.578 145.087 105.767L145.615 107.843C145.663 108.032 145.855 108.146 146.044 108.098L146.865 107.89C147.054 107.842 147.168 107.65 147.12 107.46L146.593 105.384C146.544 105.195 146.352 105.081 146.163 105.129Z" stroke="#232323" stroke-width="2" stroke-linecap="round" stroke-linejoin="round"/>
<path d="M153.163 103.155L152.342 103.364C152.153 103.412 152.039 103.604 152.087 103.793L152.615 105.869C152.663 106.059 152.855 106.173 153.044 106.125L153.865 105.916C154.054 105.868 154.168 105.676 154.12 105.487L153.593 103.411C153.544 103.221 153.352 103.107 153.163 103.155Z" stroke="#232323" stroke-width="2" stroke-linecap="round" stroke-linejoin="round"/>
<path d="M157.163 102.134L156.342 102.342C156.153 102.39 156.039 102.583 156.087 102.772L156.615 104.848C156.663 105.037 156.855 105.151 157.044 105.103L157.865 104.895C158.054 104.847 158.168 104.655 158.12 104.465L157.593 102.389C157.544 102.2 157.352 102.086 157.163 102.134Z" stroke="#232323" stroke-width="2" stroke-linecap="round" stroke-linejoin="round"/>
<path d="M161.163 101.114L160.342 101.322C160.153 101.37 160.039 101.563 160.087 101.752L160.615 103.828C160.663 104.017 160.855 104.132 161.044 104.084L161.865 103.875C162.054 103.827 162.168 103.635 162.12 103.445L161.593 101.369C161.544 101.18 161.352 101.066 161.163 101.114Z" stroke="#232323" stroke-width="2" stroke-linecap="round" stroke-linejoin="round"/>
<path d="M165.163 100.09L164.342 100.298C164.153 100.346 164.039 100.539 164.087 100.728L164.615 102.804C164.663 102.993 164.855 103.107 165.044 103.059L165.865 102.851C166.054 102.803 166.168 102.61 166.12 102.421L165.593 100.345C165.544 100.156 165.352 100.042 165.163 100.09Z" stroke="#232323" stroke-width="2" stroke-linecap="round" stroke-linejoin="round"/>
<path d="M130 118.531L130.511 120.538" stroke="#232323" stroke-width="2" stroke-linecap="round" stroke-linejoin="round"/>
<path d="M133 117.765L133.511 119.774" stroke="#232323" stroke-width="2" stroke-linecap="round" stroke-linejoin="round"/>
<path d="M138 116.489L138.511 118.496" stroke="#232323" stroke-width="2" stroke-linecap="round" stroke-linejoin="round"/>
<path d="M141 115.724L141.511 117.731" stroke="#232323" stroke-width="2" stroke-linecap="round" stroke-linejoin="round"/>
<path d="M11 42.4301C14.4779 38.7344 17.1292 34.3407 18.7779 29.5411C18.9668 28.9966 19.1379 28.4588 19.2957 27.93C20.7735 22.9543 24.6157 19.3076 29.2158 18.3898L57.1384 12.8342C61.374 11.9897 65.7074 13.5787 68.5963 17.1165C69.3411 18.0257 70.1364 18.8922 70.9786 19.7121C74.2056 22.8672 78.1459 25.1976 82.4654 26.5055C78.0683 29.0673 74.7515 33.1391 73.1319 37.9634L73.103 38.0523C71.5163 42.9035 67.7696 46.4813 63.2473 47.3858L35.7981 52.7858C31.5025 53.6325 27.1758 51.9236 24.2424 48.3413C23.847 47.8608 23.4264 47.4016 22.9824 46.9658C18.1801 42.2879 12.4645 42.3612 11 42.4301Z" fill="#232323" stroke="white" stroke-width="2" stroke-linecap="round" stroke-linejoin="round"/>
<path d="M121 178.732C122.343 175.345 123.47 171.878 124.376 168.349C124.598 167.46 124.696 167.18 124.807 166.725C126.022 161.7 129.473 157.925 133.709 156.851L159.445 150.342C163.347 149.353 167.414 150.787 170.203 154.234C170.834 155.011 171.276 155.46 172.492 156.747C174.554 158.936 176.835 160.908 179.299 162.634C177.612 166.629 176.191 170.731 175.045 174.914L175.021 175.005C173.687 179.907 170.354 183.609 166.169 184.656L140.885 190.994C136.929 191.985 132.862 190.423 130.029 186.949C129.651 186.485 129.473 186.343 128.818 185.616C126.486 183.028 123.863 180.717 121 178.732Z" fill="#232323" stroke="white" stroke-width="2" stroke-linecap="round" stroke-linejoin="round"/>
<path d="M45.1492 204.213C57.9342 204.213 68.2984 193.848 68.2984 181.064C68.2984 168.279 57.9342 157.914 45.1492 157.914C32.3643 157.914 22 168.279 22 181.064C22 193.848 32.3643 204.213 45.1492 204.213Z" fill="#232323" stroke="white" stroke-width="2" stroke-linecap="round" stroke-linejoin="round"/>
<path d="M169.273 22.1855C168.557 33.6679 155.495 41.3347 144.304 40.408C133.859 39.5369 122.661 30.959 123.008 19.9833C123.368 8.54314 136.084 0.38526 147.348 1.03638C158.413 1.6675 169.975 10.9121 169.273 22.1855Z" fill="#232323" stroke="white" stroke-width="2" stroke-linecap="round" stroke-linejoin="round"/>
<path d="M142.313 25.2054C145.8 25.2054 148.627 22.3788 148.627 18.892C148.627 15.4052 145.8 12.5786 142.313 12.5786C138.827 12.5786 136 15.4052 136 18.892C136 22.3788 138.827 25.2054 142.313 25.2054Z" fill="#232323" stroke="white" stroke-width="2" stroke-linecap="round" stroke-linejoin="round"/>
<path d="M151.313 27.3519C154.8 27.3519 157.627 24.5253 157.627 21.0385C157.627 17.5517 154.8 14.7251 151.313 14.7251C147.827 14.7251 145 17.5517 145 21.0385C145 24.5253 147.827 27.3519 151.313 27.3519Z" stroke="white" stroke-width="2" stroke-linecap="round" stroke-linejoin="round"/>
<path d="M31.097 29.8106C31.4967 29.0288 31.5718 28.1208 31.3059 27.2839C30.4855 27.5615 29.8019 28.1418 29.3948 28.9062C29.0459 29.5729 28.8414 30.5529 29.1547 31.3729C30.0014 31.2418 30.7281 30.5551 31.097 29.8106Z" fill="#232323" stroke="white" stroke-width="2" stroke-linecap="round" stroke-linejoin="round"/>
<path d="M35.1621 34.7862C34.7043 32.9217 36.031 31.6573 36.0932 31.5973C35.683 31.2357 35.1949 30.9736 34.6668 30.8313C34.1388 30.6891 33.5851 30.6706 33.0487 30.7772C31.8732 30.935 30.9665 31.9839 30.382 32.1217C29.7976 32.2595 28.7465 31.815 27.7953 32.0595C27.1746 32.2255 26.6075 32.5497 26.1495 33.0003C25.6914 33.4509 25.3581 34.0127 25.182 34.6306C24.422 37.2018 26.182 40.3129 27.882 41.8418C28.7131 42.5907 29.6887 43.4219 30.6532 43.1552C31.5798 42.8974 31.7954 42.2463 32.9243 41.9774C34.0532 41.7085 34.5154 42.2396 35.4954 41.9885C36.4755 41.7374 36.9221 40.6863 37.3244 39.6396C37.6088 38.8899 37.7847 38.1034 37.8466 37.304C37.2024 37.1904 36.6053 36.8919 36.1278 36.4448C35.6504 35.9978 35.3133 35.4215 35.1577 34.7862H35.1621Z" fill="#232323" stroke="white" stroke-width="2" stroke-linecap="round" stroke-linejoin="round"/>
<mask id="path-125-inside-1_58_4808" fill="white">
<path d="M43.9254 25.9503C44.0737 25.9474 44.2221 25.9533 44.3698 25.9681C44.9442 26.0104 45.5021 26.1797 46.0032 26.4636C46.4033 26.7187 46.7492 27.0502 47.021 27.4392C47.3204 27.8818 47.533 28.3773 47.6476 28.8992C47.8073 29.5227 47.8278 30.1737 47.7076 30.8059C47.5919 31.3697 47.3528 31.9009 47.0076 32.3615C46.6466 32.8318 46.1928 33.2229 45.6743 33.5104C45.1015 33.8316 44.4856 34.0689 43.8454 34.2149C43.3852 34.3288 42.916 34.4032 42.4431 34.4371L43.7542 39.9705L42.5565 40.2549L39.4453 27.1214L39.5609 27.0725C39.9564 26.9037 40.3587 26.7481 40.7631 26.6014C41.2503 26.4267 41.7466 26.2783 42.2498 26.157C42.7984 26.0176 43.3616 25.943 43.9276 25.9348L43.9254 25.9503ZM42.2253 33.3237C42.4217 33.3241 42.6178 33.31 42.812 33.2815C43.0809 33.2437 43.372 33.1904 43.6765 33.1171C44.7876 32.8548 45.5898 32.3882 46.0832 31.7259C46.5765 31.0637 46.6965 30.237 46.4609 29.2459C46.3679 28.8137 46.1855 28.4057 45.9254 28.0481C45.6974 27.7443 45.3972 27.5021 45.052 27.3437C44.6799 27.1833 44.2814 27.0929 43.8765 27.077H43.6943C43.2794 27.0775 42.8661 27.1274 42.4631 27.2259C42.1131 27.3064 41.7674 27.4051 41.4276 27.5214C41.2053 27.6014 41.0142 27.6748 40.8631 27.7437L42.1964 33.3326H42.2365L42.2253 33.3237ZM43.9254 25.5059C43.3261 25.5108 42.7295 25.5853 42.1476 25.7281C41.6287 25.8481 41.1168 25.9965 40.6142 26.1725C40.2031 26.3192 39.7898 26.4814 39.3875 26.6525L39.2698 26.7014C39.1734 26.7426 39.0948 26.8164 39.0476 26.91C39.0005 27.0035 38.9878 27.1106 39.012 27.2125L42.1231 40.346C42.1367 40.4029 42.1614 40.4565 42.1957 40.5037C42.23 40.551 42.2733 40.5911 42.3231 40.6216C42.3932 40.665 42.474 40.6881 42.5565 40.6883C42.5908 40.6879 42.625 40.6841 42.6587 40.6772L43.8565 40.3927C43.971 40.3658 44.0702 40.2945 44.1323 40.1945C44.1944 40.0945 44.2143 39.974 44.1876 39.8594L42.992 34.8393C43.2942 34.7993 43.6143 34.7393 43.9454 34.6615C44.6266 34.5046 45.282 34.2517 45.8921 33.9104C46.4607 33.5932 46.9578 33.162 47.3521 32.6437C47.7365 32.1302 48.0036 31.5385 48.1343 30.9104C48.2694 30.2137 48.2481 29.4956 48.0721 28.8081C47.9433 28.2322 47.7073 27.6857 47.3765 27.197C47.0719 26.76 46.6836 26.3876 46.2343 26.1014H46.2209C45.6636 25.7821 45.0416 25.5922 44.4009 25.5459C44.2476 25.5325 44.0876 25.5259 43.9254 25.5259V25.5059ZM41.3809 28.0237C41.4409 28.0014 41.5053 27.977 41.5742 27.9548C41.8985 27.8429 42.2286 27.7487 42.5631 27.6726C42.9325 27.5812 43.3115 27.535 43.692 27.5348H43.8587C44.2073 27.5459 44.5508 27.6212 44.872 27.757C45.1485 27.8853 45.389 28.08 45.572 28.3237C45.7945 28.6308 45.9498 28.9814 46.0276 29.3526C46.2298 30.2104 46.1276 30.9215 45.7254 31.4659C45.3232 32.0104 44.572 32.4526 43.572 32.6904C43.2876 32.7571 43.0098 32.8104 42.7476 32.846C42.6765 32.8571 42.6031 32.866 42.5253 32.8704L41.3742 28.0126L41.3809 28.0237Z"/>
</mask>
<path d="M43.9254 25.9503C44.0737 25.9474 44.2221 25.9533 44.3698 25.9681C44.9442 26.0104 45.5021 26.1797 46.0032 26.4636C46.4033 26.7187 46.7492 27.0502 47.021 27.4392C47.3204 27.8818 47.533 28.3773 47.6476 28.8992C47.8073 29.5227 47.8278 30.1737 47.7076 30.8059C47.5919 31.3697 47.3528 31.9009 47.0076 32.3615C46.6466 32.8318 46.1928 33.2229 45.6743 33.5104C45.1015 33.8316 44.4856 34.0689 43.8454 34.2149C43.3852 34.3288 42.916 34.4032 42.4431 34.4371L43.7542 39.9705L42.5565 40.2549L39.4453 27.1214L39.5609 27.0725C39.9564 26.9037 40.3587 26.7481 40.7631 26.6014C41.2503 26.4267 41.7466 26.2783 42.2498 26.157C42.7984 26.0176 43.3616 25.943 43.9276 25.9348L43.9254 25.9503ZM42.2253 33.3237C42.4217 33.3241 42.6178 33.31 42.812 33.2815C43.0809 33.2437 43.372 33.1904 43.6765 33.1171C44.7876 32.8548 45.5898 32.3882 46.0832 31.7259C46.5765 31.0637 46.6965 30.237 46.4609 29.2459C46.3679 28.8137 46.1855 28.4057 45.9254 28.0481C45.6974 27.7443 45.3972 27.5021 45.052 27.3437C44.6799 27.1833 44.2814 27.0929 43.8765 27.077H43.6943C43.2794 27.0775 42.8661 27.1274 42.4631 27.2259C42.1131 27.3064 41.7674 27.4051 41.4276 27.5214C41.2053 27.6014 41.0142 27.6748 40.8631 27.7437L42.1964 33.3326H42.2365L42.2253 33.3237ZM43.9254 25.5059C43.3261 25.5108 42.7295 25.5853 42.1476 25.7281C41.6287 25.8481 41.1168 25.9965 40.6142 26.1725C40.2031 26.3192 39.7898 26.4814 39.3875 26.6525L39.2698 26.7014C39.1734 26.7426 39.0948 26.8164 39.0476 26.91C39.0005 27.0035 38.9878 27.1106 39.012 27.2125L42.1231 40.346C42.1367 40.4029 42.1614 40.4565 42.1957 40.5037C42.23 40.551 42.2733 40.5911 42.3231 40.6216C42.3932 40.665 42.474 40.6881 42.5565 40.6883C42.5908 40.6879 42.625 40.6841 42.6587 40.6772L43.8565 40.3927C43.971 40.3658 44.0702 40.2945 44.1323 40.1945C44.1944 40.0945 44.2143 39.974 44.1876 39.8594L42.992 34.8393C43.2942 34.7993 43.6143 34.7393 43.9454 34.6615C44.6266 34.5046 45.282 34.2517 45.8921 33.9104C46.4607 33.5932 46.9578 33.162 47.3521 32.6437C47.7365 32.1302 48.0036 31.5385 48.1343 30.9104C48.2694 30.2137 48.2481 29.4956 48.0721 28.8081C47.9433 28.2322 47.7073 27.6857 47.3765 27.197C47.0719 26.76 46.6836 26.3876 46.2343 26.1014H46.2209C45.6636 25.7821 45.0416 25.5922 44.4009 25.5459C44.2476 25.5325 44.0876 25.5259 43.9254 25.5259V25.5059ZM41.3809 28.0237C41.4409 28.0014 41.5053 27.977 41.5742 27.9548C41.8985 27.8429 42.2286 27.7487 42.5631 27.6726C42.9325 27.5812 43.3115 27.535 43.692 27.5348H43.8587C44.2073 27.5459 44.5508 27.6212 44.872 27.757C45.1485 27.8853 45.389 28.08 45.572 28.3237C45.7945 28.6308 45.9498 28.9814 46.0276 29.3526C46.2298 30.2104 46.1276 30.9215 45.7254 31.4659C45.3232 32.0104 44.572 32.4526 43.572 32.6904C43.2876 32.7571 43.0098 32.8104 42.7476 32.846C42.6765 32.8571 42.6031 32.866 42.5253 32.8704L41.3742 28.0126L41.3809 28.0237Z" fill="#232323"/>
<path d="M43.9254 25.9503L41.9455 25.6672L41.6124 27.9968L43.9652 27.9499L43.9254 25.9503ZM44.3698 25.9681L44.1704 27.9581L44.1966 27.9607L44.2228 27.9627L44.3698 25.9681ZM46.0032 26.4636L47.0782 24.7772L47.0344 24.7492L46.9892 24.7236L46.0032 26.4636ZM47.021 27.4392L48.6776 26.3187L48.6691 26.3061L48.6604 26.2937L47.021 27.4392ZM47.6476 28.8992L45.6942 29.3282L45.7016 29.362L45.7102 29.3955L47.6476 28.8992ZM47.7076 30.8059L49.6668 31.2082L49.6697 31.1938L49.6725 31.1794L47.7076 30.8059ZM47.0076 32.3615L48.5942 33.5792L48.6011 33.5702L48.608 33.561L47.0076 32.3615ZM45.6743 33.5104L44.7044 31.7613L44.6959 31.766L45.6743 33.5104ZM43.8454 34.2149L43.4007 32.2649L43.3826 32.269L43.3645 32.2735L43.8454 34.2149ZM42.4431 34.4371L42.3002 32.4422L39.9549 32.6103L40.497 34.8982L42.4431 34.4371ZM43.7542 39.9705L44.2164 41.9164L46.1613 41.4545L45.7004 39.5094L43.7542 39.9705ZM42.5565 40.2549L40.6103 40.716L41.0716 42.6632L43.0186 42.2008L42.5565 40.2549ZM39.4453 27.1214L38.666 25.2795L37.1096 25.938L37.4992 27.5825L39.4453 27.1214ZM39.5609 27.0725L40.3402 28.9145L40.3462 28.9119L39.5609 27.0725ZM40.7631 26.6014L40.0878 24.7189L40.0813 24.7212L40.7631 26.6014ZM42.2498 26.157L42.7186 28.1013L42.7305 28.0984L42.7423 28.0954L42.2498 26.157ZM43.9276 25.9348L45.9074 26.2178L46.2387 23.9009L43.8985 23.935L43.9276 25.9348ZM42.2253 33.3237L42.2293 31.3237L36.5089 31.3124L40.9761 34.8856L42.2253 33.3237ZM42.812 33.2815L42.5338 31.3009L42.5217 31.3027L42.812 33.2815ZM43.6765 33.1171L43.2171 31.1705L43.2081 31.1727L43.6765 33.1171ZM46.4609 29.2459L44.5058 29.6669L44.5102 29.6877L44.5151 29.7084L46.4609 29.2459ZM45.9254 28.0481L47.5428 26.8717L47.5341 26.8597L47.5252 26.8478L45.9254 28.0481ZM45.052 27.3437L45.8865 25.5261L45.8652 25.5163L45.8437 25.507L45.052 27.3437ZM43.8765 27.077L43.9547 25.0785L43.9156 25.077H43.8765V27.077ZM43.6943 27.077V25.077L43.692 25.077L43.6943 27.077ZM42.4631 27.2259L42.9116 29.175L42.9247 29.1719L42.9377 29.1688L42.4631 27.2259ZM41.4276 27.5214L40.7797 25.6293L40.7649 25.6344L40.7501 25.6397L41.4276 27.5214ZM40.8631 27.7437L40.0335 25.9239L38.5357 26.6067L38.9177 28.2078L40.8631 27.7437ZM42.1964 33.3326L40.251 33.7967L40.6175 35.3326H42.1964V33.3326ZM42.2365 33.3326V35.3326H47.9387L43.4857 31.7708L42.2365 33.3326ZM43.9254 25.5059H45.9254V23.4894L43.909 23.5059L43.9254 25.5059ZM42.1476 25.7281L42.5983 27.6766L42.6112 27.6737L42.624 27.6705L42.1476 25.7281ZM40.6142 26.1725L39.9531 24.2849L39.9422 24.2888L40.6142 26.1725ZM39.3875 26.6525L40.1543 28.4997L40.1624 28.4964L40.1705 28.4929L39.3875 26.6525ZM39.2698 26.7014L38.503 24.8543L38.4933 24.8583L38.4836 24.8624L39.2698 26.7014ZM39.012 27.2125L37.0658 27.6735L37.0658 27.6736L39.012 27.2125ZM42.1231 40.346L40.177 40.8071L40.178 40.8112L42.1231 40.346ZM42.3231 40.6216L43.3767 38.9216L43.3683 38.9164L42.3231 40.6216ZM42.5565 40.6883L42.5529 42.6883L42.5664 42.6883L42.5799 42.6881L42.5565 40.6883ZM42.6587 40.6772L43.0655 42.6354L43.0932 42.6296L43.1208 42.623L42.6587 40.6772ZM43.8565 40.3927L43.3985 38.4459L43.3944 38.4468L43.8565 40.3927ZM44.1876 39.8594L46.1356 39.4062L46.1332 39.396L44.1876 39.8594ZM42.992 34.8393L42.7296 32.8566L40.5331 33.1473L41.0464 35.3027L42.992 34.8393ZM43.9454 34.6615L43.4965 32.7125L43.488 32.7145L43.9454 34.6615ZM45.8921 33.9104L44.9178 32.1637L44.9155 32.165L45.8921 33.9104ZM47.3521 32.6437L48.9438 33.8547L48.9485 33.8485L48.9531 33.8423L47.3521 32.6437ZM48.1343 30.9104L50.0923 31.3179L50.0951 31.3045L50.0977 31.291L48.1343 30.9104ZM48.0721 28.8081L46.1203 29.2446L46.127 29.2745L46.1346 29.3042L48.0721 28.8081ZM47.3765 27.197L49.0327 26.0759L49.0251 26.0645L49.0172 26.0533L47.3765 27.197ZM46.2343 26.1014L47.3086 24.4145L46.817 24.1014H46.2343V26.1014ZM46.2209 26.1014L45.2266 27.8367L45.6886 28.1014H46.2209V26.1014ZM44.4009 25.5459L44.2277 27.5383L44.2421 27.5396L44.2566 27.5406L44.4009 25.5459ZM43.9254 25.5259H41.9254V27.5259H43.9254V25.5259ZM41.3809 28.0237L39.6659 29.0526L40.5195 30.4755L42.0755 29.8992L41.3809 28.0237ZM41.5742 27.9548L42.1882 29.8582L42.2075 29.852L42.2267 29.8454L41.5742 27.9548ZM42.5631 27.6726L43.0068 29.6227L43.025 29.6186L43.0432 29.6141L42.5631 27.6726ZM43.692 27.5348V25.5348L43.691 25.5348L43.692 27.5348ZM43.8587 27.5348L43.9222 25.5358L43.8905 25.5348H43.8587V27.5348ZM44.872 27.757L45.7139 25.9428L45.6826 25.9283L45.6509 25.9149L44.872 27.757ZM45.572 28.3237L47.1917 27.1504L47.1816 27.1363L47.1712 27.1225L45.572 28.3237ZM46.0276 29.3526L44.0702 29.7631L44.0753 29.7874L44.081 29.8115L46.0276 29.3526ZM43.572 32.6904L44.0284 34.6376L44.0347 34.6361L43.572 32.6904ZM42.7476 32.846L42.4788 30.8641L42.4588 30.8668L42.4388 30.8699L42.7476 32.846ZM42.5253 32.8704L40.5792 33.3316L40.9658 34.9628L42.6394 34.8671L42.5253 32.8704ZM41.3742 28.0126L43.0893 26.9836L39.4281 28.4737L41.3742 28.0126ZM43.9652 27.9499C44.0337 27.9485 44.1022 27.9513 44.1704 27.9581L44.5692 23.9781C44.3421 23.9553 44.1138 23.9462 43.8855 23.9507L43.9652 27.9499ZM44.2228 27.9627C44.5021 27.9833 44.7734 28.0656 45.0171 28.2037L46.9892 24.7236C46.2307 24.2938 45.3863 24.0376 44.5168 23.9735L44.2228 27.9627ZM44.9281 28.1501C45.1064 28.2638 45.2604 28.4115 45.3815 28.5847L48.6604 26.2937C48.2379 25.689 47.7002 25.1737 47.0782 24.7772L44.9281 28.1501ZM45.3643 28.5598C45.5219 28.7927 45.6338 29.0535 45.6942 29.3282L49.6011 28.4703C49.4322 27.7011 49.1188 26.971 48.6776 26.3187L45.3643 28.5598ZM45.7102 29.3955C45.797 29.7346 45.8082 30.0886 45.7428 30.4325L49.6725 31.1794C49.8475 30.2587 49.8176 29.3108 49.5851 28.403L45.7102 29.3955ZM45.7485 30.4037C45.6921 30.6785 45.5755 30.9375 45.4073 31.162L48.608 33.561C49.1301 32.8644 49.4917 32.0609 49.6668 31.2082L45.7485 30.4037ZM45.4211 31.1438C45.227 31.3966 44.9831 31.6068 44.7044 31.7613L46.6442 35.2595C47.4025 34.839 48.0662 34.2671 48.5942 33.5792L45.4211 31.1438ZM44.6959 31.766C44.2903 31.9935 43.8541 32.1615 43.4007 32.2649L44.29 36.1648C45.1171 35.9762 45.9127 35.6697 46.6526 35.2548L44.6959 31.766ZM43.3645 32.2735C43.0152 32.36 42.6591 32.4165 42.3002 32.4422L42.5861 36.432C43.1729 36.3899 43.7551 36.2977 44.3262 36.1562L43.3645 32.2735ZM40.497 34.8982L41.8081 40.4316L45.7004 39.5094L44.3892 33.976L40.497 34.8982ZM43.2921 38.0246L42.0944 38.3091L43.0186 42.2008L44.2164 41.9164L43.2921 38.0246ZM44.5026 39.7939L41.3915 26.6604L37.4992 27.5825L40.6103 40.716L44.5026 39.7939ZM40.2246 28.9634L40.3402 28.9145L38.7816 25.2306L38.666 25.2795L40.2246 28.9634ZM40.3462 28.9119C40.6999 28.7609 41.0665 28.6189 41.4449 28.4816L40.0813 24.7212C39.6509 24.8773 39.2129 25.0464 38.7755 25.2332L40.3462 28.9119ZM41.4384 28.484C41.8579 28.3335 42.2853 28.2057 42.7186 28.1013L41.781 24.2127C41.2079 24.3509 40.6427 24.5198 40.0878 24.7189L41.4384 28.484ZM42.7423 28.0954C43.1394 27.9945 43.547 27.9405 43.9567 27.9345L43.8985 23.935C43.1761 23.9455 42.4575 24.0407 41.7572 24.2186L42.7423 28.0954ZM41.9477 25.6517L41.9455 25.6672L45.9052 26.2334L45.9074 26.2178L41.9477 25.6517ZM42.2214 35.3237C42.5162 35.3243 42.8106 35.3031 43.1024 35.2603L42.5217 31.3027C42.4249 31.3169 42.3272 31.3239 42.2293 31.3237L42.2214 35.3237ZM43.0903 35.2621C43.4185 35.2159 43.7733 35.1509 44.1448 35.0615L43.2081 31.1727C42.9707 31.2299 42.7433 31.2715 42.5338 31.301L43.0903 35.2621ZM44.1358 35.0636C45.5374 34.7328 46.8244 34.0787 47.687 32.9208L44.4793 30.5311C44.3552 30.6977 44.0378 30.9769 43.2171 31.1705L44.1358 35.0636ZM47.687 32.9208C48.6234 31.6638 48.7403 30.1867 48.4067 28.7835L44.5151 29.7084C44.6527 30.2873 44.5296 30.4636 44.4793 30.5311L47.687 32.9208ZM48.4161 28.8249C48.2644 28.1201 47.9669 27.4548 47.5428 26.8717L44.308 29.2245C44.404 29.3566 44.4714 29.5073 44.5058 29.6669L48.4161 28.8249ZM47.5252 26.8478C47.0975 26.2778 46.5342 25.8234 45.8865 25.5261L44.2176 29.1613C44.2603 29.1809 44.2974 29.2108 44.3256 29.2484L47.5252 26.8478ZM45.8437 25.507C45.2458 25.2493 44.6054 25.104 43.9547 25.0785L43.7982 29.0755C43.9574 29.0817 44.1141 29.1172 44.2603 29.1803L45.8437 25.507ZM43.8765 25.077H43.6943V29.077H43.8765V25.077ZM43.692 25.077C43.118 25.0776 42.5461 25.1468 41.9886 25.283L42.9377 29.1688C43.1861 29.1081 43.4408 29.0773 43.6965 29.077L43.692 25.077ZM42.0147 25.2768C41.5972 25.3729 41.185 25.4905 40.7797 25.6293L42.0754 29.4136C42.3498 29.3196 42.6289 29.24 42.9116 29.175L42.0147 25.2768ZM40.7501 25.6397C40.5167 25.7237 40.2623 25.8195 40.0335 25.9239L41.6927 29.5635C41.7661 29.53 41.894 29.4792 42.105 29.4032L40.7501 25.6397ZM38.9177 28.2078L40.251 33.7967L44.1419 32.8685L42.8085 27.2796L38.9177 28.2078ZM42.1964 35.3326H42.2365V31.3326H42.1964V35.3326ZM43.4857 31.7708L43.4746 31.7619L40.9761 34.8856L40.9872 34.8945L43.4857 31.7708ZM43.909 23.5059C43.1547 23.5121 42.4037 23.606 41.6711 23.7857L42.624 27.6705C43.0554 27.5647 43.4976 27.5094 43.9417 27.5058L43.909 23.5059ZM41.6968 23.7795C41.1067 23.9161 40.5246 24.0848 39.9531 24.285L41.2753 28.0601C41.709 27.9082 42.1507 27.7802 42.5983 27.6766L41.6968 23.7795ZM39.9422 24.2888C39.4917 24.4495 39.0414 24.6263 38.6046 24.8122L40.1705 28.4929C40.5381 28.3365 40.9145 28.1889 41.2862 28.0562L39.9422 24.2888ZM38.6208 24.8054L38.503 24.8543L40.0365 28.5486L40.1543 28.4997L38.6208 24.8054ZM38.4836 24.8624C37.954 25.0888 37.5213 25.495 37.2619 26.0093L40.8334 27.8106C40.6683 28.1379 40.3929 28.3964 40.0559 28.5404L38.4836 24.8624ZM37.2619 26.0093C37.0025 26.5237 36.9331 27.1131 37.0658 27.6735L40.9581 26.7516C41.0426 27.1082 40.9984 27.4833 40.8334 27.8106L37.2619 26.0093ZM37.0658 27.6736L40.177 40.8071L44.0693 39.885L40.9581 26.7515L37.0658 27.6736ZM40.178 40.8112C40.2527 41.1237 40.3883 41.4185 40.5771 41.6785L43.8143 39.3289C43.9344 39.4945 44.0207 39.682 44.0683 39.8809L40.178 40.8112ZM40.5771 41.6785C40.7658 41.9386 41.004 42.1589 41.278 42.3268L43.3683 38.9164C43.5426 39.0233 43.6942 39.1634 43.8143 39.3289L40.5771 41.6785ZM41.2695 42.3216C41.655 42.5605 42.0993 42.6875 42.5529 42.6883L42.56 38.6883C42.8487 38.6888 43.1314 38.7696 43.3767 38.9216L41.2695 42.3216ZM42.5799 42.6881C42.7432 42.6862 42.9058 42.6685 43.0655 42.6354L42.2519 38.719C42.3442 38.6998 42.4384 38.6895 42.533 38.6884L42.5799 42.6881ZM43.1208 42.623L44.3186 42.3386L43.3944 38.4468L42.1966 38.7313L43.1208 42.623ZM44.3145 42.3396C44.9445 42.1914 45.49 41.7993 45.8315 41.2494L42.4331 39.1396C42.6504 38.7896 42.9976 38.5402 43.3985 38.4459L44.3145 42.3396ZM45.8315 41.2494C46.1728 40.6996 46.2822 40.0367 46.1356 39.4062L42.2396 40.3125C42.1463 39.9113 42.2159 39.4895 42.4331 39.1396L45.8315 41.2494ZM46.1332 39.396L44.9376 34.376L41.0464 35.3027L42.242 40.3227L46.1332 39.396ZM43.2544 36.822C43.631 36.7722 44.0166 36.6992 44.4027 36.6085L43.488 32.7145C43.2119 32.7794 42.9575 32.8264 42.7296 32.8566L43.2544 36.822ZM44.3942 36.6105C45.2601 36.4111 46.0932 36.0896 46.8686 35.6558L44.9155 32.165C44.4708 32.4139 43.993 32.5982 43.4965 32.7126L44.3942 36.6105ZM46.8663 35.6571C47.6755 35.2057 48.3828 34.5921 48.9438 33.8547L45.7603 31.4328C45.5328 31.7318 45.246 31.9807 44.9178 32.1637L46.8663 35.6571ZM48.9531 33.8423C49.5131 33.0944 49.902 32.2326 50.0923 31.3179L46.1763 30.5028C46.1052 30.8443 45.96 31.1659 45.751 31.4451L48.9531 33.8423ZM50.0977 31.291C50.2891 30.3037 50.259 29.2863 50.0096 28.312L46.1346 29.3042C46.2372 29.705 46.2496 30.1236 46.1709 30.5297L50.0977 31.291ZM50.0239 28.3716C49.8403 27.551 49.5041 26.7722 49.0327 26.0759L45.7203 28.3181C45.9105 28.5992 46.0462 28.9135 46.1203 29.2446L50.0239 28.3716ZM49.0172 26.0533C48.5615 25.3995 47.9808 24.8425 47.3086 24.4145L45.16 27.7884C45.3865 27.9326 45.5822 28.1204 45.7358 28.3407L49.0172 26.0533ZM46.2343 24.1014H46.2209V28.1014H46.2343V24.1014ZM47.2153 24.3661C46.3976 23.8976 45.4851 23.6191 44.5452 23.5511L44.2566 27.5406C44.5981 27.5653 44.9296 27.6665 45.2266 27.8367L47.2153 24.3661ZM44.5742 23.5534C44.3595 23.5347 44.1415 23.5259 43.9254 23.5259V27.5259C44.0337 27.5259 44.1357 27.5303 44.2277 27.5383L44.5742 23.5534ZM45.9254 25.5259V25.5059H41.9254V25.5259H45.9254ZM42.0755 29.8992C42.0842 29.896 42.0927 29.8928 42.1002 29.89C42.1081 29.8871 42.1149 29.8846 42.1216 29.8821C42.1351 29.8771 42.1457 29.8732 42.1551 29.8698C42.1741 29.8629 42.1837 29.8597 42.1882 29.8582L40.9602 26.0514C40.8404 26.09 40.7264 26.1333 40.6863 26.1482L42.0755 29.8992ZM42.2267 29.8454C42.4825 29.7571 42.7429 29.6828 43.0068 29.6227L42.1195 25.7224C41.7143 25.8146 41.3145 25.9287 40.9218 26.0642L42.2267 29.8454ZM43.0432 29.6141C43.2558 29.5615 43.474 29.5349 43.693 29.5348L43.691 25.5348C43.1491 25.5351 42.6092 25.6009 42.0831 25.731L43.0432 29.6141ZM43.692 29.5348H43.8587V25.5348H43.692V29.5348ZM43.7952 29.5338C43.8977 29.537 43.9987 29.5592 44.0932 29.5991L45.6509 25.9149C45.1029 25.6832 44.5169 25.5547 43.9222 25.5358L43.7952 29.5338ZM44.0301 29.5712C44.0076 29.5607 43.9879 29.5448 43.9729 29.5249L47.1712 27.1225C46.7901 26.6152 46.2895 26.2099 45.7139 25.9428L44.0301 29.5712ZM43.9524 29.497C44.0099 29.5764 44.0501 29.6671 44.0702 29.7631L47.985 28.9421C47.8495 28.2957 47.5792 27.6852 47.1917 27.1504L43.9524 29.497ZM44.081 29.8115C44.1375 30.0512 44.1314 30.1872 44.1234 30.2433C44.1214 30.2571 44.1193 30.2665 44.1178 30.272C44.1163 30.2775 44.1153 30.2801 44.1151 30.2805C44.115 30.2808 44.1153 30.2801 44.116 30.2788C44.1167 30.2776 44.1171 30.277 44.1168 30.2775L47.334 32.6543C48.1837 31.5043 48.2682 30.1404 47.9742 28.8937L44.081 29.8115ZM44.1168 30.2775C44.1125 30.2833 44.0529 30.3578 43.8775 30.4585C43.7052 30.5574 43.4518 30.6632 43.1094 30.7446L44.0347 34.6361C45.3051 34.3341 46.5541 33.7101 47.334 32.6543L44.1168 30.2775ZM43.1156 30.7432C42.8801 30.7984 42.6659 30.8387 42.4788 30.8641L43.0163 34.8278C43.3536 34.7821 43.6951 34.7157 44.0284 34.6376L43.1156 30.7432ZM42.4388 30.8699C42.4146 30.8737 42.4082 30.8738 42.4112 30.8737L42.6394 34.8671C42.798 34.8581 42.9383 34.8404 43.0563 34.822L42.4388 30.8699ZM44.4715 32.4092L43.3203 27.5514L39.4281 28.4737L40.5792 33.3316L44.4715 32.4092ZM39.6592 29.0415L39.6659 29.0526L43.0959 26.9948L43.0893 26.9836L39.6592 29.0415Z" fill="white" mask="url(#path-125-inside-1_58_4808)"/>
<mask id="path-127-inside-2_58_4808" fill="white">
<path d="M52.1022 27.6921C52.3397 27.6902 52.5764 27.7186 52.8067 27.7766C53.2637 27.894 53.6844 28.1231 54.0311 28.4432C54.3654 28.7569 54.633 29.1348 54.8178 29.5544C55.0068 29.9665 55.1556 30.3959 55.2623 30.8366L56.1267 34.4855C56.2156 34.8589 56.3089 35.23 56.4112 35.5966C56.5066 35.949 56.6284 36.2937 56.7756 36.6278L56.8467 36.7922L55.6912 37.0656L55.3289 36.0255H55.2823C55.2312 36.1306 55.1748 36.2329 55.1134 36.3322C54.9628 36.5743 54.7846 36.7981 54.5822 36.9989C53.8845 37.6677 52.9597 38.048 51.9933 38.0633C51.4585 38.0607 50.9353 37.9066 50.4844 37.6189C50.1929 37.4234 49.9448 37.17 49.7555 36.8744C49.5728 36.5909 49.4398 36.2783 49.3622 35.95C49.2232 35.424 49.2272 34.8706 49.3737 34.3467C49.5202 33.8228 49.8039 33.3475 50.1955 32.9699C50.9755 32.1566 52.2933 31.5322 54.0734 31.1188L54.0489 31.0144C53.9793 30.7386 53.8917 30.4676 53.7867 30.2032C53.6716 29.9141 53.5061 29.6478 53.2978 29.4166C53.0792 29.178 52.8018 29.001 52.4933 28.9032C52.3195 28.8478 52.1379 28.8208 51.9555 28.8232C51.7166 28.8267 51.4787 28.8573 51.2467 28.9143C50.8561 29.0061 50.4816 29.1559 50.1355 29.3588C49.7949 29.559 49.485 29.8075 49.2155 30.0966L49.0911 30.2299L48.4622 29.3788L48.5444 29.2877C48.882 28.9122 49.2782 28.594 49.7177 28.3454C50.1482 28.1101 50.6088 27.9344 51.0866 27.8232C51.4224 27.7385 51.7671 27.6945 52.1133 27.6921H52.1022ZM52.2089 36.9278C52.3586 36.9277 52.5078 36.9098 52.6533 36.8744C52.9804 36.8031 53.2929 36.6769 53.5778 36.5011C54.0484 36.2102 54.4106 35.7731 54.6089 35.2566C54.7003 35.0269 54.7579 34.7851 54.78 34.5389C54.7912 34.3596 54.78 34.1797 54.7467 34.0033L54.3022 32.1344C53.8343 32.2415 53.3722 32.3728 52.9178 32.5277C52.4335 32.6855 51.9735 32.9098 51.5511 33.1944C51.1801 33.4436 50.875 33.7791 50.6622 34.1722C50.4594 34.5868 50.4182 35.0622 50.5466 35.5055C50.6028 35.7813 50.7155 36.0423 50.8778 36.2722C51.031 36.475 51.2296 36.6391 51.4577 36.7514C51.6857 36.8637 51.9369 36.921 52.1911 36.9189L52.2089 36.9278ZM52.0955 27.2388C51.715 27.2416 51.336 27.2893 50.9666 27.381C50.449 27.5013 49.9503 27.692 49.4844 27.9477C49.0012 28.2204 48.5659 28.5701 48.1955 28.9832L48.1133 29.0743C48.0452 29.1504 48.0054 29.2476 48.0005 29.3496C47.9956 29.4516 48.0261 29.5521 48.0866 29.6344L48.7177 30.4855C48.7566 30.5382 48.8066 30.5817 48.8643 30.6128C48.9219 30.6439 48.9857 30.6619 49.0511 30.6655H49.0733C49.135 30.6659 49.1961 30.6535 49.2527 30.629C49.3093 30.6045 49.3602 30.5685 49.4022 30.5233L49.5244 30.3899C50.0095 29.8684 50.6369 29.5006 51.3289 29.3321C51.5271 29.2811 51.7308 29.2542 51.9355 29.2521C52.0696 29.2503 52.2031 29.2698 52.3311 29.3099C52.5663 29.3834 52.7784 29.5166 52.9467 29.6966C53.1234 29.8875 53.2642 30.1089 53.3622 30.3499C53.4222 30.501 53.4756 30.6455 53.5178 30.781C51.8667 31.2144 50.6289 31.841 49.8666 32.6455C49.4245 33.0794 49.1044 33.622 48.9386 34.2189C48.7728 34.8158 48.7671 35.4458 48.9222 36.0455C49.0143 36.4262 49.1706 36.7885 49.3844 37.1167C49.614 37.4719 49.9163 37.7745 50.2714 38.0043C50.6265 38.2342 51.0263 38.3861 51.4444 38.45C51.6263 38.4829 51.8107 38.4993 51.9955 38.4989C52.3059 38.4993 52.6154 38.4643 52.9178 38.3945C53.6653 38.2306 54.3502 37.8558 54.8911 37.3144C54.9975 37.21 55.0977 37.0994 55.1911 36.9833L55.2667 37.2056C55.2971 37.2926 55.3539 37.3681 55.4292 37.4215C55.5045 37.4748 55.5944 37.5034 55.6867 37.5033C55.7211 37.504 55.7555 37.5003 55.7889 37.4922L56.9445 37.2189C57.0074 37.2029 57.066 37.1733 57.1162 37.1322C57.1665 37.0911 57.2071 37.0396 57.2353 36.9811C57.2634 36.9227 57.2784 36.8587 57.2793 36.7939C57.2801 36.729 57.2667 36.6647 57.2401 36.6055L57.1667 36.4411C57.0296 36.1267 56.9152 35.8029 56.8245 35.4722C56.7312 35.1322 56.64 34.7744 56.5467 34.3744L55.6823 30.7255C55.5709 30.2564 55.4138 29.7994 55.2134 29.361C55.0044 28.8903 54.702 28.4669 54.3245 28.1166C53.9232 27.7497 53.4378 27.4872 52.9111 27.3521C52.6432 27.2835 52.3676 27.2499 52.0911 27.2521L52.0955 27.2388ZM52.1911 36.4744H52.0333C51.877 36.4609 51.7254 36.4139 51.5889 36.3367C51.4487 36.2541 51.3269 36.1437 51.2311 36.0122C51.1042 35.8289 51.0157 35.6218 50.9711 35.4033C50.871 35.0655 50.8979 34.7027 51.0466 34.3833C51.2288 34.0544 51.4871 33.774 51.8 33.5655C52.189 33.301 52.6131 33.0923 53.06 32.9455C53.3556 32.8433 53.6578 32.7522 53.96 32.6744L54.3 34.1055C54.323 34.2383 54.3304 34.3733 54.3222 34.5077C54.3004 34.7086 54.2526 34.9058 54.18 35.0944C54.0171 35.5216 53.718 35.8832 53.3289 36.1233C53.085 36.2716 52.8186 36.379 52.54 36.4411C52.4236 36.4696 52.3042 36.4838 52.1844 36.4833L52.1911 36.4744Z"/>
</mask>
<path d="M52.1022 27.6921C52.3397 27.6902 52.5764 27.7186 52.8067 27.7766C53.2637 27.894 53.6844 28.1231 54.0311 28.4432C54.3654 28.7569 54.633 29.1348 54.8178 29.5544C55.0068 29.9665 55.1556 30.3959 55.2623 30.8366L56.1267 34.4855C56.2156 34.8589 56.3089 35.23 56.4112 35.5966C56.5066 35.949 56.6284 36.2937 56.7756 36.6278L56.8467 36.7922L55.6912 37.0656L55.3289 36.0255H55.2823C55.2312 36.1306 55.1748 36.2329 55.1134 36.3322C54.9628 36.5743 54.7846 36.7981 54.5822 36.9989C53.8845 37.6677 52.9597 38.048 51.9933 38.0633C51.4585 38.0607 50.9353 37.9066 50.4844 37.6189C50.1929 37.4234 49.9448 37.17 49.7555 36.8744C49.5728 36.5909 49.4398 36.2783 49.3622 35.95C49.2232 35.424 49.2272 34.8706 49.3737 34.3467C49.5202 33.8228 49.8039 33.3475 50.1955 32.9699C50.9755 32.1566 52.2933 31.5322 54.0734 31.1188L54.0489 31.0144C53.9793 30.7386 53.8917 30.4676 53.7867 30.2032C53.6716 29.9141 53.5061 29.6478 53.2978 29.4166C53.0792 29.178 52.8018 29.001 52.4933 28.9032C52.3195 28.8478 52.1379 28.8208 51.9555 28.8232C51.7166 28.8267 51.4787 28.8573 51.2467 28.9143C50.8561 29.0061 50.4816 29.1559 50.1355 29.3588C49.7949 29.559 49.485 29.8075 49.2155 30.0966L49.0911 30.2299L48.4622 29.3788L48.5444 29.2877C48.882 28.9122 49.2782 28.594 49.7177 28.3454C50.1482 28.1101 50.6088 27.9344 51.0866 27.8232C51.4224 27.7385 51.7671 27.6945 52.1133 27.6921H52.1022ZM52.2089 36.9278C52.3586 36.9277 52.5078 36.9098 52.6533 36.8744C52.9804 36.8031 53.2929 36.6769 53.5778 36.5011C54.0484 36.2102 54.4106 35.7731 54.6089 35.2566C54.7003 35.0269 54.7579 34.7851 54.78 34.5389C54.7912 34.3596 54.78 34.1797 54.7467 34.0033L54.3022 32.1344C53.8343 32.2415 53.3722 32.3728 52.9178 32.5277C52.4335 32.6855 51.9735 32.9098 51.5511 33.1944C51.1801 33.4436 50.875 33.7791 50.6622 34.1722C50.4594 34.5868 50.4182 35.0622 50.5466 35.5055C50.6028 35.7813 50.7155 36.0423 50.8778 36.2722C51.031 36.475 51.2296 36.6391 51.4577 36.7514C51.6857 36.8637 51.9369 36.921 52.1911 36.9189L52.2089 36.9278ZM52.0955 27.2388C51.715 27.2416 51.336 27.2893 50.9666 27.381C50.449 27.5013 49.9503 27.692 49.4844 27.9477C49.0012 28.2204 48.5659 28.5701 48.1955 28.9832L48.1133 29.0743C48.0452 29.1504 48.0054 29.2476 48.0005 29.3496C47.9956 29.4516 48.0261 29.5521 48.0866 29.6344L48.7177 30.4855C48.7566 30.5382 48.8066 30.5817 48.8643 30.6128C48.9219 30.6439 48.9857 30.6619 49.0511 30.6655H49.0733C49.135 30.6659 49.1961 30.6535 49.2527 30.629C49.3093 30.6045 49.3602 30.5685 49.4022 30.5233L49.5244 30.3899C50.0095 29.8684 50.6369 29.5006 51.3289 29.3321C51.5271 29.2811 51.7308 29.2542 51.9355 29.2521C52.0696 29.2503 52.2031 29.2698 52.3311 29.3099C52.5663 29.3834 52.7784 29.5166 52.9467 29.6966C53.1234 29.8875 53.2642 30.1089 53.3622 30.3499C53.4222 30.501 53.4756 30.6455 53.5178 30.781C51.8667 31.2144 50.6289 31.841 49.8666 32.6455C49.4245 33.0794 49.1044 33.622 48.9386 34.2189C48.7728 34.8158 48.7671 35.4458 48.9222 36.0455C49.0143 36.4262 49.1706 36.7885 49.3844 37.1167C49.614 37.4719 49.9163 37.7745 50.2714 38.0043C50.6265 38.2342 51.0263 38.3861 51.4444 38.45C51.6263 38.4829 51.8107 38.4993 51.9955 38.4989C52.3059 38.4993 52.6154 38.4643 52.9178 38.3945C53.6653 38.2306 54.3502 37.8558 54.8911 37.3144C54.9975 37.21 55.0977 37.0994 55.1911 36.9833L55.2667 37.2056C55.2971 37.2926 55.3539 37.3681 55.4292 37.4215C55.5045 37.4748 55.5944 37.5034 55.6867 37.5033C55.7211 37.504 55.7555 37.5003 55.7889 37.4922L56.9445 37.2189C57.0074 37.2029 57.066 37.1733 57.1162 37.1322C57.1665 37.0911 57.2071 37.0396 57.2353 36.9811C57.2634 36.9227 57.2784 36.8587 57.2793 36.7939C57.2801 36.729 57.2667 36.6647 57.2401 36.6055L57.1667 36.4411C57.0296 36.1267 56.9152 35.8029 56.8245 35.4722C56.7312 35.1322 56.64 34.7744 56.5467 34.3744L55.6823 30.7255C55.5709 30.2564 55.4138 29.7994 55.2134 29.361C55.0044 28.8903 54.702 28.4669 54.3245 28.1166C53.9232 27.7497 53.4378 27.4872 52.9111 27.3521C52.6432 27.2835 52.3676 27.2499 52.0911 27.2521L52.0955 27.2388ZM52.1911 36.4744H52.0333C51.877 36.4609 51.7254 36.4139 51.5889 36.3367C51.4487 36.2541 51.3269 36.1437 51.2311 36.0122C51.1042 35.8289 51.0157 35.6218 50.9711 35.4033C50.871 35.0655 50.8979 34.7027 51.0466 34.3833C51.2288 34.0544 51.4871 33.774 51.8 33.5655C52.189 33.301 52.6131 33.0923 53.06 32.9455C53.3556 32.8433 53.6578 32.7522 53.96 32.6744L54.3 34.1055C54.323 34.2383 54.3304 34.3733 54.3222 34.5077C54.3004 34.7086 54.2526 34.9058 54.18 35.0944C54.0171 35.5216 53.718 35.8832 53.3289 36.1233C53.085 36.2716 52.8186 36.379 52.54 36.4411C52.4236 36.4696 52.3042 36.4838 52.1844 36.4833L52.1911 36.4744Z" fill="#232323" stroke="white" stroke-width="4" mask="url(#path-127-inside-2_58_4808)"/>
<path d="M63.7591 25.0266L63.7625 25.0232L63.7591 25.0266ZM59.3267 41.1073L59.399 40.7125L59.3267 41.1073Z" fill="#232323" stroke="white" stroke-width="2"/>
<path d="M55.0068 187.73C55.4645 187.026 55.8375 186.271 56.1179 185.479L46.4045 179.397L44 183.237L49.7023 186.806C49.1725 187.412 48.5252 187.905 47.7995 188.255C47.0738 188.604 46.2847 188.803 45.48 188.839L45.38 188.955L46.9623 193.257L47.1623 193.412C50.2445 192.83 53.0334 190.879 55.0068 187.73Z" fill="#232323"/>
<path d="M55.0068 187.73C55.4645 187.026 55.8375 186.271 56.1179 185.479L46.4045 179.397L44 183.237L49.7023 186.806C49.1725 187.412 48.5252 187.905 47.7995 188.255C47.0738 188.604 46.2847 188.803 45.48 188.839L45.38 188.955L46.9623 193.257L47.1623 193.412C50.2445 192.83 53.0334 190.879 55.0068 187.73" stroke="white" stroke-width="2" stroke-linecap="round" stroke-linejoin="round"/>
<path d="M38.7254 191.634C41.521 193.383 44.4411 193.932 47.1478 193.412L45.4655 188.841C44.21 188.903 42.7722 188.594 41.2299 187.63C39.9265 186.803 38.9166 185.587 38.3434 184.153C37.7702 182.72 37.6629 181.143 38.0365 179.645L37.9076 179.581L33.1676 180.052L33.0543 180.143C32.8411 182.395 33.2586 184.662 34.2602 186.691C35.2617 188.72 36.8077 190.43 38.7254 191.63" fill="#232323"/>
<path d="M38.7254 191.634C41.521 193.383 44.4411 193.932 47.1478 193.412L45.4655 188.841C44.21 188.903 42.7722 188.594 41.2299 187.63C39.9265 186.803 38.9166 185.587 38.3434 184.153C37.7702 182.72 37.6629 181.143 38.0365 179.645L37.9076 179.581L33.1676 180.052L33.0543 180.143C32.8411 182.395 33.2586 184.662 34.2602 186.691C35.2617 188.72 36.8077 190.43 38.7254 191.63" stroke="white" stroke-width="2" stroke-linecap="round" stroke-linejoin="round"/>
<path d="M37.9823 179.65C38.1687 178.85 38.4847 178.086 38.9179 177.387C39.3573 176.694 39.9024 176.074 40.5334 175.55L40.6134 175.41L38.9512 170.874L38.8134 170.859C37.1859 171.845 35.8122 173.199 34.8026 174.812C33.793 176.425 33.1757 178.253 33 180.148L37.9823 179.65Z" fill="#232323"/>
<path d="M37.9823 179.65C38.1687 178.85 38.4847 178.086 38.9179 177.387C39.3573 176.694 39.9024 176.074 40.5334 175.55L40.6134 175.41L38.9512 170.874L38.8134 170.859C37.1859 171.845 35.8122 173.199 34.8026 174.812C33.793 176.425 33.1757 178.253 33 180.148L37.9823 179.65" stroke="white" stroke-width="2" stroke-linecap="round" stroke-linejoin="round"/>
<path d="M49.309 174.943C50.8052 175.849 51.893 177.298 52.3446 178.987L57.0491 177.965C56.2755 175.036 54.3985 172.52 51.8113 170.943C49.894 169.741 47.6802 169.097 45.4176 169.082C43.155 169.067 40.9329 169.682 39 170.858L40.7267 175.55C41.9147 174.562 43.3826 173.973 44.9235 173.864C46.4644 173.755 48.0006 174.132 49.3157 174.943" fill="#232323"/>
<path d="M49.309 174.943C50.8052 175.849 51.893 177.298 52.3446 178.987L57.0491 177.965C56.2755 175.036 54.3985 172.52 51.8113 170.943C49.894 169.741 47.6802 169.097 45.4176 169.082C43.155 169.067 40.9329 169.682 39 170.858L40.7267 175.55C41.9147 174.562 43.3826 173.973 44.9235 173.864C46.4644 173.755 48.0006 174.132 49.3157 174.943" stroke="white" stroke-width="2" stroke-linecap="round" stroke-linejoin="round"/>
<path fill-rule="evenodd" clip-rule="evenodd" d="M142.173 168.759C142.249 168.953 142.264 169.165 142.216 169.368L140.66 176.165L138.309 169.179L133 170.805L135.044 171.112C135.656 171.276 136.049 171.612 136.211 172.143L138.998 179.477L141.596 178.681L144.869 167.163L141.682 168.139C141.804 168.201 141.911 168.288 141.997 168.394C142.083 168.5 142.146 168.622 142.182 168.754L142.173 168.759Z" fill="#232323" stroke="white" stroke-width="2" stroke-linecap="round" stroke-linejoin="round"/>
<path fill-rule="evenodd" clip-rule="evenodd" d="M163.247 161.765L163.367 161.418L160.124 162.412C160.273 162.489 160.329 162.534 160.347 162.572C160.347 162.706 160.333 162.842 160.307 162.978L158.222 173.032C158.156 173.218 158.082 173.387 158 173.578L160.667 172.761L160.444 172.516C160.369 172.269 160.362 171.774 160.444 171.043L160.689 169.807L163.438 168.965C163.825 169.821 164.127 170.536 164.327 171.074L164.256 171.656L167.573 170.641L166.86 170.069L163.238 161.765H163.247ZM162.896 167.658L160.922 168.263L161.618 164.505L162.896 167.658Z" fill="#232323" stroke="white" stroke-width="2" stroke-linecap="round" stroke-linejoin="round"/>
<path fill-rule="evenodd" clip-rule="evenodd" d="M153.193 164.103C152.227 164.379 151.38 164.967 150.782 165.774C150.08 166.527 149.853 167.281 150.091 168.059C150.208 168.481 150.411 168.874 150.687 169.214C150.962 169.554 151.305 169.834 151.693 170.036L153.916 170.743C154.722 171.014 155.173 171.332 155.289 171.712C155.342 171.895 155.351 172.089 155.316 172.277C155.28 172.465 155.2 172.641 155.082 172.792C154.831 173.14 154.468 173.389 154.053 173.499C153.387 173.703 152.109 173.579 150.276 173.188L150.816 174.95C152.276 175.312 153.587 175.325 154.742 174.972C155.784 174.69 156.683 174.03 157.265 173.121C157.931 172.232 158.116 171.365 157.867 170.55C157.658 169.867 157.162 169.336 156.278 168.881L154.125 168.152C153.391 167.856 152.942 167.539 152.842 167.216C152.62 166.479 152.936 165.965 153.827 165.692C154.433 165.505 155.429 165.574 156.845 165.927L156.642 163.979C155.503 163.714 154.313 163.757 153.196 164.103H153.193Z" fill="#232323" stroke="white" stroke-width="2" stroke-linecap="round" stroke-linejoin="round"/>
<path fill-rule="evenodd" clip-rule="evenodd" d="M149.591 176.367C149.431 175.98 149.244 175.643 149.089 175.276L149.116 166.765L149.469 165.889L146 166.954C146.091 167.111 146.198 167.327 146.289 167.487C146.352 167.676 146.397 167.87 146.424 168.067L146.376 176.512L146.12 177.44L149.591 176.378V176.367Z" fill="#232323" stroke="white" stroke-width="2" stroke-linecap="round" stroke-linejoin="round"/>
<path d="M86 27.0281L123.052 32.7593L115.051 57.4218" stroke="white" stroke-width="2" stroke-linecap="round" stroke-linejoin="round"/>
<path d="M91.5514 144.869L79.6645 174.594L72 175.734" stroke="white" stroke-width="2" stroke-linecap="round" stroke-linejoin="round"/>
<path d="M80 174.595L117.245 178.728" stroke="white" stroke-width="2" stroke-linecap="round" stroke-linejoin="round"/>
<path d="M69.8156 178.161C70.8183 178.161 71.6312 177.348 71.6312 176.345C71.6312 175.342 70.8183 174.53 69.8156 174.53C68.8129 174.53 68 175.342 68 176.345C68 177.348 68.8129 178.161 69.8156 178.161Z" stroke="white" stroke-width="2" stroke-linecap="round" stroke-linejoin="round"/>
<path d="M118.816 180.661C119.818 180.661 120.631 179.848 120.631 178.845C120.631 177.842 119.818 177.029 118.816 177.029C117.813 177.029 117 177.842 117 178.845C117 179.848 117.813 180.661 118.816 180.661Z" stroke="white" stroke-width="2" stroke-linecap="round" stroke-linejoin="round"/>
<path d="M123.816 33.4969C124.818 33.4969 125.631 32.684 125.631 31.6813C125.631 30.6786 124.818 29.8657 123.816 29.8657C122.813 29.8657 122 30.6786 122 31.6813C122 32.684 122.813 33.4969 123.816 33.4969Z" stroke="white" stroke-width="2" stroke-linecap="round" stroke-linejoin="round"/>
<path d="M83.8156 28.4461C84.8183 28.4461 85.6312 27.6332 85.6312 26.6305C85.6312 25.6278 84.8183 24.8149 83.8156 24.8149C82.8129 24.8149 82 25.6278 82 26.6305C82 27.6332 82.8129 28.4461 83.8156 28.4461Z" stroke="white" stroke-width="2" stroke-linecap="round" stroke-linejoin="round"/>
<path d="M10.629 42.4302L1 44.8258" stroke="white" stroke-width="2" stroke-linecap="round" stroke-linejoin="round"/>
<path d="M179 162.634L189.373 159.889" stroke="white" stroke-width="2" stroke-linecap="round" stroke-linejoin="round"/>
<defs>
<linearGradient id="paint0_linear_58_4808" x1="82.1008" y1="113.65" x2="181.92" y2="87.8234" gradientUnits="userSpaceOnUse">
<stop stop-color="#FEC45D"/>
<stop offset="1" stop-color="#F8B8F0"/>
</linearGradient>
</defs>
</svg>
