<svg width="131" height="165" viewBox="0 0 131 165" fill="none" xmlns="http://www.w3.org/2000/svg">
<path d="M95.1418 137.747C95.1179 137.793 95.0441 137.901 94.8275 138.067C94.4743 138.339 93.891 138.644 93.0435 138.96C91.3598 139.586 88.8662 140.169 85.7157 140.665C79.4304 141.655 70.7112 142.271 61.0555 142.271C51.3997 142.271 42.6805 141.655 36.3952 140.665C33.2447 140.169 30.7511 139.586 29.0674 138.96C28.2199 138.644 27.6366 138.339 27.2834 138.067C27.0668 137.901 26.993 137.793 26.9691 137.747C26.993 137.701 27.0668 137.593 27.2834 137.426C27.6366 137.154 28.2199 136.849 29.0674 136.534C30.7511 135.907 33.2447 135.324 36.3952 134.828C42.6805 133.839 51.3997 133.222 61.0555 133.222C70.7112 133.222 79.4304 133.839 85.7157 134.828C88.8662 135.324 91.3598 135.907 93.0435 136.534C93.891 136.849 94.4743 137.154 94.8275 137.426C95.0441 137.593 95.118 137.701 95.1418 137.747Z" fill="url(#paint0_linear_58_5372)" stroke="white" stroke-width="2"/>
<path d="M84.6348 160.739C84.6364 160.719 84.6364 160.699 84.6348 160.678C84.6348 160.541 84.5368 160.406 84.3513 160.274L83.0473 158.08C81.7966 155.978 80.9931 153.553 80.7044 151.009C80.4156 148.466 80.6499 145.878 81.3877 143.463L81.5838 142.282C74.7525 142.643 67.5165 143.333 59.9128 143.184C52.9588 143.04 46.3236 142.838 40.0331 142.282C40.7562 143.424 41.4033 144.629 41.9685 145.888C42.9079 147.965 43.789 150.407 43.553 151.863C43.1791 154.186 40.8698 158.45 39.9443 160.089C39.5428 160.28 39.3313 160.478 39.3313 160.682C39.3313 162.09 49.4742 163.233 61.9846 163.233C74.2789 163.233 84.2854 162.13 84.6287 160.754H84.6379L84.6348 160.739Z" fill="#232323" stroke="white" stroke-width="2" stroke-linecap="round" stroke-linejoin="round"/>
<path d="M61.0549 140.853C71.9572 140.853 80.7952 139.462 80.7952 137.746C80.7952 136.03 71.9572 134.64 61.0549 134.64C50.1527 134.64 41.3147 136.03 41.3147 137.746C41.3147 139.462 50.1527 140.853 61.0549 140.853Z" fill="#232323" stroke="white" stroke-width="2" stroke-linecap="round" stroke-linejoin="round"/>
<path d="M42.5483 147.228C49.8633 148.353 57.2386 148.846 64.6148 148.701C69.8991 148.598 75.1753 148.168 80.4214 147.414" stroke="white" stroke-width="2" stroke-linecap="round" stroke-linejoin="round"/>
<path d="M43.6445 153.123C55.9495 155.885 68.5873 155.885 80.8923 153.123" stroke="white" stroke-width="2" stroke-linecap="round" stroke-linejoin="round"/>
<path d="M43.4878 151.092C43.4878 151.092 48.8082 152.381 52.8783 152.749L43.4878 151.092Z" fill="url(#paint1_linear_58_5372)"/>
<path d="M43.4878 151.092C43.4878 151.092 48.8082 152.381 52.8783 152.749" stroke="white" stroke-width="2" stroke-linecap="round" stroke-linejoin="round"/>
<path d="M62.6057 131.908C62.0921 130.808 61.4088 129.83 60.5906 129.024C59.1808 127.545 57.4998 124.601 56.2999 118.173C56.9249 115.857 57.129 113.412 56.8991 110.997C56.764 109.65 56.4807 108.33 56.0563 107.069L55.9843 107.089C52.1533 108.104 49.5237 112.644 50.1872 117.113C50.4242 118.721 50.6623 120.329 50.9013 121.936C52.1272 123.68 53.3572 125.423 54.5913 127.165L58.6889 133.315L58.856 133.744C59.683 135.843 61.0196 137.607 62.6972 138.813C64.3748 140.02 66.3184 140.616 68.2832 140.525L69.0218 140.496L68.1729 139.894C66.6405 138.812 65.1219 137.724 63.6171 136.629C63.6052 134.983 63.2584 133.364 62.6057 131.908Z" fill="#232323" stroke="white" stroke-width="2" stroke-miterlimit="10"/>
<path d="M96.7635 45.5455C94.9353 41.3446 90.7764 38.7284 87.1447 39.9563C86.2835 38.467 85.4161 37.6124 84.7128 37.0895C81.1162 34.4373 76.0609 36.3972 72.1625 42.0279L72.8843 40.4052C71.5204 39.5037 69.5329 38.4959 67.4473 38.7627C63.9734 39.208 63.2578 42.8014 59.0882 45.7024C56.074 47.8172 54.9293 46.9897 52.6154 48.3221C50.0103 49.8222 47.0497 53.4173 45.6277 62.7297C43.7674 65.0432 42.3677 67.8146 41.5301 70.8431C40.6106 74.2507 40.7868 77.1769 41.1347 83.033C41.6435 91.5611 41.9821 97.2549 45.5403 101.162C47.1171 102.893 49.0771 103.751 52.9969 105.467C56.0529 106.805 59.2093 107.801 62.4242 108.441C66.7747 108.051 71.0169 106.654 74.9067 104.328C78.7965 102.003 82.2572 98.7958 85.0897 94.8912C85.8513 93.3701 86.1871 91.6059 86.0496 89.848C85.9121 88.0901 85.3083 86.4275 84.3235 85.0956C83.3421 83.7887 82.051 82.8569 80.6161 82.42C79.1811 81.983 77.6679 82.0609 76.2708 82.6435C74.6266 81.5618 72.2866 80.4493 69.4716 80.48C66.0314 80.507 63.4723 82.2217 58.9732 85.321C56.6944 86.89 54.5074 88.6368 52.4269 90.5496L56.7681 95.8377L63.9535 90.4973C65.1517 90.7213 66.3646 90.8179 67.5776 90.7858C70.5949 90.7083 72.5946 89.8519 72.8352 90.454C73.0421 90.9679 71.594 91.6098 70.9075 93.5299C70.1873 95.5493 71.0469 96.9087 70.7956 98.279C70.4891 99.9431 68.5139 101.793 61.5768 102.898L54.0681 100.406C52.2947 99.5318 50.7361 98.1475 49.5353 96.3804C48.4581 94.7871 47.7087 92.9223 47.3455 90.9318C46.3849 83.7935 47.0126 76.4841 49.1675 69.7162L51.5166 58.6928L54.2749 55.7449L63.8585 48.6232C63.9704 48.6538 68.3285 50.7128 71.4178 50.1196C72.7586 49.8618 74.6189 48.9603 76.3766 45.7925L83.4026 47.9723L88.9483 46.1585L92.1372 52.7033C90.4807 52.3553 89.0157 53.1504 88.3522 54.7785C87.6212 56.5815 88.1775 58.6207 88.2894 59.0101C87.5753 57.831 86.5271 56.1254 85.2154 54.0826C83.7841 51.8523 83.4945 51.4881 83.0241 51.1365C81.1285 49.7158 78.2016 49.9231 76.139 51.4971C73.3225 53.6607 72.4276 58.1339 73.321 61.4405C75.0066 67.6428 82.5153 68.0521 83.1084 68.0737C86.9286 68.2179 89.6976 66.1211 91.4277 64.7869C93.1578 63.4527 95.6985 61.5866 96.3788 58.0563C96.554 57.1137 96.6205 56.1477 96.5765 55.1842C98.0599 52.4852 98.1534 48.7259 96.7635 45.5455Z" fill="#232323" stroke="white" stroke-width="2" stroke-miterlimit="10"/>
<path d="M11.4566 63.0412L16.4752 32.3563C16.4752 32.3563 7.30689 34.9544 6.05493 43.0912" fill="#232323"/>
<path d="M11.4566 63.0412L16.4752 32.3563C16.4752 32.3563 7.30689 34.9544 6.05493 43.0912" stroke="white" stroke-width="2" stroke-linecap="round" stroke-linejoin="round"/>
<path d="M30.8325 102.862L36.1821 71.3096C31.2693 68.2445 27.2605 65.8538 24.6049 64.2996C15.6052 59.0295 12.4362 57.5871 9.66872 53.2816C7.31497 49.618 6.43385 45.7235 6.05688 43.084L1 72.8601C1.02807 76.0815 1.64475 79.2581 2.80822 82.1743C5.21254 88.0935 9.30861 90.9945 14.8635 94.815C19.8848 98.2603 25.2483 100.963 30.8325 102.862Z" fill="#232323" stroke="white" stroke-width="2" stroke-linecap="round" stroke-linejoin="round"/>
<path d="M25.9185 97.8183C27.2591 97.8183 28.3458 96.5396 28.3458 94.9624C28.3458 93.3851 27.2591 92.1064 25.9185 92.1064C24.578 92.1064 23.4912 93.3851 23.4912 94.9624C23.4912 96.5396 24.578 97.8183 25.9185 97.8183Z" fill="#232323" stroke="white" stroke-width="2" stroke-miterlimit="10"/>
<path d="M30.0948 76.2681C31.4353 76.2681 32.5221 74.9895 32.5221 73.4122C32.5221 71.8349 31.4353 70.5563 30.0948 70.5563C28.7542 70.5563 27.6675 71.8349 27.6675 73.4122C27.6675 74.9895 28.7542 76.2681 30.0948 76.2681Z" fill="#232323" stroke="white" stroke-width="2" stroke-miterlimit="10"/>
<path d="M5.07942 49.1276C5.91763 51.5976 6.92595 55.3352 9.29502 57.7999C16.7715 65.5725 22.662 69.1641 25.9659 70.1377C25.8121 71.798 26.06 73.4756 26.6811 74.9774C27.3022 76.4792 28.2712 77.744 29.4766 78.6261L27.4768 90.4176C27.25 90.2878 25.405 89.2727 23.4436 90.3905C22.8808 90.7223 22.3802 91.1832 21.9712 91.7462C21.5623 92.3091 21.2532 92.9627 21.0622 93.6684C16.1929 92.3757 11.7372 89.4783 8.21622 85.3151C3.61905 79.8539 1.8568 73.823 1.28369 71.1221" stroke="white" stroke-width="2" stroke-miterlimit="10"/>
<path d="M13.2213 35.423L10.106 53.7827" stroke="white" stroke-width="2" stroke-miterlimit="10"/>
<path d="M26.5786 26.1827L48.0995 22.959C48.3876 21.953 48.8289 20.516 49.451 18.8302C50.8302 15.107 52.1465 11.5227 54.7332 8.4216C55.9238 6.99544 58.0906 4.81564 61.5967 3.29032L87.7807 1.00775C88.5852 0.973496 93.4398 0.868923 97.0777 5.3349C98.8357 7.5229 99.9619 10.308 100.296 13.2933L77.5888 16.5476C77.0284 18.3271 76.3853 20.069 75.6625 21.7654C73.7118 26.3378 72.0982 30.1223 68.8511 32.7348C67.6252 33.7174 65.2729 35.2589 61.586 35.6286L37.7359 38.7657C36.9483 38.8 33.3089 38.8613 30.1935 35.6159C26.6843 31.9595 26.5863 26.9725 26.5786 26.1827Z" fill="#232323" stroke="white" stroke-width="2" stroke-linecap="round" stroke-linejoin="round"/>
<path d="M77.5886 16.5482C78.0315 15.4862 78.6889 13.941 79.5164 12.0948C82.0877 6.37035 82.9642 5.22545 83.3734 4.72423C84.2423 3.65867 85.7287 2.1658 88.133 1.03894" fill="#232323"/>
<path d="M77.5886 16.5482C78.0315 15.4862 78.6889 13.941 79.5164 12.0948C82.0877 6.37035 82.9642 5.22545 83.3734 4.72423C84.2423 3.65867 85.7287 2.1658 88.133 1.03894" stroke="white" stroke-width="2" stroke-miterlimit="10"/>
<path d="M48.1018 22.9584L51.1666 22.5978C51.1451 25.5569 51.9467 28.4431 53.4493 30.8162C54.9519 33.1893 57.073 34.919 59.489 35.7415" stroke="white" stroke-width="2" stroke-miterlimit="10"/>
<path d="M79.9626 11.5645L91.3176 10.1221C91.1329 9.77227 91.0148 9.37952 90.9714 8.97085C90.928 8.56218 90.9604 8.1473 91.0663 7.75477C91.4525 6.40614 92.5742 6.0149 92.6692 5.98425C90.9396 4.08454 88.8139 2.75656 86.5075 2.13489" fill="#232323"/>
<path d="M79.9626 11.5645L91.3176 10.1221C91.1329 9.77227 91.0148 9.37952 90.9714 8.97085C90.928 8.56218 90.9604 8.1473 91.0663 7.75477C91.4525 6.40614 92.5742 6.0149 92.6692 5.98424C90.9396 4.08454 88.8139 2.75656 86.5075 2.13489" stroke="white" stroke-width="2" stroke-miterlimit="10"/>
<path d="M53.6194 36.5157L48.8567 31.5665C48.0814 31.5858 47.312 31.4048 46.6026 31.0364C45.6434 30.527 44.8329 29.6968 44.2718 28.6493L35.1771 30.0394C35.2733 30.6836 35.2088 31.3469 34.9912 31.9488C34.7736 32.5507 34.4123 33.0655 33.9512 33.4308L39.5398 38.1185" stroke="white" stroke-width="2" stroke-miterlimit="10"/>
<path d="M64.5286 3.32263C62.4484 4.75802 60.6073 6.6262 59.0948 8.83613C57.5976 11.0466 57.0414 12.7414 54.7137 18.5361C53.4157 21.7707 52.3293 24.3778 51.6274 26.0474" stroke="white" stroke-width="2" stroke-miterlimit="10"/>
<path d="M81.8158 1.82507C80.1016 2.97418 78.6096 4.53074 77.4347 6.39562C75.9345 8.81341 75.0381 10.9031 74.5814 12.7764C74.2198 14.2548 72.056 23.1182 68.0473 29.0212C66.7969 30.8638 64.7297 33.3483 61.3354 35.5696" stroke="white" stroke-width="2" stroke-miterlimit="10"/>
<path d="M32.3957 32.2603C33.3131 32.2603 34.0568 31.3853 34.0568 30.3059C34.0568 29.2265 33.3131 28.3514 32.3957 28.3514C31.4783 28.3514 30.7346 29.2265 30.7346 30.3059C30.7346 31.3853 31.4783 32.2603 32.3957 32.2603Z" fill="#232323" stroke="white" stroke-width="2" stroke-miterlimit="10"/>
<path d="M47.7048 30.3366C48.6222 30.3366 49.3659 29.4616 49.3659 28.3822C49.3659 27.3028 48.6222 26.4277 47.7048 26.4277C46.7874 26.4277 46.0437 27.3028 46.0437 28.3822C46.0437 29.4616 46.7874 30.3366 47.7048 30.3366Z" fill="#232323" stroke="white" stroke-width="2" stroke-miterlimit="10"/>
<path d="M93.6225 10.7712C94.5399 10.7712 95.2836 9.89613 95.2836 8.81673C95.2836 7.73733 94.5399 6.8623 93.6225 6.8623C92.7051 6.8623 91.9614 7.73733 91.9614 8.81673C91.9614 9.89613 92.7051 10.7712 93.6225 10.7712Z" fill="#232323" stroke="white" stroke-width="2" stroke-miterlimit="10"/>
<path d="M68.2142 119.826C70.8592 118.747 73.1911 116.811 74.941 114.24C76.6908 111.669 77.7874 108.569 78.1042 105.296C78.5168 102.152 78.5329 98.953 78.1517 95.8033C77.6292 91.6023 76.6806 90.0986 76.7204 85.8112C76.7542 81.9997 77.5357 79.681 77.7196 79.1492C78.4334 77.1105 79.4995 75.2686 80.8502 73.7402L53.8434 80.1264C51.6874 82.216 50.7296 84.4265 50.2868 85.7282C49.2846 88.6851 49.4577 91.3607 49.6386 94.159C49.8424 97.3033 50.3036 98.057 50.6438 101.293C50.9219 103.945 50.9481 106.624 50.722 109.282L49.6095 113.97" fill="#232323"/>
<path d="M68.2142 119.826C70.8592 118.747 73.1911 116.811 74.941 114.24C76.6908 111.669 77.7874 108.569 78.1042 105.296C78.5168 102.152 78.5329 98.953 78.1517 95.8033C77.6292 91.6023 76.6806 90.0986 76.7204 85.8112C76.7542 81.9997 77.5357 79.681 77.7196 79.1492C78.4334 77.1105 79.4995 75.2686 80.8502 73.7402L53.8434 80.1264C51.6874 82.216 50.7296 84.4265 50.2868 85.7282C49.2846 88.6851 49.4577 91.3607 49.6386 94.159C49.8424 97.3033 50.3036 98.057 50.6438 101.293C50.9219 103.945 50.9481 106.624 50.722 109.282L49.6095 113.97" stroke="white" stroke-width="2" stroke-linecap="round" stroke-linejoin="round"/>
<path d="M34.0142 117.928L61.2217 111.134C61.728 113.126 62.6246 114.95 63.8393 116.459C65.054 117.969 66.553 119.122 68.2155 119.826L41.1827 126.355C39.744 126.019 38.395 125.281 37.249 124.204C34.8539 121.934 34.1904 118.901 34.0142 117.928Z" fill="#232323" stroke="white" stroke-width="2" stroke-linecap="round" stroke-linejoin="round"/>
<path d="M66.4597 120.181C65.2337 119.83 64.0864 119.173 63.0961 118.253C62.1057 117.333 61.2956 116.173 60.7209 114.851L36.9214 120.756C37.4714 122.029 38.2493 123.146 39.2017 124.031C40.1541 124.916 41.2582 125.547 42.438 125.882" stroke="white" stroke-width="2" stroke-miterlimit="10"/>
<path d="M53.7148 113.143C54.9407 108.917 55.1031 105.029 54.9545 102.765C54.6189 97.666 52.9103 94.5793 53.4221 88.7629C53.5461 87.3647 53.7806 85.983 54.1224 84.6359C55.0473 84.4383 55.9423 84.0804 56.778 83.574C58.1723 82.7171 59.3671 81.4716 60.2581 79.9464L70.6048 77.3176C70.5549 77.7183 70.5759 78.1268 70.6667 78.5174C70.7574 78.9081 70.9158 79.2724 71.1319 79.5876C71.9594 80.7415 73.2236 80.572 73.3125 80.5594C73.069 82.5113 72.9522 84.4823 72.9631 86.4551C72.9953 92.2373 74.1078 93.7698 74.4219 98.6C74.5982 101.339 74.9675 107.02 72.3471 112.368C70.6967 115.735 68.2878 117.957 66.7845 119.094" stroke="white" stroke-width="2" stroke-miterlimit="10"/>
<path d="M58.5316 80.9201C58.5454 80.5126 58.1209 80.1304 57.7792 79.9771C56.9962 79.6165 56.1641 80.2458 55.5741 80.6857C55.1144 81.0265 53.9253 82.0253 54.0969 82.4887C54.2884 83.0007 56.0522 82.5103 57.0283 82.1029C57.6689 81.8324 58.5102 81.4808 58.5316 80.9201Z" fill="#232323" stroke="white" stroke-width="2" stroke-miterlimit="10"/>
<path d="M76.8676 76.4878C76.8813 76.0803 76.4569 75.6999 76.1152 75.5449C75.3321 75.1933 74.5 75.8153 73.91 76.2534C73.4503 76.5942 72.2612 77.593 72.4328 78.0564C72.6244 78.5685 74.3897 78.0798 75.3643 77.6724C76.0048 77.4001 76.8476 77.0485 76.8676 76.4878Z" fill="#232323" stroke="white" stroke-width="2" stroke-miterlimit="10"/>
<path d="M43.7194 125.679C42.3601 125.43 41.1817 124.75 41.1587 124.202C41.1388 123.76 41.6813 123.393 41.8345 123.288C42.8122 122.626 43.9921 123.066 44.8165 123.376C45.5827 123.661 46.2984 124.278 46.9466 124.819" stroke="white" stroke-width="2" stroke-miterlimit="10"/>
<path d="M61.3251 121.453C59.9658 121.205 59.0924 120.525 59.0694 119.977C59.0495 119.535 59.5919 119.167 59.7452 119.063C60.7244 118.401 61.9028 118.843 62.7272 119.151C63.4934 119.438 64.2075 120.044 64.8572 120.593" stroke="white" stroke-width="2" stroke-miterlimit="10"/>
<path d="M85.7114 42.4435L109.004 30.8522C107.928 35.4548 107.971 40.3202 109.128 44.8956C111.062 52.4536 115.438 56.6365 116.969 57.9725C119.165 59.5249 125.892 64.7337 128.739 74.8989C129.809 78.7558 130.204 82.8275 129.901 86.8689L106.667 98.334C107.51 94.7439 107.658 90.9772 107.102 87.3106C105.553 77.3149 99.1336 71.805 97.5598 70.5285C93.4957 67.6871 90.2156 63.5251 88.1137 58.5429C86.0118 53.5606 85.1776 47.9702 85.7114 42.4435Z" fill="#232323" stroke="white" stroke-width="2" stroke-linecap="round" stroke-linejoin="round"/>
<path d="M92.7921 43.6194L100.802 40.2947C101.039 41.1186 101.473 41.8443 102.052 42.3843C103.278 43.5112 104.683 43.3165 104.964 43.2714C106.485 49.5902 109.745 55.1371 114.232 59.0438C116.662 60.8937 120.643 64.5123 123.564 70.6478C124.704 73.0434 125.579 75.6002 126.169 78.2564C125.171 78.9609 124.342 79.9519 123.758 81.1367C123.175 82.3215 122.856 83.6611 122.833 85.0301L114.538 89.0255C114.416 88.0311 113.992 87.122 113.346 86.4653C112.12 85.2465 110.641 85.535 110.434 85.5782C108.365 78.6698 104.405 72.7648 99.176 68.7889C94.3188 64.2352 90.7845 58.0179 89.0623 50.9971C91.0392 49.1648 92.3705 46.537 92.7998 43.6194H92.7921Z" stroke="white" stroke-width="2" stroke-linecap="round" stroke-linejoin="round"/>
<path d="M90.9237 46.9707C90.4639 48.0525 89.3484 48.981 88.7185 48.6078C88.0887 48.2346 88.0627 46.5777 88.5653 45.4815C89.025 44.452 90.1176 43.5415 90.7413 43.9111C91.365 44.2807 91.3849 45.898 90.9237 46.9707Z" fill="#232323" stroke="white" stroke-width="2" stroke-miterlimit="10"/>
<path d="M105.46 39.7771C105 40.8589 103.883 41.7892 103.255 41.4142C102.626 41.0392 102.599 39.3841 103.101 38.2879C103.561 37.2584 104.652 36.3479 105.277 36.7175C105.903 37.0871 105.921 38.7043 105.46 39.7771Z" fill="#232323" stroke="white" stroke-width="2" stroke-miterlimit="10"/>
<path d="M112.664 90.6918C112.204 91.7736 111.089 92.7039 110.459 92.3289C109.829 91.9539 109.803 90.2987 110.306 89.2025C110.766 88.173 111.858 87.2625 112.482 87.6321C113.105 88.0018 113.125 89.6244 112.664 90.6918Z" fill="#232323" stroke="white" stroke-width="2" stroke-miterlimit="10"/>
<path d="M127.141 83.6387C126.681 84.7205 125.566 85.649 124.936 85.2758C124.306 84.9026 124.28 83.2456 124.775 82.1494C125.235 81.1199 126.327 80.2076 126.951 80.579C127.575 80.9504 127.602 82.5659 127.141 83.6387Z" fill="#232323" stroke="white" stroke-width="2" stroke-miterlimit="10"/>
<defs>
<linearGradient id="paint0_linear_58_5372" x1="25.9622" y1="137.746" x2="95.8199" y2="136.534" gradientUnits="userSpaceOnUse">
<stop stop-color="#FEC45D"/>
<stop offset="1" stop-color="#F8B8F0"/>
</linearGradient>
<linearGradient id="paint1_linear_58_5372" x1="43.4878" y1="151.919" x2="52.8783" y2="151.919" gradientUnits="userSpaceOnUse">
<stop stop-color="white"/>
<stop offset="1"/>
</linearGradient>
</defs>
</svg>
