<svg width="286" height="326" viewBox="0 0 286 326" fill="none" xmlns="http://www.w3.org/2000/svg">
<path d="M219.234 171.142C219.325 178.159 218.706 203.019 199.571 224.306C176.528 249.934 145.078 249.879 140.581 249.795C104.918 249.125 84.02 223.971 80.4988 219.572C75.9216 213.852 63.5957 196.814 63.0204 171.871C62.8492 164.49 63.3226 139.623 82.3195 118.343C104.739 93.2178 135.359 92.8318 140.581 92.8537C166.023 92.9593 183.487 105.569 188.647 109.604C191.8 112.065 218.746 133.888 219.234 171.142Z" fill="url(#paint0_linear_58_5469)"/>
<path d="M237.326 169.914C237.439 178.507 236.678 208.949 213.25 235.014C185.033 266.398 146.522 266.329 141.013 266.227C97.342 265.408 71.7507 234.606 67.4576 229.217C61.839 222.214 46.7529 201.35 46.0246 170.795C45.8171 161.757 46.3888 131.308 69.6606 105.251C97.1126 74.4961 134.608 74.0118 141.002 74.0373C172.157 74.1684 193.543 89.6113 199.86 94.549C203.731 97.575 236.729 124.291 237.326 169.914Z" stroke="white" stroke-width="2" stroke-linecap="round" stroke-linejoin="round"/>
<path d="M83.3696 178.055L86.6468 170.408L88.4675 178.419L93.9295 180.604L88.8316 182.789L86.2827 190.071L85.1903 182.789L79 180.24L83.3696 178.055Z" stroke="#232323" stroke-width="2" stroke-linecap="round" stroke-linejoin="round"/>
<path d="M186.073 161.946L188.382 156.567L189.664 162.204L193.505 163.741L189.919 165.277L188.123 170.404L187.355 165.277L183 163.486L186.073 161.946Z" stroke="#232323" stroke-width="2" stroke-linecap="round" stroke-linejoin="round"/>
<path d="M112.185 119.431C113.391 119.431 114.37 118.453 114.37 117.246C114.37 116.04 113.391 115.062 112.185 115.062C110.978 115.062 110 116.04 110 117.246C110 118.453 110.978 119.431 112.185 119.431Z" stroke="#232323" stroke-width="2" stroke-linecap="round" stroke-linejoin="round"/>
<path d="M143.549 221.022C144.957 221.022 146.098 219.881 146.098 218.473C146.098 217.066 144.957 215.925 143.549 215.925C142.141 215.925 141 217.066 141 218.473C141 219.881 142.141 221.022 143.549 221.022Z" stroke="#232323" stroke-width="2" stroke-linecap="round" stroke-linejoin="round"/>
<path d="M200.092 171.136C200.696 171.136 201.185 170.647 201.185 170.044C201.185 169.44 200.696 168.951 200.092 168.951C199.489 168.951 199 169.44 199 170.044C199 170.647 199.489 171.136 200.092 171.136Z" stroke="#232323" stroke-width="2" stroke-linecap="round" stroke-linejoin="round"/>
<path d="M77.9363 266.509L91.2126 253.798C92.6431 249.792 94.6025 245.996 97.0387 242.509C96.0677 239.715 95.0967 236.924 94.1257 234.134C124.772 241.417 156.698 241.417 187.344 234.134C186.494 237.166 185.645 240.201 184.795 243.238C185.407 244.254 186.019 245.342 186.616 246.515C187.753 248.747 188.727 251.06 189.529 253.433L203.876 265.814C204.292 266.172 204.603 266.637 204.776 267.158C204.949 267.679 204.978 268.238 204.858 268.774C204.738 269.31 204.475 269.804 204.097 270.202C203.719 270.6 203.24 270.888 202.71 271.036C162.364 282.321 119.723 282.528 79.269 271.636C78.7465 271.5 78.2697 271.227 77.888 270.845C77.5063 270.464 77.2334 269.987 77.0976 269.464C76.9617 268.942 76.9678 268.392 77.1153 267.873C77.2627 267.353 77.5461 266.883 77.9363 266.509Z" fill="#232323" stroke="white" stroke-width="2" stroke-linecap="round" stroke-linejoin="round"/>
<path d="M97 242.507C125.673 250.507 155.955 250.758 184.756 243.235" stroke="white" stroke-width="2" stroke-linecap="round" stroke-linejoin="round"/>
<path d="M92 254.163C103.055 257.244 123.847 260.667 142.25 260.718C159.751 260.761 178.806 256.25 189.588 253.435" stroke="white" stroke-width="2" stroke-linecap="round" stroke-linejoin="round"/>
<path d="M40.8688 217.333C41.4388 216.745 42.2192 216.406 43.0386 216.393C43.8579 216.379 44.6492 216.691 45.2384 217.261L151.016 319.506C151.603 320.077 151.94 320.857 151.954 321.676C151.967 322.494 151.656 323.285 151.089 323.875C150.518 324.463 149.738 324.801 148.919 324.815C148.1 324.828 147.309 324.517 146.719 323.948L40.9453 221.71C40.6529 221.428 40.4189 221.091 40.2568 220.718C40.0947 220.345 40.0076 219.944 40.0005 219.538C39.9934 219.131 40.0664 218.727 40.2154 218.349C40.3644 217.971 40.5864 217.626 40.8688 217.333Z" fill="#232323" stroke="white" stroke-width="2" stroke-linecap="round" stroke-linejoin="round"/>
<path d="M83.4642 261.66C83.2894 261.515 83.0791 261.336 82.8333 261.12C81.9188 260.319 80.5912 259.095 78.957 257.554C75.6919 254.475 71.2362 250.164 66.4863 245.527C56.9878 236.252 46.3285 225.685 41.6994 221.081L41.6994 221.081C41.2575 220.642 41.0063 220.046 41.0001 219.423C40.9939 218.8 41.2329 218.2 41.6656 217.752C42.1031 217.301 42.7019 217.042 43.3304 217.032C43.9591 217.021 44.5661 217.261 45.0179 217.699L45.0183 217.699L86.8591 258.151L83.4642 261.66Z" fill="white" stroke="white" stroke-width="2"/>
<path d="M213.12 171.5C211.925 190.147 204.486 207.849 192 221.75" stroke="#232323" stroke-width="2" stroke-linecap="round" stroke-linejoin="round"/>
<path d="M96.6578 117.247C96.6578 117.247 88.6468 121.252 81 134.725" stroke="#232323" stroke-width="2" stroke-linecap="round" stroke-linejoin="round"/>
<path d="M93.8261 127.806C93.8261 127.806 88.7283 131.811 88 135.088" stroke="#232323" stroke-width="2" stroke-linecap="round" stroke-linejoin="round"/>
<path d="M154.587 166.08C157.796 165.705 160.756 164.165 162.904 161.752C165.052 159.339 166.239 156.221 166.24 152.99V150.539C166.24 148.809 165.9 147.096 165.238 145.497C164.576 143.899 163.606 142.446 162.383 141.222C161.16 139.999 159.708 139.028 158.11 138.365C156.512 137.703 154.799 137.362 153.069 137.361H145.619V128.837H138.434V137.212H134.396V128.837H126.767V137.576L116.448 137.66V148.682H126.767V185.569H116V197.294H126.767V205.119H135.295V197.472H138.434V205.119H146.511V197.043H154.587C157.8 197.042 160.881 195.765 163.153 193.493C165.424 191.221 166.701 188.141 166.702 184.928V184.928V178.195C166.701 174.982 165.424 171.901 163.153 169.63C160.881 167.358 157.8 166.081 154.587 166.08V166.08ZM135.059 148.806C135.059 148.591 142.971 148.646 148.776 148.718C150.369 148.766 151.88 149.435 152.986 150.582C154.092 151.729 154.706 153.263 154.696 154.857C154.686 156.45 154.053 157.977 152.933 159.11C151.812 160.243 150.293 160.893 148.699 160.921H135.059V148.806ZM150.494 185.583H135.059V173.483C135.059 173.268 144.767 173.327 150.571 173.396C152.164 173.443 153.675 174.112 154.781 175.259C155.888 176.406 156.501 177.941 156.491 179.534C156.481 181.128 155.848 182.654 154.728 183.787C153.607 184.92 152.088 185.57 150.494 185.598V185.583Z" stroke="#232323" stroke-width="2" stroke-miterlimit="10"/>
<path d="M159.591 166.08C162.8 165.705 165.76 164.165 167.908 161.752C170.056 159.339 171.243 156.221 171.243 152.99V150.539C171.243 147.044 169.855 143.692 167.383 141.221C164.912 138.749 161.56 137.361 158.065 137.361H150.6V128.837H143.438V137.212H139.4V128.837H131.753V137.576L121.433 137.66V148.682H131.753V185.569H121V197.294H131.771V205.119H140.295V197.472H143.438V205.119H151.514V197.043H159.591C162.804 197.042 165.885 195.765 168.156 193.493C170.428 191.221 171.705 188.141 171.706 184.928V178.195C171.705 174.982 170.428 171.901 168.156 169.63C165.885 167.358 162.804 166.081 159.591 166.08ZM140.073 148.806C140.073 148.591 147.982 148.646 153.79 148.718C155.383 148.766 156.894 149.435 158.001 150.582C159.107 151.729 159.721 153.263 159.711 154.857C159.701 156.45 159.068 157.977 157.947 159.11C156.827 160.243 155.307 160.893 153.714 160.921H140.073V148.806ZM155.509 185.583H140.073V173.483C140.073 173.268 149.778 173.327 155.585 173.396C157.178 173.443 158.689 174.112 159.796 175.259C160.902 176.406 161.516 177.941 161.506 179.534C161.496 181.128 160.863 182.654 159.742 183.787C158.622 184.92 157.102 185.57 155.509 185.598V185.583Z" fill="url(#paint1_linear_58_5469)" stroke="#232323" stroke-width="2" stroke-miterlimit="10"/>
<path d="M176 284.211C178.316 285.205 181.99 286.836 186.414 289.017C211.175 301.238 211.671 307.286 220.388 307.446C226.269 307.552 226.13 304.799 255.319 289.658C258.735 287.889 261.571 286.454 263.494 285.493C261.721 284.615 259.044 283.282 255.8 281.647C224.936 266.066 224.98 264.296 219.907 264.34C212.829 264.398 213.244 267.836 186.895 279.565C182.3 281.611 178.487 283.195 176 284.211Z" stroke="white" stroke-width="2" stroke-linecap="round" stroke-linejoin="round"/>
<path d="M220.05 292.544C223.943 292.544 227.099 289.388 227.099 285.494C227.099 281.601 223.943 278.445 220.05 278.445C216.156 278.445 213 281.601 213 285.494C213 289.388 216.156 292.544 220.05 292.544Z" stroke="white" stroke-width="2" stroke-linecap="round" stroke-linejoin="round"/>
<path d="M219.744 300.273C227.887 300.273 234.488 293.672 234.488 285.529C234.488 277.386 227.887 270.785 219.744 270.785C211.601 270.785 205 277.386 205 285.529C205 293.672 211.601 300.273 219.744 300.273Z" stroke="white" stroke-width="2" stroke-linecap="round" stroke-linejoin="round"/>
<path d="M181.481 282.45C181.878 283.07 182.048 283.808 181.96 284.539C181.873 285.27 181.533 285.948 181 286.456" stroke="white" stroke-width="2" stroke-linecap="round" stroke-linejoin="round"/>
<path d="M259.587 283.733C259.045 284.763 258.871 285.948 259.096 287.09C259.169 287.425 259.28 287.75 259.427 288.059" stroke="white" stroke-width="2" stroke-linecap="round" stroke-linejoin="round"/>
<path d="M220 310.58V316.901" stroke="white" stroke-width="2" stroke-linecap="round" stroke-linejoin="round"/>
<path d="M225 309.467L228.223 313.927" stroke="white" stroke-width="2" stroke-linecap="round" stroke-linejoin="round"/>
<path d="M216.223 309.831L213 314.292" stroke="white" stroke-width="2" stroke-linecap="round" stroke-linejoin="round"/>
<path d="M142 31.6062V57.325" stroke="white" stroke-width="2" stroke-linecap="round" stroke-linejoin="round"/>
<path d="M88 14.9751L106.01 64.4646" stroke="white" stroke-width="2" stroke-linecap="round" stroke-linejoin="round"/>
<path d="M41 40.7715L74.8499 81.1139" stroke="white" stroke-width="2" stroke-linecap="round" stroke-linejoin="round"/>
<path d="M4 78.6504L49.6078 104.981" stroke="white" stroke-width="2" stroke-linecap="round" stroke-linejoin="round"/>
<path d="M1 139.888L31.62 145.652" stroke="white" stroke-width="2" stroke-linecap="round" stroke-linejoin="round"/>
<path d="M3 187.86L30.5831 181.517" stroke="white" stroke-width="2" stroke-linecap="round" stroke-linejoin="round"/>
<path d="M21 236.201L44.5231 223.595" stroke="white" stroke-width="2" stroke-linecap="round" stroke-linejoin="round"/>
<path d="M123.383 58.2823C122.254 52.8057 121.126 47.3303 120 41.8562" stroke="white" stroke-width="2" stroke-linecap="round" stroke-linejoin="round"/>
<path d="M89.7975 70.8753C86.8674 66.1173 83.9349 61.3581 81 56.5977" stroke="white" stroke-width="2" stroke-linecap="round" stroke-linejoin="round"/>
<path d="M60.1489 92.4655L47 82.0549" stroke="white" stroke-width="2" stroke-linecap="round" stroke-linejoin="round"/>
<path d="M37.4862 129.587C32.1807 127.829 30.3054 126.401 25 124.639" stroke="white" stroke-width="2" stroke-linecap="round" stroke-linejoin="round"/>
<path d="M30.2417 164.608C24.6523 164.768 26.6004 164.655 21 164.816" stroke="white" stroke-width="2" stroke-linecap="round" stroke-linejoin="round"/>
<path d="M34.5886 203.826L19 210.016" stroke="white" stroke-width="2" stroke-linecap="round" stroke-linejoin="round"/>
<path d="M58.5371 245.544L46 256.687" stroke="white" stroke-width="2" stroke-linecap="round" stroke-linejoin="round"/>
<path d="M197.01 14.9751L179 64.4646" stroke="white" stroke-width="2" stroke-linecap="round" stroke-linejoin="round"/>
<path d="M244.85 40.7715L211 81.1139" stroke="white" stroke-width="2" stroke-linecap="round" stroke-linejoin="round"/>
<path d="M281.608 78.6787L258.889 91.6892L236 105.009" stroke="white" stroke-width="2" stroke-linecap="round" stroke-linejoin="round"/>
<path d="M282.06 140.257L254 145.649" stroke="white" stroke-width="2" stroke-linecap="round" stroke-linejoin="round"/>
<path d="M284.116 188.231L255 181.517" stroke="white" stroke-width="2" stroke-linecap="round" stroke-linejoin="round"/>
<path d="M269.031 239.547L241 223.595" stroke="white" stroke-width="2" stroke-linecap="round" stroke-linejoin="round"/>
<path d="M162 58.2823C163.129 52.8057 164.256 47.3303 165.383 41.8562" stroke="white" stroke-width="2" stroke-linecap="round" stroke-linejoin="round"/>
<path d="M195 70.8753C197.93 66.1173 200.863 61.3581 203.797 56.5977" stroke="white" stroke-width="2" stroke-linecap="round" stroke-linejoin="round"/>
<path d="M225 92.4655L238.149 82.0549" stroke="white" stroke-width="2" stroke-linecap="round" stroke-linejoin="round"/>
<path d="M248 129.587C253.305 127.829 256.339 126.401 261.644 124.639" stroke="white" stroke-width="2" stroke-linecap="round" stroke-linejoin="round"/>
<path d="M255 164.608C260.589 164.768 259.814 164.655 265.403 164.816" stroke="white" stroke-width="2" stroke-linecap="round" stroke-linejoin="round"/>
<path d="M249 207.832C254.196 209.893 254.75 210.716 259.946 212.777" stroke="white" stroke-width="2" stroke-linecap="round" stroke-linejoin="round"/>
<path d="M227 245.544L239.534 256.687" stroke="white" stroke-width="2" stroke-linecap="round" stroke-linejoin="round"/>
<path d="M111 14.7648C112.606 15.4566 115.151 16.5854 118.217 18.0966C135.379 26.5627 135.714 30.7502 141.755 30.8631C145.829 30.9396 145.731 29.0424 165.955 18.5408C168.322 17.3137 170.285 16.3196 171.617 15.6532C170.39 15.0451 168.537 14.1239 166.29 12.9878C144.912 2.20577 144.937 0.971361 141.42 1.00049C136.518 1.04055 136.806 3.42198 118.549 11.5604C115.366 12.9623 112.726 14.062 111 14.7648Z" stroke="white" stroke-width="2" stroke-linecap="round" stroke-linejoin="round"/>
<path d="M141.887 20.1796C144.586 20.1796 146.773 17.9918 146.773 15.2929C146.773 12.5941 144.586 10.4062 141.887 10.4062C139.188 10.4062 137 12.5941 137 15.2929C137 17.9918 139.188 20.1796 141.887 20.1796Z" stroke="white" stroke-width="2" stroke-linecap="round" stroke-linejoin="round"/>
<path d="M151.573 18.0672C153.209 12.6518 150.145 6.93553 144.73 5.2995C139.315 3.66347 133.598 6.72724 131.962 12.1426C130.326 17.558 133.39 23.2743 138.805 24.9103C144.221 26.5463 149.937 23.4826 151.573 18.0672Z" stroke="white" stroke-width="2" stroke-linecap="round" stroke-linejoin="round"/>
<path d="M115.335 13.5474C115.612 13.9761 115.73 14.4884 115.669 14.9953C115.608 15.5022 115.371 15.9716 115 16.3221" fill="#E9E9E9"/>
<path d="M115.335 13.5474C115.612 13.9761 115.73 14.4884 115.669 14.9953C115.608 15.5022 115.371 15.9716 115 16.3221" stroke="white" stroke-width="2" stroke-linecap="round" stroke-linejoin="round"/>
<path d="M168.407 14.4312C168.032 15.1455 167.912 15.966 168.065 16.758C168.119 16.9888 168.197 17.2134 168.298 17.428" fill="#E9E9E9"/>
<path d="M168.407 14.4312C168.032 15.1455 167.912 15.966 168.065 16.758C168.119 16.9888 168.197 17.2134 168.298 17.428" stroke="white" stroke-width="2" stroke-linecap="round" stroke-linejoin="round"/>
<defs>
<linearGradient id="paint0_linear_58_5469" x1="63.0034" y1="171.318" x2="218.551" y2="170.895" gradientUnits="userSpaceOnUse">
<stop stop-color="#FEC45D"/>
<stop offset="1" stop-color="#F8B8F0"/>
</linearGradient>
<linearGradient id="paint1_linear_58_5469" x1="121.001" y1="166.973" x2="171.482" y2="166.881" gradientUnits="userSpaceOnUse">
<stop stop-color="#FEC45D"/>
<stop offset="1" stop-color="#F8B8F0"/>
</linearGradient>
</defs>
</svg>
