<svg width="390" height="864" viewBox="0 0 390 864" fill="none" xmlns="http://www.w3.org/2000/svg">
<path d="M-79 526.86L45.65 739.26L159.41 528.69L-79 526.86Z" stroke="white" stroke-width="2" stroke-linecap="round" stroke-linejoin="round"/>
<path d="M-79 526.87L11.77 604.93L45.65 739.26" stroke="white" stroke-width="2" stroke-linecap="round" stroke-linejoin="round"/>
<path d="M158.64 528.69L11 604.93" stroke="white" stroke-width="2" stroke-linecap="round" stroke-linejoin="round"/>
<path d="M-96 210.36L20 407.98L125.82 212.05L-96 210.36Z" stroke="white" stroke-width="2" stroke-linecap="round" stroke-linejoin="round"/>
<path d="M-92.0958 215.037L-12.4422 283.542L17.2971 401.433L-92.0958 215.037Z" fill="white" stroke="white" stroke-width="2"/>
<path d="M125.37 212.05L-12 282.99" stroke="white" stroke-width="2" stroke-linecap="round" stroke-linejoin="round"/>
<path d="M247.24 1L158.24 152.66L77 2.3L247.24 1Z" stroke="white" stroke-width="2" stroke-linecap="round" stroke-linejoin="round"/>
<path d="M183.092 57.2917L243.106 5.67703L160.683 146.113L183.092 57.2917Z" fill="white" stroke="white" stroke-width="2"/>
<path d="M77 2.2998L182.43 56.7398" stroke="white" stroke-width="2" stroke-linecap="round" stroke-linejoin="round"/>
<path d="M152.6 500.79L83.27 382.66L20 499.78L152.6 500.79Z" stroke="white" stroke-width="2" stroke-linecap="round" stroke-linejoin="round"/>
<path d="M131.42 165.42L84.67 85.77L42 164.77L131.42 165.42Z" stroke="white" stroke-width="2" stroke-linecap="round" stroke-linejoin="round"/>
<path d="M-75 430.78L-33.94 500.78L3.53 431.38L-75 430.78Z" stroke="white" stroke-width="2" stroke-linecap="round" stroke-linejoin="round"/>
<path d="M399.09 349.71L248.46 606.36L111 351.86L399.09 349.71Z" stroke="white" stroke-width="2" stroke-linecap="round" stroke-linejoin="round"/>
<path d="M399.63 349.71L289.95 444.03L249 606.36" stroke="white" stroke-width="2" stroke-linecap="round" stroke-linejoin="round"/>
<path d="M111 351.9L289.41 444.04" stroke="white" stroke-width="2" stroke-linecap="round" stroke-linejoin="round"/>
<path d="M122.66 716.31C126.891 716.31 130.32 712.881 130.32 708.65C130.32 704.42 126.891 700.99 122.66 700.99C118.43 700.99 115 704.42 115 708.65C115 712.881 118.43 716.31 122.66 716.31Z" stroke="white" stroke-width="2" stroke-linecap="round" stroke-linejoin="round"/>
<path d="M0.279999 177.84C4.30063 177.84 7.56 174.58 7.56 170.56C7.56 166.539 4.30063 163.28 0.279999 163.28C-3.74063 163.28 -7 166.539 -7 170.56C-7 174.58 -3.74063 177.84 0.279999 177.84Z" stroke="white" stroke-width="2" stroke-linecap="round" stroke-linejoin="round"/>
<path d="M111 321.35L261.62 64.7002L399.09 319.15L111 321.35Z" stroke="white" stroke-width="2" stroke-linecap="round" stroke-linejoin="round"/>
<path d="M223.57 193.76V209.31H236.82V254.86H223V272.71H236.83V281.35H247.77V271.56H251.77V281.35H262.13V270.95H272.5C276.625 270.947 280.58 269.307 283.496 266.389C286.412 263.471 288.05 259.515 288.05 255.39V246.75C288.05 242.626 286.412 238.671 283.496 235.754C280.579 232.838 276.624 231.2 272.5 231.2C276.627 230.731 280.437 228.759 283.204 225.66C285.97 222.562 287.5 218.554 287.5 214.4V211.25C287.5 209.029 287.063 206.83 286.213 204.779C285.363 202.727 284.117 200.863 282.547 199.293C280.977 197.722 279.113 196.477 277.061 195.627C275.01 194.777 272.811 194.34 270.59 194.34H261V183.34H251.8V193.13H246.61V183.34H236.82V193.13C236.82 193.13 223.57 193.06 223.57 193.76Z" fill="#232323" stroke="white" stroke-width="2" stroke-linecap="round" stroke-linejoin="round"/>
<path d="M248 209.02V224.58H265.52C267.598 224.577 269.589 223.75 271.057 222.28C272.525 220.81 273.35 218.817 273.35 216.74V216.74C273.353 214.68 272.542 212.701 271.095 211.235C269.648 209.769 267.68 208.933 265.62 208.91C258.15 208.86 248 208.75 248 209.02Z" stroke="white" stroke-width="2" stroke-linecap="round" stroke-linejoin="round"/>
<path d="M248 240.7V256.26H267.81C269.886 256.258 271.876 255.432 273.344 253.964C274.812 252.496 275.637 250.506 275.64 248.43V248.43C275.64 246.37 274.829 244.392 273.383 242.925C271.936 241.458 269.97 240.619 267.91 240.59C260.46 240.5 248 240.43 248 240.7Z" stroke="white" stroke-width="2" stroke-linecap="round" stroke-linejoin="round"/>
<path d="M111 321.35L223.22 272.67" stroke="white" stroke-width="2" stroke-linecap="round" stroke-linejoin="round"/>
<path d="M286 263.33L398.6 319.15" stroke="white" stroke-width="2" stroke-linecap="round" stroke-linejoin="round"/>
<path d="M261 183.39L261.38 64.7002" stroke="white" stroke-width="2" stroke-linecap="round" stroke-linejoin="round"/>
<path d="M677.7 544.7H211.14C201.674 544.7 194 552.374 194 561.84V845.59C194 855.056 201.674 862.73 211.14 862.73H677.7C687.166 862.73 694.84 855.056 694.84 845.59V561.84C694.84 552.374 687.166 544.7 677.7 544.7Z" stroke="white" stroke-width="2" stroke-linecap="round" stroke-linejoin="round"/>
<path d="M659.7 526.68H193.14C183.674 526.68 176 534.354 176 543.82V827.57C176 837.036 183.674 844.71 193.14 844.71H659.7C669.166 844.71 676.84 837.036 676.84 827.57V543.82C676.84 534.354 669.166 526.68 659.7 526.68Z" fill="url(#paint0_linear_58_5650)"/>
<path d="M310.44 629.35H221.47C220.106 629.35 219 630.456 219 631.82V697C219 698.364 220.106 699.47 221.47 699.47H310.44C311.804 699.47 312.91 698.364 312.91 697V631.82C312.91 630.456 311.804 629.35 310.44 629.35Z" stroke="#232323" stroke-width="2" stroke-linecap="round" stroke-linejoin="round"/>
<path d="M220 643.13H312.66" stroke="#232323" stroke-width="2" stroke-linecap="round" stroke-linejoin="round"/>
<path d="M220 683.19H312.66" stroke="#232323" stroke-width="2" stroke-linecap="round" stroke-linejoin="round"/>
<path d="M242 630.61V698.22" stroke="#232323" stroke-width="2" stroke-linecap="round" stroke-linejoin="round"/>
<path d="M290 630.61V698.22" stroke="#232323" stroke-width="2" stroke-linecap="round" stroke-linejoin="round"/>
<path d="M233.92 722.01H229.59C228.712 722.01 228 722.722 228 723.6V734.19C228 735.068 228.712 735.78 229.59 735.78H233.92C234.798 735.78 235.51 735.068 235.51 734.19V723.6C235.51 722.722 234.798 722.01 233.92 722.01Z" stroke="#232323" stroke-width="2" stroke-linecap="round" stroke-linejoin="round"/>
<path d="M253.92 722.01H249.59C248.712 722.01 248 722.722 248 723.6V734.19C248 735.068 248.712 735.78 249.59 735.78H253.92C254.798 735.78 255.51 735.068 255.51 734.19V723.6C255.51 722.722 254.798 722.01 253.92 722.01Z" stroke="#232323" stroke-width="2" stroke-linecap="round" stroke-linejoin="round"/>
<path d="M273.92 722.01H269.59C268.712 722.01 268 722.722 268 723.6V734.19C268 735.068 268.712 735.78 269.59 735.78H273.92C274.798 735.78 275.51 735.068 275.51 734.19V723.6C275.51 722.722 274.798 722.01 273.92 722.01Z" stroke="#232323" stroke-width="2" stroke-linecap="round" stroke-linejoin="round"/>
<path d="M293.92 722.01H289.59C288.712 722.01 288 722.722 288 723.6V734.19C288 735.068 288.712 735.78 289.59 735.78H293.92C294.798 735.78 295.51 735.068 295.51 734.19V723.6C295.51 722.722 294.798 722.01 293.92 722.01Z" stroke="#232323" stroke-width="2" stroke-linecap="round" stroke-linejoin="round"/>
<path d="M330.92 722.01H326.59C325.712 722.01 325 722.722 325 723.6V734.19C325 735.068 325.712 735.78 326.59 735.78H330.92C331.798 735.78 332.51 735.068 332.51 734.19V723.6C332.51 722.722 331.798 722.01 330.92 722.01Z" stroke="#232323" stroke-width="2" stroke-linecap="round" stroke-linejoin="round"/>
<path d="M350.92 722.01H346.59C345.712 722.01 345 722.722 345 723.6V734.19C345 735.068 345.712 735.78 346.59 735.78H350.92C351.798 735.78 352.51 735.068 352.51 734.19V723.6C352.51 722.722 351.798 722.01 350.92 722.01Z" stroke="#232323" stroke-width="2" stroke-linecap="round" stroke-linejoin="round"/>
<path d="M371.92 722.01H367.59C366.712 722.01 366 722.722 366 723.6V734.19C366 735.068 366.712 735.78 367.59 735.78H371.92C372.798 735.78 373.51 735.068 373.51 734.19V723.6C373.51 722.722 372.798 722.01 371.92 722.01Z" stroke="#232323" stroke-width="2" stroke-linecap="round" stroke-linejoin="round"/>
<path d="M391.92 722.01H387.59C386.712 722.01 386 722.722 386 723.6V734.19C386 735.068 386.712 735.78 387.59 735.78H391.92C392.798 735.78 393.51 735.068 393.51 734.19V723.6C393.51 722.722 392.798 722.01 391.92 722.01Z" stroke="#232323" stroke-width="2" stroke-linecap="round" stroke-linejoin="round"/>
<defs>
<linearGradient id="paint0_linear_58_5650" x1="176.011" y1="685.673" x2="674.624" y2="683.528" gradientUnits="userSpaceOnUse">
<stop stop-color="#FEC45D"/>
<stop offset="1" stop-color="#F8B8F0"/>
</linearGradient>
</defs>
</svg>
