<svg width="148" height="151" viewBox="0 0 148 151" fill="none" xmlns="http://www.w3.org/2000/svg">
<path d="M88.7547 78.9506C90.8284 78.9506 92.5095 77.2695 92.5095 75.1958C92.5095 73.1222 90.8284 71.4411 88.7547 71.4411C86.6811 71.4411 85 73.1222 85 75.1958C85 77.2695 86.6811 78.9506 88.7547 78.9506Z" stroke="white" stroke-width="2" stroke-linecap="round" stroke-linejoin="round"/>
<mask id="path-2-inside-1_0_70" fill="white">
<path d="M19.2186 67.3616C18.8969 64.7276 18.5747 62.0929 18.252 59.4577L22.7871 65.789L28.988 65.4707L24.2481 69.6267L24.893 77.2767L19.9093 71.3195L15 70.6661"/>
</mask>
<path d="M19.2186 67.3616C18.8969 64.7276 18.5747 62.0929 18.252 59.4577L22.7871 65.789L28.988 65.4707L24.2481 69.6267L24.893 77.2767L19.9093 71.3195L15 70.6661" fill="white"/>
<path d="M18.252 59.4577L19.8779 58.293L16.2668 59.7009L18.252 59.4577ZM22.7871 65.789L21.1612 66.9536L21.7978 67.8424L22.8896 67.7863L22.7871 65.789ZM28.988 65.4707L30.3066 66.9745L34.6364 63.1782L28.8855 63.4733L28.988 65.4707ZM24.2481 69.6267L22.9295 68.1229L22.1703 68.7885L22.2551 69.7947L24.2481 69.6267ZM24.893 77.2767L23.3591 78.56L27.4173 83.4109L26.886 77.1087L24.893 77.2767ZM19.9093 71.3195L21.4432 70.0362L20.9442 69.4396L20.1732 69.337L19.9093 71.3195ZM21.2038 67.1192C20.8822 64.4849 20.5599 61.85 20.2371 59.2146L16.2668 59.7009C16.5895 62.3358 16.9117 64.9702 17.2333 67.6041L21.2038 67.1192ZM16.6261 60.6224L21.1612 66.9536L24.413 64.6243L19.8779 58.293L16.6261 60.6224ZM22.8896 67.7863L29.0906 67.4681L28.8855 63.4733L22.6846 63.7916L22.8896 67.7863ZM27.6695 63.9669L22.9295 68.1229L25.5666 71.1305L30.3066 66.9745L27.6695 63.9669ZM22.2551 69.7947L22.9001 77.4447L26.886 77.1087L26.241 69.4587L22.2551 69.7947ZM26.427 75.9934L21.4432 70.0362L18.3753 72.6029L23.3591 78.56L26.427 75.9934ZM20.1732 69.337L15.2639 68.6836L14.7361 72.6486L19.6454 73.302L20.1732 69.337Z" fill="white" mask="url(#path-2-inside-1_0_70)"/>
<path d="M115.234 116.491L119.265 111.612C118.872 113.643 118.477 115.67 118.08 117.691L121.65 121.099L116.656 120.63L112.593 125.182L113.309 119.049L111 115.854L115.234 116.491Z" stroke="white" stroke-width="2" stroke-linecap="round" stroke-linejoin="round"/>
<path d="M56.1306 26.6023H52V30.7329H56.1306V26.6023Z" stroke="white" stroke-width="2" stroke-linecap="round" stroke-linejoin="round"/>
<path d="M83.9171 33.1856C80.0421 33.1856 76.89 36.5951 76.89 40.7866V52.4926C76.89 55.9376 74.3507 58.7393 71.2173 58.7393H61.2091V27.5857C61.2069 26.015 60.5819 24.5092 59.4712 23.3986C58.3606 22.2879 56.8548 21.6629 55.2841 21.6607H36.1549C35.8741 21.6255 35.5914 21.6079 35.3084 21.6082H13V22.9625H31.6214V23.015H36.0618C39.0666 23.4247 41.401 26.25 41.401 29.6662V52.0356C41.401 56.4793 44.7427 60.0936 48.8496 60.0936H59.8531V100.996H61.2074V60.0885H71.2173C75.0922 60.0885 78.2443 56.6791 78.2443 52.4876V40.7899C78.2443 37.345 80.7836 34.5433 83.9171 34.5433H98.4197V33.189L83.9171 33.1856ZM48.8479 58.7342C45.4893 58.7342 42.7536 55.7277 42.7536 52.0305V29.6662C42.7536 26.9069 41.4653 24.4674 39.5067 23.015H55.279C56.4913 23.015 57.6538 23.4965 58.511 24.3537C59.3682 25.2109 59.8497 26.3735 59.8497 27.5857V58.7342H48.8479Z" fill="white" stroke="white" stroke-width="2" stroke-linecap="round" stroke-linejoin="round"/>
<path d="M34.9934 22.3402C34.9919 21.08 34.656 19.8428 34.02 18.7548C34.0028 18.7226 33.9965 18.6858 34.0019 18.6498C34.0073 18.6138 34.0242 18.5804 34.05 18.5548C34.0759 18.5291 34.1093 18.5124 34.1454 18.5073C34.1815 18.5022 34.2183 18.5088 34.2503 18.5262L39.686 21.6631C39.8035 21.7304 39.9011 21.8275 39.969 21.9446C40.0369 22.0617 40.0727 22.1947 40.0727 22.3301C40.0727 22.4655 40.0369 22.5984 39.969 22.7156C39.9011 22.8327 39.8035 22.9298 39.686 22.9971L34.2503 26.1356C34.2183 26.153 34.1815 26.1597 34.1454 26.1545C34.1093 26.1494 34.0759 26.1328 34.05 26.1071C34.0242 26.0814 34.0073 26.0481 34.0019 26.0121C33.9965 25.976 34.0028 25.9392 34.02 25.9071C34.6528 24.8245 34.9886 23.5941 34.9934 22.3402Z" fill="white" stroke="white" stroke-width="2" stroke-linecap="round" stroke-linejoin="round"/>
<path d="M85.9934 33.9079C85.9922 32.6481 85.6562 31.4114 85.02 30.3241C85.0028 30.292 84.9965 30.2552 85.0019 30.2191C85.0073 30.1831 85.0242 30.1498 85.05 30.1241C85.0759 30.0984 85.1093 30.0818 85.1454 30.0766C85.1815 30.0715 85.2183 30.0781 85.2503 30.0956L90.686 33.2341C90.8035 33.3016 90.901 33.3989 90.9689 33.5162C91.0368 33.6334 91.0725 33.7665 91.0725 33.902C91.0725 34.0374 91.0368 34.1705 90.9689 34.2878C90.901 34.405 90.8035 34.5023 90.686 34.5698L85.2503 37.7083C85.2183 37.7258 85.1815 37.7324 85.1454 37.7273C85.1093 37.7221 85.0759 37.7055 85.05 37.6798C85.0242 37.6541 85.0073 37.6208 85.0019 37.5848C84.9965 37.5487 85.0028 37.5119 85.02 37.4798C85.6542 36.396 85.9901 35.1636 85.9934 33.9079Z" fill="white" stroke="white" stroke-width="2" stroke-linecap="round" stroke-linejoin="round"/>
<path d="M60.8109 72.6259C62.0741 72.6265 63.3146 72.2905 64.4048 71.6525C64.437 71.6353 64.4738 71.629 64.5098 71.6344C64.5459 71.6398 64.5792 71.6567 64.6049 71.6825C64.6305 71.7084 64.6472 71.7419 64.6523 71.7779C64.6574 71.814 64.6508 71.8508 64.6334 71.8828L61.4948 77.3185C61.4273 77.436 61.3301 77.5336 61.2128 77.6014C61.0955 77.6693 60.9625 77.705 60.827 77.705C60.6915 77.705 60.5585 77.6693 60.4412 77.6014C60.324 77.5336 60.2267 77.436 60.1592 77.3185L57.0206 71.8828C57.0032 71.8508 56.9966 71.814 57.0017 71.7779C57.0068 71.7419 57.0235 71.7084 57.0491 71.6825C57.0748 71.6567 57.1081 71.6398 57.1442 71.6344C57.1802 71.629 57.217 71.6353 57.2492 71.6525C58.3302 72.2845 59.5587 72.6202 60.8109 72.6259Z" fill="white" stroke="white" stroke-width="2" stroke-linecap="round" stroke-linejoin="round"/>
<path d="M18.9392 22.1912C20.431 22.0169 21.8069 21.3008 22.8056 20.1789C23.8042 19.057 24.3561 17.6074 24.3563 16.1054V14.9661C24.3565 14.1618 24.1983 13.3653 23.8907 12.6221C23.5831 11.879 23.1322 11.2037 22.5636 10.6348C21.995 10.0659 21.3199 9.61454 20.5769 9.30654C19.8339 8.99854 19.0375 8.83989 18.2332 8.83967H14.7697V4.87671H11.4297V8.77027H9.55229V4.87671H5.9973V8.93955L1.19976 8.97849V14.1027H5.9973V31.2513H1V36.7023H6.00576V40.3386H9.97042V36.7937H11.4297V40.3386H15.1844V36.5838H18.9392C19.6786 36.584 20.4108 36.4386 21.094 36.1559C21.7772 35.8731 22.398 35.4586 22.921 34.9359C23.444 34.4132 23.8589 33.7926 24.142 33.1096C24.4252 32.4266 24.571 31.6945 24.5713 30.9551V27.8233C24.5715 27.0839 24.4261 26.3517 24.1433 25.6685C23.8606 24.9853 23.446 24.3645 22.9234 23.8415C22.4007 23.3185 21.7801 22.9036 21.0971 22.6204C20.4141 22.3373 19.6819 22.1914 18.9425 22.1912H18.9392ZM9.86039 14.1586C9.86039 14.0587 13.539 14.0858 16.2374 14.118C16.9779 14.1401 17.6804 14.451 18.1948 14.9843C18.7091 15.5176 18.9944 16.2309 18.9898 16.9717C18.9851 17.7126 18.6909 18.4222 18.1699 18.949C17.6489 19.4758 16.9426 19.7779 16.2018 19.7907H9.86039V14.1586ZM17.0364 31.2564H9.86039V25.6328C9.86039 25.5329 14.3735 25.56 17.0719 25.5921C17.8125 25.6143 18.515 25.9252 19.0293 26.4584C19.5437 26.9917 19.829 27.705 19.8243 28.4459C19.8197 29.1867 19.5254 29.8964 19.0045 30.4232C18.4835 30.9499 17.7772 31.252 17.0364 31.2649V31.2564Z" fill="white" stroke="white" stroke-width="2" stroke-linecap="round" stroke-linejoin="round"/>
<path d="M20.9409 22.1912C22.4327 22.0169 23.8086 21.3008 24.8073 20.1789C25.8059 19.057 26.3578 17.6074 26.358 16.1054V14.9661C26.358 13.3413 25.7125 11.783 24.5636 10.6341C23.4147 9.48513 21.8564 8.83967 20.2316 8.83967H16.7612V4.87671H13.4314V8.77027H11.554V4.87671H7.999V8.93955L3.20145 8.97849V14.1027H7.999V31.2513H3V36.7023H8.00746V40.3386H11.9704V36.7937H13.4314V40.3386H17.1861V36.5838H20.9409C21.6803 36.584 22.4125 36.4386 23.0957 36.1559C23.7789 35.8731 24.3997 35.4586 24.9227 34.9359C25.4457 34.4132 25.8606 33.7926 26.1437 33.1096C26.4269 32.4266 26.5728 31.6945 26.573 30.9551V27.8233C26.5732 27.0839 26.4278 26.3517 26.145 25.6685C25.8623 24.9853 25.4477 24.3645 24.9251 23.8415C24.4024 23.3185 23.7818 22.9036 23.0988 22.6204C22.4158 22.3373 21.6836 22.1914 20.9442 22.1912H20.9409ZM11.8672 14.1586C11.8672 14.0587 15.544 14.0858 18.2441 14.118C18.9847 14.1401 19.6872 14.451 20.2015 14.9843C20.7159 15.5176 21.0012 16.2309 20.9966 16.9717C20.9919 17.7126 20.6977 18.4222 20.1767 18.949C19.6557 19.4758 18.9494 19.7779 18.2086 19.7907H11.8672V14.1586ZM19.0432 31.2564H11.8672V25.6328C11.8672 25.5329 16.3786 25.56 19.0787 25.5921C19.8193 25.6143 20.5218 25.9252 21.0361 26.4584C21.5504 26.9917 21.8358 27.705 21.8311 28.4459C21.8265 29.1867 21.5322 29.8964 21.0113 30.4232C20.4903 30.9499 19.7839 31.252 19.0432 31.2649V31.2564Z" fill="white" stroke="white" stroke-width="2" stroke-linecap="round" stroke-linejoin="round"/>
<path d="M63.591 89.6398C63.591 90.3553 63.011 90.9353 62.2955 90.9353C61.58 90.9353 61 90.3553 61 89.6398C61 88.9243 61.58 88.3443 62.2955 88.3443C63.011 88.3443 63.591 88.9243 63.591 89.6398Z" fill="white" stroke="white" stroke-width="2"/>
<path d="M67.9805 87.9963C70.7801 88.557 73.5488 89.2622 76.2755 90.109C81.3778 91.5869 87.858 94.4258 90.6648 100.33C93.1584 105.565 91.5755 110.699 90.6648 115.976C89.3968 123.325 88.889 134.089 92.7504 148.309L78.566 146.432C75.011 147.678 72.2584 147.685 70.4301 147.475C67.383 147.136 65.6326 145.763 63.7552 146.64C62.1267 147.402 61.4021 149.315 61.0466 150.813C58.6588 150.378 56.3861 149.456 54.37 148.104C50.0363 145.149 48.4636 141.044 47.4869 141.43C46.8588 141.678 46.9333 143.937 47.6951 145.811C48.8513 148.653 51.2975 149.906 51.2416 149.982C51.1366 150.127 41.3875 146.745 39.7691 139.76C38.4876 134.24 43.5662 131.999 42.6893 125.371C41.9208 119.571 38.0272 119.964 36.4258 113.69C34.8023 107.308 38.0373 98.6241 42.4743 93.8739C43.5391 92.7346 46.7065 89.4183 51.8629 87.8237C53.4652 87.3432 55.1166 87.0445 56.7857 86.9332C60.7673 86.5744 63.7806 87.1618 67.9805 87.9963Z" fill="url(#paint0_linear_0_70)"/>
<path d="M61.2436 95.1216C59.5935 95.8692 58.1057 96.9325 56.8641 98.2517C51.0492 104.481 53.4412 114.044 53.7341 115.148L56.0296 125.369C56.0264 126.988 56.2359 128.6 56.6525 130.164C57.1722 132.107 58.5502 137.252 63.3291 139.969C66.7741 141.927 70.2935 141.662 71.8814 141.43" stroke="white" stroke-width="2" stroke-linecap="round" stroke-linejoin="round"/>
<path d="M62 127.243C63.0345 127.609 64.1646 127.601 65.1936 127.22C66.2226 126.839 67.0855 126.109 67.6321 125.158" stroke="white" stroke-width="2" stroke-linecap="round" stroke-linejoin="round"/>
<path d="M58 112.635L58.8346 114.723" stroke="white" stroke-width="2" stroke-linecap="round" stroke-linejoin="round"/>
<path d="M60 91.769C60 91.769 61.6692 92.3937 62.9202 97.4012C64.1712 102.409 61.8774 109.5 65.842 113.463C68.6793 116.3 70.3399 117.428 71.2846 119.219C71.6929 120.033 71.9678 120.907 72.0988 121.809C73.47 128.865 71.4657 137.788 73.3515 142.043C74.694 145.075 79.1208 148.251 93.1681 148.307" stroke="white" stroke-width="2" stroke-linecap="round" stroke-linejoin="round"/>
<path d="M52.8403 107.21C52.8403 107.21 47.4232 111.592 48.0428 117.85C48.6624 124.109 49.0856 126.822 47 130.783" stroke="white" stroke-width="2" stroke-linecap="round" stroke-linejoin="round"/>
<path d="M51 123.065C51 123.065 53.0856 127.444 53.2955 132.66" stroke="white" stroke-width="2" stroke-linecap="round" stroke-linejoin="round"/>
<path d="M42 108.881C42 108.881 42 104.292 44.9202 102.618C47.8403 100.944 51.805 95.9429 51.805 95.9429" stroke="white" stroke-width="2" stroke-linecap="round" stroke-linejoin="round"/>
<path d="M69 95.73L73.5893 105.951" stroke="white" stroke-width="2" stroke-linecap="round" stroke-linejoin="round"/>
<path d="M70 90.3159L72.2938 92.1933" stroke="white" stroke-width="2" stroke-linecap="round" stroke-linejoin="round"/>
<path d="M55 110.766C55 110.766 58.1284 108.456 59.7975 110.509C61.4667 112.563 60.8471 124.118 60.8471 124.118L64.4021 123.861" stroke="white" stroke-width="2" stroke-linecap="round" stroke-linejoin="round"/>
<path d="M74 87.4957C77.7726 88.0086 81.4115 89.2413 84.7192 91.1268C88.5602 93.3276 90.827 95.8008 91.2891 96.3138C91.2891 96.3138 93.4577 98.721 94.8712 101.482C98.5785 108.726 92.5012 115.648 93.0175 128.47C93.0175 128.47 93.0514 129.304 96.8214 147.142" stroke="white" stroke-width="2" stroke-linecap="round" stroke-linejoin="round"/>
<path d="M97 133.927L100.113 145.857" stroke="white" stroke-width="2" stroke-linecap="round" stroke-linejoin="round"/>
<path d="M122.82 57.8819C134.193 57.7515 137.379 57.3283 139.625 54.8991C143.568 50.6212 141.802 43.0999 141.045 40.4015C141.279 38.5878 141.512 36.7754 141.743 34.964L144.997 34.7456L141.949 31.6985C142.231 30.628 142.457 29.5437 142.627 28.4499C143.146 24.8427 143.07 21.1746 142.401 17.5919L145.879 14.5448C142.544 14.4348 140.599 13.397 139.427 12.4304C137.687 10.9932 136.801 9.01425 133.521 6.89818C133.013 6.57146 132.627 6.35646 132.4 6.22104C129.617 4.66163 126.526 3.73129 123.345 3.49554L127.408 1.99059C125.398 1.36762 120.515 0.158926 114.816 1.89918C105.958 4.60775 102.176 12.2798 101.546 13.612C100.532 15.7446 99.7381 17.9749 99.1761 20.2683C98.416 23.3832 97.0668 29.1728 98.9764 35.995C100.162 40.1477 102.308 43.9634 105.24 47.1339C104.159 50.6539 103.078 54.1723 101.998 57.6889C110.378 57.9411 117.464 57.9479 122.82 57.8819Z" fill="url(#paint1_linear_0_70)"/>
<path d="M111 21.6907L118.34 9.8103C118.34 9.8103 137.048 17.1065 137.392 17.1556C137.392 17.1556 140.439 18.6792 144.127 16.9389" stroke="white" stroke-width="2" stroke-linecap="round" stroke-linejoin="round"/>
<path d="M104 20.2947L107.653 12.0759" stroke="white" stroke-width="2" stroke-linecap="round" stroke-linejoin="round"/>
<path d="M124.05 3.49683L119 4.50915" stroke="white" stroke-width="2" stroke-linecap="round" stroke-linejoin="round"/>
<path d="M126 24.5417L126.284 27.1674" stroke="white" stroke-width="2" stroke-linecap="round" stroke-linejoin="round"/>
<path d="M138 25.1863C138.071 25.7906 138.146 27.0924 138.217 27.6985" stroke="white" stroke-width="2" stroke-linecap="round" stroke-linejoin="round"/>
<path d="M129 38.6071C129.896 39.4604 131.047 39.9957 132.277 40.1307C133.758 40.2636 135.232 39.8149 136.388 38.8797" stroke="white" stroke-width="2" stroke-linecap="round" stroke-linejoin="round"/>
<path d="M105 47.3033L108.047 53.0031V46.4822L112.176 48.6559C110.532 44.5779 109.542 40.2663 109.241 35.8799C109.205 35.372 109.171 34.8642 109.136 34.3648L108.249 35.6361C107.14 35.6209 106.539 35.2383 106.243 34.9928C105.254 34.1701 105.247 32.7599 105.227 29.9413C105.215 27.9522 105.445 27.3106 105.677 26.8569C105.831 26.5573 106.601 25.0574 107.693 25.0507C108.697 25.0507 109.808 26.3017 110.035 28.1943L111.104 16.0955" stroke="white" stroke-width="2" stroke-linecap="round" stroke-linejoin="round"/>
<path d="M120 19.9689C120.465 19.6101 120.978 19.3178 121.524 19.1005C123.32 18.3861 125.373 18.5605 127.826 19.5339C132.708 21.4722 135.219 25.144 142.385 31.4871L146.078 34.7459H133.473" stroke="white" stroke-width="2" stroke-linecap="round" stroke-linejoin="round"/>
<path d="M123 24.3201L128.867 24.5317" stroke="white" stroke-width="2" stroke-linecap="round" stroke-linejoin="round"/>
<path d="M135 24.9724C136.955 25.0435 137.824 25.1163 139.781 25.1891" stroke="white" stroke-width="2" stroke-linecap="round" stroke-linejoin="round"/>
<path d="M119 53.653C119 53.653 122.343 57.7074 127.41 57.9613" stroke="white" stroke-width="2" stroke-linecap="round" stroke-linejoin="round"/>
<path d="M98 39.7868C98.8075 41.3459 99.7504 43.0032 100.852 44.7147C101.631 45.9234 102.415 47.0475 103.187 48.0852L99.2933 57.6803" stroke="white" stroke-width="2" stroke-linecap="round" stroke-linejoin="round"/>
<path d="M101.766 8.94214C94.2442 20.3537 95.0229 29.4257 95.0229 29.4257" stroke="white" stroke-width="2" stroke-linecap="round" stroke-linejoin="round"/>
<defs>
<linearGradient id="paint0_linear_0_70" x1="36.0012" y1="118.815" x2="92.5" y2="118.678" gradientUnits="userSpaceOnUse">
<stop stop-color="#FEC45D"/>
<stop offset="1" stop-color="#F8B8F0"/>
</linearGradient>
<linearGradient id="paint1_linear_0_70" x1="98.001" y1="29.454" x2="145.667" y2="29.3445" gradientUnits="userSpaceOnUse">
<stop stop-color="#FEC45D"/>
<stop offset="1" stop-color="#F8B8F0"/>
</linearGradient>
</defs>
</svg>
