<svg width="148" height="150" viewBox="0 0 148 150" fill="none" xmlns="http://www.w3.org/2000/svg">
<path d="M88.7547 77.9518C90.8284 77.9518 92.5095 76.2708 92.5095 74.1971C92.5095 72.1234 90.8284 70.4423 88.7547 70.4423C86.6811 70.4423 85 72.1234 85 74.1971C85 76.2708 86.6811 77.9518 88.7547 77.9518Z" stroke="white" stroke-width="2" stroke-linecap="round" stroke-linejoin="round"/>
<mask id="path-2-inside-1_0_70" fill="white">
<path d="M19.2186 66.3629C18.8969 63.7288 18.5747 61.0941 18.252 58.4589L22.7871 64.7902L28.988 64.4719L24.2481 68.6279L24.893 76.2779L19.9093 70.3208L15 69.6673"/>
</mask>
<path d="M19.2186 66.3629C18.8969 63.7288 18.5747 61.0941 18.252 58.4589L22.7871 64.7902L28.988 64.4719L24.2481 68.6279L24.893 76.2779L19.9093 70.3208L15 69.6673" fill="white"/>
<path d="M18.252 58.4589L19.8779 57.2943L16.2668 58.7021L18.252 58.4589ZM22.7871 64.7902L21.1612 65.9549L21.7978 66.8436L22.8896 66.7876L22.7871 64.7902ZM28.988 64.4719L30.3066 65.9758L34.6364 62.1794L28.8855 62.4746L28.988 64.4719ZM24.2481 68.6279L22.9295 67.1241L22.1703 67.7898L22.2551 68.7959L24.2481 68.6279ZM24.893 76.2779L23.3591 77.5612L27.4173 82.4121L26.886 76.1099L24.893 76.2779ZM19.9093 70.3208L21.4432 69.0374L20.9442 68.4409L20.1732 68.3382L19.9093 70.3208ZM21.2038 66.1204C20.8822 63.4861 20.5599 60.8512 20.2371 58.2158L16.2668 58.7021C16.5895 61.337 16.9117 63.9714 17.2333 66.6053L21.2038 66.1204ZM16.6261 59.6236L21.1612 65.9549L24.413 63.6255L19.8779 57.2943L16.6261 59.6236ZM22.8896 66.7876L29.0906 66.4693L28.8855 62.4746L22.6846 62.7928L22.8896 66.7876ZM27.6695 62.9681L22.9295 67.1241L25.5666 70.1317L30.3066 65.9758L27.6695 62.9681ZM22.2551 68.7959L22.9001 76.4459L26.886 76.1099L26.241 68.4599L22.2551 68.7959ZM26.427 74.9946L21.4432 69.0374L18.3753 71.6041L23.3591 77.5612L26.427 74.9946ZM20.1732 68.3382L15.2639 67.6848L14.7361 71.6498L19.6454 72.3033L20.1732 68.3382Z" fill="white" mask="url(#path-2-inside-1_0_70)"/>
<path d="M115.234 115.492L119.265 110.613C118.872 112.645 118.477 114.671 118.08 116.692L121.65 120.1L116.656 119.631L112.593 124.183L113.309 118.05L111 114.855L115.234 115.492Z" stroke="white" stroke-width="2" stroke-linecap="round" stroke-linejoin="round"/>
<path d="M56.1306 25.6035H52V29.7341H56.1306V25.6035Z" stroke="white" stroke-width="2" stroke-linecap="round" stroke-linejoin="round"/>
<path d="M83.9171 32.1869C80.0421 32.1869 76.89 35.5963 76.89 39.7878V51.4939C76.89 54.9388 74.3507 57.7405 71.2173 57.7405H61.2091V26.5869C61.2069 25.0162 60.5819 23.5104 59.4712 22.3998C58.3606 21.2891 56.8548 20.6642 55.2841 20.6619H36.1549C35.8741 20.6267 35.5914 20.6092 35.3084 20.6094H13V21.9637H31.6214V22.0162H36.0618C39.0666 22.4259 41.401 25.2512 41.401 28.6674V51.0368C41.401 55.4805 44.7427 59.0948 48.8496 59.0948H59.8531V99.9975H61.2074V59.0897H71.2173C75.0922 59.0897 78.2443 55.6803 78.2443 51.4888V39.7912C78.2443 36.3462 80.7836 33.5445 83.9171 33.5445H98.4197V32.1903L83.9171 32.1869ZM48.8479 57.7354C45.4893 57.7354 42.7536 54.7289 42.7536 51.0317V28.6674C42.7536 25.9081 41.4653 23.4687 39.5067 22.0162H55.279C56.4913 22.0162 57.6538 22.4978 58.511 23.3549C59.3682 24.2121 59.8497 25.3747 59.8497 26.5869V57.7354H48.8479Z" fill="white" stroke="white" stroke-width="2" stroke-linecap="round" stroke-linejoin="round"/>
<path d="M34.9934 21.3415C34.9919 20.0812 34.656 18.844 34.02 17.756C34.0028 17.7239 33.9965 17.687 34.0019 17.651C34.0073 17.615 34.0242 17.5816 34.05 17.556C34.0759 17.5303 34.1093 17.5137 34.1454 17.5085C34.1815 17.5034 34.2183 17.51 34.2503 17.5275L39.686 20.6643C39.8035 20.7316 39.9011 20.8287 39.969 20.9458C40.0369 21.0629 40.0727 21.1959 40.0727 21.3313C40.0727 21.4667 40.0369 21.5997 39.969 21.7168C39.9011 21.8339 39.8035 21.931 39.686 21.9983L34.2503 25.1368C34.2183 25.1543 34.1815 25.1609 34.1454 25.1558C34.1093 25.1506 34.0759 25.134 34.05 25.1083C34.0242 25.0826 34.0073 25.0493 34.0019 25.0133C33.9965 24.9772 34.0028 24.9404 34.02 24.9083C34.6528 23.8258 34.9886 22.5954 34.9934 21.3415V21.3415Z" fill="white" stroke="white" stroke-width="2" stroke-linecap="round" stroke-linejoin="round"/>
<path d="M85.9934 32.9091C85.9922 31.6494 85.6562 30.4126 85.02 29.3253C85.0028 29.2932 84.9965 29.2564 85.0019 29.2203C85.0073 29.1843 85.0242 29.151 85.05 29.1253C85.0759 29.0996 85.1093 29.083 85.1454 29.0779C85.1815 29.0727 85.2183 29.0794 85.2503 29.0968L90.686 32.2353C90.8035 32.3028 90.901 32.4001 90.9689 32.5174C91.0368 32.6346 91.0725 32.7677 91.0725 32.9032C91.0725 33.0386 91.0368 33.1717 90.9689 33.289C90.901 33.4062 90.8035 33.5035 90.686 33.571L85.2503 36.7096C85.2183 36.727 85.1815 36.7336 85.1454 36.7285C85.1093 36.7233 85.0759 36.7067 85.05 36.681C85.0242 36.6554 85.0073 36.622 85.0019 36.586C84.9965 36.55 85.0028 36.5131 85.02 36.481C85.6542 35.3972 85.9901 34.1648 85.9934 32.9091V32.9091Z" fill="white" stroke="white" stroke-width="2" stroke-linecap="round" stroke-linejoin="round"/>
<path d="M60.8109 71.6271C62.0741 71.6277 63.3146 71.2917 64.4048 70.6538C64.437 70.6366 64.4738 70.6302 64.5098 70.6356C64.5459 70.641 64.5792 70.6579 64.6049 70.6838C64.6305 70.7096 64.6472 70.7431 64.6523 70.7791C64.6574 70.8152 64.6508 70.852 64.6334 70.884L61.4948 76.3197C61.4273 76.4372 61.3301 76.5348 61.2128 76.6026C61.0955 76.6705 60.9625 76.7062 60.827 76.7062C60.6915 76.7062 60.5585 76.6705 60.4412 76.6026C60.324 76.5348 60.2267 76.4372 60.1592 76.3197L57.0206 70.884C57.0032 70.852 56.9966 70.8152 57.0017 70.7791C57.0068 70.7431 57.0235 70.7096 57.0491 70.6838C57.0748 70.6579 57.1081 70.641 57.1442 70.6356C57.1802 70.6302 57.217 70.6366 57.2492 70.6538C58.3302 71.2857 59.5587 71.6214 60.8109 71.6271V71.6271Z" fill="white" stroke="white" stroke-width="2" stroke-linecap="round" stroke-linejoin="round"/>
<path d="M18.9392 21.1924C20.431 21.0181 21.8069 20.3021 22.8056 19.1801C23.8042 18.0582 24.3561 16.6086 24.3563 15.1066V13.9673C24.3565 13.163 24.1983 12.3665 23.8907 11.6234C23.5831 10.8802 23.1322 10.2049 22.5636 9.63599C21.995 9.06709 21.3199 8.61576 20.5769 8.30776C19.8339 7.99976 19.0375 7.84112 18.2332 7.84089H14.7697V3.87793H11.4297V7.77149H9.55229V3.87793H5.9973V7.94077L1.19976 7.97971V13.104H5.9973V30.2525H1V35.7035H6.00576V39.3398H9.97042V35.7949H11.4297V39.3398H15.1844V35.585H18.9392C19.6786 35.5852 20.4108 35.4398 21.094 35.1571C21.7772 34.8743 22.398 34.4598 22.921 33.9371C23.444 33.4144 23.8589 32.7939 24.142 32.1108C24.4252 31.4278 24.571 30.6957 24.5713 29.9563V26.8245C24.5715 26.0851 24.4261 25.3529 24.1433 24.6697C23.8606 23.9865 23.446 23.3657 22.9234 22.8427C22.4007 22.3197 21.7801 21.9048 21.0971 21.6216C20.4141 21.3385 19.6819 21.1926 18.9425 21.1924H18.9392ZM9.86039 13.1598C9.86039 13.06 13.539 13.087 16.2374 13.1192C16.9779 13.1413 17.6804 13.4523 18.1948 13.9855C18.7091 14.5188 18.9944 15.2321 18.9898 15.9729C18.9851 16.7138 18.6909 17.4235 18.1699 17.9502C17.6489 18.477 16.9426 18.7791 16.2018 18.7919H9.86039V13.1598ZM17.0364 30.2576H9.86039V24.634C9.86039 24.5341 14.3735 24.5612 17.0719 24.5933C17.8125 24.6155 18.515 24.9264 19.0293 25.4597C19.5437 25.9929 19.829 26.7062 19.8243 27.4471C19.8197 28.1879 19.5255 28.8976 19.0045 29.4244C18.4835 29.9511 17.7772 30.2532 17.0364 30.2661V30.2576Z" fill="white" stroke="white" stroke-width="2" stroke-linecap="round" stroke-linejoin="round"/>
<path d="M20.9409 21.1924C22.4327 21.0181 23.8086 20.3021 24.8073 19.1801C25.8059 18.0582 26.3578 16.6086 26.358 15.1066V13.9673C26.358 12.3425 25.7125 10.7842 24.5636 9.63528C23.4147 8.48635 21.8564 7.84089 20.2316 7.84089H16.7612V3.87793H13.4314V7.77149H11.554V3.87793H7.999V7.94077L3.20145 7.97971V13.104H7.999V30.2525H3V35.7035H8.00746V39.3398H11.9704V35.7949H13.4314V39.3398H17.1861V35.585H20.9409C21.6803 35.5852 22.4125 35.4398 23.0957 35.1571C23.7789 34.8743 24.3997 34.4598 24.9227 33.9371C25.4457 33.4144 25.8606 32.7939 26.1437 32.1108C26.4269 31.4278 26.5728 30.6957 26.573 29.9563V26.8245C26.5732 26.0851 26.4278 25.3529 26.145 24.6697C25.8623 23.9865 25.4477 23.3657 24.9251 22.8427C24.4024 22.3197 23.7818 21.9048 23.0988 21.6216C22.4158 21.3385 21.6836 21.1926 20.9442 21.1924H20.9409ZM11.8672 13.1598C11.8672 13.06 15.544 13.087 18.2441 13.1192C18.9847 13.1413 19.6872 13.4523 20.2015 13.9855C20.7159 14.5188 21.0012 15.2321 20.9966 15.9729C20.9919 16.7138 20.6977 17.4235 20.1767 17.9502C19.6557 18.477 18.9494 18.7791 18.2086 18.7919H11.8672V13.1598ZM19.0432 30.2576H11.8672V24.634C11.8672 24.5341 16.3786 24.5612 19.0787 24.5933C19.8193 24.6155 20.5218 24.9264 21.0361 25.4597C21.5504 25.9929 21.8358 26.7062 21.8311 27.4471C21.8265 28.1879 21.5322 28.8976 21.0113 29.4244C20.4903 29.9511 19.7839 30.2532 19.0432 30.2661V30.2576Z" fill="white" stroke="white" stroke-width="2" stroke-linecap="round" stroke-linejoin="round"/>
<path d="M63.591 88.641C63.591 89.3565 63.011 89.9365 62.2955 89.9365C61.58 89.9365 61 89.3565 61 88.641C61 87.9255 61.58 87.3455 62.2955 87.3455C63.011 87.3455 63.591 87.9255 63.591 88.641Z" fill="white" stroke="white" stroke-width="2"/>
<path d="M67.9805 86.9976C70.7801 87.5583 73.5488 88.2634 76.2755 89.1102C81.3778 90.5881 87.858 93.427 90.6648 99.3317C93.1584 104.566 91.5755 109.7 90.6648 114.977C89.3968 122.326 88.889 133.091 92.7504 147.311L78.566 145.433C75.011 146.679 72.2584 146.686 70.4301 146.476C67.383 146.137 65.6326 144.764 63.7552 145.641C62.1267 146.403 61.4021 148.316 61.0466 149.814C58.6588 149.379 56.3861 148.457 54.37 147.106C50.0363 144.15 48.4636 140.045 47.4869 140.431C46.8588 140.68 46.9333 142.938 47.6951 144.812C48.8513 147.654 51.2975 148.907 51.2416 148.983C51.1366 149.129 41.3875 145.746 39.7691 138.762C38.4876 133.241 43.5662 131 42.6893 124.372C41.9208 118.573 38.0272 118.965 36.4258 112.692C34.8023 106.31 38.0373 97.6253 42.4743 92.8752C43.5391 91.7359 46.7065 88.4196 51.8629 86.8249C53.4652 86.3444 55.1166 86.0457 56.7857 85.9345C60.7673 85.5756 63.7806 86.163 67.9805 86.9976Z" fill="url(#paint0_linear_0_70)"/>
<path d="M61.2436 94.1228C59.5935 94.8704 58.1057 95.9338 56.8641 97.2529C51.0492 103.483 53.4412 113.046 53.7341 114.149L56.0296 124.371C56.0264 125.989 56.2359 127.601 56.6525 129.165C57.1722 131.108 58.5502 136.253 63.3291 138.97C66.7741 140.929 70.2935 140.663 71.8814 140.431" stroke="white" stroke-width="2" stroke-linecap="round" stroke-linejoin="round"/>
<path d="M62 126.245C63.0345 126.611 64.1646 126.602 65.1936 126.221C66.2226 125.84 67.0855 125.11 67.6321 124.159" stroke="white" stroke-width="2" stroke-linecap="round" stroke-linejoin="round"/>
<path d="M58 111.636L58.8346 113.724" stroke="white" stroke-width="2" stroke-linecap="round" stroke-linejoin="round"/>
<path d="M60 90.7703C60 90.7703 61.6692 91.3949 62.9202 96.4024C64.1712 101.41 61.8774 108.501 65.842 112.464C68.6793 115.301 70.3399 116.429 71.2846 118.22C71.6929 119.034 71.9678 119.909 72.0988 120.81C73.47 127.866 71.4657 136.789 73.3515 141.045C74.694 144.077 79.1208 147.252 93.1681 147.308" stroke="white" stroke-width="2" stroke-linecap="round" stroke-linejoin="round"/>
<path d="M52.8403 106.212C52.8403 106.212 47.4232 110.593 48.0428 116.851C48.6624 123.11 49.0856 125.823 47 129.785" stroke="white" stroke-width="2" stroke-linecap="round" stroke-linejoin="round"/>
<path d="M51 122.066C51 122.066 53.0856 126.446 53.2955 131.661" stroke="white" stroke-width="2" stroke-linecap="round" stroke-linejoin="round"/>
<path d="M42 107.883C42 107.883 42 103.293 44.9202 101.619C47.8403 99.9448 51.805 94.9441 51.805 94.9441" stroke="white" stroke-width="2" stroke-linecap="round" stroke-linejoin="round"/>
<path d="M69 94.7312L73.5893 104.953" stroke="white" stroke-width="2" stroke-linecap="round" stroke-linejoin="round"/>
<path d="M70 89.3171L72.2938 91.1945" stroke="white" stroke-width="2" stroke-linecap="round" stroke-linejoin="round"/>
<path d="M55 109.768C55 109.768 58.1284 107.457 59.7975 109.51C61.4667 111.564 60.8471 123.119 60.8471 123.119L64.4021 122.862" stroke="white" stroke-width="2" stroke-linecap="round" stroke-linejoin="round"/>
<path d="M74 86.4969C77.7726 87.0098 81.4115 88.2426 84.7192 90.1281C88.5602 92.3288 90.827 94.802 91.2891 95.315C91.2891 95.315 93.4577 97.7222 94.8712 100.483C98.5785 107.727 92.5012 114.649 93.0175 127.471C93.0175 127.471 93.0514 128.305 96.8214 146.143" stroke="white" stroke-width="2" stroke-linecap="round" stroke-linejoin="round"/>
<path d="M97 132.928L100.113 144.858" stroke="white" stroke-width="2" stroke-linecap="round" stroke-linejoin="round"/>
<path d="M122.82 56.8831C134.193 56.7527 137.379 56.3295 139.625 53.9003C143.568 49.6224 141.802 42.1011 141.045 39.4027C141.279 37.5891 141.512 35.7766 141.743 33.9652L144.997 33.7468L141.949 30.6997C142.231 29.6292 142.457 28.5449 142.627 27.4511C143.146 23.8439 143.07 20.1758 142.401 16.5932L145.879 13.546C142.544 13.436 140.599 12.3983 139.427 11.4316C137.687 9.99441 136.801 8.01547 133.521 5.8994C133.013 5.57268 132.627 5.35769 132.4 5.22226C129.617 3.66285 126.526 2.73251 123.345 2.49676L127.408 0.991814C125.398 0.368843 120.515 -0.839853 114.816 0.900401C105.958 3.60897 102.176 11.281 101.546 12.6133C100.532 14.7458 99.7381 16.9761 99.1761 19.2696C98.416 22.3844 97.0668 28.174 98.9764 34.9962C100.162 39.1489 102.308 42.9646 105.24 46.1352C104.159 49.6552 103.078 53.1735 101.998 56.6901C110.378 56.9423 117.464 56.9491 122.82 56.8831Z" fill="url(#paint1_linear_0_70)"/>
<path d="M111 20.692L118.34 8.81152C118.34 8.81152 137.048 16.1077 137.392 16.1568C137.392 16.1568 140.439 17.6804 144.127 15.9401" stroke="white" stroke-width="2" stroke-linecap="round" stroke-linejoin="round"/>
<path d="M104 19.2959L107.653 11.0771" stroke="white" stroke-width="2" stroke-linecap="round" stroke-linejoin="round"/>
<path d="M124.05 2.49805L119 3.51037" stroke="white" stroke-width="2" stroke-linecap="round" stroke-linejoin="round"/>
<path d="M126 23.543L126.284 26.1686" stroke="white" stroke-width="2" stroke-linecap="round" stroke-linejoin="round"/>
<path d="M138 24.1875C138.071 24.7918 138.146 26.0937 138.217 26.6997" stroke="white" stroke-width="2" stroke-linecap="round" stroke-linejoin="round"/>
<path d="M129 37.6083C129.896 38.4616 131.047 38.9969 132.277 39.1319C133.758 39.2648 135.232 38.8161 136.388 37.8809" stroke="white" stroke-width="2" stroke-linecap="round" stroke-linejoin="round"/>
<path d="M105 46.3045L108.047 52.0043V45.4835L112.176 47.6571C110.532 43.5791 109.542 39.2675 109.241 34.8811C109.205 34.3732 109.171 33.8654 109.136 33.366L108.249 34.6373C107.14 34.6221 106.539 34.2395 106.243 33.994C105.254 33.1713 105.247 31.7612 105.227 28.9426C105.215 26.9534 105.445 26.3119 105.677 25.8582C105.831 25.5585 106.601 24.0587 107.693 24.0519C108.697 24.0519 109.808 25.3029 110.035 27.1955L111.104 15.0967" stroke="white" stroke-width="2" stroke-linecap="round" stroke-linejoin="round"/>
<path d="M120 18.9702C120.465 18.6113 120.978 18.319 121.524 18.1017C123.32 17.3873 125.373 17.5617 127.826 18.5351C132.708 20.4734 135.219 24.1452 142.385 30.4883L146.078 33.7471H133.473" stroke="white" stroke-width="2" stroke-linecap="round" stroke-linejoin="round"/>
<path d="M123 23.3213L128.867 23.5329" stroke="white" stroke-width="2" stroke-linecap="round" stroke-linejoin="round"/>
<path d="M135 23.9736C136.955 24.0447 137.824 24.1175 139.781 24.1903" stroke="white" stroke-width="2" stroke-linecap="round" stroke-linejoin="round"/>
<path d="M119 52.6542C119 52.6542 122.343 56.7086 127.41 56.9626" stroke="white" stroke-width="2" stroke-linecap="round" stroke-linejoin="round"/>
<path d="M98 38.788C98.8075 40.3471 99.7504 42.0044 100.852 43.7159C101.631 44.9246 102.415 46.0487 103.187 47.0864L99.2933 56.6815" stroke="white" stroke-width="2" stroke-linecap="round" stroke-linejoin="round"/>
<path d="M101.766 7.94336C94.2442 19.3549 95.0229 28.4269 95.0229 28.4269" stroke="white" stroke-width="2" stroke-linecap="round" stroke-linejoin="round"/>
<defs>
<linearGradient id="paint0_linear_0_70" x1="36.0012" y1="117.816" x2="92.5" y2="117.679" gradientUnits="userSpaceOnUse">
<stop stop-color="#FEC45D"/>
<stop offset="1" stop-color="#F8B8F0"/>
</linearGradient>
<linearGradient id="paint1_linear_0_70" x1="98.001" y1="28.4552" x2="145.667" y2="28.3457" gradientUnits="userSpaceOnUse">
<stop stop-color="#FEC45D"/>
<stop offset="1" stop-color="#F8B8F0"/>
</linearGradient>
</defs>
</svg>
