<svg width="181" height="190" viewBox="0 0 181 190" fill="none" xmlns="http://www.w3.org/2000/svg">
<path d="M154.839 47.5964H22.7879C20.1436 47.5964 18 49.74 18 52.3843V183.903C18 186.547 20.1436 188.69 22.7879 188.69H154.839C157.484 188.69 159.627 186.547 159.627 183.903V52.3843C159.627 49.74 157.484 47.5964 154.839 47.5964Z" stroke="white" stroke-width="2" stroke-miterlimit="10"/>
<path d="M19 63.8663H160.094" stroke="white" stroke-width="2" stroke-miterlimit="10"/>
<path d="M130.333 59.0131C132.174 59.0131 133.666 57.5209 133.666 55.6801C133.666 53.8394 132.174 52.3472 130.333 52.3472C128.492 52.3472 127 53.8394 127 55.6801C127 57.5209 128.492 59.0131 130.333 59.0131Z" fill="#E9E9E9" stroke="white" stroke-width="2" stroke-linecap="round" stroke-linejoin="round"/>
<path d="M139.333 59.0131C141.174 59.0131 142.666 57.5209 142.666 55.6801C142.666 53.8394 141.174 52.3472 139.333 52.3472C137.492 52.3472 136 53.8394 136 55.6801C136 57.5209 137.492 59.0131 139.333 59.0131Z" fill="#E9E9E9" stroke="white" stroke-width="2" stroke-linecap="round" stroke-linejoin="round"/>
<path d="M149.333 59.0131C151.174 59.0131 152.666 57.5209 152.666 55.6801C152.666 53.8394 151.174 52.3472 149.333 52.3472C147.492 52.3472 146 53.8394 146 55.6801C146 57.5209 147.492 59.0131 149.333 59.0131Z" fill="#E9E9E9" stroke="white" stroke-width="2" stroke-linecap="round" stroke-linejoin="round"/>
<path d="M25 102.274H27.6681" stroke="white" stroke-width="2" stroke-miterlimit="10"/>
<path d="M25 113.476H27.6681" stroke="white" stroke-width="2" stroke-miterlimit="10"/>
<path d="M25 124.677H27.6681" stroke="white" stroke-width="2" stroke-miterlimit="10"/>
<path d="M25 135.881H27.6681" stroke="white" stroke-width="2" stroke-miterlimit="10"/>
<path d="M25 147.083H27.6681" stroke="white" stroke-width="2" stroke-miterlimit="10"/>
<path d="M25 158.283H27.6681" stroke="white" stroke-width="2" stroke-miterlimit="10"/>
<path d="M25 169.488H27.6681" stroke="white" stroke-width="2" stroke-miterlimit="10"/>
<path d="M64.397 23.5922H1.74851C0.782834 23.5922 0 24.375 0 25.3407V85.0555C0 86.0212 0.782834 86.804 1.74851 86.804H64.397C65.3626 86.804 66.1455 86.0212 66.1455 85.0555V25.3407C66.1455 24.375 65.3626 23.5922 64.397 23.5922Z" fill="url(#paint0_linear_0_438)"/>
<path d="M25.2563 31.3246H20V55.534H25.2563V31.3246Z" fill="white" stroke="#232323" stroke-width="2" stroke-miterlimit="10"/>
<path d="M15.2563 38.8129H10V43.8124H15.2563V38.8129Z" fill="white" stroke="#232323" stroke-width="2" stroke-miterlimit="10"/>
<path d="M36.2563 34.9615H31V46.1282H36.2563V34.9615Z" fill="white" stroke="#232323" stroke-width="2" stroke-miterlimit="10"/>
<path d="M46.2563 43.9457H41V63.488H46.2563V43.9457Z" fill="white" stroke="#232323" stroke-width="2" stroke-miterlimit="10"/>
<path d="M57.2563 35.6036H52V43.8129H57.2563V35.6036Z" fill="white" stroke="#232323" stroke-width="2" stroke-miterlimit="10"/>
<path d="M15.2563 38.8129H10V78.8193H15.2563V38.8129Z" stroke="#232323" stroke-width="2" stroke-miterlimit="10"/>
<path d="M25.2563 31.3246H20V78.8194H25.2563V31.3246Z" stroke="#232323" stroke-width="2" stroke-miterlimit="10"/>
<path d="M36.2563 34.9615H31V78.8189H36.2563V34.9615Z" stroke="#232323" stroke-width="2" stroke-miterlimit="10"/>
<path d="M46.2563 43.9457H41V78.8166H46.2563V43.9457Z" stroke="#232323" stroke-width="2" stroke-miterlimit="10"/>
<path d="M57.2563 35.6036H52V78.8177H57.2563V35.6036Z" stroke="#232323" stroke-width="2" stroke-miterlimit="10"/>
<path d="M102 177.734V180.402" stroke="white" stroke-width="2" stroke-miterlimit="10"/>
<path d="M91 177.734V180.402" stroke="white" stroke-width="2" stroke-miterlimit="10"/>
<path d="M79 177.734V180.402" stroke="white" stroke-width="2" stroke-miterlimit="10"/>
<path d="M68 177.734V180.402" stroke="white" stroke-width="2" stroke-miterlimit="10"/>
<path d="M57 177.734V180.402" stroke="white" stroke-width="2" stroke-miterlimit="10"/>
<path d="M46 177.734V180.402" stroke="white" stroke-width="2" stroke-miterlimit="10"/>
<path d="M35 177.734V180.402" stroke="white" stroke-width="2" stroke-miterlimit="10"/>
<path d="M42.4048 169.003C42.1795 169.004 41.9573 168.95 41.7571 168.847C41.557 168.743 41.3848 168.593 41.2551 168.409C41.1254 168.224 41.0422 168.011 41.0123 167.788C40.9825 167.565 41.007 167.337 41.0837 167.125L56.6045 123.952C56.9518 122.959 57.6014 122.1 58.4619 121.494C59.3225 120.889 60.351 120.568 61.4031 120.576H61.483C62.5495 120.583 63.5863 120.928 64.4443 121.561C65.3024 122.195 65.9373 123.084 66.258 124.101L73.2822 145.718L76.2935 139.322C77.4133 136.944 79.4317 135.107 81.905 134.217C84.3783 133.326 87.104 133.454 89.4829 134.573C89.9918 134.814 90.4799 135.097 90.9422 135.419L90.9745 135.443L99.3329 141.632L114.061 132.004C114.146 131.942 114.23 131.879 114.316 131.821C115.671 130.861 117.282 130.33 118.942 130.294C120.602 130.259 122.234 130.721 123.629 131.622C125.076 132.509 126.225 133.809 126.927 135.355C127.63 136.901 127.853 138.622 127.568 140.296L126.102 149.345L145.431 128.498C145.684 128.225 146.035 128.064 146.407 128.05C146.779 128.036 147.142 128.17 147.415 128.423C147.688 128.676 147.849 129.027 147.863 129.399C147.878 129.771 147.743 130.134 147.49 130.407V130.407L125.004 154.666C124.798 154.886 124.528 155.034 124.232 155.089C123.936 155.144 123.63 155.102 123.36 154.97C123.089 154.838 122.868 154.623 122.729 154.356C122.59 154.089 122.541 153.784 122.588 153.487L124.798 139.855C124.989 138.726 124.837 137.566 124.364 136.524C123.89 135.482 123.116 134.605 122.141 134.005C121.211 133.405 120.122 133.096 119.015 133.118C117.907 133.141 116.832 133.493 115.926 134.13C115.857 134.178 115.788 134.23 115.711 134.282L115.633 134.335L100.047 144.524C99.8072 144.681 99.5247 144.761 99.238 144.752C98.9512 144.744 98.6739 144.648 98.4435 144.477L89.3297 137.707C88.4809 137.118 87.514 136.721 86.4961 136.543C85.4781 136.365 84.4337 136.412 83.4356 136.679C82.4374 136.946 81.5094 137.427 80.7163 138.09C79.9231 138.752 79.2838 139.579 78.8429 140.514L74.3248 150.115C74.2053 150.37 74.0118 150.583 73.7695 150.727C73.5272 150.87 73.2473 150.938 72.9663 150.92C72.6852 150.902 72.416 150.8 72.1936 150.628C71.9712 150.455 71.806 150.219 71.7194 149.951L63.592 124.969C63.4433 124.514 63.1562 124.117 62.7708 123.833C62.3854 123.548 61.9209 123.392 61.4421 123.384C60.9634 123.377 60.4943 123.519 60.1003 123.791C59.7063 124.064 59.4071 124.452 59.2445 124.902L43.7238 168.075C43.6263 168.347 43.4474 168.582 43.2113 168.748C42.9752 168.914 42.6935 169.003 42.4048 169.003V169.003Z" fill="#232323" stroke="white" stroke-width="2" stroke-linecap="round" stroke-linejoin="round"/>
<path d="M59.4017 165.916C59.2688 165.916 59.1365 165.897 59.0088 165.86C58.6541 165.756 58.3547 165.517 58.1756 165.193C57.9966 164.87 57.9523 164.489 58.0525 164.133V164.133L77.5581 97.1244C77.791 96.3299 78.2866 95.638 78.964 95.162C79.6414 94.686 80.4603 94.4541 81.2867 94.5043C82.113 94.5544 82.8979 94.8837 83.5127 95.4381C84.1275 95.9925 84.5359 96.7393 84.6709 97.5561L93.1091 148.362L131.706 98.8578C131.816 98.7042 131.957 98.5746 132.118 98.4766C132.28 98.3786 132.46 98.3142 132.647 98.2874C132.834 98.2605 133.025 98.2718 133.208 98.3204C133.39 98.369 133.562 98.4539 133.711 98.5702C133.86 98.6865 133.984 98.8317 134.076 98.9971C134.167 99.1625 134.225 99.3447 134.244 99.5328C134.264 99.7209 134.245 99.911 134.19 100.092C134.134 100.272 134.043 100.44 133.921 100.585L93.3552 152.608C93.1868 152.824 92.9589 152.986 92.6996 153.074C92.4403 153.162 92.1608 153.173 91.8957 153.104C91.6307 153.035 91.3915 152.89 91.2078 152.687C91.0241 152.484 90.9039 152.231 90.8619 151.961L81.8992 97.9943C81.8688 97.8041 81.7745 97.63 81.6319 97.5007C81.4892 97.3713 81.3066 97.2946 81.1144 97.283C80.9222 97.2714 80.7318 97.3257 80.5746 97.437C80.4174 97.5483 80.3029 97.7099 80.25 97.895L60.7487 164.906C60.6637 165.198 60.4864 165.454 60.2436 165.636C60.0007 165.818 59.7053 165.916 59.4017 165.916V165.916Z" fill="#232323" stroke="white" stroke-width="2" stroke-linecap="round" stroke-linejoin="round"/>
<path d="M136.174 97.4937C136.174 98.6463 135.239 99.5806 134.087 99.5806C132.934 99.5806 132 98.6463 132 97.4937C132 96.3412 132.934 95.4069 134.087 95.4069C135.239 95.4069 136.174 96.3412 136.174 97.4937Z" fill="#232323" stroke="white" stroke-width="2"/>
<path d="M132.416 93.7935C133.029 90.4634 133.641 87.1341 134.253 83.8054C135.287 86.9513 136.322 90.0957 137.357 93.2387L145.022 95.2204L137.661 98.4584C136.941 101.645 136.23 104.829 135.526 108.013L131.731 98.8728L126 96.2026L132.416 93.7935Z" fill="white" stroke="white" stroke-width="2" stroke-linecap="round" stroke-linejoin="round"/>
<path d="M121.378 9.17283H86.9714C86.7138 9.17283 86.4667 9.07049 86.2845 8.88831C86.1023 8.70614 86 8.45907 86 8.20144C86 7.94381 86.1023 7.69673 86.2845 7.51455C86.4667 7.33238 86.7138 7.23004 86.9714 7.23004H121.378C121.636 7.23004 121.883 7.33238 122.065 7.51455C122.247 7.69673 122.35 7.94381 122.35 8.20144C122.35 8.45907 122.247 8.70614 122.065 8.88831C121.883 9.07049 121.636 9.17283 121.378 9.17283Z" stroke="white" stroke-width="2" stroke-linecap="round" stroke-linejoin="round"/>
<path d="M139.042 26.5085H121.971C121.714 26.5085 121.467 26.4062 121.285 26.224C121.102 26.0418 121 25.7948 121 25.5371C121 25.2795 121.102 25.0324 121.285 24.8503C121.467 24.6681 121.714 24.5657 121.971 24.5657H139.042C139.3 24.5657 139.547 24.6681 139.729 24.8503C139.911 25.0324 140.013 25.2795 140.013 25.5371C140.013 25.7948 139.911 26.0418 139.729 26.224C139.547 26.4062 139.3 26.5085 139.042 26.5085V26.5085Z" stroke="white" stroke-width="2" stroke-linecap="round" stroke-linejoin="round"/>
<path d="M138.721 18.2413H86.9714C86.7138 18.2413 86.4667 18.1389 86.2845 17.9567C86.1023 17.7746 86 17.5275 86 17.2699C86 17.0122 86.1023 16.7651 86.2845 16.583C86.4667 16.4008 86.7138 16.2985 86.9714 16.2985H138.721C138.978 16.2985 139.226 16.4008 139.408 16.583C139.59 16.7651 139.692 17.0122 139.692 17.2699C139.692 17.5275 139.59 17.7746 139.408 17.9567C139.226 18.1389 138.978 18.2413 138.721 18.2413Z" stroke="white" stroke-width="2" stroke-linecap="round" stroke-linejoin="round"/>
<path d="M131.374 9.17283H124.971C124.714 9.17283 124.467 9.07049 124.285 8.88831C124.102 8.70614 124 8.45907 124 8.20144C124 7.94381 124.102 7.69673 124.285 7.51455C124.467 7.33238 124.714 7.23004 124.971 7.23004H131.374C131.632 7.23004 131.879 7.33238 132.061 7.51455C132.243 7.69673 132.345 7.94381 132.345 8.20144C132.345 8.45907 132.243 8.70614 132.061 8.88831C131.879 9.07049 131.632 9.17283 131.374 9.17283V9.17283Z" stroke="white" stroke-width="2" stroke-linecap="round" stroke-linejoin="round"/>
<path d="M163.27 35.8682C172.255 35.8682 179.54 28.5839 179.54 19.5984C179.54 10.6128 172.255 3.32861 163.27 3.32861C154.284 3.32861 147 10.6128 147 19.5984C147 28.5839 154.284 35.8682 163.27 35.8682Z" stroke="white" stroke-width="2" stroke-linecap="round" stroke-linejoin="round"/>
<path d="M161.27 33.5396C170.255 33.5396 177.54 26.2553 177.54 17.2698C177.54 8.28423 170.255 1 161.27 1C152.284 1 145 8.28423 145 17.2698C145 26.2553 152.284 33.5396 161.27 33.5396Z" fill="#232323" stroke="white" stroke-width="2" stroke-linecap="round" stroke-linejoin="round"/>
<path d="M159.054 24.2402C158.948 24.2403 158.843 24.2196 158.745 24.1793C158.647 24.1389 158.559 24.0796 158.484 24.0049L152.237 17.7578C152.162 17.6828 152.102 17.5938 152.061 17.4958C152.021 17.3978 152 17.2928 152 17.1868C152 17.0807 152.021 16.9757 152.061 16.8778C152.102 16.7798 152.162 16.6908 152.237 16.6158V16.6158L158.812 10.0406C158.965 9.89757 159.168 9.81973 159.378 9.82343C159.588 9.82713 159.788 9.91209 159.936 10.0604C160.084 10.2087 160.169 10.4088 160.173 10.6185C160.177 10.8282 160.099 11.0312 159.956 11.1847L153.951 17.1857L159.632 22.8608C159.745 22.9737 159.823 23.1178 159.854 23.2747C159.885 23.4316 159.869 23.5943 159.808 23.7421C159.747 23.8899 159.643 24.0162 159.51 24.1049C159.377 24.1936 159.22 24.2407 159.06 24.2402H159.054Z" stroke="white" stroke-width="2" stroke-linecap="round" stroke-linejoin="round"/>
<path d="M164.158 24.2395C163.998 24.24 163.842 24.1929 163.708 24.1042C163.575 24.0156 163.471 23.8893 163.41 23.7415C163.349 23.5937 163.333 23.431 163.364 23.2741C163.395 23.1171 163.473 22.9731 163.586 22.8602L169.261 17.1851L163.258 11.1818C163.101 11.0356 163.008 10.8329 163.001 10.6183C162.993 10.4037 163.071 10.1949 163.217 10.0378C163.363 9.88061 163.566 9.788 163.781 9.78031C163.995 9.77261 164.204 9.85047 164.361 9.99675C164.376 10.0097 164.389 10.0248 164.402 10.0378L170.977 16.613C171.129 16.7648 171.214 16.9705 171.214 17.1851C171.214 17.3996 171.129 17.6053 170.977 17.7571L164.73 24.0043C164.578 24.1553 164.372 24.2399 164.158 24.2395V24.2395Z" stroke="white" stroke-width="2" stroke-linecap="round" stroke-linejoin="round"/>
<defs>
<linearGradient id="paint0_linear_0_438" x1="0.00144912" y1="55.1936" x2="65.8535" y2="55.0054" gradientUnits="userSpaceOnUse">
<stop stop-color="#FEC45D"/>
<stop offset="1" stop-color="#F8B8F0"/>
</linearGradient>
</defs>
</svg>
