<svg width="797" height="864" viewBox="0 0 797 864" fill="none" xmlns="http://www.w3.org/2000/svg">
<path d="M18 526.86L142.65 739.26L256.41 528.69L18 526.86Z" stroke="white" stroke-width="2" stroke-linecap="round" stroke-linejoin="round"/>
<path d="M18 526.87L108.77 604.93L142.65 739.26" stroke="white" stroke-width="2" stroke-linecap="round" stroke-linejoin="round"/>
<path d="M255.64 528.69L108 604.93" stroke="white" stroke-width="2" stroke-linecap="round" stroke-linejoin="round"/>
<path d="M1 210.36L117 407.98L222.82 212.05L1 210.36Z" stroke="white" stroke-width="2" stroke-linecap="round" stroke-linejoin="round"/>
<path d="M4.90417 215.037L84.5578 283.542L114.297 401.433L4.90417 215.037Z" fill="white" stroke="white" stroke-width="2"/>
<path d="M222.37 212.05L85 282.99" stroke="white" stroke-width="2" stroke-linecap="round" stroke-linejoin="round"/>
<path d="M344.24 1L255.24 152.66L174 2.3L344.24 1Z" stroke="white" stroke-width="2" stroke-linecap="round" stroke-linejoin="round"/>
<path d="M280.092 57.2917L340.106 5.67703L257.683 146.113L280.092 57.2917Z" fill="white" stroke="white" stroke-width="2"/>
<path d="M174 2.30005L279.43 56.7401" stroke="white" stroke-width="2" stroke-linecap="round" stroke-linejoin="round"/>
<path d="M249.6 500.79L180.27 382.66L117 499.78L249.6 500.79Z" stroke="white" stroke-width="2" stroke-linecap="round" stroke-linejoin="round"/>
<path d="M228.42 165.42L181.67 85.77L139 164.77L228.42 165.42Z" stroke="white" stroke-width="2" stroke-linecap="round" stroke-linejoin="round"/>
<path d="M22 430.78L63.06 500.78L100.53 431.38L22 430.78Z" stroke="white" stroke-width="2" stroke-linecap="round" stroke-linejoin="round"/>
<path d="M496.09 349.71L345.46 606.36L208 351.86L496.09 349.71Z" stroke="white" stroke-width="2" stroke-linecap="round" stroke-linejoin="round"/>
<path d="M496.63 349.71L386.95 444.03L346 606.36" stroke="white" stroke-width="2" stroke-linecap="round" stroke-linejoin="round"/>
<path d="M208 351.9L386.41 444.04" stroke="white" stroke-width="2" stroke-linecap="round" stroke-linejoin="round"/>
<path d="M219.66 716.31C223.891 716.31 227.32 712.881 227.32 708.65C227.32 704.42 223.891 700.99 219.66 700.99C215.43 700.99 212 704.42 212 708.65C212 712.881 215.43 716.31 219.66 716.31Z" stroke="white" stroke-width="2" stroke-linecap="round" stroke-linejoin="round"/>
<path d="M97.28 177.84C101.301 177.84 104.56 174.58 104.56 170.56C104.56 166.539 101.301 163.28 97.28 163.28C93.2594 163.28 90 166.539 90 170.56C90 174.58 93.2594 177.84 97.28 177.84Z" stroke="white" stroke-width="2" stroke-linecap="round" stroke-linejoin="round"/>
<path d="M208 321.35L358.62 64.7L496.09 319.15L208 321.35Z" stroke="white" stroke-width="2" stroke-linecap="round" stroke-linejoin="round"/>
<path d="M320.57 193.76V209.31H333.82V254.86H320V272.71H333.83V281.35H344.77V271.56H348.77V281.35H359.13V270.95H369.5C373.625 270.947 377.58 269.307 380.496 266.389C383.412 263.471 385.05 259.515 385.05 255.39V246.75C385.05 242.626 383.412 238.671 380.496 235.754C377.579 232.838 373.624 231.2 369.5 231.2C373.627 230.731 377.437 228.759 380.204 225.66C382.97 222.562 384.5 218.554 384.5 214.4V211.25C384.5 209.029 384.063 206.83 383.213 204.779C382.363 202.727 381.117 200.863 379.547 199.293C377.977 197.722 376.113 196.477 374.061 195.627C372.01 194.777 369.811 194.34 367.59 194.34H358V183.34H348.8V193.13H343.61V183.34H333.82V193.13C333.82 193.13 320.57 193.06 320.57 193.76Z" fill="#232323" stroke="white" stroke-width="2" stroke-linecap="round" stroke-linejoin="round"/>
<path d="M345 209.02V224.58H362.52C364.598 224.577 366.589 223.75 368.057 222.28C369.525 220.81 370.35 218.817 370.35 216.74V216.74C370.353 214.68 369.542 212.701 368.095 211.235C366.648 209.769 364.68 208.933 362.62 208.91C355.15 208.86 345 208.75 345 209.02Z" stroke="white" stroke-width="2" stroke-linecap="round" stroke-linejoin="round"/>
<path d="M345 240.7V256.26H364.81C366.886 256.258 368.876 255.432 370.344 253.964C371.812 252.496 372.637 250.506 372.64 248.43V248.43C372.64 246.37 371.829 244.392 370.383 242.925C368.936 241.458 366.97 240.619 364.91 240.59C357.46 240.5 345 240.43 345 240.7Z" stroke="white" stroke-width="2" stroke-linecap="round" stroke-linejoin="round"/>
<path d="M208 321.35L320.22 272.67" stroke="white" stroke-width="2" stroke-linecap="round" stroke-linejoin="round"/>
<path d="M383 263.33L495.6 319.15" stroke="white" stroke-width="2" stroke-linecap="round" stroke-linejoin="round"/>
<path d="M358 183.39L358.38 64.7" stroke="white" stroke-width="2" stroke-linecap="round" stroke-linejoin="round"/>
<path d="M729 527.63H657.5C616.91 527.63 584 496.48 584 458.05C584 419.62 616.91 388.47 657.5 388.47H742" stroke="white" stroke-width="2" stroke-linecap="round" stroke-linejoin="round"/>
<path d="M712 416.87L742.5 388" stroke="white" stroke-width="2" stroke-linecap="round" stroke-linejoin="round"/>
<path d="M712 359.6L742.5 388.47" stroke="white" stroke-width="2" stroke-linecap="round" stroke-linejoin="round"/>
<path d="M495 319.37H722.18C762.77 319.37 795.68 350.52 795.68 388.95C795.68 427.37 762.77 458.52 722.18 458.52H637.68" stroke="white" stroke-width="2" stroke-linecap="round" stroke-linejoin="round"/>
<path d="M667.5 430.12L637 459" stroke="white" stroke-width="2" stroke-linecap="round" stroke-linejoin="round"/>
<path d="M667.5 487.39L637 458.52" stroke="white" stroke-width="2" stroke-linecap="round" stroke-linejoin="round"/>
<path d="M774.7 544.7H308.14C298.674 544.7 291 552.374 291 561.84V845.59C291 855.056 298.674 862.73 308.14 862.73H774.7C784.166 862.73 791.84 855.056 791.84 845.59V561.84C791.84 552.374 784.166 544.7 774.7 544.7Z" stroke="white" stroke-width="2" stroke-linecap="round" stroke-linejoin="round"/>
<path d="M756.7 526.68H290.14C280.674 526.68 273 534.354 273 543.82V827.57C273 837.036 280.674 844.71 290.14 844.71H756.7C766.166 844.71 773.84 837.036 773.84 827.57V543.82C773.84 534.354 766.166 526.68 756.7 526.68Z" fill="url(#paint0_linear_24_7)"/>
<path d="M407.44 629.35H318.47C317.106 629.35 316 630.456 316 631.82V697C316 698.364 317.106 699.47 318.47 699.47H407.44C408.804 699.47 409.91 698.364 409.91 697V631.82C409.91 630.456 408.804 629.35 407.44 629.35Z" stroke="#232323" stroke-width="2" stroke-linecap="round" stroke-linejoin="round"/>
<path d="M732.49 629.35H613.47C612.106 629.35 611 630.456 611 631.82V697C611 698.364 612.106 699.47 613.47 699.47H732.49C733.854 699.47 734.96 698.364 734.96 697V631.82C734.96 630.456 733.854 629.35 732.49 629.35Z" stroke="#232323" stroke-width="2" stroke-linecap="round" stroke-linejoin="round"/>
<path d="M317 643.13H409.66" stroke="#232323" stroke-width="2" stroke-linecap="round" stroke-linejoin="round"/>
<path d="M317 683.19H409.66" stroke="#232323" stroke-width="2" stroke-linecap="round" stroke-linejoin="round"/>
<path d="M339 630.61V698.22" stroke="#232323" stroke-width="2" stroke-linecap="round" stroke-linejoin="round"/>
<path d="M387 630.61V698.22" stroke="#232323" stroke-width="2" stroke-linecap="round" stroke-linejoin="round"/>
<path d="M664.49 810.65C680.225 810.65 692.98 797.895 692.98 782.16C692.98 766.425 680.225 753.67 664.49 753.67C648.755 753.67 636 766.425 636 782.16C636 797.895 648.755 810.65 664.49 810.65Z" stroke="#232323" stroke-width="2" stroke-linecap="round" stroke-linejoin="round"/>
<path d="M705.49 810.65C721.225 810.65 733.98 797.895 733.98 782.16C733.98 766.425 721.225 753.67 705.49 753.67C689.755 753.67 677 766.425 677 782.16C677 797.895 689.755 810.65 705.49 810.65Z" stroke="#232323" stroke-width="2" stroke-linecap="round" stroke-linejoin="round"/>
<path d="M330.92 722.01H326.59C325.712 722.01 325 722.722 325 723.6V734.19C325 735.068 325.712 735.78 326.59 735.78H330.92C331.798 735.78 332.51 735.068 332.51 734.19V723.6C332.51 722.722 331.798 722.01 330.92 722.01Z" stroke="#232323" stroke-width="2" stroke-linecap="round" stroke-linejoin="round"/>
<path d="M350.92 722.01H346.59C345.712 722.01 345 722.722 345 723.6V734.19C345 735.068 345.712 735.78 346.59 735.78H350.92C351.798 735.78 352.51 735.068 352.51 734.19V723.6C352.51 722.722 351.798 722.01 350.92 722.01Z" stroke="#232323" stroke-width="2" stroke-linecap="round" stroke-linejoin="round"/>
<path d="M370.92 722.01H366.59C365.712 722.01 365 722.722 365 723.6V734.19C365 735.068 365.712 735.78 366.59 735.78H370.92C371.798 735.78 372.51 735.068 372.51 734.19V723.6C372.51 722.722 371.798 722.01 370.92 722.01Z" stroke="#232323" stroke-width="2" stroke-linecap="round" stroke-linejoin="round"/>
<path d="M390.92 722.01H386.59C385.712 722.01 385 722.722 385 723.6V734.19C385 735.068 385.712 735.78 386.59 735.78H390.92C391.798 735.78 392.51 735.068 392.51 734.19V723.6C392.51 722.722 391.798 722.01 390.92 722.01Z" stroke="#232323" stroke-width="2" stroke-linecap="round" stroke-linejoin="round"/>
<path d="M427.92 722.01H423.59C422.712 722.01 422 722.722 422 723.6V734.19C422 735.068 422.712 735.78 423.59 735.78H427.92C428.798 735.78 429.51 735.068 429.51 734.19V723.6C429.51 722.722 428.798 722.01 427.92 722.01Z" stroke="#232323" stroke-width="2" stroke-linecap="round" stroke-linejoin="round"/>
<path d="M447.92 722.01H443.59C442.712 722.01 442 722.722 442 723.6V734.19C442 735.068 442.712 735.78 443.59 735.78H447.92C448.798 735.78 449.51 735.068 449.51 734.19V723.6C449.51 722.722 448.798 722.01 447.92 722.01Z" stroke="#232323" stroke-width="2" stroke-linecap="round" stroke-linejoin="round"/>
<path d="M468.92 722.01H464.59C463.712 722.01 463 722.722 463 723.6V734.19C463 735.068 463.712 735.78 464.59 735.78H468.92C469.798 735.78 470.51 735.068 470.51 734.19V723.6C470.51 722.722 469.798 722.01 468.92 722.01Z" stroke="#232323" stroke-width="2" stroke-linecap="round" stroke-linejoin="round"/>
<path d="M488.92 722.01H484.59C483.712 722.01 483 722.722 483 723.6V734.19C483 735.068 483.712 735.78 484.59 735.78H488.92C489.798 735.78 490.51 735.068 490.51 734.19V723.6C490.51 722.722 489.798 722.01 488.92 722.01Z" stroke="#232323" stroke-width="2" stroke-linecap="round" stroke-linejoin="round"/>
<path d="M523.92 722.01H519.59C518.712 722.01 518 722.722 518 723.6V734.19C518 735.068 518.712 735.78 519.59 735.78H523.92C524.798 735.78 525.51 735.068 525.51 734.19V723.6C525.51 722.722 524.798 722.01 523.92 722.01Z" stroke="#232323" stroke-width="2" stroke-linecap="round" stroke-linejoin="round"/>
<path d="M543.92 722.01H539.59C538.712 722.01 538 722.722 538 723.6V734.19C538 735.068 538.712 735.78 539.59 735.78H543.92C544.798 735.78 545.51 735.068 545.51 734.19V723.6C545.51 722.722 544.798 722.01 543.92 722.01Z" stroke="#232323" stroke-width="2" stroke-linecap="round" stroke-linejoin="round"/>
<path d="M563.92 722.01H559.59C558.712 722.01 558 722.722 558 723.6V734.19C558 735.068 558.712 735.78 559.59 735.78H563.92C564.798 735.78 565.51 735.068 565.51 734.19V723.6C565.51 722.722 564.798 722.01 563.92 722.01Z" stroke="#232323" stroke-width="2" stroke-linecap="round" stroke-linejoin="round"/>
<path d="M583.92 722.01H579.59C578.712 722.01 578 722.722 578 723.6V734.19C578 735.068 578.712 735.78 579.59 735.78H583.92C584.798 735.78 585.51 735.068 585.51 734.19V723.6C585.51 722.722 584.798 722.01 583.92 722.01Z" stroke="#232323" stroke-width="2" stroke-linecap="round" stroke-linejoin="round"/>
<path d="M622.92 722.01H618.59C617.712 722.01 617 722.722 617 723.6V734.19C617 735.068 617.712 735.78 618.59 735.78H622.92C623.798 735.78 624.51 735.068 624.51 734.19V723.6C624.51 722.722 623.798 722.01 622.92 722.01Z" stroke="#232323" stroke-width="2" stroke-linecap="round" stroke-linejoin="round"/>
<path d="M642.92 722.01H638.59C637.712 722.01 637 722.722 637 723.6V734.19C637 735.068 637.712 735.78 638.59 735.78H642.92C643.798 735.78 644.51 735.068 644.51 734.19V723.6C644.51 722.722 643.798 722.01 642.92 722.01Z" stroke="#232323" stroke-width="2" stroke-linecap="round" stroke-linejoin="round"/>
<path d="M662.92 722.01H658.59C657.712 722.01 657 722.722 657 723.6V734.19C657 735.068 657.712 735.78 658.59 735.78H662.92C663.798 735.78 664.51 735.068 664.51 734.19V723.6C664.51 722.722 663.798 722.01 662.92 722.01Z" stroke="#232323" stroke-width="2" stroke-linecap="round" stroke-linejoin="round"/>
<path d="M682.92 722.01H678.59C677.712 722.01 677 722.722 677 723.6V734.19C677 735.068 677.712 735.78 678.59 735.78H682.92C683.798 735.78 684.51 735.068 684.51 734.19V723.6C684.51 722.722 683.798 722.01 682.92 722.01Z" stroke="#232323" stroke-width="2" stroke-linecap="round" stroke-linejoin="round"/>
<path d="M493 765.83V775.85" stroke="#232323" stroke-width="2" stroke-linecap="round" stroke-linejoin="round"/>
<path d="M508 765.83V775.85" stroke="#232323" stroke-width="2" stroke-linecap="round" stroke-linejoin="round"/>
<path d="M533 765.83V775.85" stroke="#232323" stroke-width="2" stroke-linecap="round" stroke-linejoin="round"/>
<path d="M548 765.83V775.85" stroke="#232323" stroke-width="2" stroke-linecap="round" stroke-linejoin="round"/>
<defs>
<linearGradient id="paint0_linear_24_7" x1="273.011" y1="685.673" x2="771.624" y2="683.528" gradientUnits="userSpaceOnUse">
<stop stop-color="#FEC45D"/>
<stop offset="1" stop-color="#F8B8F0"/>
</linearGradient>
</defs>
</svg>
