<svg width="66" height="59" viewBox="0 0 66 59" fill="none" xmlns="http://www.w3.org/2000/svg">
<path d="M0.838135 31.197L14.4139 0.854126H27.3482L31.9447 11.1452V0.854126H48.0859L50.7583 8.81116L53.5376 0.854126H65.9375V4.46151H56.1034L50.8655 18.8903L45.4138 4.46151H35.3657V27.696L25.1037 4.46151H16.659L6.29009 27.696H13.4521L15.2693 23.134H26.1726L28.0968 27.696H35.3657H41.7794V11.5698L47.7655 27.696H53.5379L59.7378 11.5698V27.696H65.9375V31.1971H57.5999L50.6517 38.6237L43.8104 31.1971H35.4726H15.3762V54.5378H35.4726H43.8104L50.6517 47.1112L57.5999 54.5378H65.9375V58.0387H55.8893L50.7583 52.3096L45.3066 58.0387H11.6346V31.197H0.838135Z" fill="white"/>
<path d="M65.9375 54.5378V49.7585L59.6306 42.9734L65.9375 36.3661V31.1971L54.8206 42.9736L65.9375 54.5378Z" fill="white"/>
<path d="M35.4726 54.5378V49.3392H21.683V45.6259H35.045V40.4273H21.683V36.714H35.4726V31.1971L46.5897 42.9736L35.4726 54.5378Z" fill="white"/>
<path d="M20.8279 10.1906L17.5141 17.9354H24.0347L20.8279 10.1906Z" fill="white"/>
</svg>
