<svg width="50" height="31" viewBox="0 0 50 31" fill="none" xmlns="http://www.w3.org/2000/svg">
<g clip-path="url(#clip0_69_38)">
<path fill-rule="evenodd" clip-rule="evenodd" d="M18.0532 27.1039H31.4354V3.24414H18.0532V27.1039Z" fill="#FF5F00"/>
<path fill-rule="evenodd" clip-rule="evenodd" d="M18.903 15.1742C18.903 10.3336 21.1873 6.02247 24.7444 3.24432C22.1428 1.21225 18.8606 0 15.2928 0C6.8468 0 0.000244141 6.79382 0.000244141 15.1742C0.000244141 23.5545 6.8468 30.3484 15.2928 30.3484C18.8606 30.3484 22.1428 29.1361 24.7444 27.104C21.1873 24.3255 18.903 20.0147 18.903 15.1742Z" fill="#EB001B"/>
<path fill-rule="evenodd" clip-rule="evenodd" d="M49.0111 24.5769V23.988H48.856L48.678 24.3931L48.4996 23.988H48.3445V24.5769H48.4537V24.1326L48.6211 24.5158H48.7345L48.9019 24.1318V24.5769H49.0111ZM48.0293 24.5769V24.0884H48.2281V23.9889H47.7226V24.0884H47.921V24.5769H48.0293ZM49.4886 15.1739C49.4886 23.5543 42.6416 30.3481 34.196 30.3481C30.6283 30.3481 27.3456 29.1359 24.7444 27.1038C28.3015 24.3257 30.5858 20.0145 30.5858 15.1739C30.5858 10.3338 28.3015 6.02264 24.7444 3.24408C27.3456 1.212 30.6283 -0.000244141 34.196 -0.000244141C42.6416 -0.000244141 49.4886 6.79358 49.4886 15.1739Z" fill="#F79E1B"/>
</g>
<defs>
<clipPath id="clip0_69_38">
<rect width="50" height="30.3922" fill="white"/>
</clipPath>
</defs>
</svg>
