<svg width="479" height="845" viewBox="0 0 479 845" fill="none" xmlns="http://www.w3.org/2000/svg">
<path d="M376.108 683.579C365.761 679.734 354.891 677.475 343.868 676.879L332.678 632.099C332.528 631.199 332.388 630.309 332.248 629.419C346.859 629.978 361.18 633.661 374.248 640.219C378.29 642.284 382.186 644.623 385.908 647.219L404.488 610.909C397.388 605.007 389.61 599.972 381.318 595.909C370.12 590.417 358.091 586.812 345.718 585.239C337.841 584.291 329.884 584.207 321.988 584.989C319.835 576.209 317.682 567.422 315.528 558.629L279.918 566.729L286.318 594.079C275.898 597.349 255.128 605.579 239.798 625.579C235.658 630.989 229.078 639.769 226.288 653.239C224.121 663.738 224.696 674.618 227.958 684.829C230.267 692.12 233.939 698.907 238.778 704.829C250.928 719.259 267.278 723.219 279.318 726.129C290.864 728.898 302.785 729.76 314.608 728.679L324.748 774.429C311.469 775.571 298.108 773.567 285.748 768.579C277.35 765.15 269.565 760.377 262.698 754.449L243.268 788.449C257.311 801.568 274.581 810.729 293.318 814.999C306.91 818.009 320.957 818.349 334.678 815.999C336.818 825.266 338.955 834.536 341.088 843.809L381.088 833.909L374.318 805.119C376.108 804.489 378.718 803.519 381.798 802.179C390.328 798.449 407.298 791.279 417.898 776.969C420.528 773.429 434.488 753.739 429.428 730.769C422.838 701.049 389.448 688.569 376.108 683.579ZM295.858 672.739C295.308 672.659 294.758 672.559 294.228 672.449C293.29 672.262 292.365 672.015 291.458 671.709C289.867 671.234 288.401 670.411 287.168 669.299C285.935 668.186 284.965 666.813 284.328 665.279C283.964 664.407 283.683 663.503 283.488 662.579C282.639 659.083 283.157 655.395 284.938 652.269C286.988 648.739 290.708 645.719 295.938 643.049C296.098 643.839 296.248 644.599 296.408 645.359C297.408 650.479 298.408 655.239 299.408 659.919C300.308 664.359 301.198 668.749 302.138 673.359L300.538 673.249C298.971 673.158 297.409 672.987 295.858 672.739V672.739ZM367.798 757.629C366.438 758.909 364.908 760.249 363.208 761.629C363.078 760.959 362.948 760.289 362.808 759.629L356.808 729.339C364.588 732.659 369.908 735.639 372.908 738.689C373.321 739.096 373.705 739.53 374.058 739.989C374.282 740.268 374.486 740.562 374.668 740.869C377.518 745.649 375.098 750.749 367.798 757.629Z" stroke="white" stroke-width="2" stroke-linecap="round" stroke-linejoin="round"/>
<path d="M387.071 680.079C376.728 676.228 365.861 673.969 354.841 673.379L343.651 628.599C343.501 627.699 343.361 626.809 343.211 625.919C357.821 626.478 372.143 630.161 385.211 636.719C389.252 638.784 393.148 641.123 396.871 643.719L415.461 607.389C408.363 601.484 400.584 596.448 392.291 592.389C381.092 586.897 369.064 583.292 356.691 581.719C348.813 580.771 340.856 580.687 332.961 581.469L326.511 555.109L290.901 563.209L297.321 590.539C286.901 593.809 266.121 602.039 250.801 622.039C246.661 627.449 240.081 636.229 237.281 649.699C235.121 660.199 235.7 671.078 238.961 681.289C241.272 688.577 244.94 695.363 249.771 701.289C261.931 715.719 278.281 719.679 290.321 722.589C301.862 725.363 313.78 726.225 325.601 725.139C328.981 740.392 332.364 755.642 335.751 770.889C322.471 772.031 309.11 770.027 296.751 765.039C288.352 761.61 280.567 756.837 273.701 750.909L254.271 784.909C268.328 798.018 285.608 807.168 304.351 811.429C317.942 814.439 331.989 814.779 345.711 812.429C347.837 821.702 349.971 830.972 352.111 840.239L392.111 830.339L385.251 801.539C387.041 800.909 389.651 799.939 392.731 798.599C401.261 794.869 418.231 787.709 428.831 773.389C431.451 769.849 445.421 750.159 440.361 727.189C433.811 697.549 400.461 685.069 387.071 680.079ZM306.831 669.239C306.271 669.159 305.731 669.059 305.201 668.949C304.26 668.758 303.332 668.511 302.421 668.209C300.83 667.736 299.365 666.912 298.133 665.8C296.901 664.687 295.933 663.314 295.301 661.779C294.937 660.907 294.655 660.003 294.461 659.079C293.611 655.583 294.13 651.895 295.911 648.769C297.911 645.239 301.671 642.219 306.911 639.549C307.071 640.339 307.221 641.099 307.381 641.859C308.381 646.979 309.381 651.739 310.331 656.419C311.231 660.859 312.131 665.249 313.061 669.859L311.471 669.749C309.881 669.629 308.311 669.469 306.831 669.239ZM378.761 754.129C377.401 755.409 375.871 756.749 374.171 758.129C374.041 757.459 373.901 756.789 373.771 756.129L367.771 725.839C375.551 729.159 380.871 732.139 383.871 735.189C384.28 735.599 384.664 736.033 385.021 736.489C385.239 736.772 385.442 737.066 385.631 737.369C388.461 742.149 386.071 747.249 378.761 754.129Z" fill="#232323" stroke="white" stroke-width="2" stroke-linecap="round" stroke-linejoin="round"/>
<path d="M343 813.319L356.18 810.099" stroke="white" stroke-width="2" stroke-linecap="round" stroke-linejoin="round"/>
<path d="M326 582.779L332.84 581.049" stroke="white" stroke-width="2" stroke-linecap="round" stroke-linejoin="round"/>
<path d="M216.749 9.17907L183.509 15.3991L145.069 25.8091L96.9292 42.9991C61.6092 55.5891 32.1692 81.1191 15.5692 114.739C15.1592 115.559 14.7492 116.399 14.3592 117.239C0.920526 145.979 -3.22173 178.194 2.50917 209.399C17.6692 265.049 40.5092 303.169 57.5092 326.749C80.0892 358.159 110.629 385.199 170.799 437.999C200.969 464.479 226.329 485.669 243.509 499.799L329.449 488.399L349.119 460.129C366.699 434.689 384.669 406.479 402.289 375.439C423.338 338.368 442.269 300.133 458.989 260.919C471.069 235.576 477.782 208.01 478.708 179.951C479.634 151.891 474.752 123.943 464.369 97.8591C451.369 71.5191 423.839 27.4991 374.949 10.3291C355.619 3.54907 337.709 2.62907 315.839 1.50907C282.617 -0.194875 249.313 2.38296 216.749 9.17907Z" fill="url(#paint0_linear_0_38)"/>
<path d="M234 6.69897C234 6.69897 259 25.899 274.68 128.869C293.85 255.009 293.85 468.069 293.85 468.069" stroke="#232323" stroke-width="2" stroke-linecap="round" stroke-linejoin="round"/>
<path d="M300 1.99902C300 1.99902 365.91 36.309 378.46 108.689C391.01 181.069 372.22 312.859 369.46 321.689C366.7 330.519 327.04 469.999 327.04 469.999" stroke="#232323" stroke-width="2" stroke-linecap="round" stroke-linejoin="round"/>
<path d="M143.008 26.489C143.008 26.489 85.3376 57.569 106.778 143.549C128.218 229.529 185.708 388.609 247.638 477.709" stroke="#232323" stroke-width="2" stroke-linecap="round" stroke-linejoin="round"/>
<path d="M75.9527 52.1592C75.9527 52.1592 33.6827 93.9992 53.1027 177.749" stroke="#232323" stroke-width="2" stroke-linecap="round" stroke-linejoin="round"/>
<path d="M244 499.789L289.54 538.669" stroke="white" stroke-width="2" stroke-linecap="round" stroke-linejoin="round"/>
<path d="M329.47 488.389L307 535.499" stroke="white" stroke-width="2" stroke-linecap="round" stroke-linejoin="round"/>
<path d="M295 493.929L298.2 534.379" stroke="white" stroke-width="2" stroke-linecap="round" stroke-linejoin="round"/>
<path d="M286.796 563.999C280.346 542.689 292.796 535.289 300.016 534.899C306.876 534.529 318.636 541.709 319.476 555.899" stroke="white" stroke-width="2" stroke-linecap="round" stroke-linejoin="round"/>
<path d="M344.12 467.999L225 484.489C230.5 488.409 237 494.219 243.42 500.029L329.61 490.339C334.13 482.269 338.65 474.199 344.12 467.999Z" fill="#232323" stroke="white" stroke-width="2" stroke-linecap="round" stroke-linejoin="round"/>
<path d="M3 209.399C53.63 177.609 147.74 128.239 275 115.549C340.415 109.077 406.441 112.999 470.63 127.169" stroke="#232323" stroke-width="2" stroke-linecap="round" stroke-linejoin="round"/>
<path d="M73 345.999C141.822 350.119 210.885 344.909 278.31 330.509C338.627 317.623 397.16 297.476 452.63 270.509" stroke="#232323" stroke-width="2" stroke-linecap="round" stroke-linejoin="round"/>
<path d="M94 289.869L123.09 345.999" stroke="#232323" stroke-width="2" stroke-linecap="round" stroke-linejoin="round"/>
<defs>
<linearGradient id="paint0_linear_0_38" x1="0.01049" y1="250.364" x2="476.706" y2="249.114" gradientUnits="userSpaceOnUse">
<stop stop-color="#FEC45D"/>
<stop offset="1" stop-color="#F8B8F0"/>
</linearGradient>
</defs>
</svg>
