<svg width="188" height="26" viewBox="0 0 188 26" fill="none" xmlns="http://www.w3.org/2000/svg">
<path fill-rule="evenodd" clip-rule="evenodd" d="M40.3194 0.253653C40.2586 0.413558 40.223 5.09066 40.223 12.9097V25.3121L40.4949 25.3881C40.9593 25.518 44.0026 25.48 44.2449 25.3412L44.4595 25.2183L44.4921 17.4795C44.51 13.2232 44.5599 9.68637 44.6028 9.62011C44.6595 9.53269 44.8166 9.59687 45.1732 9.8531C45.444 10.0476 45.7204 10.2845 45.7873 10.3793C45.8544 10.4741 46.0506 10.6246 46.2235 10.7137C46.3965 10.8028 46.5635 10.9565 46.5948 11.0552C46.6475 11.2211 46.9398 11.5688 47.7793 12.4646C47.9601 12.6573 48.1359 12.9021 48.1703 13.0085C48.2045 13.1148 48.3658 13.2774 48.5286 13.3698C48.6915 13.4622 48.897 13.6892 48.9852 13.8744C49.0735 14.0595 49.2742 14.2867 49.4311 14.3795C49.588 14.4721 49.7164 14.5897 49.7164 14.6408C49.7164 14.7192 50.2904 15.3751 50.7271 15.7959C51.2772 16.3257 51.9826 17.1022 52.1603 17.3734C52.24 17.4951 52.391 17.6219 52.4958 17.6552C52.6006 17.6884 52.7751 17.8895 52.8835 18.102C52.9919 18.3145 53.2105 18.5555 53.3693 18.6376C53.5281 18.7198 53.6888 18.8842 53.7266 19.0031C53.7643 19.122 54.1457 19.5651 54.5742 19.9877C55.0026 20.4105 55.3531 20.8243 55.3531 20.9074C55.3531 20.9905 55.4788 21.1235 55.6324 21.2029C55.786 21.2823 56.0313 21.5282 56.1777 21.7494C56.324 21.9705 56.4839 22.1513 56.5332 22.1513C56.5823 22.1513 56.7142 22.2995 56.826 22.4805C56.9378 22.6615 57.14 22.86 57.2751 22.9215C57.4101 22.9831 57.6107 23.21 57.7208 23.4257C57.8309 23.6415 58.0067 23.8453 58.1116 23.8786C58.2164 23.9119 58.3811 24.0597 58.4776 24.2072C58.5742 24.3546 58.757 24.557 58.884 24.657C59.011 24.757 59.1787 24.9621 59.2566 25.1128C59.3345 25.2635 59.5307 25.4417 59.6925 25.5088C59.8543 25.5758 60.0108 25.6933 60.0402 25.7699C60.0761 25.8636 60.253 25.9092 60.5804 25.9092C61.0029 25.9092 61.0747 25.8797 61.123 25.6867C61.2213 25.293 61.2158 0.680858 61.1173 0.582364C61.0646 0.529655 60.1609 0.501768 59.0066 0.517096L56.9881 0.543895L56.9139 0.939454C56.8731 1.15701 56.8482 4.3833 56.8586 8.10898C56.869 11.8347 56.8414 15.1194 56.7974 15.4082C56.7246 15.8854 56.7024 15.9205 56.5544 15.7908C56.4647 15.7122 56.2897 15.617 56.1652 15.579C56.0408 15.541 55.8289 15.3356 55.6943 15.1223C55.5597 14.909 55.4076 14.7346 55.3563 14.7346C55.2315 14.7346 54.257 13.7659 54.0403 13.4264C53.9454 13.278 53.738 13.0893 53.5791 13.0072C53.4204 12.925 53.262 12.7683 53.2272 12.6587C53.1572 12.4379 52.1293 11.3723 51.9864 11.3723C51.9367 11.3723 51.8056 11.1952 51.6953 10.9789C51.5848 10.7624 51.3614 10.5165 51.1988 10.4324C51.0362 10.3482 50.9031 10.2411 50.9031 10.1942C50.9031 10.1232 50.3744 9.51499 49.8872 9.02549C48.3621 7.49329 47.7552 6.83359 47.6943 6.64184C47.6568 6.52367 47.5221 6.37158 47.3951 6.30384C47.1556 6.17617 46.0575 4.99345 46.0575 4.86321C46.0575 4.82257 45.9213 4.70894 45.7549 4.61064C45.5884 4.51225 45.38 4.28015 45.2916 4.09483C45.2032 3.90951 45.0975 3.75782 45.0565 3.75782C44.9121 3.75782 43.8088 2.61742 43.7399 2.39699C43.7015 2.27407 43.5464 2.10942 43.3952 2.0312C43.2439 1.95298 43.0427 1.77092 42.9482 1.62654C42.7593 1.33828 41.9815 0.572573 41.5221 0.222502C41.3286 0.0750575 41.0926 0 40.8229 0C40.4769 0 40.4014 0.0380729 40.3194 0.253653ZM0.405141 0.59235C0.288352 0.639619 0.157618 0.735247 0.1147 0.804766C0.00938192 0.975055 -0.049555 24.5932 0.0543783 24.9697C0.115097 25.1898 0.226344 25.2963 0.485139 25.3824C0.97405 25.5451 7.91078 25.7545 10.111 25.6731C14.5997 25.5071 15.8178 25.4336 15.9294 25.3222C16.0056 25.246 16.0444 24.7507 16.0444 23.8524C16.0444 22.2083 15.9729 21.7995 15.6711 21.7186C15.55 21.6862 13.2718 21.659 10.6083 21.6583C7.13559 21.6573 5.61793 21.6226 5.24353 21.5356L4.72148 21.4141V20.9099C4.72148 20.6326 4.67738 19.9419 4.62358 19.3749C4.56969 18.808 4.50857 17.7433 4.4878 17.0091C4.45487 15.8476 4.47426 15.6258 4.63713 15.3032C4.74017 15.0993 4.83462 14.9246 4.84708 14.9151C4.85963 14.9055 6.87234 14.8722 9.31987 14.8409L13.7699 14.784L14.0913 14.5548L14.4127 14.3256V12.7617V11.1978L13.8935 10.9453L13.3744 10.6929L9.10548 10.6617C6.75763 10.6446 4.80158 10.5956 4.75876 10.5526C4.71594 10.5098 4.62981 9.28626 4.56741 7.83367C4.46556 5.46209 4.4701 5.16107 4.61241 4.8823C4.92717 4.26601 4.74443 4.28203 11.7081 4.26216L15.1841 4.25227L15.3024 3.759C15.3675 3.48765 15.503 3.16112 15.6035 3.03335C15.8708 2.69347 16.0097 2.02299 15.9755 1.23612L15.9455 0.543895L8.28152 0.525105C4.06634 0.514821 0.522029 0.54508 0.405141 0.59235ZM83.5763 0.570102C83.3764 0.703702 83.3668 0.93728 83.5515 1.17531C83.6522 1.30505 83.7345 1.52785 83.7345 1.67035C83.7345 2.11249 83.9095 2.56847 84.2108 2.91162C84.3964 3.12304 84.5242 3.4032 84.5679 3.69453C84.613 3.99535 84.7466 4.28075 84.9643 4.54142C85.1803 4.79992 85.3158 5.08779 85.3599 5.38199C85.4047 5.68054 85.5403 5.96494 85.7674 6.23689C85.9547 6.46097 86.1134 6.75141 86.1203 6.88225C86.1271 7.01308 86.1437 7.16458 86.1573 7.21897C86.171 7.27336 86.1876 7.38302 86.1944 7.46273C86.2012 7.54243 86.3513 7.77216 86.5279 7.9733C86.7553 8.23239 86.8843 8.51433 86.9704 8.94094C87.0569 9.36933 87.1629 9.60014 87.3378 9.74135C87.5015 9.87347 87.6241 10.1212 87.7047 10.483C87.7839 10.8383 87.9377 11.153 88.1496 11.393C88.3874 11.6624 88.4911 11.8939 88.5404 12.2653C88.5885 12.6272 88.6986 12.8798 88.9279 13.1544C89.1393 13.4073 89.2718 13.6939 89.3171 13.9957C89.3652 14.3166 89.487 14.5654 89.7246 14.8284C89.911 15.0347 90.0638 15.2872 90.0641 15.3894C90.0652 15.7828 90.2747 16.3015 90.5478 16.5873C90.7541 16.8033 90.8524 17.0295 90.9045 17.4083C90.9586 17.8015 91.0462 17.9948 91.2572 18.1875C91.4555 18.3687 91.5803 18.6258 91.6824 19.0638C91.7779 19.4731 91.9306 19.8016 92.132 20.0309C92.2997 20.2219 92.4371 20.4545 92.4374 20.5478C92.4386 20.9261 92.6524 21.4484 92.9211 21.7296C93.1251 21.9431 93.2259 22.1721 93.276 22.5366C93.3265 22.9037 93.4382 23.1559 93.6768 23.4416C93.8986 23.7071 94.0305 23.9892 94.0767 24.2977C94.1231 24.6071 94.2302 24.8356 94.4038 24.9957C94.5458 25.1266 94.729 25.3747 94.8111 25.5467C94.946 25.8295 95.0033 25.8597 95.4044 25.8597C95.8191 25.8597 95.8555 25.8382 95.9534 25.5354C96.011 25.357 96.1951 25.086 96.3622 24.9333C96.6004 24.7158 96.6818 24.5399 96.7385 24.1204C96.8199 23.5181 96.9283 23.2679 97.2053 23.0436C97.3237 22.9478 97.4507 22.6279 97.5405 22.1999C97.6464 21.6945 97.7504 21.4574 97.9302 21.3118C98.178 21.1109 98.3702 20.6192 98.3702 20.1862C98.3702 20.0565 98.5227 19.7814 98.7091 19.5752C98.9468 19.3121 99.0685 19.0633 99.1167 18.7424C99.1625 18.4374 99.2949 18.1535 99.5138 17.8916C99.7298 17.6331 99.8653 17.3452 99.9094 17.051C99.9531 16.7593 100.089 16.4693 100.299 16.218C100.512 15.9631 100.644 15.6771 100.689 15.3746C100.737 15.0588 100.859 14.8045 101.085 14.5538C101.336 14.2754 101.428 14.0638 101.483 13.6468C101.536 13.2468 101.629 13.0244 101.835 12.8062C102.146 12.478 102.326 12.0776 102.326 11.7153C102.326 11.5764 102.468 11.3361 102.668 11.1361C102.935 10.8687 103.024 10.6839 103.077 10.2852C103.126 9.91688 103.235 9.66798 103.471 9.38495C103.688 9.12517 103.821 8.84046 103.866 8.53687C103.913 8.22418 104.036 7.96736 104.256 7.7236C104.494 7.45867 104.594 7.2336 104.647 6.84605C104.699 6.46513 104.807 6.2182 105.049 5.92875C105.271 5.66343 105.403 5.381 105.449 5.07315C105.499 4.74019 105.608 4.52313 105.847 4.2847C106.098 4.03392 106.191 3.8391 106.241 3.46362C106.29 3.09605 106.387 2.88848 106.625 2.64363C106.897 2.36377 106.962 2.19605 107.07 1.49739C107.151 0.978615 107.163 0.644366 107.103 0.584636C107.048 0.52906 106.143 0.501373 104.897 0.517196L102.785 0.543895L102.708 0.83127C102.666 0.989394 102.5 1.2564 102.338 1.42461C102.129 1.64335 102.026 1.87159 101.976 2.22502C101.928 2.5743 101.823 2.80877 101.62 3.02366C101.42 3.2339 101.294 3.51119 101.21 3.92227C101.127 4.33177 100.993 4.62597 100.781 4.86786C100.545 5.13605 100.456 5.35331 100.401 5.78793C100.344 6.2447 100.266 6.4233 100.004 6.69307C99.7445 6.96017 99.6634 7.14253 99.6085 7.58229C99.56 7.97073 99.469 8.20589 99.3033 8.37163C98.9782 8.69668 98.8955 8.87428 98.8131 9.42421C98.7647 9.74659 98.6368 10.0246 98.4147 10.2905C98.1682 10.5856 98.0708 10.8161 98.0196 11.2259C97.9654 11.6597 97.8931 11.819 97.662 12.0134C97.4362 12.2034 97.3493 12.3883 97.2675 12.8523C97.1935 13.2731 97.0665 13.5692 96.8346 13.8622C96.5821 14.1812 96.4909 14.4107 96.4391 14.8576C96.4001 15.1938 96.3078 15.488 96.2199 15.5563C96.1365 15.6211 95.9161 15.8246 95.7302 16.0085L95.3922 16.343L95.0646 16.0085C94.8845 15.8246 94.6712 15.6229 94.5907 15.5603C94.5096 15.4974 94.4143 15.1923 94.3773 14.8771C94.3239 14.4223 94.2433 14.2333 93.9776 13.9392C93.7597 13.698 93.6199 13.4218 93.5726 13.1391C93.5262 12.8616 93.3858 12.58 93.1796 12.3509C92.9294 12.0728 92.8432 11.8695 92.7879 11.4273C92.7324 10.9827 92.6467 10.7821 92.3912 10.4983C92.1492 10.2294 92.0473 10.0043 91.9955 9.62358C91.9423 9.23355 91.8482 9.03113 91.6017 8.77737C91.3423 8.51037 91.2635 8.33039 91.2068 7.8754C91.1522 7.4388 91.0631 7.22421 90.8225 6.95018C90.6044 6.70187 90.4721 6.41173 90.3873 5.9955C90.293 5.53368 90.1996 5.34619 89.9764 5.17155C89.7334 4.98138 89.6762 4.84857 89.6168 4.33623C89.5656 3.89537 89.4851 3.66981 89.3254 3.51999C89.0222 3.23538 88.9138 2.99765 88.8328 2.43981C88.7828 2.09548 88.669 1.85784 88.4246 1.58728C88.2382 1.381 88.0857 1.13674 88.0857 1.04457C88.0857 0.952408 88.0396 0.790921 87.9833 0.685702C87.887 0.505722 87.7568 0.49455 85.783 0.495935C84.6292 0.496825 83.6361 0.53015 83.5763 0.570102ZM129.661 0.605405C129.609 0.689462 129.486 21.3345 129.52 24.28C129.53 25.1493 129.628 25.3547 130.071 25.4321C130.637 25.5311 143.814 25.5716 144.43 25.4762C145.03 25.3834 145.097 25.2992 145.287 24.3924C145.402 23.8386 145.394 23.671 145.206 22.7412L144.997 21.7063L139.706 21.6533C136.796 21.6242 134.32 21.5644 134.202 21.5206C134.064 21.4687 133.967 21.3227 133.926 21.1023C133.786 20.3579 133.854 15.1139 134.006 14.914C134.014 14.9038 136.076 14.8705 138.589 14.8398C142.144 14.7964 143.186 14.7556 143.286 14.6556C143.376 14.5662 143.425 14.1061 143.449 13.1403C143.494 11.3134 143.454 11.1199 142.99 10.9059C142.666 10.7569 142.186 10.7363 138.866 10.7289C136.799 10.7242 134.857 10.6846 134.55 10.6408C134.032 10.5668 133.987 10.5395 133.932 10.2621C133.85 9.85448 133.875 5.05456 133.96 4.74879C134.085 4.29924 134.433 4.26819 139.459 4.2581L144.107 4.24871L144.412 3.87965C144.923 3.26248 144.958 3.13135 144.978 1.7998L144.997 0.543895L137.364 0.518578C131.757 0.499986 129.712 0.52303 129.661 0.605405ZM169.447 0.562584C169.289 0.604019 169.274 0.798932 169.272 2.8503C169.271 4.08366 169.26 9.61853 169.247 15.1498C169.229 23.1904 169.25 25.2322 169.351 25.333C169.437 25.4191 169.955 25.4756 170.983 25.511C172.494 25.5632 173.316 25.4858 173.451 25.2786C173.491 25.2175 173.525 23.61 173.526 21.7063C173.528 19.8027 173.556 18.1466 173.588 18.0262C173.62 17.9057 173.787 17.7168 173.957 17.6065C174.128 17.496 174.396 17.3204 174.552 17.2161C174.724 17.1018 175.112 16.999 175.532 16.9569C175.92 16.9179 176.449 16.7835 176.731 16.6524C177.6 16.2478 178.424 16.3616 178.761 16.9324C178.866 17.1105 179.015 17.323 179.093 17.4046C179.3 17.6216 179.425 17.901 179.5 18.3142C179.536 18.5154 179.715 18.858 179.896 19.0757C180.124 19.3473 180.249 19.6202 180.297 19.9461C180.345 20.2788 180.456 20.5143 180.666 20.7335C180.865 20.9419 181.01 21.2382 181.099 21.6222C181.192 22.0225 181.308 22.2524 181.477 22.3762C181.65 22.5021 181.757 22.7198 181.842 23.1192C181.921 23.4865 182.061 23.7893 182.243 23.9846C182.398 24.1498 182.591 24.5118 182.673 24.7888C182.815 25.2652 182.847 25.2985 183.262 25.403C183.739 25.5232 186.964 25.5393 187.371 25.4236C187.592 25.3608 187.618 25.303 187.611 24.8787C187.607 24.548 187.556 24.3769 187.443 24.314C187.132 24.1398 187.002 23.9412 186.939 23.5412C186.898 23.2868 186.752 23.0013 186.543 22.7682C186.358 22.561 186.183 22.2368 186.145 22.0306C186.105 21.8121 185.938 21.5147 185.734 21.2985C185.514 21.065 185.369 20.796 185.329 20.5487C185.285 20.2717 185.177 20.0942 184.947 19.9188C184.688 19.7212 184.615 19.5814 184.562 19.1866C184.501 18.7202 184.368 18.4935 184.053 18.3175C183.974 18.2733 183.849 18.0027 183.774 17.7162C183.696 17.4144 183.52 17.0704 183.354 16.8981C183.151 16.6859 183.039 16.4323 182.962 16.0108C182.862 15.4607 182.87 15.4057 183.07 15.2012C183.189 15.0805 183.519 14.8483 183.802 14.6852C184.877 14.0679 185.987 13.1687 186.149 12.7839C186.223 12.6085 186.413 12.398 186.571 12.3163C186.787 12.2049 186.875 12.0731 186.923 11.7888C186.96 11.5662 187.122 11.2576 187.315 11.0409C187.583 10.7395 187.656 10.5592 187.712 10.0579C187.75 9.72029 187.84 9.19064 187.912 8.88111C188.033 8.36075 188.029 7.77661 187.901 7.41675C187.872 7.33516 187.809 6.83626 187.762 6.30799C187.676 5.34025 187.502 4.81822 187.232 4.71438C187.151 4.68333 187.035 4.46656 186.974 4.23259C186.906 3.97419 186.731 3.68464 186.527 3.49467C186.343 3.3227 186.164 3.06687 186.128 2.92605C186.093 2.78523 186.025 2.67003 185.976 2.67003C185.928 2.67003 185.721 2.52407 185.517 2.34567C185.077 1.96079 184.461 1.54417 184.083 1.37526C183.934 1.30851 183.811 1.21852 183.811 1.17531C183.811 1.13209 183.644 1.06682 183.44 1.03024C183.236 0.993646 182.815 0.858067 182.504 0.729114L181.938 0.49445L175.779 0.505921C172.392 0.51225 169.543 0.537763 169.447 0.562584ZM181.329 4.73258C182.349 5.25679 183.295 6.14502 183.424 6.70058C183.537 7.18574 183.534 9.1402 183.421 9.6304C183.372 9.84173 183.206 10.1385 183.052 10.29C182.898 10.4414 182.656 10.6936 182.514 10.8502C182.112 11.2933 180.574 12.0354 179.891 12.1163C179.572 12.1541 179.111 12.272 178.867 12.3785C178.622 12.4851 178.108 12.6078 177.725 12.6513C177.342 12.6947 176.896 12.7992 176.733 12.8834C176.361 13.0756 175.986 13.1381 174.846 13.1975C173.992 13.2419 173.932 13.2321 173.796 13.0236C173.676 12.8414 173.644 12.0989 173.614 8.77885C173.571 4.2404 173.532 4.4811 174.339 4.34157C174.572 4.30132 176.053 4.27679 177.631 4.28718L180.498 4.30596L181.329 4.73258Z" fill="white"/>
</svg>
