<svg width="80" height="12" viewBox="0 0 80 12" fill="none" xmlns="http://www.w3.org/2000/svg">
<path fill-rule="evenodd" clip-rule="evenodd" d="M17.1572 0.107937C17.1313 0.175982 17.1162 2.16624 17.1162 5.49348V10.7711L17.2319 10.8034C17.4295 10.8587 18.7245 10.8425 18.8276 10.7835L18.9189 10.7312L18.9328 7.43808C18.9404 5.62688 18.9617 4.12186 18.9799 4.09366C19.004 4.05646 19.0709 4.08377 19.2226 4.19281C19.3379 4.27558 19.4555 4.37636 19.484 4.41672C19.5125 4.45707 19.596 4.52112 19.6696 4.55903C19.7432 4.59695 19.8143 4.66234 19.8276 4.70434C19.85 4.77495 19.9744 4.92291 20.3316 5.30408C20.4086 5.38609 20.4834 5.49024 20.498 5.53552C20.5125 5.58076 20.5812 5.64994 20.6505 5.68928C20.7198 5.72859 20.8072 5.8252 20.8448 5.90398C20.8823 5.98275 20.9677 6.07946 21.0345 6.11893C21.1013 6.15836 21.1559 6.20839 21.1559 6.23011C21.1559 6.26348 21.4002 6.5426 21.586 6.72165C21.8201 6.94712 22.1202 7.27754 22.1959 7.39292C22.2298 7.44473 22.294 7.49867 22.3386 7.51286C22.3832 7.52699 22.4575 7.61254 22.5036 7.70298C22.5498 7.79341 22.6428 7.89596 22.7103 7.93089C22.7779 7.96585 22.8463 8.03584 22.8624 8.08642C22.8784 8.137 23.0407 8.32556 23.2231 8.50541C23.4053 8.68531 23.5545 8.86142 23.5545 8.89677C23.5545 8.93212 23.608 8.98871 23.6734 9.0225C23.7387 9.05629 23.8431 9.16095 23.9054 9.25504C23.9677 9.34914 24.0357 9.4261 24.0567 9.4261C24.0776 9.4261 24.1337 9.48914 24.1813 9.56615C24.2289 9.6432 24.3149 9.72765 24.3724 9.75383C24.4298 9.78004 24.5152 9.87658 24.5621 9.9684C24.6089 10.0602 24.6837 10.1469 24.7283 10.1611C24.7729 10.1753 24.843 10.2382 24.8841 10.3009C24.9252 10.3637 25.003 10.4498 25.057 10.4923C25.111 10.5349 25.1824 10.6222 25.2156 10.6863C25.2487 10.7504 25.3322 10.8263 25.4011 10.8548C25.4699 10.8833 25.5365 10.9333 25.549 10.9659C25.5643 11.0058 25.6396 11.0252 25.7789 11.0252C25.9587 11.0252 25.9892 11.0126 26.0098 10.9305C26.0516 10.763 26.0493 0.289727 26.0074 0.247814C25.9849 0.225385 25.6004 0.213518 25.1092 0.220041L24.2502 0.231444L24.2187 0.399768C24.2013 0.492345 24.1907 1.86523 24.1952 3.45063C24.1996 5.03602 24.1878 6.43378 24.1691 6.5567C24.1381 6.75974 24.1287 6.77467 24.0657 6.71951C24.0276 6.68605 23.9531 6.64553 23.9001 6.62937C23.8472 6.61321 23.757 6.52576 23.6997 6.43504C23.6424 6.34427 23.5777 6.27004 23.5559 6.27004C23.5028 6.27004 23.0881 5.85782 22.9959 5.71335C22.9555 5.65019 22.8672 5.5699 22.7996 5.53497C22.7321 5.5 22.6647 5.43331 22.6499 5.38668C22.6201 5.29271 22.1827 4.83929 22.1219 4.83929C22.1007 4.83929 22.045 4.76393 21.998 4.67185C21.951 4.57974 21.8559 4.47508 21.7867 4.43931C21.7175 4.4035 21.6609 4.35793 21.6609 4.33794C21.6609 4.30773 21.4359 4.04893 21.2286 3.84063C20.5796 3.18863 20.3214 2.90791 20.2954 2.82632C20.2795 2.77603 20.2222 2.71131 20.1681 2.68248C20.0662 2.62816 19.5989 2.12487 19.5989 2.06945C19.5989 2.05216 19.541 2.0038 19.4702 1.96198C19.3993 1.9201 19.3106 1.82134 19.273 1.74248C19.2354 1.66362 19.1904 1.59907 19.173 1.59907C19.1115 1.59907 18.642 1.1138 18.6127 1.02C18.5964 0.967691 18.5304 0.897626 18.466 0.86434C18.4016 0.831054 18.316 0.753583 18.2758 0.692145C18.1954 0.56948 17.8645 0.243648 17.669 0.0946818C17.5866 0.0319393 17.4862 0 17.3715 0C17.2242 0 17.1921 0.0162012 17.1572 0.107937ZM0.1724 0.252064C0.122703 0.272178 0.0670715 0.312871 0.0488084 0.342454C0.00399231 0.414917 -0.0210872 10.4652 0.0231397 10.6254C0.0489773 10.7191 0.0963164 10.7644 0.206442 10.801C0.41449 10.8702 3.36629 10.9594 4.30255 10.9247C6.21264 10.8541 6.73099 10.8228 6.77846 10.7754C6.8109 10.743 6.8274 10.5322 6.8274 10.1499C6.8274 9.45034 6.79697 9.27638 6.66854 9.24196C6.61703 9.22815 5.64758 9.21658 4.51417 9.21628C3.03642 9.21586 2.39061 9.2011 2.23129 9.16406L2.00914 9.11239V8.89782C2.00914 8.77982 1.99037 8.48589 1.96748 8.24464C1.94455 8.00339 1.91854 7.55035 1.9097 7.2379C1.89569 6.74366 1.90394 6.64927 1.97325 6.51201C2.01709 6.42523 2.05728 6.35088 2.06259 6.34684C2.06793 6.34276 2.9244 6.32858 3.9659 6.31528L5.85954 6.29108L5.9963 6.19354L6.13306 6.09599V5.43049V4.76502L5.91214 4.65759L5.69121 4.55016L3.87467 4.5369C2.87559 4.52962 2.04323 4.50875 2.025 4.49049C2.00678 4.47226 1.97013 3.9516 1.94358 3.33347C1.90024 2.32429 1.90217 2.1962 1.96273 2.07757C2.09667 1.81532 2.01891 1.82214 4.98215 1.81368L6.46134 1.80947L6.51166 1.59958C6.53935 1.48411 6.597 1.34516 6.6398 1.29079C6.75354 1.14616 6.81262 0.860847 6.79811 0.52601L6.78532 0.231444L3.52405 0.223449C1.73036 0.219073 0.22214 0.231949 0.1724 0.252064ZM35.5644 0.242596C35.4793 0.299448 35.4752 0.398842 35.5538 0.500131C35.5967 0.555341 35.6317 0.650148 35.6317 0.710787C35.6317 0.89893 35.7062 1.09296 35.8344 1.23898C35.9134 1.32895 35.9677 1.44817 35.9863 1.57214C36.0055 1.70015 36.0624 1.82159 36.155 1.93252C36.2469 2.04252 36.3046 2.16502 36.3234 2.29021C36.3424 2.41725 36.4001 2.53827 36.4968 2.65399C36.5765 2.74935 36.644 2.87294 36.6469 2.92861C36.6498 2.98429 36.6569 3.04875 36.6627 3.0719C36.6685 3.09504 36.6756 3.14171 36.6785 3.17563C36.6814 3.20955 36.7452 3.3073 36.8204 3.39289C36.9172 3.50314 36.972 3.62312 37.0087 3.80465C37.0455 3.98695 37.0906 4.08516 37.165 4.14525C37.2347 4.20147 37.2868 4.30689 37.3211 4.46086C37.3548 4.61206 37.4203 4.74596 37.5105 4.84809C37.6117 4.96272 37.6558 5.06123 37.6768 5.21928C37.6972 5.37326 37.7441 5.48077 37.8417 5.59763C37.9316 5.70523 37.988 5.82718 38.0073 5.95561C38.0278 6.09217 38.0796 6.19804 38.1807 6.30998C38.26 6.39776 38.325 6.50519 38.3251 6.54866C38.3256 6.7161 38.4148 6.93681 38.531 7.05842C38.6188 7.15033 38.6606 7.24661 38.6828 7.40778C38.7058 7.57509 38.743 7.65736 38.8329 7.73938C38.9172 7.81647 38.9703 7.92588 39.0138 8.11226C39.0544 8.28643 39.1194 8.42622 39.2051 8.5238C39.2765 8.60506 39.335 8.70404 39.3351 8.74376C39.3356 8.90472 39.4266 9.12699 39.5409 9.24663C39.6277 9.33748 39.6706 9.43494 39.6919 9.59005C39.7134 9.74625 39.7609 9.85356 39.8625 9.97513C39.9569 10.0881 40.013 10.2082 40.0327 10.3394C40.0524 10.4711 40.098 10.5683 40.1718 10.6365C40.2322 10.6922 40.3102 10.7977 40.3451 10.8709C40.4025 10.9913 40.427 11.0041 40.5976 11.0041C40.7741 11.0041 40.7896 10.995 40.8312 10.8661C40.8558 10.7902 40.9341 10.6749 41.0052 10.6099C41.1066 10.5173 41.1412 10.4425 41.1653 10.264C41.1999 10.0077 41.2461 9.90124 41.364 9.8058C41.4143 9.76502 41.4684 9.62889 41.5066 9.44676C41.5516 9.23169 41.5959 9.13082 41.6724 9.06884C41.7779 8.98337 41.8597 8.77414 41.8597 8.58987C41.8597 8.53466 41.9246 8.41763 42.0039 8.32985C42.105 8.21792 42.1568 8.11204 42.1773 7.97549C42.1968 7.84572 42.2531 7.7249 42.3463 7.61343C42.4382 7.50343 42.4959 7.38093 42.5146 7.25574C42.5332 7.1316 42.5909 7.00822 42.6803 6.90125C42.7709 6.79281 42.8272 6.67111 42.8466 6.54239C42.8667 6.40798 42.9189 6.29979 43.0148 6.19312C43.1215 6.07462 43.161 5.98461 43.1843 5.80715C43.2066 5.63693 43.2463 5.54229 43.3342 5.44946C43.4663 5.3098 43.5429 5.13941 43.5429 4.98523C43.5429 4.92611 43.6032 4.82385 43.6883 4.73876C43.8021 4.62498 43.84 4.54633 43.8624 4.3767C43.8833 4.21995 43.9296 4.11403 44.0303 3.9936C44.1226 3.88305 44.1791 3.7619 44.1984 3.63271C44.2184 3.49965 44.2707 3.39037 44.3641 3.28664C44.4655 3.1739 44.5083 3.07813 44.5308 2.91321C44.5529 2.75112 44.5989 2.64604 44.7018 2.52287C44.7961 2.40997 44.8523 2.28978 44.8719 2.15879C44.8932 2.0171 44.9398 1.92473 45.0412 1.82328C45.148 1.71656 45.1877 1.63366 45.2089 1.47388C45.2297 1.31747 45.271 1.22914 45.3722 1.12495C45.4879 1.00586 45.5156 0.934488 45.5619 0.637188C45.5962 0.416432 45.6013 0.274198 45.5759 0.248781C45.5523 0.225132 45.1671 0.21335 44.6371 0.220083L43.7383 0.231444L43.7056 0.353732C43.6876 0.421019 43.6168 0.534637 43.5482 0.606216C43.459 0.699299 43.4151 0.796421 43.3942 0.946818C43.3735 1.09545 43.3289 1.19522 43.2424 1.28666C43.1576 1.37613 43.1039 1.49412 43.0682 1.66905C43.0326 1.84331 42.9758 1.9685 42.8854 2.07143C42.7852 2.18555 42.7471 2.278 42.724 2.46295C42.6997 2.65732 42.6663 2.73332 42.5549 2.84811C42.4445 2.96177 42.41 3.03937 42.3866 3.2265C42.366 3.3918 42.3272 3.49187 42.2567 3.56239C42.1184 3.70071 42.0832 3.77629 42.0481 4.0103C42.0275 4.14748 41.9731 4.26577 41.8786 4.37893C41.7737 4.5045 41.7323 4.60259 41.7105 4.77697C41.6874 4.96158 41.6566 5.02937 41.5583 5.1121C41.4622 5.19294 41.4252 5.27163 41.3904 5.46907C41.3589 5.64813 41.3049 5.77412 41.2062 5.8988C41.0988 6.03456 41.06 6.13223 41.0379 6.32239C41.0213 6.46546 40.982 6.59065 40.9446 6.61969C40.9092 6.64725 40.8154 6.73385 40.7362 6.81212L40.5924 6.95449L40.453 6.81212C40.3764 6.73385 40.2856 6.64805 40.2514 6.62142C40.2168 6.59465 40.1763 6.46479 40.1605 6.33068C40.1378 6.13715 40.1035 6.05673 39.9904 5.93158C39.8977 5.82895 39.8382 5.71142 39.8181 5.59111C39.7984 5.47303 39.7386 5.35318 39.6509 5.25568C39.5444 5.13735 39.5077 5.05083 39.4842 4.86269C39.4606 4.67349 39.4241 4.58811 39.3154 4.46734C39.2124 4.35292 39.1691 4.25715 39.147 4.09514C39.1244 3.92917 39.0843 3.84303 38.9795 3.73505C38.8691 3.62143 38.8355 3.54485 38.8114 3.35123C38.7882 3.16544 38.7502 3.07413 38.6479 2.95752C38.5551 2.85186 38.4988 2.72839 38.4627 2.55127C38.4226 2.35476 38.3828 2.27497 38.2878 2.20066C38.1844 2.11974 38.1601 2.06322 38.1348 1.8452C38.113 1.65761 38.0788 1.56162 38.0108 1.49787C37.8818 1.37676 37.8357 1.2756 37.8012 1.03822C37.7799 0.891692 37.7315 0.790572 37.6275 0.675439C37.5482 0.587658 37.4833 0.483718 37.4833 0.444499C37.4833 0.40528 37.4637 0.336562 37.4397 0.291788C37.3987 0.215201 37.3433 0.210447 36.5034 0.211036C36.0124 0.211415 35.5898 0.225596 35.5644 0.242596ZM55.1751 0.257619C55.153 0.293388 55.1005 9.07852 55.1149 10.3319C55.1192 10.7018 55.161 10.7892 55.3495 10.8222C55.5902 10.8643 61.1974 10.8815 61.4595 10.8409C61.7151 10.8014 61.7434 10.7656 61.8241 10.3797C61.8734 10.1441 61.87 10.0728 61.7899 9.67711L61.7008 9.23674L59.4495 9.21418C58.2112 9.20177 57.1573 9.17635 57.1074 9.15771C57.0484 9.13562 57.0073 9.07347 56.9897 8.97971C56.9302 8.66292 56.9592 6.43146 57.0238 6.34637C57.0271 6.34204 57.9047 6.32786 58.974 6.31481C60.4868 6.29634 60.9303 6.27896 60.9728 6.23642C61.0109 6.19838 61.032 6.00257 61.0421 5.59161C61.0614 4.81421 61.0445 4.73186 60.8467 4.6408C60.709 4.57738 60.5048 4.56863 59.0918 4.56547C58.2123 4.5635 57.3858 4.54662 57.2552 4.52798C57.0347 4.4965 57.0158 4.48489 56.9922 4.36685C56.9574 4.1934 56.9679 2.15088 57.0041 2.02076C57.0574 1.82946 57.2054 1.81625 59.3443 1.81196L61.3221 1.80796L61.452 1.65091C61.6693 1.38829 61.6845 1.33249 61.6929 0.765871L61.7008 0.231444L58.4527 0.220671C56.0667 0.21276 55.1968 0.222566 55.1751 0.257619ZM72.1053 0.239398C72.0379 0.257029 72.0316 0.339971 72.0307 1.2129C72.0301 1.73773 72.0254 4.09299 72.0201 6.44674C72.0125 9.86824 72.0214 10.7371 72.0642 10.78C72.1008 10.8166 72.3213 10.8407 72.7585 10.8558C73.4015 10.878 73.7513 10.845 73.8089 10.7569C73.8259 10.7309 73.8404 10.0468 73.841 9.23674C73.8417 8.42668 73.8535 7.72195 73.8672 7.6707C73.881 7.61945 73.9517 7.53907 74.0245 7.49211C74.0972 7.4451 74.2111 7.37037 74.2776 7.32602C74.3506 7.27737 74.5158 7.23361 74.6943 7.21568C74.8596 7.1991 75.0848 7.14191 75.2047 7.08611C75.5743 6.91396 75.9253 6.9624 76.0684 7.20529C76.113 7.28107 76.1767 7.37151 76.2098 7.40622C76.298 7.49855 76.3512 7.61743 76.383 7.79328C76.3984 7.87887 76.4744 8.02468 76.5517 8.1173C76.6483 8.2329 76.7017 8.349 76.722 8.4877C76.7426 8.62926 76.7896 8.7295 76.879 8.82275C76.964 8.91145 77.0255 9.03753 77.0635 9.20093C77.1031 9.37127 77.1522 9.46911 77.2244 9.52179C77.298 9.57536 77.3435 9.66798 77.3798 9.83794C77.4131 9.99423 77.4729 10.1231 77.5504 10.2062C77.616 10.2765 77.6984 10.4305 77.7334 10.5484C77.7936 10.7511 77.8071 10.7653 77.9838 10.8098C78.1869 10.8609 79.5592 10.8678 79.7324 10.8186C79.8265 10.7918 79.8373 10.7672 79.8347 10.5867C79.8327 10.446 79.8109 10.3731 79.7631 10.3464C79.6308 10.2723 79.5755 10.1877 79.5483 10.0175C79.531 9.90927 79.4689 9.78778 79.3801 9.6886C79.3012 9.60044 79.2267 9.46246 79.2107 9.37472C79.1937 9.28172 79.1226 9.15518 79.0359 9.0632C78.9422 8.96384 78.8803 8.84934 78.8635 8.74414C78.8447 8.62627 78.7989 8.55074 78.701 8.47609C78.5908 8.39201 78.5595 8.33251 78.5372 8.16452C78.5109 7.96602 78.4543 7.86957 78.3205 7.79467C78.2869 7.77586 78.2335 7.66073 78.2019 7.53882C78.1686 7.41039 78.0934 7.26399 78.0231 7.19068C77.9365 7.10038 77.8889 6.99248 77.8563 6.81309C77.8137 6.579 77.8168 6.5556 77.9023 6.46858C77.9528 6.41724 78.093 6.31843 78.2138 6.249C78.6709 5.98633 79.1432 5.60369 79.2125 5.43995C79.244 5.3653 79.3248 5.27575 79.3921 5.241C79.4838 5.19357 79.5211 5.13748 79.5415 5.0165C79.5576 4.92177 79.6264 4.79048 79.7085 4.69824C79.8226 4.57002 79.8536 4.49326 79.8776 4.27996C79.8938 4.13629 79.9321 3.91091 79.9627 3.77919C80.0142 3.55776 80.0122 3.30919 79.9578 3.15606C79.9454 3.12134 79.9189 2.90905 79.8989 2.68425C79.8622 2.27245 79.7882 2.0503 79.673 2.00612C79.6387 1.99291 79.5893 1.90066 79.5632 1.8011C79.5344 1.69114 79.46 1.56793 79.3734 1.48709C79.295 1.41391 79.2186 1.30505 79.2036 1.24513C79.1886 1.18521 79.1594 1.13618 79.1388 1.13618C79.1183 1.13618 79.0304 1.07407 78.9435 0.998157C78.7562 0.834378 78.4942 0.657092 78.3332 0.585218C78.2696 0.556814 78.2175 0.51852 78.2175 0.500131C78.2175 0.481742 78.1465 0.453968 78.0597 0.438398C77.9729 0.422828 77.7936 0.365135 77.6612 0.310261L77.4205 0.210404L74.7997 0.215285C73.3583 0.217978 72.1458 0.228835 72.1053 0.239398ZM77.1612 2.01386C77.5954 2.23693 77.9978 2.6149 78.0527 2.85131C78.1007 3.05776 78.0997 3.88945 78.0513 4.09804C78.0305 4.18797 77.9599 4.31425 77.8945 4.37872C77.8291 4.44314 77.7261 4.55045 77.6656 4.61711C77.4943 4.80567 76.8401 5.12145 76.5493 5.15587C76.4137 5.17194 76.2176 5.22214 76.1135 5.26746C76.0093 5.31279 75.7908 5.36501 75.6278 5.38352C75.4649 5.402 75.2748 5.44648 75.2056 5.48229C75.0474 5.56409 74.8877 5.59069 74.4026 5.61594C74.0391 5.63483 74.0138 5.63066 73.9557 5.54196C73.9048 5.4644 73.8912 5.14846 73.8781 3.73568C73.8601 1.80442 73.8434 1.90685 74.1868 1.84747C74.2859 1.83035 74.9163 1.81991 75.5875 1.82433L76.8078 1.83232L77.1612 2.01386Z" fill="white"/>
</svg>
