<svg width="474" height="640" viewBox="0 0 474 640" fill="none" xmlns="http://www.w3.org/2000/svg">
<path d="M290.31 1.20898L293.85 16.319L308.31 21.969L295.04 30.009L294.13 45.509L282.38 35.369L267.36 39.299L273.38 24.989L265 11.919L280.47 13.219L290.31 1.20898Z" stroke="white" stroke-linecap="round" stroke-linejoin="round"/>
<path d="M176.6 5.14893L180.05 19.8389L194.1 25.3189L181.2 33.1389L180.32 48.1989L168.9 38.3489L154.3 42.1689L160.15 28.2589L152 15.5589L167.04 16.8189L176.6 5.14893Z" stroke="white" stroke-linecap="round" stroke-linejoin="round"/>
<path d="M79.28 62.5991L82.69 77.0991L96.5601 82.5191L83.82 90.2391L82.95 105.109L71.6801 95.3791L57.27 99.1491L63.04 85.4191L55 72.8791L69.84 74.1191L79.28 62.5991Z" stroke="white" stroke-linecap="round" stroke-linejoin="round"/>
<path d="M24.62 162.619L27.78 176.119L40.7 181.169L28.84 188.349L28.03 202.199L17.53 193.139L4.12 196.649L9.49002 183.869L2 172.189L15.82 173.349L24.62 162.619Z" stroke="white" stroke-linecap="round" stroke-linejoin="round"/>
<path d="M26.36 276.419L29.91 291.559L44.4 297.219L31.1 305.279L30.19 320.809L18.42 310.649L3.37 314.589L9.38998 300.249L1 287.149L16.5 288.449L26.36 276.419Z" stroke="white" stroke-linecap="round" stroke-linejoin="round"/>
<path d="M84.14 375.309L87.24 388.529L99.89 393.469L88.28 400.499L87.49 414.059L77.21 405.189L64.07 408.629L69.33 396.109L62 384.669L75.53 385.809L84.14 375.309Z" stroke="white" stroke-linecap="round" stroke-linejoin="round"/>
<path d="M390.18 54.2991L380.39 66.2491L365 64.9591L373.34 77.9591L367.36 92.1991L382.3 88.2791L393.99 98.3791L394.89 82.9591L408.1 74.9491L393.71 69.3391L390.18 54.2991Z" stroke="white" stroke-linecap="round" stroke-linejoin="round"/>
<path d="M451.42 148.759L441.93 160.339L427 159.089L435.09 171.689L429.29 185.499L443.77 181.709L455.11 191.489L455.98 176.539L468.78 168.779L454.84 163.339L451.42 148.759Z" fill="white" stroke="black" stroke-linecap="round" stroke-linejoin="round"/>
<path d="M456.32 262.279L447.25 273.349L433 272.149L440.72 284.189L435.18 297.379L449.02 293.759L459.85 303.109L460.68 288.829L472.91 281.409L459.59 276.209L456.32 262.279Z" fill="white" stroke="black" stroke-linecap="round" stroke-linejoin="round"/>
<path d="M403.94 368.679L396.19 378.139L384 377.119L390.6 387.419L385.86 398.699L397.69 395.599L406.95 403.589L407.66 391.379L418.13 385.039L406.73 380.589L403.94 368.679Z" stroke="white" stroke-linecap="round" stroke-linejoin="round"/>
<path d="M309.91 427.949L301.39 438.349L288 437.219L295.26 448.539L290.05 460.929L303.05 457.519L313.23 466.299L314.01 452.889L325.5 445.919L312.98 441.029L309.91 427.949Z" stroke="white" stroke-linecap="round" stroke-linejoin="round"/>
<path d="M197.81 536.409C196.81 539.909 194.06 548.339 186.98 551.049C185.39 551.659 182.98 552.189 172.98 549.699C160.37 546.569 155.32 543.549 142.82 540.419C139.58 539.609 136.91 539.059 135.21 538.729C133.177 542.624 132.263 547.006 132.57 551.389L177.16 566.319C177.042 567.81 176.798 569.289 176.43 570.739C175.82 573.099 173.98 580.009 169.2 582.239C167.44 583.059 165.13 583.239 161.98 582.169C151.69 578.829 141.21 576.069 129.98 572.809C129.98 579.749 131.46 585.429 134.26 590.099C137.953 596.034 143.442 600.637 149.93 603.239C171.42 612.619 196.01 594.169 197.16 593.239L221.7 613.239C218.028 617.197 214.012 620.821 209.7 624.069C209.18 624.459 199.7 632.069 190.19 635.259C173.71 640.759 156.27 637.849 138.75 631.499C123.2 625.859 110.87 617.169 102.66 605.179C94.17 592.779 92.3 578.899 91.66 574.719C91.0405 570.371 90.7896 565.979 90.91 561.589L71 554.459L77 534.789L94.43 540.599C95.5033 536.299 96.58 531.996 97.66 527.689L80.81 521.079L87.05 501.599L106.81 507.089C108.173 504.016 109.768 501.051 111.58 498.219C118.661 487.147 128.82 478.382 140.81 472.999C151.71 468.259 164.04 466.729 177.61 468.559C197.79 471.289 216.39 477.439 229.61 491.419C234.492 496.723 238.489 502.777 241.45 509.349C243.737 514.498 245.353 519.919 246.26 525.479L213.26 531.719C212.814 525.123 210.458 518.799 206.48 513.519C198.93 503.709 188.09 501.589 183.68 500.599C177.628 499.107 171.289 499.231 165.3 500.959C162.76 501.729 152.85 504.599 147.24 513.839C146.307 515.373 145.539 517.003 144.95 518.699L197.81 536.409Z" stroke="white" stroke-width="2" stroke-linecap="round" stroke-linejoin="round"/>
<path d="M196.84 530.589C195.84 534.099 193.09 542.529 186.01 545.239C184.42 545.849 182.01 546.379 172.01 543.889C159.4 540.759 154.35 537.739 141.85 534.609C138.61 533.799 135.94 533.249 134.24 532.919C133.081 534.862 132.187 536.95 131.58 539.129C130.954 541.336 130.617 543.615 130.58 545.909L176.16 560.509C176.042 562 175.798 563.479 175.43 564.929C174.82 567.289 172.98 574.199 168.2 576.429C166.44 577.249 164.13 577.429 160.98 576.359C150.69 573.019 140.21 570.259 128.98 566.999C128.98 573.939 130.46 579.619 133.26 584.289C136.953 590.224 142.442 594.827 148.93 597.429C170.42 606.809 195.01 588.359 196.16 587.429L220.7 607.429C217.028 611.387 213.012 615.011 208.7 618.259C208.18 618.649 198.7 626.259 189.19 629.449C172.71 634.949 155.27 632.039 137.75 625.689C122.2 620.049 109.87 611.359 101.66 599.369C93.17 586.969 91.3 573.089 90.66 568.909C90.0406 564.561 89.7897 560.169 89.91 555.779L70 548.649L76 528.979L93.4301 534.789C94.4967 530.489 95.5734 526.186 96.66 521.879L79.84 515.269L86.08 495.789L105.84 501.279C107.203 498.206 108.798 495.241 110.61 492.409C117.693 481.34 127.851 472.579 139.84 467.199C150.74 462.459 163.07 460.919 176.64 462.759C196.82 465.479 215.42 471.639 228.64 485.619C233.518 490.922 237.516 496.972 240.48 503.539C242.767 508.691 244.383 514.116 245.29 519.679L212.29 525.919C211.844 519.32 209.488 512.993 205.51 507.709C197.96 497.909 187.12 495.789 182.71 494.799C176.658 493.307 170.319 493.431 164.33 495.159C161.79 495.929 151.88 498.799 146.27 508.039C145.337 509.573 144.569 511.203 143.98 512.899L196.84 530.589Z" fill="#232323" stroke="white" stroke-width="2" stroke-linecap="round" stroke-linejoin="round"/>
<path d="M152.593 391.759L128.963 341.329L102.283 279.619C98.613 268.769 80.2029 211.789 100.083 163.619C103.603 155.089 110.193 139.119 126.313 124.759C136.048 116.13 147.44 109.577 159.793 105.499C170.982 95.0318 185.076 88.1956 200.223 85.8889C207.975 84.7451 215.859 84.8328 223.583 86.1489C234.386 87.8989 245.342 88.5189 256.273 87.9989C278.706 87.0389 300.617 94.9411 317.273 109.999C344.431 122.867 365.964 145.199 377.833 172.809C385.773 187.739 397.543 215.749 393.833 249.959C388.713 297.439 356.553 331.379 345.833 342.699C345.233 343.339 344.743 343.839 344.523 344.069C334.373 354.529 317.073 365.989 282.453 388.909C274.563 394.129 262.133 401.569 247.153 411.649" fill="#232323"/>
<path d="M152.593 391.759L128.963 341.329L102.283 279.619C98.613 268.769 80.2029 211.789 100.083 163.619C103.603 155.089 110.193 139.119 126.313 124.759C136.048 116.13 147.44 109.577 159.793 105.499C170.982 95.0318 185.076 88.1956 200.223 85.8889C207.975 84.7451 215.859 84.8328 223.583 86.1489C234.386 87.8989 245.342 88.5189 256.273 87.9989C278.706 87.0389 300.617 94.9411 317.273 109.999C344.431 122.867 365.964 145.199 377.833 172.809C385.773 187.739 397.543 215.749 393.833 249.959C388.713 297.439 356.553 331.379 345.833 342.699C345.233 343.339 344.743 343.839 344.523 344.069C334.373 354.529 317.073 365.989 282.453 388.909C274.563 394.129 262.133 401.569 247.153 411.649" stroke="white" stroke-width="2" stroke-linecap="round" stroke-linejoin="round"/>
<path d="M153 391.759L179.67 381.429L215.55 386.089L234.02 397.209L247.6 411.629L239.36 425.969L157.24 405.899L153 391.759Z" fill="#232323" stroke="white" stroke-width="2" stroke-linecap="round" stroke-linejoin="round"/>
<path d="M239.556 425.857C241.046 420.161 223.482 410.633 200.325 404.576C177.168 398.518 157.188 398.224 155.698 403.92C154.208 409.616 171.772 419.144 194.929 425.202C218.086 431.259 238.066 431.553 239.556 425.857Z" fill="#232323" stroke="white" stroke-width="2" stroke-linecap="round" stroke-linejoin="round"/>
<path d="M179.752 381.429C179.752 381.429 159.342 285.669 162.292 236.689" stroke="white" stroke-width="2" stroke-linecap="round" stroke-linejoin="round"/>
<path d="M215 386.089C215 386.089 221.63 356.919 227.08 344.999C232.53 333.079 264.15 244.439 271.59 216.199" stroke="white" stroke-width="2" stroke-linecap="round" stroke-linejoin="round"/>
<path d="M234 397.199C234 397.199 267 356.999 275.82 346.999C284.64 336.999 311.93 312.199 325.67 282.999" stroke="white" stroke-width="2" stroke-linecap="round" stroke-linejoin="round"/>
<path d="M156 361.639L165.73 386.889" stroke="white" stroke-width="2" stroke-linecap="round" stroke-linejoin="round"/>
<path d="M241 405.379L274.55 373.599" stroke="white" stroke-width="2" stroke-linecap="round" stroke-linejoin="round"/>
<path d="M239 427.589L194 448.279" stroke="white" stroke-width="2" stroke-linecap="round" stroke-linejoin="round"/>
<path d="M156 405.259L193.52 448.109" stroke="white" stroke-width="2" stroke-linecap="round" stroke-linejoin="round"/>
<path d="M205.78 405.929C201.31 427.449 201.34 435.549 194 448.039" stroke="white" stroke-width="2" stroke-linecap="round" stroke-linejoin="round"/>
<path d="M93.7 534.849L92 543.729" stroke="white" stroke-width="2" stroke-linecap="round" stroke-linejoin="round"/>
<path d="M106.04 500.329L102 509.849" stroke="white" stroke-width="2" stroke-linecap="round" stroke-linejoin="round"/>
<path d="M176 461.899C177.72 453.159 186.17 446.999 193.43 448.679C201.25 450.489 206.65 460.039 203.12 469.019" stroke="white" stroke-width="2" stroke-linecap="round" stroke-linejoin="round"/>
</svg>
