<svg width="121" height="121" viewBox="0 0 121 121" fill="none" xmlns="http://www.w3.org/2000/svg">
<path fill-rule="evenodd" clip-rule="evenodd" d="M60.5 60.5C60.5 52.1467 67.2717 45.375 75.625 45.375C83.9783 45.375 90.75 52.1467 90.75 60.5C90.75 68.8533 83.9783 75.625 75.625 75.625C67.2717 75.625 60.5 68.8533 60.5 60.5Z" fill="white"/>
<path fill-rule="evenodd" clip-rule="evenodd" d="M30.25 90.75C30.25 82.3967 37.0217 75.625 45.375 75.625H60.5V90.75C60.5 99.1033 53.7283 105.875 45.375 105.875C37.0217 105.875 30.25 99.1033 30.25 90.75Z" fill="white"/>
<path fill-rule="evenodd" clip-rule="evenodd" d="M60.5 15.125V45.375H75.625C83.9783 45.375 90.75 38.6033 90.75 30.25C90.75 21.8967 83.9783 15.125 75.625 15.125H60.5Z" fill="white"/>
<path fill-rule="evenodd" clip-rule="evenodd" d="M30.25 30.25C30.25 38.6033 37.0217 45.375 45.375 45.375H60.5V15.125H45.375C37.0217 15.125 30.25 21.8967 30.25 30.25Z" fill="white"/>
<path fill-rule="evenodd" clip-rule="evenodd" d="M30.25 60.5C30.25 68.8533 37.0217 75.625 45.375 75.625H60.5V45.375H45.375C37.0217 45.375 30.25 52.1467 30.25 60.5Z" fill="white"/>
</svg>
