<svg width="336" height="323" viewBox="0 0 336 323" fill="none" xmlns="http://www.w3.org/2000/svg">
<path d="M260.609 -9.30859L262.441 -1.52167L269.889 1.38902L263.047 5.53488L262.58 13.5205L256.528 8.29522L248.789 10.3198L251.888 2.94641L247.57 -3.78794L255.54 -3.12203L260.609 -9.30859Z" stroke="white" stroke-linecap="round" stroke-linejoin="round"/>
<path d="M231.255 44.4048L232.952 51.6547L239.89 54.3667L233.521 58.2225L233.086 65.6604L227.447 60.7949L220.246 62.6799L223.13 55.8166L219.107 49.5442L226.529 50.1671L231.255 44.4048Z" stroke="white" stroke-linecap="round" stroke-linejoin="round"/>
<path d="M232.189 105.519L234.096 113.649L241.877 116.689L234.735 121.017L234.246 129.357L227.925 123.901L219.843 126.017L223.076 118.316L218.57 111.281L226.894 111.979L232.189 105.519Z" stroke="white" stroke-linecap="round" stroke-linejoin="round"/>
<path d="M263.22 158.624L264.884 165.724L271.678 168.377L265.443 172.152L265.019 179.434L259.498 174.671L252.441 176.518L255.266 169.794L251.33 163.651L258.596 164.263L263.22 158.624Z" stroke="white" stroke-linecap="round" stroke-linejoin="round"/>
<path d="M324.262 245.141C323.725 247.021 322.248 251.548 318.446 253.003C317.592 253.331 316.298 253.616 310.927 252.278C304.155 250.597 301.443 248.976 294.731 247.295C292.991 246.86 291.557 246.564 290.644 246.387C289.552 248.479 289.061 250.832 289.226 253.186L313.172 261.204C313.109 262.005 312.978 262.799 312.78 263.577C312.452 264.845 311.464 268.556 308.897 269.753C307.952 270.194 306.712 270.29 305.02 269.716C299.494 267.922 293.866 266.44 287.835 264.689C287.835 268.416 288.63 271.466 290.134 273.974C292.117 277.162 295.065 279.634 298.549 281.031C310.09 286.068 323.295 276.16 323.913 275.661L337.091 286.401C335.119 288.527 332.963 290.473 330.647 292.217C330.368 292.427 325.277 296.513 320.17 298.227C311.319 301.18 301.954 299.617 292.545 296.207C284.194 293.178 277.572 288.512 273.163 282.073C268.604 275.414 267.6 267.96 267.256 265.715C266.923 263.38 266.789 261.021 266.853 258.664L256.161 254.835L259.383 244.271L268.744 247.391C269.32 245.082 269.898 242.771 270.478 240.458L261.429 236.909L264.78 226.447L275.392 229.396C276.124 227.745 276.981 226.153 277.954 224.632C281.756 218.686 287.212 213.979 293.651 211.088C299.505 208.543 306.126 207.721 313.414 208.704C324.251 210.17 334.24 213.473 341.339 220.98C343.961 223.829 346.108 227.08 347.698 230.609C348.926 233.374 349.794 236.286 350.281 239.272L332.559 242.623C332.319 239.08 331.054 235.684 328.918 232.849C324.863 227.58 319.042 226.442 316.673 225.91C313.423 225.109 310.019 225.176 306.803 226.104C305.439 226.517 300.117 228.058 297.104 233.021C296.603 233.845 296.191 234.719 295.874 235.63L324.262 245.141Z" stroke="white" stroke-width="2" stroke-linecap="round" stroke-linejoin="round"/>
<path d="M323.742 242.015C323.205 243.9 321.728 248.427 317.926 249.882C317.072 250.21 315.778 250.494 310.407 249.157C303.636 247.476 300.924 245.854 294.211 244.174C292.471 243.739 291.037 243.443 290.124 243.266C289.502 244.309 289.021 245.431 288.695 246.601C288.359 247.786 288.179 249.01 288.158 250.242L312.636 258.083C312.573 258.883 312.442 259.678 312.244 260.456C311.917 261.724 310.928 265.434 308.361 266.632C307.416 267.072 306.176 267.169 304.484 266.594C298.958 264.801 293.33 263.319 287.299 261.568C287.299 265.295 288.094 268.345 289.598 270.853C291.581 274.04 294.529 276.512 298.013 277.91C309.554 282.947 322.759 273.039 323.377 272.539L336.555 283.28C334.583 285.405 332.427 287.352 330.111 289.096C329.832 289.305 324.741 293.392 319.634 295.105C310.783 298.059 301.418 296.496 292.009 293.086C283.658 290.057 277.037 285.39 272.628 278.951C268.068 272.292 267.064 264.838 266.72 262.594C266.388 260.259 266.253 257.9 266.317 255.542L255.625 251.713L258.847 241.15L268.208 244.27C268.781 241.961 269.359 239.65 269.942 237.337L260.91 233.787L264.261 223.326L274.872 226.274C275.604 224.624 276.461 223.032 277.434 221.511C281.238 215.567 286.693 210.862 293.131 207.972C298.985 205.427 305.606 204.6 312.894 205.588C323.731 207.049 333.72 210.357 340.819 217.864C343.439 220.712 345.586 223.961 347.178 227.488C348.406 230.255 349.274 233.168 349.761 236.156L332.039 239.507C331.799 235.963 330.534 232.565 328.398 229.727C324.343 224.465 318.522 223.326 316.154 222.794C312.903 221.993 309.5 222.06 306.283 222.988C304.919 223.401 299.597 224.943 296.584 229.905C296.083 230.729 295.671 231.604 295.355 232.515L323.742 242.015Z" fill="#232323" stroke="white" stroke-width="2" stroke-linecap="round" stroke-linejoin="round"/>
<path d="M299.98 167.459L287.29 140.377L272.962 107.237C270.991 101.41 261.104 70.81 271.78 44.9413C273.671 40.3604 277.21 31.7841 285.867 24.0724C291.095 19.4385 297.212 15.9191 303.846 13.7292C309.855 8.10811 317.424 4.43686 325.558 3.19808C329.721 2.58381 333.955 2.63092 338.103 3.33769C343.905 4.27753 349.788 4.61049 355.659 4.3312C367.706 3.81568 379.473 8.05938 388.418 16.1458C403.002 23.0563 414.566 35.0494 420.94 49.8766C425.204 57.8944 431.525 72.9366 429.532 91.3083C426.783 116.806 409.512 135.033 403.755 141.112C403.433 141.456 403.17 141.725 403.052 141.848C397.601 147.465 388.31 153.62 369.718 165.928C365.481 168.732 358.806 172.727 350.761 178.14" fill="#232323"/>
<path d="M299.98 167.459L287.29 140.377L272.962 107.237C270.991 101.41 261.104 70.81 271.78 44.9413C273.671 40.3604 277.21 31.7841 285.867 24.0724C291.095 19.4385 297.212 15.9191 303.846 13.7292C309.855 8.10811 317.424 4.43686 325.558 3.19808C329.721 2.58381 333.955 2.63092 338.103 3.33769C343.905 4.27753 349.788 4.61049 355.659 4.3312C367.706 3.81568 379.473 8.05938 388.418 16.1458C403.002 23.0563 414.566 35.0494 420.94 49.8766C425.204 57.8944 431.525 72.9366 429.532 91.3083C426.783 116.806 409.512 135.033 403.755 141.112C403.433 141.456 403.17 141.725 403.052 141.848C397.601 147.465 388.31 153.62 369.718 165.928C365.481 168.732 358.806 172.727 350.761 178.14" stroke="white" stroke-width="2" stroke-linecap="round" stroke-linejoin="round"/>
<path d="M300.198 167.458L314.521 161.91L333.789 164.413L343.708 170.384L351.001 178.128L346.576 185.829L302.475 175.051L300.198 167.458Z" fill="#232323" stroke="white" stroke-width="2" stroke-linecap="round" stroke-linejoin="round"/>
<path d="M346.681 185.77C347.481 182.711 338.049 177.594 325.613 174.341C313.177 171.088 302.447 170.93 301.647 173.989C300.847 177.048 310.28 182.165 322.715 185.418C335.151 188.671 345.881 188.829 346.681 185.77Z" fill="#232323" stroke="white" stroke-width="2" stroke-linecap="round" stroke-linejoin="round"/>
<path d="M314.566 161.911C314.566 161.911 303.605 110.486 305.189 84.1819" stroke="white" stroke-width="2" stroke-linecap="round" stroke-linejoin="round"/>
<path d="M333.495 164.414C333.495 164.414 337.056 148.749 339.983 142.347C342.909 135.946 359.89 88.3437 363.886 73.178" stroke="white" stroke-width="2" stroke-linecap="round" stroke-linejoin="round"/>
<path d="M301.811 151.284L307.036 164.844" stroke="white" stroke-width="2" stroke-linecap="round" stroke-linejoin="round"/>
<path d="M346.382 186.701L322.216 197.812" stroke="white" stroke-width="2" stroke-linecap="round" stroke-linejoin="round"/>
<path d="M301.811 174.708L321.96 197.72" stroke="white" stroke-width="2" stroke-linecap="round" stroke-linejoin="round"/>
<path d="M328.542 175.07C326.142 186.626 326.158 190.976 322.216 197.684" stroke="white" stroke-width="2" stroke-linecap="round" stroke-linejoin="round"/>
<path d="M268.352 244.302L267.439 249.07" stroke="white" stroke-width="2" stroke-linecap="round" stroke-linejoin="round"/>
<path d="M274.98 225.764L272.81 230.876" stroke="white" stroke-width="2" stroke-linecap="round" stroke-linejoin="round"/>
<path d="M312.551 205.126C313.474 200.433 318.012 197.124 321.911 198.027C326.111 198.999 329.01 204.127 327.115 208.95" stroke="white" stroke-width="2" stroke-linecap="round" stroke-linejoin="round"/>
<path d="M201.981 235.564C196.424 233.499 190.587 232.286 184.667 231.966L178.658 207.917C178.577 207.434 178.502 206.956 178.427 206.478C186.273 206.778 193.964 208.756 200.982 212.278C203.153 213.387 205.245 214.643 207.244 216.037L217.222 196.538C213.409 193.368 209.232 190.664 204.779 188.482C198.765 185.533 192.305 183.597 185.661 182.752C181.43 182.243 177.157 182.198 172.917 182.618C171.761 177.903 170.604 173.184 169.448 168.462L150.324 172.812L153.761 187.5C148.165 189.256 137.011 193.675 128.779 204.416C126.555 207.321 123.022 212.036 121.523 219.27C120.359 224.908 120.668 230.751 122.42 236.235C123.66 240.15 125.632 243.795 128.231 246.976C134.756 254.725 143.536 256.851 150.002 258.414C156.202 259.901 162.604 260.364 168.954 259.784L174.399 284.353C167.268 284.966 160.093 283.89 153.455 281.211C148.945 279.369 144.764 276.807 141.077 273.623L130.642 291.882C138.184 298.927 147.458 303.847 157.52 306.14C164.82 307.757 172.363 307.939 179.732 306.677C180.881 311.653 182.029 316.632 183.174 321.612L204.655 316.295L201.02 300.834C201.981 300.496 203.383 299.975 205.037 299.255C209.618 297.252 218.731 293.402 224.423 285.717C225.836 283.816 233.333 273.242 230.615 260.906C227.076 244.946 209.145 238.243 201.981 235.564ZM158.885 229.742C158.589 229.699 158.294 229.646 158.009 229.587C157.505 229.486 157.008 229.354 156.522 229.189C155.667 228.934 154.88 228.492 154.218 227.895C153.555 227.297 153.034 226.56 152.693 225.736C152.497 225.268 152.346 224.782 152.241 224.286C151.785 222.409 152.064 220.428 153.02 218.749C154.121 216.854 156.119 215.232 158.927 213.798C159.013 214.222 159.094 214.63 159.18 215.038C159.717 217.788 160.254 220.344 160.791 222.858C161.274 225.242 161.752 227.6 162.257 230.075L161.398 230.016C160.556 229.967 159.717 229.876 158.885 229.742V229.742ZM197.518 275.331C196.788 276.018 195.966 276.738 195.053 277.479C194.984 277.119 194.914 276.759 194.839 276.405L191.616 260.138C195.794 261.921 198.651 263.521 200.263 265.159C200.484 265.378 200.69 265.611 200.88 265.857C201 266.007 201.11 266.165 201.208 266.33C202.738 268.897 201.439 271.636 197.518 275.331Z" stroke="white" stroke-width="2" stroke-linecap="round" stroke-linejoin="round"/>
<path d="M207.868 233.684C202.314 231.617 196.478 230.403 190.56 230.086L184.55 206.038C184.47 205.555 184.395 205.077 184.314 204.599C192.16 204.899 199.851 206.877 206.869 210.399C209.04 211.508 211.132 212.764 213.131 214.158L223.114 194.648C219.303 191.477 215.125 188.772 210.671 186.592C204.658 183.643 198.198 181.707 191.553 180.862C187.323 180.353 183.05 180.308 178.81 180.728L175.346 166.572L156.222 170.922L159.67 185.599C154.074 187.355 142.915 191.775 134.687 202.515C132.464 205.421 128.93 210.136 127.427 217.37C126.267 223.008 126.578 228.85 128.329 234.334C129.57 238.248 131.54 241.892 134.134 245.075C140.664 252.824 149.445 254.951 155.911 256.514C162.109 258.003 168.509 258.466 174.857 257.883C176.672 266.074 178.489 274.264 180.308 282.452C173.177 283.065 166.001 281.989 159.364 279.31C154.854 277.469 150.673 274.906 146.985 271.722L136.551 289.981C144.1 297.021 153.38 301.935 163.445 304.223C170.744 305.84 178.288 306.022 185.657 304.76C186.799 309.74 187.944 314.718 189.094 319.695L210.575 314.378L206.891 298.912C207.852 298.574 209.254 298.053 210.908 297.333C215.489 295.33 224.602 291.485 230.295 283.795C231.702 281.894 239.204 271.319 236.486 258.984C232.969 243.066 215.059 236.364 207.868 233.684ZM164.777 227.863C164.476 227.82 164.186 227.766 163.902 227.707C163.397 227.605 162.898 227.472 162.409 227.31C161.554 227.056 160.768 226.614 160.106 226.016C159.445 225.419 158.925 224.681 158.585 223.857C158.39 223.389 158.239 222.903 158.134 222.407C157.678 220.53 157.956 218.549 158.913 216.87C159.987 214.974 162.006 213.353 164.82 211.919C164.906 212.343 164.986 212.751 165.072 213.159C165.609 215.909 166.146 218.465 166.657 220.978C167.14 223.363 167.623 225.72 168.123 228.196L167.269 228.137C166.415 228.073 165.572 227.987 164.777 227.863ZM203.406 273.451C202.675 274.139 201.853 274.858 200.941 275.6C200.871 275.24 200.796 274.88 200.726 274.525L197.504 258.259C201.682 260.042 204.539 261.642 206.15 263.28C206.37 263.5 206.576 263.733 206.767 263.978C206.884 264.13 206.994 264.288 207.095 264.451C208.615 267.018 207.331 269.757 203.406 273.451Z" fill="#232323" stroke="white" stroke-width="2" stroke-linecap="round" stroke-linejoin="round"/>
<path d="M184.201 305.239L191.279 303.51" stroke="white" stroke-width="2" stroke-linecap="round" stroke-linejoin="round"/>
<path d="M175.071 181.431L178.744 180.502" stroke="white" stroke-width="2" stroke-linecap="round" stroke-linejoin="round"/>
<path d="M116.4 -126.608L98.5496 -123.267L77.9062 -117.677L52.0537 -108.445C33.0859 -101.684 17.2758 -87.9738 8.36108 -69.9189C8.1409 -69.4785 7.92072 -69.0274 7.71128 -68.5763C0.494348 -53.1421 -1.73016 -35.8416 1.3475 -19.0837C9.48884 10.8019 21.7546 31.2735 30.884 43.9366C43.0101 60.8047 59.411 75.3259 91.724 103.681C107.926 117.902 121.545 129.281 130.771 136.869L176.924 130.747L187.487 115.565C196.928 101.903 206.578 86.7539 216.041 70.0845C227.345 50.1763 237.511 29.6432 246.49 8.584C252.977 -5.02597 256.582 -19.8295 257.08 -34.8982C257.577 -49.967 254.955 -64.9759 249.379 -78.9839C242.398 -93.1292 227.614 -116.769 201.358 -125.99C190.978 -129.631 181.359 -130.125 169.615 -130.727C151.773 -131.642 133.888 -130.257 116.4 -126.608Z" fill="url(#paint0_linear_58_4788)"/>
<path d="M125.665 -127.94C125.665 -127.94 139.091 -117.629 147.512 -62.3311C157.806 5.40971 157.806 119.829 157.806 119.829" stroke="#232323" stroke-width="2" stroke-linecap="round" stroke-linejoin="round"/>
<path d="M161.108 -130.464C161.108 -130.464 196.504 -112.038 203.244 -73.1683C209.983 -34.2982 199.893 36.4768 198.41 41.2188C196.928 45.9607 175.63 120.865 175.63 120.865" stroke="#232323" stroke-width="2" stroke-linecap="round" stroke-linejoin="round"/>
<path d="M76.7991 -117.312C76.7991 -117.312 45.8287 -100.621 57.3426 -54.4472C68.8565 -8.2735 99.7302 77.157 132.988 125.006" stroke="#232323" stroke-width="2" stroke-linecap="round" stroke-linejoin="round"/>
<path d="M131.035 136.863L155.491 157.743" stroke="white" stroke-width="2" stroke-linecap="round" stroke-linejoin="round"/>
<path d="M176.935 130.742L164.868 156.042" stroke="white" stroke-width="2" stroke-linecap="round" stroke-linejoin="round"/>
<path d="M158.423 133.717L160.141 155.439" stroke="white" stroke-width="2" stroke-linecap="round" stroke-linejoin="round"/>
<path d="M154.018 171.348C150.554 159.904 157.24 155.93 161.117 155.72C164.801 155.521 171.117 159.377 171.568 166.998" stroke="white" stroke-width="2" stroke-linecap="round" stroke-linejoin="round"/>
<path d="M184.802 119.792L120.832 128.647C123.785 130.752 127.276 133.873 130.724 136.993L177.01 131.789C179.437 127.455 181.865 123.121 184.802 119.792Z" fill="#232323" stroke="white" stroke-width="2" stroke-linecap="round" stroke-linejoin="round"/>
<path d="M39.2034 54.2742C76.1628 56.4869 113.252 53.6887 149.461 45.9556C181.852 39.0353 213.286 28.2159 243.075 13.7339" stroke="#232323" stroke-width="2" stroke-linecap="round" stroke-linejoin="round"/>
<path d="M50.481 24.1309L66.1031 54.2743" stroke="#232323" stroke-width="2" stroke-linecap="round" stroke-linejoin="round"/>
<defs>
<linearGradient id="paint0_linear_58_4788" x1="0.00563343" y1="2.9158" x2="256.004" y2="2.24445" gradientUnits="userSpaceOnUse">
<stop stop-color="#FEC45D"/>
<stop offset="1" stop-color="#F8B8F0"/>
</linearGradient>
</defs>
</svg>
