<svg width="66" height="15" viewBox="0 0 66 15" fill="none" xmlns="http://www.w3.org/2000/svg">
<path fill-rule="evenodd" clip-rule="evenodd" d="M15.3232 1.61148C14.3435 2.86296 14.1936 3.22296 14.6519 3.22296C15.106 3.22296 15.1964 3.43248 15.0443 4.13305C14.9357 4.63381 14.6707 6.08956 14.4554 7.36895C14.2397 8.64794 13.9621 9.69476 13.8379 9.69476C13.714 9.69476 12.7251 8.2115 11.6409 6.39859C10.441 4.39233 9.61168 3.32408 9.52119 3.6683C9.20336 4.88257 7.70695 13.3853 7.70695 13.9775C7.70695 14.3953 7.94857 14.5616 8.43018 14.4758C9.03925 14.3666 9.23806 13.8889 9.69373 11.4377C9.99113 9.83795 10.2882 8.3288 10.3537 8.08409C10.4189 7.83937 11.412 9.2207 12.5601 11.1541C14.9652 15.2039 14.6117 15.5299 15.9819 7.99955C16.6403 4.38181 16.9731 3.24116 17.3976 3.1457C17.9045 3.03163 17.8935 2.88966 17.2688 1.51036L16.5852 0L15.3232 1.61148ZM45.6499 3.14368C45.1407 3.65819 44.7016 5.00189 44.1629 7.69416C43.2581 12.2155 43.2071 13.4638 43.8915 14.3176C44.3306 14.8649 45.6554 14.9531 53.441 14.9531C64.4406 14.9531 63.7793 15.29 64.9689 9.07791C65.8906 4.2637 65.9091 3.87135 65.2504 3.04943C64.811 2.50176 63.4731 2.41398 55.5565 2.41398C47.1882 2.41398 46.3086 2.4787 45.6499 3.14368ZM1.08729 8.17793C0.59725 10.9034 0.123421 13.4585 0.0339092 13.8565C-0.114953 14.5199 0.122448 14.57 2.89732 14.4633C5.75553 14.3528 5.92904 14.2958 6.02699 13.4363C6.12525 12.5731 6.02245 12.5262 4.04086 12.5262H1.95128L2.165 11.2116C2.37257 9.93624 2.43678 9.89093 4.31037 9.69476C5.81391 9.53741 6.26568 9.33557 6.34968 8.78466C6.44179 8.17752 6.19433 8.07681 4.61199 8.07681C2.85645 8.07681 2.77602 8.03231 2.96218 7.16671C3.06953 6.66596 3.15969 6.02929 3.16196 5.751C3.1652 5.39991 3.79989 5.24539 5.23987 5.24539C7.27334 5.24539 7.70695 4.95538 7.70695 3.59428C7.70695 3.39001 6.41779 3.22296 4.84258 3.22296H1.97787L1.08729 8.17793ZM18.6258 3.49275C18.5068 3.64079 18.4095 4.09584 18.4095 4.50397C18.4095 5.1014 18.6657 5.24539 19.7285 5.24539C20.8344 5.24539 21.0199 5.35986 20.8752 5.95325C20.6742 6.77881 19.3824 14.0373 19.3824 14.3419C19.3824 14.4556 19.7353 14.5486 20.1666 14.5486C20.8944 14.5486 21.0011 14.2655 21.651 10.6049C22.036 8.43559 22.4203 6.35248 22.5046 5.97549C22.6113 5.4986 23.0728 5.25227 24.0202 5.16652C25.1494 5.06418 25.4001 4.88742 25.4861 4.13305C25.5876 3.23914 25.5289 3.22296 22.2157 3.22296C20.3602 3.22296 18.7445 3.3443 18.6258 3.49275ZM26.6822 7.97569C26.2028 10.5899 25.7352 13.1378 25.6424 13.6385C25.5023 14.3961 25.6103 14.5486 26.2878 14.5486C26.9961 14.5486 27.1518 14.2869 27.4904 12.5262C27.8264 10.78 27.9882 10.5037 28.6757 10.5037C29.3254 10.5037 29.5965 10.8767 30.1462 12.5262C30.6862 14.1465 30.9726 14.5486 31.5875 14.5486C32.4956 14.5486 32.5228 14.2788 31.8336 12.1306L31.3121 10.5054L32.3016 9.35256C34.2232 7.11372 33.9871 4.41053 31.8035 3.65414C31.126 3.41954 29.8923 3.2266 29.0627 3.22538L27.5539 3.22296L26.6822 7.97569ZM36.4292 3.587C36.2807 3.88672 35.6217 7.23992 34.4515 13.6539C34.2835 14.5729 34.3033 14.5785 37.2916 14.4629C40.1326 14.3528 40.3068 14.2954 40.4047 13.4363C40.503 12.5731 40.4002 12.5262 38.4186 12.5262H36.329L36.5427 11.2116C36.7503 9.93624 36.8145 9.89093 38.6881 9.69476C40.1916 9.53741 40.6434 9.33557 40.7274 8.78466C40.8195 8.17752 40.5721 8.07681 38.9897 8.07681C37.2342 8.07681 37.1538 8.03231 37.3399 7.16671C37.4473 6.66596 37.5374 6.02929 37.5397 5.751C37.5429 5.39991 38.1776 5.24539 39.6176 5.24539C41.6511 5.24539 42.0847 4.95538 42.0847 3.59428C42.0847 3.11375 36.667 3.10687 36.4292 3.587ZM31.6439 6.52074C31.7688 7.86607 30.7063 8.88578 29.1801 8.88578C28.2989 8.88578 28.127 8.75271 28.2639 8.17793C28.3566 7.78881 28.5301 6.96002 28.6495 6.3367C28.8489 5.29434 28.9735 5.21344 30.2052 5.32548C31.3832 5.43308 31.5563 5.57667 31.6439 6.52074Z" fill="white"/>
</svg>
