<svg width="35" height="35" viewBox="0 0 35 35" fill="none" xmlns="http://www.w3.org/2000/svg">
<path fill-rule="evenodd" clip-rule="evenodd" d="M0.896127 0.0722938C0.379306 0.267437 0.0360519 0.742872 0.000215434 1.31324C-0.0107322 1.48758 0.391737 4.64854 2.08486 17.6857C3.23887 26.5718 4.19676 33.8975 4.21352 33.9651C4.32756 34.4249 4.69188 34.8163 5.13444 34.9544C5.39045 35.0344 5.79081 35.0065 6.03462 34.8917C6.21326 34.8077 6.62574 34.3653 17.9941 22.0666C24.47 15.0606 29.7965 9.31311 29.8308 9.29438C29.9768 9.21451 30.1618 9.30352 30.1939 9.469C30.2029 9.51548 29.9931 11.2459 29.7276 13.3145C29.2865 16.7518 29.2396 17.0816 29.1824 17.1475C29.1045 17.2373 28.98 17.2692 28.8935 17.2214C28.8573 17.2015 28.4359 16.7631 27.9571 16.2472C27.0262 15.2444 27.0328 15.2498 26.852 15.3535C26.7199 15.4292 24.4856 17.8774 24.465 17.969C24.4547 18.0145 24.4552 18.0839 24.466 18.1233C24.4769 18.1627 25.3876 19.1741 26.49 20.3708C27.5923 21.5675 28.5021 22.5755 28.5117 22.6107C28.525 22.66 27.9959 26.9586 27.9141 27.4649C27.8898 27.6153 27.7852 27.716 27.6533 27.716C27.5482 27.716 27.4697 27.6341 24.5943 24.525C22.9713 22.77 21.6137 21.3177 21.5775 21.2978C21.4204 21.2115 21.385 21.2431 20.1802 22.5419C19.548 23.2234 19.0124 23.8186 18.9899 23.8644C18.8879 24.0729 18.5772 23.7173 23.8599 29.4377C28.5877 34.5572 28.7785 34.7596 28.9813 34.8688C29.172 34.9716 29.2183 34.9834 29.4715 34.9944C29.9109 35.0135 30.2302 34.8831 30.5148 34.5682C30.6445 34.4247 30.7851 34.1605 30.8356 33.9657C30.8799 33.7943 35 1.56671 35 1.39114C35 0.796696 34.5892 0.227532 34.0326 0.0507518C33.6992 -0.0551371 33.264 0.00840858 32.9664 0.206483C32.901 0.25003 27.1449 6.45748 20.1749 14.0008C12.2833 22.5418 7.48088 27.7174 7.44545 27.7196C7.32562 27.7271 7.27219 27.7088 7.2046 27.6373C7.13692 27.5656 7.09803 27.281 5.97284 18.6201C5.33383 13.7014 4.81043 9.6309 4.80971 9.57461C4.80795 9.43348 4.85316 9.3553 4.96617 9.30419C5.03807 9.27167 5.08238 9.2688 5.14205 9.29281C5.18706 9.31092 7.00999 11.2599 9.32742 13.7676C13.4064 18.1816 13.4338 18.2104 13.5465 18.2104C13.6579 18.2104 13.681 18.1875 14.8648 16.9061C16.0493 15.6238 16.0697 15.5996 16.0697 15.4787C16.0697 15.3561 16.0433 15.3271 9.07773 7.78996C2.34207 0.50162 2.07844 0.220526 1.8862 0.12189C1.70634 0.0295802 1.6571 0.0185006 1.38729 0.00967394C1.13167 0.00131023 1.05991 0.0104455 0.896127 0.0722938Z" fill="white"/>
</svg>
