<svg width="52" height="52" viewBox="0 0 52 52" fill="none" xmlns="http://www.w3.org/2000/svg">
<path fill-rule="evenodd" clip-rule="evenodd" d="M0 25.7924V51.5849H25.7924H51.5849V25.7924V0H25.7924H0V25.7924ZM20.906 12.2918C21.267 13.0255 21.4439 13.2869 21.5568 13.2536C22.5441 12.9622 27.2604 12.8858 29.1172 13.1312C29.6991 13.208 30.1752 13.266 30.1753 13.2599C30.1755 13.2538 30.3905 12.8068 30.6533 12.2665C31.2127 11.1161 31.0747 11.1624 32.8216 11.5393C34.9888 12.0069 38.47 13.1671 39.1634 13.6529C39.4021 13.8201 40.6754 15.8227 41.437 17.2285C43.3391 20.7399 44.6356 24.9844 45.0335 29.002C45.1497 30.1758 45.1713 33.5145 45.0704 34.7085L45.004 35.4941L43.6347 36.3916C41.9964 37.4654 38.9635 38.9869 37.0541 39.6927C34.9568 40.468 35.1872 40.4999 34.4225 39.3299C33.7378 38.2824 32.9972 36.9837 33.0599 36.9406C33.0802 36.9266 33.5503 36.7242 34.1045 36.4909C35.1972 36.0307 36.1699 35.508 36.1699 35.3808C36.1699 35.3368 36.0317 35.1989 35.863 35.0741L35.5561 34.8472L34.4137 35.3043C28.822 37.5416 22.768 37.5422 17.0979 35.3061C15.9446 34.8512 15.8419 34.8471 15.4851 35.2413C15.3094 35.4355 15.3245 35.4493 16.1915 35.8902C16.6787 36.1379 17.3834 36.4677 17.7575 36.6229C18.1458 36.7842 18.4376 36.9668 18.4376 37.0486C18.4376 37.4203 16.5626 40.3007 16.3206 40.3007C16.075 40.3007 14.2694 39.6676 13.0977 39.1707C11.1399 38.3404 8.85033 37.0833 7.28898 35.9816L6.56831 35.473L6.49506 34.4967C6.38393 33.0137 6.50624 28.9304 6.69858 27.7067C7.43346 23.0302 8.86847 19.1623 11.3797 15.0889L12.2276 13.7134L12.9397 13.4075C14.7941 12.6109 16.7311 11.9882 18.7902 11.5271C20.4392 11.1577 20.3284 11.1177 20.906 12.2918ZM18.3129 23.6277C16.2759 24.3759 15.3188 27.0156 16.3448 29.056C16.6496 29.6621 17.3968 30.3958 18.022 30.7029C18.8057 31.0877 19.957 31.1009 20.7045 30.7336C21.3805 30.4013 22.0648 29.6973 22.4242 28.9639C22.6964 28.4087 22.7195 28.275 22.7195 27.2512C22.7195 26.2 22.7019 26.1051 22.3889 25.4694C21.7724 24.2171 20.6131 23.4675 19.3153 23.4822C18.9711 23.4861 18.52 23.5516 18.3129 23.6277ZM31.2698 23.5849C30.3619 23.848 29.3758 24.8783 29.0175 25.9379C27.9721 29.0298 30.9335 32.056 33.6549 30.677C36.4563 29.2574 36.2634 24.7748 33.3534 23.6691C32.8088 23.4622 31.8297 23.4226 31.2698 23.5849Z" fill="url(#paint0_linear_58_5643)"/>
<defs>
<linearGradient id="paint0_linear_58_5643" x1="25.7924" y1="0" x2="25.7924" y2="51.5849" gradientUnits="userSpaceOnUse">
<stop stop-color="#FEC45D"/>
<stop offset="1" stop-color="#F8B8F0"/>
</linearGradient>
</defs>
</svg>
