<svg width="182" height="38" viewBox="0 0 182 38" fill="none" xmlns="http://www.w3.org/2000/svg">
<path fill-rule="evenodd" clip-rule="evenodd" d="M69.9022 7.57151L62.5785 15.1427L63.7878 16.4013C65.4489 18.1306 66.7139 18.7191 68.77 18.7191C70.4664 18.7191 70.6266 18.6165 73.8429 15.4691L77.1641 12.2191V25.0159V37.8126H78.3022C79.7952 37.8126 82.2388 36.5431 83.593 35.0639C85.2204 33.286 85.7749 30.8757 85.7749 25.5771V20.9654H88.9017C91.5295 20.9654 92.2319 20.8299 93.3007 20.1156C95.1079 18.9086 95.9218 17.1104 95.7979 14.6009L95.696 12.5418L90.7355 12.4374L85.7749 12.3329V10.507V8.68118L91.1274 8.5524C95.5077 8.44682 96.6668 8.30081 97.5099 7.74822C99.2377 6.61497 99.9985 4.96244 99.9999 2.33989L100.001 0H88.6138H77.2259L69.9022 7.57151ZM0.114187 18.6255L0.228374 29.7634L1.35152 31.809C3.50685 35.7348 7.37722 37.6228 13.1446 37.5618C18.6828 37.5034 22.7468 35.2713 24.6183 31.2609C25.4708 29.4347 25.4921 29.1221 25.4955 18.4383L25.4992 7.48765H21.7554H18.0116L18.0108 17.5024C18.0104 26.2869 17.93 27.6781 17.3556 28.8275C15.5942 32.3538 9.88783 32.3036 8.27386 28.7481C7.61196 27.2899 7.54457 26.242 7.53708 17.3152L7.52884 7.48765H3.76442H0L0.114187 18.6255ZM29.9918 22.2758V37.0639H33.7289H37.4656L37.5663 28.3595L37.6667 19.6551L43.6568 28.3554L49.6469 37.056L52.9228 37.0598L56.1986 37.0639V22.2758V7.48765H52.4548H48.711V15.9113C48.711 20.5442 48.5844 24.3311 48.4302 24.3266C48.2759 24.3221 45.5426 20.5315 42.3566 15.903L36.5637 7.48765H33.2778H29.9918V22.2758ZM106.366 22.2758V37.0639H116.661H126.957V34.0688V31.0738H120.593H114.228V28.0787V25.0836H120.218H126.208V22.2758V19.4679H120.218H114.228V16.4728V13.4778H120.593H126.957V10.4827V7.48765H116.661H106.366V22.2758ZM131.075 22.2758V37.0639H141.184H151.292V34.0688V31.0738H144.927H138.563V28.0787V25.0836H144.553H150.543V22.2851V19.487L144.647 19.3837L138.75 19.2807L138.641 16.3792L138.531 13.4778H144.912H151.292V10.4827V7.48765H141.184H131.075V22.2758ZM155.785 22.2758V37.1271L163.927 36.9748C173.196 36.8014 174.43 36.527 177.297 34.0037C179.478 32.0838 180.687 30.0094 181.408 26.9503C182.876 20.7228 181.568 14.6107 178.005 11.0477C175.11 8.15256 173.409 7.73212 163.927 7.56665L155.785 7.42438V22.2758ZM171.06 14.6949C173.293 16.1726 174.284 18.5188 174.26 22.2746C174.221 28.4909 171.786 31.0183 165.799 31.0573L163.272 31.0738V22.229V13.3838L166.426 13.5493C169.032 13.6863 169.837 13.8851 171.06 14.6949Z" fill="white"/>
</svg>
