<svg width="203" height="37" viewBox="0 0 203 37" fill="none" xmlns="http://www.w3.org/2000/svg">
<path fill-rule="evenodd" clip-rule="evenodd" d="M47.2476 3.984C44.2266 7.078 43.7646 7.968 45.1776 7.968C46.5776 7.968 46.8566 8.486 46.3876 10.218C46.0526 11.456 45.2356 15.055 44.5716 18.218C43.9066 21.38 43.0506 23.968 42.6676 23.968C42.2856 23.968 39.2366 20.301 35.8936 15.819C32.1936 10.859 29.6366 8.218 29.3576 9.069C28.3776 12.071 23.7636 33.092 23.7636 34.556C23.7636 35.589 24.5086 36 25.9936 35.788C27.8716 35.518 28.4846 34.337 29.8896 28.277C30.8066 24.322 31.7226 20.591 31.9246 19.986C32.1256 19.381 35.1876 22.796 38.7276 27.576C46.1436 37.588 45.0536 38.394 49.2786 19.777C51.3086 10.833 52.3346 8.013 53.6436 7.777C55.2066 7.495 55.1726 7.144 53.2466 3.734L51.1386 0L47.2476 3.984ZM140.757 7.772C139.187 9.044 137.833 12.366 136.172 19.022C133.382 30.2 133.225 33.286 135.335 35.397C136.689 36.75 140.774 36.968 164.78 36.968C198.696 36.968 196.657 37.801 200.325 22.443C203.167 10.541 203.224 9.571 201.193 7.539C199.838 6.185 195.713 5.968 171.303 5.968C145.5 5.968 142.788 6.128 140.757 7.772ZM3.35256 20.218C1.84156 26.956 0.380555 33.273 0.104555 34.257C-0.354445 35.897 0.377556 36.021 8.93356 35.757C17.7466 35.484 18.2816 35.343 18.5836 33.218C18.8866 31.084 18.5696 30.968 12.4596 30.968H6.01656L6.67556 27.718C7.31556 24.565 7.51356 24.453 13.2906 23.968C17.9266 23.579 19.3196 23.08 19.5786 21.718C19.8626 20.217 19.0996 19.968 14.2206 19.968C8.80756 19.968 8.55956 19.858 9.13356 17.718C9.46456 16.48 9.74256 14.906 9.74956 14.218C9.75956 13.35 11.7166 12.968 16.1566 12.968C22.4266 12.968 23.7636 12.251 23.7636 8.886C23.7636 8.381 19.7886 7.968 14.9316 7.968H6.09856L3.35256 20.218ZM57.4306 8.635C57.0636 9.001 56.7636 10.126 56.7636 11.135C56.7636 12.612 57.5536 12.968 60.8306 12.968C64.2406 12.968 64.8126 13.251 64.3666 14.718C63.7466 16.759 59.7636 34.704 59.7636 35.457C59.7636 35.738 60.8516 35.968 62.1816 35.968C64.4256 35.968 64.7546 35.268 66.7586 26.218C67.9456 20.855 69.1306 15.705 69.3906 14.773C69.7196 13.594 71.1426 12.985 74.0636 12.773C77.5456 12.52 78.3186 12.083 78.5836 10.218C78.8966 8.008 78.7156 7.968 68.4996 7.968C62.7786 7.968 57.7966 8.268 57.4306 8.635ZM82.2716 19.718C80.7936 26.181 79.3516 32.48 79.0656 33.718C78.6336 35.591 78.9666 35.968 81.0556 35.968C83.2396 35.968 83.7196 35.321 84.7636 30.968C85.7996 26.651 86.2986 25.968 88.4186 25.968C90.4216 25.968 91.2576 26.89 92.9526 30.968C94.6176 34.974 95.5006 35.968 97.3966 35.968C100.197 35.968 100.281 35.301 98.1556 29.99L96.5476 25.972L99.5986 23.122C105.524 17.587 104.796 10.904 98.0626 9.034C95.9736 8.454 92.1696 7.977 89.6116 7.974L84.9596 7.968L82.2716 19.718ZM112.326 8.868C111.868 9.609 109.836 17.899 106.228 33.756C105.71 36.028 105.771 36.042 114.985 35.756C123.745 35.484 124.282 35.342 124.584 33.218C124.887 31.084 124.57 30.968 118.46 30.968H112.017L112.676 27.718C113.316 24.565 113.514 24.453 119.291 23.968C123.927 23.579 125.32 23.08 125.579 21.718C125.863 20.217 125.1 19.968 120.221 19.968C114.808 19.968 114.56 19.858 115.134 17.718C115.465 16.48 115.743 14.906 115.75 14.218C115.76 13.35 117.717 12.968 122.157 12.968C128.427 12.968 129.764 12.251 129.764 8.886C129.764 7.698 113.059 7.681 112.326 8.868ZM97.5706 16.121C97.9556 19.447 94.6796 21.968 89.9736 21.968C87.2566 21.968 86.7266 21.639 87.1486 20.218C87.4346 19.256 87.9696 17.207 88.3376 15.666C88.9526 13.089 89.3366 12.889 93.1346 13.166C96.7666 13.432 97.3006 13.787 97.5706 16.121Z" fill="white"/>
</svg>
