<svg width="79" height="73" viewBox="0 0 79 73" fill="none" xmlns="http://www.w3.org/2000/svg">
<path fill-rule="evenodd" clip-rule="evenodd" d="M2.02269 0.150737C0.856149 0.557622 0.0813743 1.54894 0.000486264 2.73819C-0.0242242 3.1017 0.884205 9.6925 4.70583 36.8759C7.31059 55.4039 9.47268 70.6785 9.51052 70.8195C9.76792 71.7781 10.5903 72.5942 11.5892 72.8822C12.167 73.0489 13.0707 72.9907 13.621 72.7514C14.0242 72.5762 14.9552 71.6539 40.6152 46.0102C55.2323 31.4023 67.255 19.4184 67.3323 19.3794C67.6618 19.2128 68.0795 19.3984 68.1519 19.7435C68.1722 19.8404 67.6987 23.4485 67.0995 27.7615C66.1039 34.9287 65.998 35.6163 65.8689 35.7537C65.6931 35.9409 65.4119 36.0073 65.2168 35.9078C65.1351 35.8661 64.1839 34.952 63.1032 33.8765C61.002 31.7855 61.017 31.7967 60.6088 32.013C60.3107 32.1708 55.2676 37.2754 55.2209 37.4665C55.1978 37.5613 55.1989 37.7061 55.2233 37.7882C55.2478 37.8704 57.3036 39.9792 59.7917 42.4743C62.2798 44.9695 64.3333 47.0713 64.3549 47.1448C64.3851 47.2475 63.1907 56.2103 63.0061 57.266C62.9513 57.5797 62.7153 57.7897 62.4175 57.7897C62.1802 57.7897 62.003 57.6189 55.5129 51.1362C51.8494 47.4768 48.7852 44.4488 48.7034 44.4074C48.349 44.2274 48.2689 44.2932 45.5496 47.0013C44.1225 48.4224 42.9136 49.6632 42.863 49.7588C42.6327 50.1936 41.9313 49.4521 53.8552 61.3796C64.5265 72.0539 64.9572 72.476 65.4149 72.7037C65.8454 72.9179 65.9499 72.9427 66.5214 72.9656C67.5131 73.0054 68.2338 72.7335 68.8762 72.0769C69.1689 71.7777 69.4864 71.2268 69.6003 70.8206C69.7003 70.4633 79 3.2667 79 2.90061C79 1.66116 78.0728 0.474418 76.8165 0.105821C76.0638 -0.114964 75.0817 0.0175324 74.41 0.430531C74.2624 0.521329 61.2698 13.4642 45.5377 29.1926C27.7251 47.0011 16.8854 57.7924 16.8054 57.7971C16.535 57.8127 16.4144 57.7746 16.2618 57.6254C16.109 57.4761 16.0213 56.8827 13.4816 38.8242C12.0392 28.5682 10.8578 20.081 10.8562 19.9637C10.8522 19.6694 10.9543 19.5064 11.2094 19.3998C11.3717 19.332 11.4717 19.326 11.6063 19.3761C11.7079 19.4139 15.8226 23.4776 21.0533 28.7064C30.2602 37.9098 30.3219 37.9698 30.5763 37.9698C30.8278 37.9698 30.8801 37.9221 33.552 35.2502C36.2256 32.5765 36.2716 32.5262 36.2716 32.274C36.2716 32.0185 36.2121 31.9581 20.4897 16.2426C5.28639 1.04591 4.69135 0.45981 4.25743 0.254148C3.85145 0.0616766 3.74032 0.0385749 3.13131 0.0201708C2.55435 0.00273192 2.39238 0.0217795 2.02269 0.150737Z" fill="white"/>
</svg>
