<svg width="74" height="16" viewBox="0 0 74 16" fill="none" xmlns="http://www.w3.org/2000/svg">
<path fill-rule="evenodd" clip-rule="evenodd" d="M28.4218 3.07853L25.444 6.1569L25.9357 6.66867C26.6111 7.37178 27.1254 7.61107 27.9614 7.61107C28.6512 7.61107 28.7163 7.56937 30.024 6.28964L31.3744 4.96821V10.1713V15.3744H31.8372C32.4442 15.3744 33.4378 14.8582 33.9884 14.2568C34.6501 13.5339 34.8755 12.5539 34.8755 10.3995V8.5244H36.1469C37.2153 8.5244 37.5009 8.4693 37.9355 8.17886C38.6702 7.6881 39.0012 6.95698 38.9508 5.93664L38.9094 5.09942L36.8924 5.05695L34.8755 5.01448V4.2721V3.52971L37.0518 3.47735C38.8328 3.43442 39.3041 3.37506 39.6469 3.15038C40.3494 2.6896 40.6587 2.0177 40.6593 0.951384L40.6599 0H36.0298H31.3995L28.4218 3.07853ZM0.0464277 7.57302L0.0928552 12.1016L0.54952 12.9333C1.42586 14.5295 2.99953 15.2972 5.3445 15.2724C7.59632 15.2486 9.24868 14.3411 10.0096 12.7105C10.3562 11.968 10.3649 11.8409 10.3663 7.49691L10.3678 3.04443H8.8456H7.32338L7.32308 7.11635C7.32293 10.6881 7.2902 11.2537 7.05669 11.7211C6.34049 13.1548 4.02033 13.1344 3.3641 11.6888C3.09497 11.0959 3.06757 10.6698 3.06453 7.04024L3.06118 3.04443H1.53059H0L0.0464277 7.57302ZM12.1945 9.05718V15.0699H13.714H15.2333L15.2742 11.5308L15.315 7.99163L17.7506 11.5291L20.1861 15.0667L21.5181 15.0683L22.85 15.0699V9.05718V3.04443H21.3278H19.8056V6.46941C19.8056 8.35316 19.7541 9.89287 19.6914 9.89105C19.6287 9.88922 18.5173 8.34798 17.2219 6.46606L14.8666 3.04443H13.5305H12.1945V9.05718ZM43.2477 9.05718V15.0699H47.4338H51.6199V13.8522V12.6344H49.0321H46.4444V11.4166V10.1988H48.8799H51.3154V9.05718V7.91552H48.8799H46.4444V6.69775V5.47997H49.0321H51.6199V4.2622V3.04443H47.4338H43.2477V9.05718ZM53.2943 9.05718V15.0699H57.4043H61.5143V13.8522V12.6344H58.9265H56.3388V11.4166V10.1988H58.7743H61.2099V9.06098V7.92328L58.8124 7.88127L56.4149 7.83941L56.3704 6.65969L56.326 5.47997H58.9201H61.5143V4.2622V3.04443H57.4043H53.2943V9.05718ZM63.341 9.05718V15.0957L66.6518 15.0337C70.4203 14.9632 70.9221 14.8516 72.0876 13.8257C72.9745 13.0451 73.4661 12.2016 73.7593 10.9578C74.356 8.42576 73.8242 5.9406 72.3755 4.4919C71.1985 3.31478 70.5068 3.14383 66.6518 3.07655L63.341 3.0187V9.05718ZM69.5521 5.97485C70.4599 6.57566 70.8627 7.52964 70.8531 9.05672C70.8371 11.5842 69.8469 12.6119 67.4129 12.6277L66.3854 12.6344V9.03815V5.44177L67.6677 5.50905C68.7273 5.56476 69.0546 5.64559 69.5521 5.97485Z" fill="white"/>
</svg>
