<svg width="93" height="93" viewBox="0 0 93 93" fill="none" xmlns="http://www.w3.org/2000/svg">
<path fill-rule="evenodd" clip-rule="evenodd" d="M0 46.5V93H46.5H93V46.5V0H46.5H0V46.5ZM37.6904 22.1603C38.3412 23.483 38.6602 23.9544 38.8638 23.8943C40.6437 23.369 49.1465 23.2313 52.4941 23.6736C53.5431 23.8122 54.4016 23.9166 54.4017 23.9057C54.4021 23.8946 54.7897 23.0887 55.2634 22.1147C56.2719 20.0408 56.0232 20.1241 59.1725 20.8037C63.0796 21.6467 69.3558 23.7384 70.6059 24.6141C71.0362 24.9156 73.3318 28.5259 74.7048 31.0605C78.134 37.3911 80.4715 45.0432 81.1888 52.2863C81.3983 54.4026 81.4373 60.4218 81.2553 62.5743L81.1356 63.9907L78.6669 65.6088C75.7134 67.5447 70.2455 70.2877 66.8031 71.5602C63.022 72.958 63.4374 73.0154 62.0588 70.9061C60.8244 69.0176 59.4891 66.6763 59.6021 66.5985C59.6388 66.5733 60.4863 66.2084 61.4854 65.7877C63.4554 64.9581 65.209 64.0158 65.209 63.7864C65.209 63.7072 64.96 63.4585 64.6557 63.2335L64.1024 62.8244L62.0428 63.6485C51.9619 67.682 41.0473 67.6831 30.825 63.6518C28.7457 62.8317 28.5606 62.8242 27.9174 63.535C27.6007 63.885 27.6279 63.9099 29.1909 64.7047C30.0693 65.1514 31.3397 65.7459 32.0142 66.0258C32.7142 66.3166 33.2402 66.6458 33.2402 66.7933C33.2402 67.4633 29.8599 72.6562 29.4236 72.6562C28.9809 72.6562 25.7256 71.5148 23.6133 70.619C20.0836 69.1221 15.9559 66.8557 13.141 64.8695L11.8417 63.9526L11.7096 62.1925C11.5093 59.5189 11.7298 52.1574 12.0766 49.9512C13.4014 41.5201 15.9886 34.5468 20.5159 27.203L22.0446 24.7233L23.3285 24.1718C26.6716 22.7356 30.1638 21.6131 33.876 20.7817C36.8489 20.1158 36.6491 20.0437 37.6904 22.1603ZM33.0155 42.5973C29.3431 43.9461 27.6175 48.7051 29.4674 52.3837C30.0168 53.4765 31.3639 54.7992 32.491 55.3528C33.9039 56.0467 35.9796 56.0705 37.3271 55.4082C38.546 54.8092 39.7797 53.5398 40.4276 52.2177C40.9184 51.2167 40.96 50.9756 40.96 49.13C40.96 47.2347 40.9282 47.0636 40.364 45.9177C39.2525 43.6599 37.1624 42.3085 34.8227 42.335C34.2022 42.3421 33.3888 42.4601 33.0155 42.5973ZM56.3749 42.5201C54.7381 42.9945 52.9602 44.852 52.3143 46.7623C50.4296 52.3365 55.7686 57.7922 60.6749 55.3061C65.7254 52.7468 65.3775 44.6654 60.1312 42.6719C59.1495 42.2988 57.3843 42.2275 56.3749 42.5201Z" fill="url(#paint0_linear_15_2)"/>
<defs>
<linearGradient id="paint0_linear_15_2" x1="46.5" y1="0" x2="46.5" y2="93" gradientUnits="userSpaceOnUse">
<stop stop-color="#FEC45D"/>
<stop offset="1" stop-color="#F8B8F0"/>
</linearGradient>
</defs>
</svg>
