<svg width="99" height="42" viewBox="0 0 99 42" fill="none" xmlns="http://www.w3.org/2000/svg">
<path d="M99 0H91.1584V41.1131H99V0Z" fill="white"/>
<path d="M43.7822 2.12376H51.6238V13.0516H56.5248V19.4143H51.6238L51.6238 30.9164C51.6238 34.5056 54.7005 34.696 56.4431 34.3425V41.2762C46.0541 41.2762 43.7827 38.0955 43.7822 29.2062V2.12376Z" fill="white"/>
<path d="M19.7673 16.3838C21.4588 14.5049 24.4389 12.3991 28.5891 12.3991C35.6139 12.3991 39.7797 18.4356 39.7797 23.5747V41.113H32.2648V25.043C32.2104 22.9765 30.8926 18.8434 26.0569 18.8434C22.7167 18.8434 20.7691 21.0491 19.7673 23.175V41.1129H11.9257V13.0516H19.7673V16.3838Z" fill="white"/>
<path d="M0 13.0516H7.84158V41.1129H0V13.0516Z" fill="white"/>
<path fill-rule="evenodd" clip-rule="evenodd" d="M65.4469 29.6926H87.8911V27.0822C87.891 18.973 81.3083 12.3991 73.1881 12.3991C65.0679 12.3991 58.4851 18.973 58.4851 27.0824C58.4851 35.1917 65.0679 41.7656 73.1881 41.7656C77.953 41.7656 82.189 39.4985 84.8704 35.999L79.6807 32.0332C78.1825 33.9886 75.8323 35.2397 73.1881 35.2397C69.591 35.2397 66.5369 32.9176 65.4469 29.6926ZM80.8721 24.3087C79.7355 21.1689 76.7242 18.925 73.1881 18.925C69.652 18.925 66.6407 21.1689 65.5041 24.3087H80.8721Z" fill="white"/>
</svg>
