<svg width="91" height="91" viewBox="0 0 91 91" fill="none" xmlns="http://www.w3.org/2000/svg">
<path d="M52.7784 5.92261L52.742 23.4416L52.7057 40.9607L51.0334 36.8937V36.8833L48.8643 75.884C50.997 81.0563 52.1361 83.8197 52.1482 83.8301C52.1604 83.8406 53.3722 83.9031 54.8384 83.9657C59.2736 84.1534 64.7752 84.5601 68.9559 85.0085C69.9254 85.1128 70.7494 85.1649 70.81 85.1232C70.8706 85.0815 70.8827 67.2496 70.8706 45.4864L70.8342 5.92261H52.7784V5.92261Z" fill="url(#paint0_linear_6_284)"/>
<path d="M20.116 5.87017V45.4758C20.116 67.2599 20.1402 85.1022 20.1766 85.1335C20.2129 85.1648 21.7761 85.0292 23.6666 84.852C25.557 84.6747 28.1624 84.4453 29.459 84.3514C31.4464 84.2054 37.4084 83.8822 38.087 83.8717C38.2931 83.8717 38.3052 82.9854 38.3294 67.0931L38.3658 50.3144L39.8078 53.8182C40.0259 54.3604 40.0986 54.5273 40.3168 55.0591L42.4859 16.0688C42.0254 14.953 42.2678 15.5369 41.7467 14.2647C39.9775 9.95795 38.4748 6.31857 38.4142 6.15172L38.2931 5.85974H20.116V5.87017Z" fill="url(#paint1_linear_6_284)"/>
<path d="M20.116 5.87017L38.3537 50.3454V50.3245L39.7958 53.8283C47.8059 73.339 52.1078 83.8087 52.132 83.8295C52.1441 83.84 53.3559 83.9025 54.8222 83.9651C59.2575 84.1528 64.7591 84.5595 68.9398 85.0079C69.8972 85.1122 70.7333 85.1643 70.7818 85.1226L52.7016 40.9498V40.9602L51.0293 36.8933C49.3933 32.9203 48.3027 30.2612 41.7226 14.2647C39.9533 9.95793 38.4507 6.31857 38.3901 6.15172L38.2689 5.85974H29.1924L20.116 5.87017Z" fill="#E30A17"/>
<defs>
<linearGradient id="paint0_linear_6_284" x1="79.0143" y1="65.1516" x2="50.1152" y2="77.8429" gradientUnits="userSpaceOnUse">
<stop stop-color="#B20610"/>
<stop offset="0.255959" stop-color="#B20610"/>
<stop offset="1" stop-color="#590004"/>
</linearGradient>
<linearGradient id="paint1_linear_6_284" x1="11.3524" y1="23.2368" x2="42.6059" y2="9.66989" gradientUnits="userSpaceOnUse">
<stop stop-color="#B20610"/>
<stop offset="0.255959" stop-color="#B20610"/>
<stop offset="1" stop-color="#590004"/>
</linearGradient>
</defs>
</svg>
