<svg width="44" height="14" viewBox="0 0 44 14" fill="none" xmlns="http://www.w3.org/2000/svg">
<path d="M18.7243 13.7982H15.224L17.4133 0.24585H20.9134L18.7243 13.7982Z" fill="white"/>
<path d="M31.4132 0.576978C30.7228 0.302765 29.6277 0 28.2737 0C24.817 0 22.3829 1.84533 22.3679 4.4836C22.3392 6.43012 24.1107 7.51125 25.4356 8.16028C26.7899 8.82349 27.2502 9.25637 27.2502 9.84753C27.2364 10.7554 26.1559 11.1739 25.1481 11.1739C23.7507 11.1739 23.0019 10.9582 21.8639 10.4531L21.403 10.2365L20.9132 13.2787C21.7342 13.6532 23.2467 13.9854 24.817 14C28.4898 14 30.8809 12.1832 30.9092 9.37173C30.9232 7.82897 29.9877 6.64684 27.9711 5.68087C26.7468 5.06077 25.997 4.64265 25.997 4.00819C26.0114 3.4314 26.6312 2.84063 28.0132 2.84063C29.1511 2.81169 29.9872 3.08552 30.6205 3.35954L30.9371 3.50345L31.4132 0.576978V0.576978Z" fill="white"/>
<path d="M36.0653 8.9971C36.3535 8.21853 37.4627 5.20525 37.4627 5.20525C37.4482 5.23419 37.7504 4.41232 37.9233 3.90777L38.1679 5.07553C38.1679 5.07553 38.8307 8.31952 38.9747 8.9971C38.4276 8.9971 36.7566 8.9971 36.0653 8.9971ZM40.3859 0.24585H37.6784C36.8435 0.24585 36.2092 0.490744 35.849 1.3703L30.6497 13.798H34.3225C34.3225 13.798 34.9271 12.1253 35.0571 11.7651C35.46 11.7651 39.0329 11.7651 39.5512 11.7651C39.6517 12.2409 39.9688 13.798 39.9688 13.798H43.2098L40.3859 0.24585V0.24585Z" fill="white"/>
<path d="M12.3003 0.24585L8.87238 9.48727L8.49779 7.613C7.86403 5.45034 5.87644 3.10066 3.65839 1.93233L6.79827 13.7839H10.4997L16.0016 0.24585H12.3003V0.24585Z" fill="white"/>
<path d="M5.68926 0.24585H0.057614L0 0.519679C4.39304 1.64432 7.30246 4.35521 8.49781 7.61358L7.27356 1.38505C7.072 0.519488 6.4526 0.274401 5.68926 0.24585Z" fill="white"/>
</svg>
