<svg width="44" height="14" viewBox="0 0 44 14" fill="none" xmlns="http://www.w3.org/2000/svg">
<path d="M18.7243 13.7982H15.224L17.4133 0.24585H20.9134L18.7243 13.7982Z" fill="white"/>
<path d="M31.4132 0.5771C30.7228 0.302887 29.6277 0.00012207 28.2737 0.00012207C24.817 0.00012207 22.3829 1.84546 22.3679 4.48373C22.3392 6.43024 24.1107 7.51138 25.4356 8.1604C26.7899 8.82361 27.2502 9.25649 27.2502 9.84765C27.2364 10.7556 26.1559 11.1741 25.1481 11.1741C23.7507 11.1741 23.0019 10.9583 21.8639 10.4532L21.403 10.2366L20.9132 13.2789C21.7342 13.6533 23.2467 13.9856 24.817 14.0001C28.4898 14.0001 30.8809 12.1833 30.9092 9.37185C30.9232 7.82909 29.9877 6.64696 27.9711 5.68099C26.7468 5.0609 25.997 4.64277 25.997 4.00831C26.0114 3.43152 26.6312 2.84075 28.0132 2.84075C29.1511 2.81181 29.9872 3.08564 30.6206 3.35966L30.9371 3.50357L31.4132 0.5771Z" fill="white"/>
<path d="M36.0653 8.9971C36.3536 8.21853 37.4628 5.20525 37.4628 5.20525C37.4482 5.23419 37.7505 4.41232 37.9233 3.90777L38.1679 5.07553C38.1679 5.07553 38.8308 8.31952 38.9747 8.9971C38.4277 8.9971 36.7567 8.9971 36.0653 8.9971ZM40.386 0.24585H37.6785C36.8436 0.24585 36.2093 0.490744 35.849 1.3703L30.6498 13.798H34.3225C34.3225 13.798 34.9272 12.1253 35.0572 11.7651C35.4601 11.7651 39.0329 11.7651 39.5513 11.7651C39.6517 12.2409 39.9689 13.798 39.9689 13.798H43.2098L40.386 0.24585Z" fill="white"/>
<path d="M12.3004 0.24585L8.87244 9.48727L8.49785 7.613C7.86409 5.45034 5.8765 3.10066 3.65845 1.93233L6.79833 13.7839H10.4998L16.0017 0.24585H12.3004Z" fill="white"/>
<path d="M5.68926 0.24585H0.057614L0 0.519679C4.39304 1.64432 7.30246 4.35521 8.49781 7.61358L7.27356 1.38505C7.072 0.519488 6.4526 0.274401 5.68926 0.24585Z" fill="white"/>
</svg>
