<svg width="44" height="14" viewBox="0 0 44 14" fill="none" xmlns="http://www.w3.org/2000/svg">
<path d="M18.7242 13.7982H15.2239L17.4132 0.24585H20.9133L18.7242 13.7982Z" fill="white"/>
<path d="M31.4131 0.576978C30.7226 0.302765 29.6276 0 28.2736 0C24.8169 0 22.3827 1.84533 22.3678 4.4836C22.3391 6.43012 24.1106 7.51125 25.4355 8.16028C26.7897 8.82349 27.2501 9.25637 27.2501 9.84753C27.2363 10.7554 26.1558 11.1739 25.148 11.1739C23.7505 11.1739 23.0017 10.9582 21.8638 10.4531L21.4029 10.2365L20.9131 13.2787C21.734 13.6532 23.2466 13.9854 24.8169 14C28.4897 14 30.8807 12.1832 30.9091 9.37173C30.923 7.82897 29.9876 6.64684 27.9709 5.68087C26.7467 5.06077 25.9969 4.64265 25.9969 4.00819C26.0113 3.4314 26.6311 2.84063 28.013 2.84063C29.151 2.81169 29.9871 3.08552 30.6204 3.35954L30.937 3.50345L31.4131 0.576978Z" fill="white"/>
<path d="M36.0652 8.9971C36.3535 8.21853 37.4627 5.20525 37.4627 5.20525C37.4481 5.23419 37.7504 4.41232 37.9232 3.90777L38.1678 5.07553C38.1678 5.07553 38.8307 8.31952 38.9746 8.9971C38.4276 8.9971 36.7566 8.9971 36.0652 8.9971ZM40.3859 0.24585H37.6784C36.8435 0.24585 36.2091 0.490744 35.8489 1.3703L30.6497 13.798H34.3224C34.3224 13.798 34.9271 12.1253 35.057 11.7651C35.46 11.7651 39.0328 11.7651 39.5511 11.7651C39.6516 12.2409 39.9688 13.798 39.9688 13.798H43.2097L40.3859 0.24585Z" fill="white"/>
<path d="M12.3004 0.24585L8.87244 9.48727L8.49785 7.613C7.86409 5.45034 5.8765 3.10066 3.65845 1.93233L6.79833 13.7839H10.4998L16.0017 0.24585H12.3004Z" fill="white"/>
<path d="M5.68926 0.24585H0.057614L0 0.519679C4.39304 1.64432 7.30246 4.35521 8.49781 7.61358L7.27356 1.38505C7.072 0.519488 6.4526 0.274401 5.68926 0.24585Z" fill="white"/>
</svg>
